%TF.GenerationSoftware,KiCad,Pcbnew,(6.0.5)*%
%TF.CreationDate,2022-05-28T08:22:02-07:00*%
%TF.ProjectId,Engine-Controller,456e6769-6e65-42d4-936f-6e74726f6c6c,1.0*%
%TF.SameCoordinates,Original*%
%TF.FileFunction,Soldermask,Bot*%
%TF.FilePolarity,Negative*%
%FSLAX46Y46*%
G04 Gerber Fmt 4.6, Leading zero omitted, Abs format (unit mm)*
G04 Created by KiCad (PCBNEW (6.0.5)) date 2022-05-28 08:22:02*
%MOMM*%
%LPD*%
G01*
G04 APERTURE LIST*
%ADD10O,2.200000X4.400000*%
%ADD11O,1.900000X3.800000*%
%ADD12O,3.800000X1.900000*%
%ADD13C,4.300000*%
%ADD14R,1.478000X1.478000*%
%ADD15C,1.478000*%
%ADD16C,3.366000*%
%ADD17C,1.066800*%
%ADD18C,0.950000*%
%ADD19R,2.050000X2.050000*%
%ADD20C,2.050000*%
%ADD21R,1.700000X1.700000*%
%ADD22C,1.700000*%
%ADD23R,1.008000X1.008000*%
%ADD24C,1.008000*%
%ADD25R,1.650000X1.650000*%
%ADD26C,1.650000*%
%ADD27C,0.500000*%
%ADD28R,1.258000X1.258000*%
%ADD29C,1.258000*%
%ADD30R,1.605000X1.605000*%
%ADD31C,1.605000*%
%ADD32C,1.524000*%
G04 APERTURE END LIST*
D10*
%TO.C,P1*%
X192443200Y-104546400D03*
D11*
X198398200Y-104546400D03*
D12*
X195148200Y-99856400D03*
%TD*%
D13*
%TO.C,H1*%
X91262200Y-99720400D03*
%TD*%
D14*
%TO.C,P5*%
X190574500Y-118231600D03*
D15*
X190574500Y-120731600D03*
X192574500Y-120731600D03*
X192574500Y-118231600D03*
D16*
X195284500Y-125501600D03*
X195284500Y-113461600D03*
%TD*%
D17*
%TO.C,P3*%
X175463200Y-144159350D03*
X175463200Y-145429350D03*
X174193200Y-144159350D03*
X174193200Y-145429350D03*
X172923200Y-144159350D03*
X172923200Y-145429350D03*
X171653200Y-144159350D03*
X171653200Y-145429350D03*
X170383200Y-144159350D03*
X170383200Y-145429350D03*
X169113200Y-144159350D03*
X169113200Y-145429350D03*
X167843200Y-144159350D03*
X167843200Y-145429350D03*
X166573200Y-144159350D03*
X166573200Y-145429350D03*
X165303200Y-144159350D03*
X165303200Y-145429350D03*
X164033200Y-144159350D03*
X164033200Y-145429350D03*
%TD*%
D18*
%TO.C,P4*%
X200634600Y-133810800D03*
X200634600Y-140610800D03*
%TD*%
D17*
%TO.C,P8*%
X90627200Y-137439400D03*
X89357200Y-137439400D03*
X90627200Y-136169400D03*
X89357200Y-136169400D03*
X90627200Y-134899400D03*
X89357200Y-134899400D03*
X90627200Y-133629400D03*
X89357200Y-133629400D03*
X90627200Y-132359400D03*
X89357200Y-132359400D03*
X90627200Y-131089400D03*
X89357200Y-131089400D03*
X90627200Y-129819400D03*
X89357200Y-129819400D03*
X90627200Y-128549400D03*
X89357200Y-128549400D03*
X90627200Y-127279400D03*
X89357200Y-127279400D03*
X90627200Y-126009400D03*
X89357200Y-126009400D03*
X90627200Y-124739400D03*
X89357200Y-124739400D03*
X90627200Y-123469400D03*
X89357200Y-123469400D03*
X90627200Y-122199400D03*
X89357200Y-122199400D03*
%TD*%
D13*
%TO.C,H6*%
X199263000Y-148971000D03*
%TD*%
%TO.C,H5*%
X90754200Y-148234400D03*
%TD*%
D19*
%TO.C,P7*%
X134991700Y-108682900D03*
D20*
X131031700Y-108682900D03*
%TD*%
D21*
%TO.C,P11*%
X130251200Y-146011900D03*
D22*
X126751199Y-146011900D03*
%TD*%
D23*
%TO.C,P17*%
X120061200Y-149250400D03*
D24*
X118811200Y-149250400D03*
X117561200Y-149250400D03*
X116311200Y-149250400D03*
%TD*%
D25*
%TO.C,P2*%
X99517200Y-100990400D03*
D26*
X104597200Y-100990400D03*
X109677200Y-100990400D03*
X114757200Y-100990400D03*
X119837200Y-100990400D03*
X124917200Y-100990400D03*
%TD*%
D27*
%TO.C,U14*%
X148809200Y-135804400D03*
X149809200Y-135804400D03*
X150809200Y-135804400D03*
X148809200Y-136804400D03*
X149809200Y-136804400D03*
X150809200Y-136804400D03*
X148809200Y-137804400D03*
X149809200Y-137804400D03*
X150809200Y-137804400D03*
%TD*%
D13*
%TO.C,H4*%
X188569600Y-98907600D03*
%TD*%
D28*
%TO.C,P6*%
X150492200Y-145326400D03*
D29*
X152492200Y-145326400D03*
X154492200Y-145326400D03*
X156492200Y-145326400D03*
%TD*%
D30*
%TO.C,P18*%
X182905400Y-150266400D03*
D31*
X185445400Y-150266400D03*
X187985400Y-150266400D03*
X190525400Y-150266400D03*
%TD*%
D25*
%TO.C,P10*%
X91262200Y-106705400D03*
D26*
X91262200Y-111785400D03*
%TD*%
D32*
%TO.C,TP1*%
X160604200Y-130962400D03*
%TD*%
%TO.C,TP3*%
X178003200Y-147345400D03*
%TD*%
%TO.C,TP4*%
X166573200Y-108610400D03*
%TD*%
%TO.C,TP5*%
X178003200Y-145186400D03*
%TD*%
%TO.C,TP10*%
X148793200Y-105943400D03*
%TD*%
%TO.C,TP2*%
X179908200Y-103022400D03*
%TD*%
%TO.C,TP11*%
X173164500Y-113779300D03*
%TD*%
%TO.C,TP8*%
X118440200Y-114071400D03*
%TD*%
%TO.C,TP9*%
X183083200Y-137820400D03*
%TD*%
%TO.C,TP13*%
X177114200Y-123723400D03*
%TD*%
%TO.C,TP6*%
X176733200Y-132359400D03*
%TD*%
%TO.C,TP7*%
X177495200Y-136042400D03*
%TD*%
%TO.C,TP12*%
X180670200Y-135153400D03*
%TD*%
M02*
