%TF.GenerationSoftware,KiCad,Pcbnew,5.1.10*%
%TF.CreationDate,2021-07-24T17:47:40-07:00*%
%TF.ProjectId,Engine-Controller,456e6769-6e65-42d4-936f-6e74726f6c6c,1.0*%
%TF.SameCoordinates,Original*%
%TF.FileFunction,Copper,L3,Inr*%
%TF.FilePolarity,Positive*%
%FSLAX46Y46*%
G04 Gerber Fmt 4.6, Leading zero omitted, Abs format (unit mm)*
G04 Created by KiCad (PCBNEW 5.1.10) date 2021-07-24 17:47:40*
%MOMM*%
%LPD*%
G01*
G04 APERTURE LIST*
%TA.AperFunction,ComponentPad*%
%ADD10C,1.524000*%
%TD*%
%TA.AperFunction,ComponentPad*%
%ADD11C,1.371600*%
%TD*%
%TA.AperFunction,ComponentPad*%
%ADD12R,1.371600X1.371600*%
%TD*%
%TA.AperFunction,ComponentPad*%
%ADD13O,2.200000X4.400000*%
%TD*%
%TA.AperFunction,ComponentPad*%
%ADD14O,1.900000X3.800000*%
%TD*%
%TA.AperFunction,ComponentPad*%
%ADD15O,3.800000X1.900000*%
%TD*%
%TA.AperFunction,ComponentPad*%
%ADD16C,3.366000*%
%TD*%
%TA.AperFunction,ComponentPad*%
%ADD17C,1.478000*%
%TD*%
%TA.AperFunction,ComponentPad*%
%ADD18R,1.478000X1.478000*%
%TD*%
%TA.AperFunction,ViaPad*%
%ADD19C,0.500000*%
%TD*%
%TA.AperFunction,ViaPad*%
%ADD20C,0.762000*%
%TD*%
%TA.AperFunction,ViaPad*%
%ADD21C,1.016000*%
%TD*%
%TA.AperFunction,Conductor*%
%ADD22C,0.177800*%
%TD*%
%TA.AperFunction,Conductor*%
%ADD23C,0.762000*%
%TD*%
G04 APERTURE END LIST*
D10*
%TO.N,Earth*%
%TO.C,P7*%
X133604000Y-103860600D03*
%TO.N,3.3V*%
X131064000Y-103860600D03*
%TO.N,A7*%
X128524000Y-103860600D03*
%TO.N,A6*%
X125984000Y-103860600D03*
%TO.N,A5*%
X123444000Y-103860600D03*
%TO.N,A4*%
X120904000Y-103860600D03*
%TO.N,A3*%
X118364000Y-103860600D03*
%TO.N,A2*%
X115824000Y-103860600D03*
%TO.N,A1*%
X113284000Y-103860600D03*
%TO.N,A0*%
X110744000Y-103860600D03*
%TD*%
%TO.N,PD9*%
%TO.C,P4*%
X183311800Y-103759000D03*
%TO.N,PD8*%
X180771800Y-103759000D03*
%TO.N,PD7*%
X178231800Y-103759000D03*
%TO.N,PD6*%
X175691800Y-103759000D03*
%TO.N,/Connectors/PD5_BUF*%
X173151800Y-103759000D03*
%TO.N,/Connectors/PD4_BUF*%
X170611800Y-103759000D03*
%TO.N,/Connectors/PD3_BUF*%
X168071800Y-103759000D03*
%TO.N,/Connectors/PD2_BUF*%
X165531800Y-103759000D03*
%TO.N,/Connectors/PD1_BUF*%
X162991800Y-103759000D03*
%TO.N,/Connectors/PD0_BUF*%
X160451800Y-103759000D03*
%TD*%
D11*
%TO.N,Earth*%
%TO.C,C5*%
X137617200Y-143992600D03*
D12*
%TO.N,5V_BUCK*%
X137617200Y-148996400D03*
%TD*%
D13*
%TO.N,/power/V_JACK*%
%TO.C,P1*%
X192849600Y-147142200D03*
D14*
%TO.N,Earth*%
X198804600Y-147142200D03*
D15*
X195554600Y-142452200D03*
%TD*%
D16*
%TO.N,Earth*%
%TO.C,P2*%
X196689800Y-125450400D03*
X196689800Y-137490400D03*
D17*
X193979800Y-130220400D03*
%TO.N,Net-(P2-Pad3)*%
X193979800Y-132720400D03*
D18*
%TO.N,5V_USB*%
X191979800Y-130220400D03*
D17*
%TO.N,Net-(P2-Pad2)*%
X191979800Y-132720400D03*
%TD*%
D10*
%TO.N,Net-(P3-PadA1)*%
%TO.C,P3*%
X115951000Y-136144000D03*
%TO.N,Net-(P3-PadA2)*%
X115951000Y-138684000D03*
%TO.N,Net-(P3-PadA3)*%
X115951000Y-141224000D03*
%TO.N,Earth*%
X115951000Y-143764000D03*
%TO.N,Net-(P3-PadA5)*%
X115951000Y-146304000D03*
%TO.N,Net-(P3-PadB1)*%
X113411000Y-136144000D03*
%TO.N,Net-(P3-PadB2)*%
X113411000Y-138684000D03*
%TO.N,SWCLK*%
X113411000Y-141224000D03*
%TO.N,Earth*%
X113411000Y-143764000D03*
%TO.N,SWDIO*%
X113411000Y-146304000D03*
%TD*%
%TO.N,SS*%
%TO.C,P5*%
X177723800Y-146989800D03*
%TO.N,MOSI*%
X175183800Y-146989800D03*
%TO.N,MISO*%
X172643800Y-146989800D03*
%TO.N,SCK*%
X170103800Y-146989800D03*
%TO.N,Earth*%
X167563800Y-146989800D03*
%TO.N,SDA*%
X177723800Y-149529800D03*
%TO.N,SCL*%
X175183800Y-149529800D03*
%TO.N,TX*%
X172643800Y-149529800D03*
%TO.N,RX*%
X170103800Y-149529800D03*
%TO.N,V_HEAD*%
X167563800Y-149529800D03*
%TD*%
D19*
%TO.N,Earth*%
X146558000Y-112801400D03*
X128778000Y-143433800D03*
D20*
X168249600Y-138861800D03*
D19*
X129463800Y-138582400D03*
X132842000Y-150799800D03*
X164490400Y-134416800D03*
D20*
X191058800Y-115265200D03*
X169900600Y-130606800D03*
D19*
X119888000Y-113284000D03*
X147320000Y-132537200D03*
X146380200Y-129743200D03*
X146456400Y-124663200D03*
X147497800Y-120015000D03*
X158242000Y-132969000D03*
X158953200Y-121742200D03*
D20*
X195752400Y-119969600D03*
X195722600Y-103819600D03*
D19*
X156032200Y-115646200D03*
X136804400Y-132969000D03*
X141071600Y-108585000D03*
X133592200Y-119723800D03*
X139471400Y-125247400D03*
X149123400Y-138938000D03*
%TO.N,3.3V*%
X134340600Y-141579600D03*
D20*
X191109600Y-113030000D03*
X177622200Y-123444000D03*
D19*
X188671200Y-122301000D03*
X128244600Y-130657600D03*
X148056600Y-131876800D03*
X146202400Y-130708400D03*
X146456400Y-125501400D03*
X146202400Y-119938800D03*
X159334200Y-133197600D03*
X158800800Y-120548400D03*
X165785800Y-107543600D03*
X142214600Y-112318800D03*
X128117600Y-135331200D03*
%TO.N,SWCLK*%
X149834600Y-130505200D03*
%TO.N,SWDIO*%
X151053800Y-131241800D03*
%TO.N,SS*%
X149656800Y-138049000D03*
%TO.N,MOSI*%
X151231600Y-138531600D03*
%TO.N,MISO*%
X151231600Y-139192000D03*
%TO.N,SCK*%
X141020800Y-134950200D03*
%TO.N,SDA*%
X166725600Y-130429000D03*
%TO.N,SCL*%
X165531800Y-130454400D03*
%TO.N,TX*%
X139166600Y-137007600D03*
%TO.N,RX*%
X138176000Y-136194800D03*
%TO.N,/NRST*%
X133553200Y-130708400D03*
%TO.N,/Connectors/PD2_BUF*%
X156438600Y-114935000D03*
%TO.N,/Connectors/PD3_BUF*%
X170764200Y-114096800D03*
%TO.N,/Connectors/PD5_BUF*%
X173126400Y-110083600D03*
%TO.N,PD6*%
X154076400Y-120904000D03*
%TO.N,PD7*%
X155143200Y-121843800D03*
%TO.N,PD8*%
X164134800Y-124561600D03*
X167944800Y-123317000D03*
%TO.N,PD9*%
X162712400Y-125095000D03*
X169240200Y-123545600D03*
%TO.N,A7*%
X153365200Y-129895600D03*
%TO.N,A6*%
X153035000Y-131343400D03*
%TO.N,A5*%
X152019000Y-131318000D03*
%TO.N,A4*%
X149733000Y-131572000D03*
%TO.N,A3*%
X148755600Y-129781800D03*
%TO.N,A2*%
X147167600Y-131013200D03*
%TO.N,A1*%
X146253200Y-131572000D03*
%TO.N,A0*%
X139979400Y-131064000D03*
%TO.N,SD_DETECT*%
X143183600Y-121517400D03*
X165658800Y-118465600D03*
X167538400Y-130175000D03*
X184962800Y-129057400D03*
%TO.N,FLASH_SS*%
X172339000Y-124942600D03*
%TO.N,FLASH_MISO*%
X173050200Y-127000000D03*
X151688800Y-125653800D03*
%TO.N,FLASH_SCK*%
X180162200Y-126593600D03*
X182981600Y-114935000D03*
%TO.N,FLASH_MOSI*%
X181965600Y-126542800D03*
X151790400Y-126822200D03*
X174193200Y-129082800D03*
X184810400Y-113309400D03*
%TO.N,FLASH_WP*%
X174142400Y-125399800D03*
X148793200Y-116560600D03*
%TO.N,SD_SS*%
X184785000Y-111074200D03*
X156006800Y-122605800D03*
%TO.N,PD5*%
X154940000Y-120167400D03*
X174955200Y-108788200D03*
%TO.N,PD4*%
X165760400Y-111302800D03*
X150545800Y-111429800D03*
%TO.N,PD3*%
X152857200Y-113995200D03*
X165836600Y-113893600D03*
%TO.N,FLASH_HOLD*%
X175006000Y-126720600D03*
X154000200Y-125171200D03*
%TO.N,/power/VIN*%
X191643000Y-141935200D03*
%TO.N,/power/5V*%
X130124200Y-143814800D03*
D21*
%TO.N,5V_USB*%
X127254000Y-143713200D03*
X143027400Y-140335000D03*
D19*
%TO.N,5V_SRC*%
X132740400Y-138480800D03*
%TD*%
D22*
%TO.N,SWCLK*%
X113411000Y-141224000D02*
X114706400Y-142519400D01*
X114706400Y-142519400D02*
X121996200Y-142519400D01*
X122339101Y-142176499D02*
X130365501Y-142176499D01*
X121996200Y-142519400D02*
X122339101Y-142176499D01*
X130365501Y-142176499D02*
X140258800Y-132283200D01*
X140258800Y-132283200D02*
X146634200Y-132283200D01*
X148412200Y-130505200D02*
X149834600Y-130505200D01*
X146634200Y-132283200D02*
X148412200Y-130505200D01*
%TO.N,SWDIO*%
X113411000Y-146304000D02*
X115316000Y-148209000D01*
X115316000Y-148209000D02*
X117932200Y-148209000D01*
X117932200Y-148209000D02*
X123367800Y-142773400D01*
X123367800Y-142773400D02*
X130454400Y-142773400D01*
X130454400Y-142773400D02*
X139395200Y-133832600D01*
X148463000Y-133832600D02*
X151053800Y-131241800D01*
X139395200Y-133832600D02*
X148463000Y-133832600D01*
%TO.N,SS*%
X175056800Y-144424400D02*
X177825400Y-147193000D01*
X162331400Y-144424400D02*
X175056800Y-144424400D01*
X156235400Y-138023600D02*
X162331400Y-144424400D01*
X149656800Y-138049000D02*
X156235400Y-138023600D01*
%TO.N,MOSI*%
X161823400Y-144830800D02*
X172923200Y-144830800D01*
X172923200Y-144830800D02*
X175183800Y-147091400D01*
X156006800Y-138455400D02*
X161823400Y-144830800D01*
X151231600Y-138531600D02*
X156006800Y-138455400D01*
%TO.N,MISO*%
X171018200Y-145415000D02*
X172770800Y-147167600D01*
X161213800Y-145415000D02*
X171018200Y-145415000D01*
X156591000Y-140792200D02*
X161213800Y-145415000D01*
X151460200Y-140792200D02*
X156591000Y-140792200D01*
X151282400Y-140614400D02*
X151460200Y-140792200D01*
X151231600Y-139192000D02*
X151282400Y-140614400D01*
%TO.N,SCK*%
X141046200Y-134924800D02*
X141020800Y-134950200D01*
X144195800Y-134924800D02*
X141046200Y-134924800D01*
X150850600Y-141579600D02*
X144195800Y-134924800D01*
X156210000Y-141579600D02*
X150850600Y-141579600D01*
X162915600Y-148285200D02*
X156210000Y-141579600D01*
X169976800Y-148285200D02*
X162915600Y-148285200D01*
X170180000Y-148082000D02*
X169976800Y-148285200D01*
X170180000Y-146888200D02*
X170180000Y-148082000D01*
%TO.N,SDA*%
X166725600Y-130429000D02*
X166725600Y-134239000D01*
X166725600Y-134239000D02*
X177190400Y-144703800D01*
X177190400Y-144703800D02*
X179349400Y-144703800D01*
X179349400Y-144703800D02*
X180086000Y-145440400D01*
X180086000Y-145440400D02*
X180086000Y-148996400D01*
X180086000Y-148996400D02*
X179476400Y-149606000D01*
X179476400Y-149606000D02*
X177622200Y-149606000D01*
%TO.N,SCL*%
X165531800Y-130454400D02*
X165531800Y-133934200D01*
X165531800Y-133934200D02*
X176860200Y-145262600D01*
X176860200Y-145262600D02*
X178866800Y-145262600D01*
X178866800Y-145262600D02*
X179501800Y-145897600D01*
X179501800Y-145897600D02*
X179501800Y-147523200D01*
X179501800Y-147523200D02*
X178638200Y-148386800D01*
X178638200Y-148386800D02*
X176580800Y-148386800D01*
X176580800Y-148386800D02*
X175183800Y-149783800D01*
%TO.N,TX*%
X139166600Y-137007600D02*
X142798800Y-137007600D01*
X142798800Y-137007600D02*
X153263600Y-147472400D01*
X159486600Y-147472400D02*
X162001200Y-149987000D01*
X153263600Y-147472400D02*
X159486600Y-147472400D01*
X162001200Y-149987000D02*
X163677600Y-151663400D01*
X163677600Y-151663400D02*
X170535600Y-151663400D01*
X170535600Y-151663400D02*
X172694600Y-149504400D01*
%TO.N,RX*%
X138176000Y-136194800D02*
X143586200Y-136194800D01*
X143586200Y-136194800D02*
X154101800Y-146710400D01*
X159994600Y-146710400D02*
X163271200Y-149987000D01*
X154101800Y-146710400D02*
X159994600Y-146710400D01*
X170103800Y-149529800D02*
X168808400Y-150825200D01*
X164109400Y-150825200D02*
X163271200Y-149987000D01*
X168808400Y-150825200D02*
X164109400Y-150825200D01*
%TO.N,/Connectors/PD2_BUF*%
X156438600Y-114935000D02*
X166598600Y-114935000D01*
X166598600Y-114935000D02*
X167335200Y-114198400D01*
X167335200Y-114198400D02*
X167335200Y-107899200D01*
X167335200Y-107899200D02*
X165557200Y-106121200D01*
X165557200Y-106121200D02*
X165557200Y-103530400D01*
%TO.N,/Connectors/PD3_BUF*%
X170764200Y-114096800D02*
X170764200Y-106705400D01*
X170764200Y-106705400D02*
X169494200Y-105435400D01*
X169494200Y-105435400D02*
X168452800Y-105435400D01*
X168452800Y-105435400D02*
X168122600Y-105105200D01*
X168122600Y-105105200D02*
X168122600Y-103708200D01*
%TO.N,/Connectors/PD5_BUF*%
X173126400Y-110083600D02*
X173126400Y-103809800D01*
%TO.N,PD6*%
X154076400Y-120904000D02*
X156514800Y-120904000D01*
X156514800Y-120904000D02*
X159664400Y-124053600D01*
X159664400Y-124053600D02*
X161036000Y-124053600D01*
X161036000Y-124053600D02*
X162915600Y-122174000D01*
X162915600Y-122174000D02*
X164795200Y-122174000D01*
X164795200Y-122174000D02*
X175615600Y-111353600D01*
X175615600Y-111353600D02*
X175615600Y-103784400D01*
%TO.N,PD7*%
X155143200Y-121843800D02*
X156616400Y-121843800D01*
X156616400Y-121843800D02*
X159410400Y-124637800D01*
X159410400Y-124637800D02*
X161086800Y-124637800D01*
X161086800Y-124637800D02*
X162991800Y-122732800D01*
X162991800Y-122732800D02*
X166547800Y-122732800D01*
X166547800Y-122732800D02*
X178308000Y-110972600D01*
X178308000Y-110972600D02*
X178308000Y-103632000D01*
%TO.N,PD8*%
X164134800Y-124561600D02*
X166700200Y-124561600D01*
X166700200Y-124561600D02*
X167944800Y-123317000D01*
X167944800Y-123317000D02*
X167944800Y-123317000D01*
%TO.N,PD9*%
X162712400Y-125095000D02*
X167538400Y-125095000D01*
X167538400Y-125095000D02*
X167690800Y-125095000D01*
X167690800Y-125095000D02*
X169240200Y-123545600D01*
X169240200Y-123545600D02*
X169240200Y-123545600D01*
%TO.N,A7*%
X153365200Y-129895600D02*
X146837400Y-123367800D01*
X146837400Y-123367800D02*
X130860800Y-123367800D01*
X130860800Y-123367800D02*
X128447800Y-120954800D01*
X128447800Y-120954800D02*
X128447800Y-103708200D01*
%TO.N,A6*%
X153035000Y-131343400D02*
X153035000Y-130810000D01*
X148192301Y-125967301D02*
X128735901Y-125967301D01*
X153035000Y-130810000D02*
X148192301Y-125967301D01*
X128735901Y-125967301D02*
X125984000Y-123215400D01*
X125984000Y-123215400D02*
X125984000Y-103682800D01*
%TO.N,A5*%
X152019000Y-131318000D02*
X152019000Y-130810000D01*
X152019000Y-130810000D02*
X147701000Y-126492000D01*
X147701000Y-126492000D02*
X125526800Y-126492000D01*
X125526800Y-126492000D02*
X123342400Y-124307600D01*
X123342400Y-124307600D02*
X123342400Y-103784400D01*
%TO.N,A4*%
X149733000Y-131572000D02*
X150749000Y-130556000D01*
X150749000Y-130556000D02*
X150749000Y-130225800D01*
X150749000Y-130225800D02*
X150342600Y-129819400D01*
X150342600Y-129819400D02*
X149783800Y-129819400D01*
X147116800Y-127152400D02*
X121310400Y-127152400D01*
X149783800Y-129819400D02*
X147116800Y-127152400D01*
X121310400Y-127152400D02*
X119761000Y-125603000D01*
X119761000Y-125603000D02*
X119761000Y-115239800D01*
X120353901Y-114646899D02*
X120379301Y-114646899D01*
X119761000Y-115239800D02*
X120353901Y-114646899D01*
X120379301Y-114646899D02*
X120929400Y-114096800D01*
X120929400Y-114096800D02*
X120929400Y-103784400D01*
%TO.N,A3*%
X148755600Y-129781800D02*
X146913600Y-127939800D01*
X146913600Y-127939800D02*
X119837200Y-127939800D01*
X119837200Y-127939800D02*
X118491000Y-126593600D01*
X118491000Y-126593600D02*
X118491000Y-103733600D01*
%TO.N,A2*%
X147167600Y-131013200D02*
X147167600Y-129286000D01*
X147167600Y-129286000D02*
X146354800Y-128473200D01*
X146354800Y-128473200D02*
X117398800Y-128473200D01*
X117398800Y-128473200D02*
X115900200Y-126974600D01*
X115900200Y-126974600D02*
X115900200Y-103784400D01*
%TO.N,A1*%
X146253200Y-131572000D02*
X141503400Y-131572000D01*
X140123099Y-130191699D02*
X115434299Y-130191699D01*
X141503400Y-131572000D02*
X140123099Y-130191699D01*
X115434299Y-130191699D02*
X112014000Y-126771400D01*
X112014000Y-126771400D02*
X112014000Y-106248200D01*
X112014000Y-106248200D02*
X113360200Y-104902000D01*
X113360200Y-104902000D02*
X113360200Y-103911400D01*
%TO.N,A0*%
X139979400Y-131064000D02*
X139268200Y-131775200D01*
X139268200Y-131775200D02*
X115620800Y-131775200D01*
X115620800Y-131775200D02*
X110794800Y-126949200D01*
X110794800Y-126949200D02*
X110794800Y-103555800D01*
%TO.N,SD_DETECT*%
X143183600Y-121517400D02*
X143183600Y-118893600D01*
X143183600Y-118893600D02*
X147396200Y-114681000D01*
X147396200Y-114681000D02*
X151231600Y-114681000D01*
X151231600Y-114681000D02*
X155016200Y-118465600D01*
X155016200Y-118465600D02*
X165658800Y-118465600D01*
X167538400Y-130175000D02*
X167614600Y-130175000D01*
X167614600Y-130175000D02*
X169519600Y-132080000D01*
X169519600Y-132080000D02*
X181940200Y-132080000D01*
X181940200Y-132080000D02*
X184962800Y-129057400D01*
%TO.N,FLASH_MISO*%
X151688800Y-125653800D02*
X156032200Y-125653800D01*
X157378400Y-127000000D02*
X173050200Y-127000000D01*
X156032200Y-125653800D02*
X157378400Y-127000000D01*
%TO.N,FLASH_SCK*%
X180162200Y-126593600D02*
X180162200Y-125857000D01*
X182981600Y-123037600D02*
X182981600Y-114935000D01*
X180162200Y-125857000D02*
X182981600Y-123037600D01*
%TO.N,FLASH_MOSI*%
X172618400Y-127533400D02*
X173736000Y-128651000D01*
X173761400Y-128651000D02*
X174193200Y-129082800D01*
X173736000Y-128651000D02*
X173761400Y-128651000D01*
X181965600Y-126542800D02*
X184683400Y-123825000D01*
X184683400Y-123825000D02*
X184683400Y-114579400D01*
X184810400Y-114452400D02*
X184810400Y-113309400D01*
X184683400Y-114579400D02*
X184810400Y-114452400D01*
X151790400Y-126822200D02*
X156133800Y-126822200D01*
X156845000Y-127533400D02*
X172618400Y-127533400D01*
X156133800Y-126822200D02*
X156845000Y-127533400D01*
%TO.N,FLASH_WP*%
X148793200Y-116560600D02*
X158013400Y-125780800D01*
X158013400Y-125780800D02*
X172745400Y-125780800D01*
X173126400Y-125399800D02*
X174142400Y-125399800D01*
X172745400Y-125780800D02*
X173126400Y-125399800D01*
%TO.N,SD_SS*%
X181660800Y-116992400D02*
X181660800Y-114198400D01*
X181660800Y-114198400D02*
X184785000Y-111074200D01*
X176047400Y-122605800D02*
X181660800Y-116992400D01*
X156006800Y-122605800D02*
X156540200Y-122605800D01*
X156540200Y-122605800D02*
X159004000Y-125069600D01*
X159004000Y-125069600D02*
X161467800Y-125069600D01*
X161467800Y-125069600D02*
X163296600Y-123240800D01*
X163296600Y-123240800D02*
X166700200Y-123240800D01*
X167335200Y-122605800D02*
X176047400Y-122605800D01*
X166700200Y-123240800D02*
X167335200Y-122605800D01*
%TO.N,PD5*%
X160832800Y-123698000D02*
X159969200Y-123698000D01*
X170484800Y-115570000D02*
X164668200Y-121386600D01*
X170484800Y-115544600D02*
X170484800Y-115570000D01*
X163144200Y-121386600D02*
X160832800Y-123698000D01*
X164668200Y-121386600D02*
X163144200Y-121386600D01*
X174929800Y-111099600D02*
X170484800Y-115544600D01*
X156438600Y-120167400D02*
X154940000Y-120167400D01*
X159969200Y-123698000D02*
X156438600Y-120167400D01*
X174955200Y-108788200D02*
X174929800Y-111099600D01*
%TO.N,PD4*%
X165760400Y-111302800D02*
X151942800Y-111302800D01*
X151815800Y-111429800D02*
X150545800Y-111429800D01*
X151942800Y-111302800D02*
X151815800Y-111429800D01*
%TO.N,PD3*%
X152958800Y-113893600D02*
X152857200Y-113995200D01*
X165836600Y-113893600D02*
X153974800Y-113893600D01*
X153974800Y-113893600D02*
X153619200Y-113538000D01*
X153314400Y-113538000D02*
X152857200Y-113995200D01*
X153619200Y-113538000D02*
X153314400Y-113538000D01*
%TO.N,FLASH_HOLD*%
X174625000Y-126339600D02*
X175006000Y-126720600D01*
X154000200Y-125171200D02*
X156514800Y-125171200D01*
X156514800Y-125171200D02*
X157835600Y-126492000D01*
X157835600Y-126492000D02*
X173126400Y-126492000D01*
X173278800Y-126339600D02*
X174625000Y-126339600D01*
X173126400Y-126492000D02*
X173278800Y-126339600D01*
D23*
%TO.N,5V_USB*%
X143027400Y-140335000D02*
X138353800Y-146050000D01*
X138353800Y-146050000D02*
X136702800Y-146050000D01*
X135890001Y-145237201D02*
X135890001Y-145186401D01*
X135890001Y-145186401D02*
X135276401Y-144572801D01*
X135276401Y-144572801D02*
X128113601Y-144572801D01*
X128113601Y-144572801D02*
X127254000Y-143713200D01*
X136702800Y-146050000D02*
X135890001Y-145237201D01*
%TD*%
M02*
