%TF.GenerationSoftware,KiCad,Pcbnew,5.1.10*%
%TF.CreationDate,2021-07-24T17:47:40-07:00*%
%TF.ProjectId,Engine-Controller,456e6769-6e65-42d4-936f-6e74726f6c6c,1.0*%
%TF.SameCoordinates,Original*%
%TF.FileFunction,Soldermask,Bot*%
%TF.FilePolarity,Negative*%
%FSLAX46Y46*%
G04 Gerber Fmt 4.6, Leading zero omitted, Abs format (unit mm)*
G04 Created by KiCad (PCBNEW 5.1.10) date 2021-07-24 17:47:40*
%MOMM*%
%LPD*%
G01*
G04 APERTURE LIST*
%ADD10C,1.524000*%
%ADD11C,1.371600*%
%ADD12R,1.371600X1.371600*%
%ADD13O,2.200000X4.400000*%
%ADD14O,1.900000X3.800000*%
%ADD15O,3.800000X1.900000*%
%ADD16C,3.366000*%
%ADD17C,1.478000*%
%ADD18R,1.478000X1.478000*%
%ADD19C,0.950000*%
G04 APERTURE END LIST*
D10*
%TO.C,P7*%
X133604000Y-103860600D03*
X131064000Y-103860600D03*
X128524000Y-103860600D03*
X125984000Y-103860600D03*
X123444000Y-103860600D03*
X120904000Y-103860600D03*
X118364000Y-103860600D03*
X115824000Y-103860600D03*
X113284000Y-103860600D03*
X110744000Y-103860600D03*
%TD*%
%TO.C,P4*%
X183311800Y-103759000D03*
X180771800Y-103759000D03*
X178231800Y-103759000D03*
X175691800Y-103759000D03*
X173151800Y-103759000D03*
X170611800Y-103759000D03*
X168071800Y-103759000D03*
X165531800Y-103759000D03*
X162991800Y-103759000D03*
X160451800Y-103759000D03*
%TD*%
%TO.C,TP7*%
X151638000Y-124053600D03*
%TD*%
D11*
%TO.C,C5*%
X137617200Y-143992600D03*
D12*
X137617200Y-148996400D03*
%TD*%
D10*
%TO.C,TP1*%
X133731000Y-132969000D03*
%TD*%
%TO.C,TP2*%
X190195200Y-140563600D03*
%TD*%
%TO.C,TP3*%
X144221200Y-108508800D03*
%TD*%
%TO.C,TP4*%
X132156200Y-144195800D03*
%TD*%
%TO.C,TP5*%
X130352800Y-135255000D03*
%TD*%
D13*
%TO.C,P1*%
X192849600Y-147142200D03*
D14*
X198804600Y-147142200D03*
D15*
X195554600Y-142452200D03*
%TD*%
D16*
%TO.C,P2*%
X196689800Y-125450400D03*
X196689800Y-137490400D03*
D17*
X193979800Y-130220400D03*
X193979800Y-132720400D03*
D18*
X191979800Y-130220400D03*
D17*
X191979800Y-132720400D03*
%TD*%
D10*
%TO.C,P3*%
X115951000Y-136144000D03*
X115951000Y-138684000D03*
X115951000Y-141224000D03*
X115951000Y-143764000D03*
X115951000Y-146304000D03*
X113411000Y-136144000D03*
X113411000Y-138684000D03*
X113411000Y-141224000D03*
X113411000Y-143764000D03*
X113411000Y-146304000D03*
%TD*%
%TO.C,P5*%
X177723800Y-146989800D03*
X175183800Y-146989800D03*
X172643800Y-146989800D03*
X170103800Y-146989800D03*
X167563800Y-146989800D03*
X177723800Y-149529800D03*
X175183800Y-149529800D03*
X172643800Y-149529800D03*
X170103800Y-149529800D03*
X167563800Y-149529800D03*
%TD*%
D19*
%TO.C,P6*%
X200406000Y-108969600D03*
X200406000Y-115769600D03*
%TD*%
D10*
%TO.C,TP6*%
X173456600Y-123672600D03*
%TD*%
%TO.C,TP8*%
X180213000Y-124002800D03*
%TD*%
%TO.C,TP9*%
X152654000Y-128676400D03*
%TD*%
%TO.C,TP10*%
X133324600Y-136880600D03*
%TD*%
M02*
