%TF.GenerationSoftware,KiCad,Pcbnew,5.1.10*%
%TF.CreationDate,2021-07-24T17:47:40-07:00*%
%TF.ProjectId,Engine-Controller,456e6769-6e65-42d4-936f-6e74726f6c6c,1.0*%
%TF.SameCoordinates,Original*%
%TF.FileFunction,Legend,Bot*%
%TF.FilePolarity,Positive*%
%FSLAX46Y46*%
G04 Gerber Fmt 4.6, Leading zero omitted, Abs format (unit mm)*
G04 Created by KiCad (PCBNEW 5.1.10) date 2021-07-24 17:47:40*
%MOMM*%
%LPD*%
G01*
G04 APERTURE LIST*
%ADD10C,0.100000*%
%ADD11C,0.120000*%
%ADD12C,0.150000*%
G04 APERTURE END LIST*
D10*
X177890609Y-140538276D02*
X177928704Y-140652561D01*
X177928704Y-140843038D01*
X177890609Y-140919228D01*
X177852514Y-140957323D01*
X177776323Y-140995419D01*
X177700133Y-140995419D01*
X177623942Y-140957323D01*
X177585847Y-140919228D01*
X177547752Y-140843038D01*
X177509657Y-140690657D01*
X177471561Y-140614466D01*
X177433466Y-140576371D01*
X177357276Y-140538276D01*
X177281085Y-140538276D01*
X177204895Y-140576371D01*
X177166800Y-140614466D01*
X177128704Y-140690657D01*
X177128704Y-140881133D01*
X177166800Y-140995419D01*
X177890609Y-141300180D02*
X177928704Y-141414466D01*
X177928704Y-141604942D01*
X177890609Y-141681133D01*
X177852514Y-141719228D01*
X177776323Y-141757323D01*
X177700133Y-141757323D01*
X177623942Y-141719228D01*
X177585847Y-141681133D01*
X177547752Y-141604942D01*
X177509657Y-141452561D01*
X177471561Y-141376371D01*
X177433466Y-141338276D01*
X177357276Y-141300180D01*
X177281085Y-141300180D01*
X177204895Y-141338276D01*
X177166800Y-141376371D01*
X177128704Y-141452561D01*
X177128704Y-141643038D01*
X177166800Y-141757323D01*
X177941409Y-143859371D02*
X177979504Y-143973657D01*
X177979504Y-144164133D01*
X177941409Y-144240323D01*
X177903314Y-144278419D01*
X177827123Y-144316514D01*
X177750933Y-144316514D01*
X177674742Y-144278419D01*
X177636647Y-144240323D01*
X177598552Y-144164133D01*
X177560457Y-144011752D01*
X177522361Y-143935561D01*
X177484266Y-143897466D01*
X177408076Y-143859371D01*
X177331885Y-143859371D01*
X177255695Y-143897466D01*
X177217600Y-143935561D01*
X177179504Y-144011752D01*
X177179504Y-144202228D01*
X177217600Y-144316514D01*
X177979504Y-144659371D02*
X177179504Y-144659371D01*
X177179504Y-144849847D01*
X177217600Y-144964133D01*
X177293790Y-145040323D01*
X177369980Y-145078419D01*
X177522361Y-145116514D01*
X177636647Y-145116514D01*
X177789028Y-145078419D01*
X177865219Y-145040323D01*
X177941409Y-144964133D01*
X177979504Y-144849847D01*
X177979504Y-144659371D01*
X177750933Y-145421276D02*
X177750933Y-145802228D01*
X177979504Y-145345085D02*
X177179504Y-145611752D01*
X177979504Y-145878419D01*
X175299809Y-143827619D02*
X175337904Y-143941904D01*
X175337904Y-144132380D01*
X175299809Y-144208571D01*
X175261714Y-144246666D01*
X175185523Y-144284761D01*
X175109333Y-144284761D01*
X175033142Y-144246666D01*
X174995047Y-144208571D01*
X174956952Y-144132380D01*
X174918857Y-143980000D01*
X174880761Y-143903809D01*
X174842666Y-143865714D01*
X174766476Y-143827619D01*
X174690285Y-143827619D01*
X174614095Y-143865714D01*
X174576000Y-143903809D01*
X174537904Y-143980000D01*
X174537904Y-144170476D01*
X174576000Y-144284761D01*
X175261714Y-145084761D02*
X175299809Y-145046666D01*
X175337904Y-144932380D01*
X175337904Y-144856190D01*
X175299809Y-144741904D01*
X175223619Y-144665714D01*
X175147428Y-144627619D01*
X174995047Y-144589523D01*
X174880761Y-144589523D01*
X174728380Y-144627619D01*
X174652190Y-144665714D01*
X174576000Y-144741904D01*
X174537904Y-144856190D01*
X174537904Y-144932380D01*
X174576000Y-145046666D01*
X174614095Y-145084761D01*
X175337904Y-145808571D02*
X175337904Y-145427619D01*
X174537904Y-145427619D01*
X175109304Y-140601857D02*
X174309304Y-140601857D01*
X174880733Y-140868523D01*
X174309304Y-141135190D01*
X175109304Y-141135190D01*
X174309304Y-141668523D02*
X174309304Y-141820904D01*
X174347400Y-141897095D01*
X174423590Y-141973285D01*
X174575971Y-142011380D01*
X174842638Y-142011380D01*
X174995019Y-141973285D01*
X175071209Y-141897095D01*
X175109304Y-141820904D01*
X175109304Y-141668523D01*
X175071209Y-141592333D01*
X174995019Y-141516142D01*
X174842638Y-141478047D01*
X174575971Y-141478047D01*
X174423590Y-141516142D01*
X174347400Y-141592333D01*
X174309304Y-141668523D01*
X175071209Y-142316142D02*
X175109304Y-142430428D01*
X175109304Y-142620904D01*
X175071209Y-142697095D01*
X175033114Y-142735190D01*
X174956923Y-142773285D01*
X174880733Y-142773285D01*
X174804542Y-142735190D01*
X174766447Y-142697095D01*
X174728352Y-142620904D01*
X174690257Y-142468523D01*
X174652161Y-142392333D01*
X174614066Y-142354238D01*
X174537876Y-142316142D01*
X174461685Y-142316142D01*
X174385495Y-142354238D01*
X174347400Y-142392333D01*
X174309304Y-142468523D01*
X174309304Y-142659000D01*
X174347400Y-142773285D01*
X175109304Y-143116142D02*
X174309304Y-143116142D01*
X172924904Y-140627257D02*
X172124904Y-140627257D01*
X172696333Y-140893923D01*
X172124904Y-141160590D01*
X172924904Y-141160590D01*
X172924904Y-141541542D02*
X172124904Y-141541542D01*
X172886809Y-141884400D02*
X172924904Y-141998685D01*
X172924904Y-142189161D01*
X172886809Y-142265352D01*
X172848714Y-142303447D01*
X172772523Y-142341542D01*
X172696333Y-142341542D01*
X172620142Y-142303447D01*
X172582047Y-142265352D01*
X172543952Y-142189161D01*
X172505857Y-142036780D01*
X172467761Y-141960590D01*
X172429666Y-141922495D01*
X172353476Y-141884400D01*
X172277285Y-141884400D01*
X172201095Y-141922495D01*
X172163000Y-141960590D01*
X172124904Y-142036780D01*
X172124904Y-142227257D01*
X172163000Y-142341542D01*
X172124904Y-142836780D02*
X172124904Y-142989161D01*
X172163000Y-143065352D01*
X172239190Y-143141542D01*
X172391571Y-143179638D01*
X172658238Y-143179638D01*
X172810619Y-143141542D01*
X172886809Y-143065352D01*
X172924904Y-142989161D01*
X172924904Y-142836780D01*
X172886809Y-142760590D01*
X172810619Y-142684400D01*
X172658238Y-142646304D01*
X172391571Y-142646304D01*
X172239190Y-142684400D01*
X172163000Y-142760590D01*
X172124904Y-142836780D01*
X172175704Y-143738676D02*
X172175704Y-144195819D01*
X172975704Y-143967247D02*
X172175704Y-143967247D01*
X172175704Y-144386295D02*
X172975704Y-144919628D01*
X172175704Y-144919628D02*
X172975704Y-144386295D01*
X170423009Y-140678028D02*
X170461104Y-140792314D01*
X170461104Y-140982790D01*
X170423009Y-141058980D01*
X170384914Y-141097076D01*
X170308723Y-141135171D01*
X170232533Y-141135171D01*
X170156342Y-141097076D01*
X170118247Y-141058980D01*
X170080152Y-140982790D01*
X170042057Y-140830409D01*
X170003961Y-140754219D01*
X169965866Y-140716123D01*
X169889676Y-140678028D01*
X169813485Y-140678028D01*
X169737295Y-140716123D01*
X169699200Y-140754219D01*
X169661104Y-140830409D01*
X169661104Y-141020885D01*
X169699200Y-141135171D01*
X170384914Y-141935171D02*
X170423009Y-141897076D01*
X170461104Y-141782790D01*
X170461104Y-141706600D01*
X170423009Y-141592314D01*
X170346819Y-141516123D01*
X170270628Y-141478028D01*
X170118247Y-141439933D01*
X170003961Y-141439933D01*
X169851580Y-141478028D01*
X169775390Y-141516123D01*
X169699200Y-141592314D01*
X169661104Y-141706600D01*
X169661104Y-141782790D01*
X169699200Y-141897076D01*
X169737295Y-141935171D01*
X170461104Y-142278028D02*
X169661104Y-142278028D01*
X170461104Y-142735171D02*
X170003961Y-142392314D01*
X169661104Y-142735171D02*
X170118247Y-142278028D01*
X170461104Y-144341866D02*
X170080152Y-144075200D01*
X170461104Y-143884723D02*
X169661104Y-143884723D01*
X169661104Y-144189485D01*
X169699200Y-144265676D01*
X169737295Y-144303771D01*
X169813485Y-144341866D01*
X169927771Y-144341866D01*
X170003961Y-144303771D01*
X170042057Y-144265676D01*
X170080152Y-144189485D01*
X170080152Y-143884723D01*
X169661104Y-144608533D02*
X170461104Y-145141866D01*
X169661104Y-145141866D02*
X170461104Y-144608533D01*
X167159200Y-141046276D02*
X167121104Y-140970085D01*
X167121104Y-140855800D01*
X167159200Y-140741514D01*
X167235390Y-140665323D01*
X167311580Y-140627228D01*
X167463961Y-140589133D01*
X167578247Y-140589133D01*
X167730628Y-140627228D01*
X167806819Y-140665323D01*
X167883009Y-140741514D01*
X167921104Y-140855800D01*
X167921104Y-140931990D01*
X167883009Y-141046276D01*
X167844914Y-141084371D01*
X167578247Y-141084371D01*
X167578247Y-140931990D01*
X167921104Y-141427228D02*
X167121104Y-141427228D01*
X167921104Y-141884371D01*
X167121104Y-141884371D01*
X167921104Y-142265323D02*
X167121104Y-142265323D01*
X167121104Y-142455800D01*
X167159200Y-142570085D01*
X167235390Y-142646276D01*
X167311580Y-142684371D01*
X167463961Y-142722466D01*
X167578247Y-142722466D01*
X167730628Y-142684371D01*
X167806819Y-142646276D01*
X167883009Y-142570085D01*
X167921104Y-142455800D01*
X167921104Y-142265323D01*
X167298904Y-143675209D02*
X168098904Y-143941876D01*
X167298904Y-144208542D01*
X168098904Y-144475209D02*
X167298904Y-144475209D01*
X168098904Y-144856161D02*
X167298904Y-144856161D01*
X168098904Y-145313304D01*
X167298904Y-145313304D01*
X160682104Y-105206923D02*
X159882104Y-105206923D01*
X159882104Y-105511685D01*
X159920200Y-105587876D01*
X159958295Y-105625971D01*
X160034485Y-105664066D01*
X160148771Y-105664066D01*
X160224961Y-105625971D01*
X160263057Y-105587876D01*
X160301152Y-105511685D01*
X160301152Y-105206923D01*
X160682104Y-106006923D02*
X159882104Y-106006923D01*
X159882104Y-106197400D01*
X159920200Y-106311685D01*
X159996390Y-106387876D01*
X160072580Y-106425971D01*
X160224961Y-106464066D01*
X160339247Y-106464066D01*
X160491628Y-106425971D01*
X160567819Y-106387876D01*
X160644009Y-106311685D01*
X160682104Y-106197400D01*
X160682104Y-106006923D01*
X159882104Y-106959304D02*
X159882104Y-107035495D01*
X159920200Y-107111685D01*
X159958295Y-107149780D01*
X160034485Y-107187876D01*
X160186866Y-107225971D01*
X160377342Y-107225971D01*
X160529723Y-107187876D01*
X160605914Y-107149780D01*
X160644009Y-107111685D01*
X160682104Y-107035495D01*
X160682104Y-106959304D01*
X160644009Y-106883114D01*
X160605914Y-106845019D01*
X160529723Y-106806923D01*
X160377342Y-106768828D01*
X160186866Y-106768828D01*
X160034485Y-106806923D01*
X159958295Y-106845019D01*
X159920200Y-106883114D01*
X159882104Y-106959304D01*
X163349104Y-105232323D02*
X162549104Y-105232323D01*
X162549104Y-105537085D01*
X162587200Y-105613276D01*
X162625295Y-105651371D01*
X162701485Y-105689466D01*
X162815771Y-105689466D01*
X162891961Y-105651371D01*
X162930057Y-105613276D01*
X162968152Y-105537085D01*
X162968152Y-105232323D01*
X163349104Y-106032323D02*
X162549104Y-106032323D01*
X162549104Y-106222800D01*
X162587200Y-106337085D01*
X162663390Y-106413276D01*
X162739580Y-106451371D01*
X162891961Y-106489466D01*
X163006247Y-106489466D01*
X163158628Y-106451371D01*
X163234819Y-106413276D01*
X163311009Y-106337085D01*
X163349104Y-106222800D01*
X163349104Y-106032323D01*
X163349104Y-107251371D02*
X163349104Y-106794228D01*
X163349104Y-107022800D02*
X162549104Y-107022800D01*
X162663390Y-106946609D01*
X162739580Y-106870419D01*
X162777676Y-106794228D01*
D11*
%TO.C,P5*%
X165912800Y-149529800D02*
G75*
G03*
X165912800Y-149529800I-381000J0D01*
G01*
%TO.C,TP7*%
D12*
X152899904Y-125487180D02*
X152328476Y-125487180D01*
X152614190Y-126487180D02*
X152614190Y-125487180D01*
X151995142Y-126487180D02*
X151995142Y-125487180D01*
X151614190Y-125487180D01*
X151518952Y-125534800D01*
X151471333Y-125582419D01*
X151423714Y-125677657D01*
X151423714Y-125820514D01*
X151471333Y-125915752D01*
X151518952Y-125963371D01*
X151614190Y-126010990D01*
X151995142Y-126010990D01*
X151090380Y-125487180D02*
X150423714Y-125487180D01*
X150852285Y-126487180D01*
%TO.C,TP1*%
X134992904Y-134402580D02*
X134421476Y-134402580D01*
X134707190Y-135402580D02*
X134707190Y-134402580D01*
X134088142Y-135402580D02*
X134088142Y-134402580D01*
X133707190Y-134402580D01*
X133611952Y-134450200D01*
X133564333Y-134497819D01*
X133516714Y-134593057D01*
X133516714Y-134735914D01*
X133564333Y-134831152D01*
X133611952Y-134878771D01*
X133707190Y-134926390D01*
X134088142Y-134926390D01*
X132564333Y-135402580D02*
X133135761Y-135402580D01*
X132850047Y-135402580D02*
X132850047Y-134402580D01*
X132945285Y-134545438D01*
X133040523Y-134640676D01*
X133135761Y-134688295D01*
%TO.C,TP2*%
X191457104Y-141997180D02*
X190885676Y-141997180D01*
X191171390Y-142997180D02*
X191171390Y-141997180D01*
X190552342Y-142997180D02*
X190552342Y-141997180D01*
X190171390Y-141997180D01*
X190076152Y-142044800D01*
X190028533Y-142092419D01*
X189980914Y-142187657D01*
X189980914Y-142330514D01*
X190028533Y-142425752D01*
X190076152Y-142473371D01*
X190171390Y-142520990D01*
X190552342Y-142520990D01*
X189599961Y-142092419D02*
X189552342Y-142044800D01*
X189457104Y-141997180D01*
X189219009Y-141997180D01*
X189123771Y-142044800D01*
X189076152Y-142092419D01*
X189028533Y-142187657D01*
X189028533Y-142282895D01*
X189076152Y-142425752D01*
X189647580Y-142997180D01*
X189028533Y-142997180D01*
%TO.C,TP3*%
X145483104Y-109942380D02*
X144911676Y-109942380D01*
X145197390Y-110942380D02*
X145197390Y-109942380D01*
X144578342Y-110942380D02*
X144578342Y-109942380D01*
X144197390Y-109942380D01*
X144102152Y-109990000D01*
X144054533Y-110037619D01*
X144006914Y-110132857D01*
X144006914Y-110275714D01*
X144054533Y-110370952D01*
X144102152Y-110418571D01*
X144197390Y-110466190D01*
X144578342Y-110466190D01*
X143673580Y-109942380D02*
X143054533Y-109942380D01*
X143387866Y-110323333D01*
X143245009Y-110323333D01*
X143149771Y-110370952D01*
X143102152Y-110418571D01*
X143054533Y-110513809D01*
X143054533Y-110751904D01*
X143102152Y-110847142D01*
X143149771Y-110894761D01*
X143245009Y-110942380D01*
X143530723Y-110942380D01*
X143625961Y-110894761D01*
X143673580Y-110847142D01*
%TO.C,TP4*%
X133418104Y-145629380D02*
X132846676Y-145629380D01*
X133132390Y-146629380D02*
X133132390Y-145629380D01*
X132513342Y-146629380D02*
X132513342Y-145629380D01*
X132132390Y-145629380D01*
X132037152Y-145677000D01*
X131989533Y-145724619D01*
X131941914Y-145819857D01*
X131941914Y-145962714D01*
X131989533Y-146057952D01*
X132037152Y-146105571D01*
X132132390Y-146153190D01*
X132513342Y-146153190D01*
X131084771Y-145962714D02*
X131084771Y-146629380D01*
X131322866Y-145581761D02*
X131560961Y-146296047D01*
X130941914Y-146296047D01*
%TO.C,TP5*%
X131436904Y-136332980D02*
X130865476Y-136332980D01*
X131151190Y-137332980D02*
X131151190Y-136332980D01*
X130532142Y-137332980D02*
X130532142Y-136332980D01*
X130151190Y-136332980D01*
X130055952Y-136380600D01*
X130008333Y-136428219D01*
X129960714Y-136523457D01*
X129960714Y-136666314D01*
X130008333Y-136761552D01*
X130055952Y-136809171D01*
X130151190Y-136856790D01*
X130532142Y-136856790D01*
X129055952Y-136332980D02*
X129532142Y-136332980D01*
X129579761Y-136809171D01*
X129532142Y-136761552D01*
X129436904Y-136713933D01*
X129198809Y-136713933D01*
X129103571Y-136761552D01*
X129055952Y-136809171D01*
X129008333Y-136904409D01*
X129008333Y-137142504D01*
X129055952Y-137237742D01*
X129103571Y-137285361D01*
X129198809Y-137332980D01*
X129436904Y-137332980D01*
X129532142Y-137285361D01*
X129579761Y-137237742D01*
%TO.C,TP6*%
X174007304Y-121626380D02*
X173435876Y-121626380D01*
X173721590Y-122626380D02*
X173721590Y-121626380D01*
X173102542Y-122626380D02*
X173102542Y-121626380D01*
X172721590Y-121626380D01*
X172626352Y-121674000D01*
X172578733Y-121721619D01*
X172531114Y-121816857D01*
X172531114Y-121959714D01*
X172578733Y-122054952D01*
X172626352Y-122102571D01*
X172721590Y-122150190D01*
X173102542Y-122150190D01*
X171673971Y-121626380D02*
X171864447Y-121626380D01*
X171959685Y-121674000D01*
X172007304Y-121721619D01*
X172102542Y-121864476D01*
X172150161Y-122054952D01*
X172150161Y-122435904D01*
X172102542Y-122531142D01*
X172054923Y-122578761D01*
X171959685Y-122626380D01*
X171769209Y-122626380D01*
X171673971Y-122578761D01*
X171626352Y-122531142D01*
X171578733Y-122435904D01*
X171578733Y-122197809D01*
X171626352Y-122102571D01*
X171673971Y-122054952D01*
X171769209Y-122007333D01*
X171959685Y-122007333D01*
X172054923Y-122054952D01*
X172102542Y-122102571D01*
X172150161Y-122197809D01*
%TO.C,TP8*%
X181474904Y-125436380D02*
X180903476Y-125436380D01*
X181189190Y-126436380D02*
X181189190Y-125436380D01*
X180570142Y-126436380D02*
X180570142Y-125436380D01*
X180189190Y-125436380D01*
X180093952Y-125484000D01*
X180046333Y-125531619D01*
X179998714Y-125626857D01*
X179998714Y-125769714D01*
X180046333Y-125864952D01*
X180093952Y-125912571D01*
X180189190Y-125960190D01*
X180570142Y-125960190D01*
X179427285Y-125864952D02*
X179522523Y-125817333D01*
X179570142Y-125769714D01*
X179617761Y-125674476D01*
X179617761Y-125626857D01*
X179570142Y-125531619D01*
X179522523Y-125484000D01*
X179427285Y-125436380D01*
X179236809Y-125436380D01*
X179141571Y-125484000D01*
X179093952Y-125531619D01*
X179046333Y-125626857D01*
X179046333Y-125674476D01*
X179093952Y-125769714D01*
X179141571Y-125817333D01*
X179236809Y-125864952D01*
X179427285Y-125864952D01*
X179522523Y-125912571D01*
X179570142Y-125960190D01*
X179617761Y-126055428D01*
X179617761Y-126245904D01*
X179570142Y-126341142D01*
X179522523Y-126388761D01*
X179427285Y-126436380D01*
X179236809Y-126436380D01*
X179141571Y-126388761D01*
X179093952Y-126341142D01*
X179046333Y-126245904D01*
X179046333Y-126055428D01*
X179093952Y-125960190D01*
X179141571Y-125912571D01*
X179236809Y-125864952D01*
%TO.C,TP9*%
X153915904Y-130109980D02*
X153344476Y-130109980D01*
X153630190Y-131109980D02*
X153630190Y-130109980D01*
X153011142Y-131109980D02*
X153011142Y-130109980D01*
X152630190Y-130109980D01*
X152534952Y-130157600D01*
X152487333Y-130205219D01*
X152439714Y-130300457D01*
X152439714Y-130443314D01*
X152487333Y-130538552D01*
X152534952Y-130586171D01*
X152630190Y-130633790D01*
X153011142Y-130633790D01*
X151963523Y-131109980D02*
X151773047Y-131109980D01*
X151677809Y-131062361D01*
X151630190Y-131014742D01*
X151534952Y-130871885D01*
X151487333Y-130681409D01*
X151487333Y-130300457D01*
X151534952Y-130205219D01*
X151582571Y-130157600D01*
X151677809Y-130109980D01*
X151868285Y-130109980D01*
X151963523Y-130157600D01*
X152011142Y-130205219D01*
X152058761Y-130300457D01*
X152058761Y-130538552D01*
X152011142Y-130633790D01*
X151963523Y-130681409D01*
X151868285Y-130729028D01*
X151677809Y-130729028D01*
X151582571Y-130681409D01*
X151534952Y-130633790D01*
X151487333Y-130538552D01*
%TO.C,TP10*%
X137501095Y-137272780D02*
X136929666Y-137272780D01*
X137215380Y-138272780D02*
X137215380Y-137272780D01*
X136596333Y-138272780D02*
X136596333Y-137272780D01*
X136215380Y-137272780D01*
X136120142Y-137320400D01*
X136072523Y-137368019D01*
X136024904Y-137463257D01*
X136024904Y-137606114D01*
X136072523Y-137701352D01*
X136120142Y-137748971D01*
X136215380Y-137796590D01*
X136596333Y-137796590D01*
X135072523Y-138272780D02*
X135643952Y-138272780D01*
X135358238Y-138272780D02*
X135358238Y-137272780D01*
X135453476Y-137415638D01*
X135548714Y-137510876D01*
X135643952Y-137558495D01*
X134453476Y-137272780D02*
X134358238Y-137272780D01*
X134263000Y-137320400D01*
X134215380Y-137368019D01*
X134167761Y-137463257D01*
X134120142Y-137653733D01*
X134120142Y-137891828D01*
X134167761Y-138082304D01*
X134215380Y-138177542D01*
X134263000Y-138225161D01*
X134358238Y-138272780D01*
X134453476Y-138272780D01*
X134548714Y-138225161D01*
X134596333Y-138177542D01*
X134643952Y-138082304D01*
X134691571Y-137891828D01*
X134691571Y-137653733D01*
X134643952Y-137463257D01*
X134596333Y-137368019D01*
X134548714Y-137320400D01*
X134453476Y-137272780D01*
%TD*%
M02*
