M48
; DRILL file {KiCad 5.1.10} date Sat Jul 24 17:47:29 2021
; FORMAT={-:-/ absolute / inch / decimal}
; #@! TF.CreationDate,2021-07-24T17:47:29-07:00
; #@! TF.GenerationSoftware,Kicad,Pcbnew,5.1.10
; #@! TF.FileFunction,Plated,1,4,PTH
FMAT,2
INCH
T1C0.0118
T2C0.0157
T3C0.0200
T4C0.0299
T5C0.0300
T6C0.0340
T7C0.0382
T8C0.0400
T9C0.0402
T10C0.0925
%
G90
G05
T1
X4.72Y-4.46
X5.044Y-5.328
X5.049Y-5.144
X5.07Y-5.647
X5.097Y-5.456
X5.123Y-5.662
X5.226Y-5.452
X5.23Y-5.937
X5.258Y-5.146
X5.2595Y-4.7135
X5.289Y-5.574
X5.386Y-5.235
X5.44Y-5.362
X5.479Y-5.394
X5.491Y-4.931
X5.511Y-5.16
X5.552Y-5.313
X5.554Y-4.275
X5.599Y-4.422
X5.6371Y-4.7841
X5.756Y-4.722
X5.756Y-5.146
X5.758Y-5.18
X5.763Y-5.108
X5.766Y-4.908
X5.766Y-4.941
X5.77Y-4.441
X5.794Y-5.158
X5.8Y-5.218
X5.807Y-4.725
X5.829Y-5.192
X5.8565Y-5.1095
X5.858Y-4.589
X5.871Y-5.47
X5.892Y-5.435
X5.895Y-5.18
X5.899Y-5.138
X5.927Y-4.387
X5.947Y-5.167
X5.954Y-5.454
X5.954Y-5.48
X5.972Y-4.947
X5.976Y-4.993
X5.985Y-5.17
X6.018Y-4.488
X6.025Y-5.171
X6.038Y-5.114
X6.063Y-4.928
X6.066Y-4.76
X6.1Y-4.731
X6.108Y-4.797
X6.142Y-4.827
X6.143Y-4.553
X6.159Y-4.525
X6.23Y-5.235
X6.252Y-4.746
X6.258Y-4.793
X6.273Y-5.244
X6.406Y-4.925
X6.462Y-4.904
X6.476Y-5.292
X6.517Y-5.136
X6.522Y-4.664
X6.526Y-4.382
X6.527Y-4.234
X6.529Y-4.484
X6.564Y-5.135
X6.596Y-5.125
X6.612Y-4.855
X6.663Y-4.864
X6.723Y-4.492
X6.785Y-4.919
X6.813Y-5.0
X6.816Y-4.334
X6.856Y-4.937
X6.858Y-5.082
X6.888Y-4.283
X6.89Y-4.989
X7.093Y-4.984
X7.164Y-4.982
X7.204Y-4.525
X7.275Y-4.373
X7.276Y-4.461
X7.282Y-5.081
X7.428Y-4.815
X7.545Y-5.588
T2
X6.624Y-5.467
X6.689Y-5.142
X6.993Y-4.86
X7.522Y-4.538
X7.524Y-4.45
X7.7056Y-4.0874
X7.7068Y-4.7232
T3
X5.01Y-5.658
X5.631Y-5.525
T5
X4.36Y-4.089
X4.46Y-4.089
X4.465Y-5.36
X4.465Y-5.46
X4.465Y-5.56
X4.465Y-5.66
X4.465Y-5.76
X4.56Y-4.089
X4.565Y-5.36
X4.565Y-5.46
X4.565Y-5.56
X4.565Y-5.66
X4.565Y-5.76
X4.66Y-4.089
X4.76Y-4.089
X4.86Y-4.089
X4.96Y-4.089
X5.06Y-4.089
X5.16Y-4.089
X5.26Y-4.089
X6.317Y-4.085
X6.417Y-4.085
X6.517Y-4.085
X6.617Y-4.085
X6.717Y-4.085
X6.817Y-4.085
X6.917Y-4.085
X7.017Y-4.085
X7.117Y-4.085
X7.217Y-4.085
T6
X5.418Y-5.669
X5.418Y-5.866
T7
X7.5583Y-5.1268
X7.5583Y-5.2252
X7.637Y-5.1268
X7.637Y-5.2252
T8
X6.597Y-5.787
X6.597Y-5.887
X6.697Y-5.787
X6.697Y-5.887
X6.797Y-5.787
X6.797Y-5.887
X6.897Y-5.787
X6.897Y-5.887
X6.997Y-5.787
X6.997Y-5.887
T10
X7.7437Y-4.939
X7.7437Y-5.413
T4
G00X7.6539Y-5.6084
M15
G01X7.7441Y-5.6084
M16
G05
G00X7.827Y-5.8381
M15
G01X7.827Y-5.7479
M16
G05
T9
G00X7.5925Y-5.843
M15
G01X7.5925Y-5.743
M16
G05
T0
M30
