%TF.GenerationSoftware,KiCad,Pcbnew,7.0.1*%
%TF.CreationDate,2023-04-04T11:19:36-07:00*%
%TF.ProjectId,Engine-Controller,456e6769-6e65-42d4-936f-6e74726f6c6c,1.0*%
%TF.SameCoordinates,Original*%
%TF.FileFunction,Legend,Bot*%
%TF.FilePolarity,Positive*%
%FSLAX46Y46*%
G04 Gerber Fmt 4.6, Leading zero omitted, Abs format (unit mm)*
G04 Created by KiCad (PCBNEW 7.0.1) date 2023-04-04 11:19:36*
%MOMM*%
%LPD*%
G01*
G04 APERTURE LIST*
%ADD10C,0.203200*%
%ADD11C,0.150000*%
G04 APERTURE END LIST*
D10*
X87792560Y-111658400D02*
X87744179Y-111513257D01*
X87744179Y-111513257D02*
X87744179Y-111271352D01*
X87744179Y-111271352D02*
X87792560Y-111174590D01*
X87792560Y-111174590D02*
X87840940Y-111126209D01*
X87840940Y-111126209D02*
X87937702Y-111077828D01*
X87937702Y-111077828D02*
X88034464Y-111077828D01*
X88034464Y-111077828D02*
X88131226Y-111126209D01*
X88131226Y-111126209D02*
X88179607Y-111174590D01*
X88179607Y-111174590D02*
X88227988Y-111271352D01*
X88227988Y-111271352D02*
X88276369Y-111464876D01*
X88276369Y-111464876D02*
X88324750Y-111561638D01*
X88324750Y-111561638D02*
X88373131Y-111610019D01*
X88373131Y-111610019D02*
X88469893Y-111658400D01*
X88469893Y-111658400D02*
X88566655Y-111658400D01*
X88566655Y-111658400D02*
X88663417Y-111610019D01*
X88663417Y-111610019D02*
X88711798Y-111561638D01*
X88711798Y-111561638D02*
X88760179Y-111464876D01*
X88760179Y-111464876D02*
X88760179Y-111222971D01*
X88760179Y-111222971D02*
X88711798Y-111077828D01*
X88760179Y-110739162D02*
X87744179Y-110497257D01*
X87744179Y-110497257D02*
X88469893Y-110303733D01*
X88469893Y-110303733D02*
X87744179Y-110110209D01*
X87744179Y-110110209D02*
X88760179Y-109868305D01*
X87744179Y-109481257D02*
X88760179Y-109481257D01*
X88760179Y-109142590D02*
X88760179Y-108562018D01*
X87744179Y-108852304D02*
X88760179Y-108852304D01*
X87840940Y-107642780D02*
X87792560Y-107691161D01*
X87792560Y-107691161D02*
X87744179Y-107836304D01*
X87744179Y-107836304D02*
X87744179Y-107933066D01*
X87744179Y-107933066D02*
X87792560Y-108078209D01*
X87792560Y-108078209D02*
X87889321Y-108174971D01*
X87889321Y-108174971D02*
X87986083Y-108223352D01*
X87986083Y-108223352D02*
X88179607Y-108271733D01*
X88179607Y-108271733D02*
X88324750Y-108271733D01*
X88324750Y-108271733D02*
X88518274Y-108223352D01*
X88518274Y-108223352D02*
X88615036Y-108174971D01*
X88615036Y-108174971D02*
X88711798Y-108078209D01*
X88711798Y-108078209D02*
X88760179Y-107933066D01*
X88760179Y-107933066D02*
X88760179Y-107836304D01*
X88760179Y-107836304D02*
X88711798Y-107691161D01*
X88711798Y-107691161D02*
X88663417Y-107642780D01*
X87744179Y-107207352D02*
X88760179Y-107207352D01*
X88276369Y-107207352D02*
X88276369Y-106626780D01*
X87744179Y-106626780D02*
X88760179Y-106626780D01*
X121524484Y-147307420D02*
X122008294Y-147307420D01*
X122008294Y-147307420D02*
X122008294Y-146291420D01*
X120992294Y-146291420D02*
X120798770Y-146291420D01*
X120798770Y-146291420D02*
X120702008Y-146339801D01*
X120702008Y-146339801D02*
X120605246Y-146436563D01*
X120605246Y-146436563D02*
X120556865Y-146630087D01*
X120556865Y-146630087D02*
X120556865Y-146968754D01*
X120556865Y-146968754D02*
X120605246Y-147162278D01*
X120605246Y-147162278D02*
X120702008Y-147259040D01*
X120702008Y-147259040D02*
X120798770Y-147307420D01*
X120798770Y-147307420D02*
X120992294Y-147307420D01*
X120992294Y-147307420D02*
X121089056Y-147259040D01*
X121089056Y-147259040D02*
X121185818Y-147162278D01*
X121185818Y-147162278D02*
X121234199Y-146968754D01*
X121234199Y-146968754D02*
X121234199Y-146630087D01*
X121234199Y-146630087D02*
X121185818Y-146436563D01*
X121185818Y-146436563D02*
X121089056Y-146339801D01*
X121089056Y-146339801D02*
X120992294Y-146291420D01*
X120169818Y-147017135D02*
X119686008Y-147017135D01*
X120266580Y-147307420D02*
X119927913Y-146291420D01*
X119927913Y-146291420D02*
X119589246Y-147307420D01*
X119250580Y-147307420D02*
X119250580Y-146291420D01*
X119250580Y-146291420D02*
X119008675Y-146291420D01*
X119008675Y-146291420D02*
X118863532Y-146339801D01*
X118863532Y-146339801D02*
X118766770Y-146436563D01*
X118766770Y-146436563D02*
X118718389Y-146533325D01*
X118718389Y-146533325D02*
X118670008Y-146726849D01*
X118670008Y-146726849D02*
X118670008Y-146871992D01*
X118670008Y-146871992D02*
X118718389Y-147065516D01*
X118718389Y-147065516D02*
X118766770Y-147162278D01*
X118766770Y-147162278D02*
X118863532Y-147259040D01*
X118863532Y-147259040D02*
X119008675Y-147307420D01*
X119008675Y-147307420D02*
X119250580Y-147307420D01*
X116879913Y-147210659D02*
X116928294Y-147259040D01*
X116928294Y-147259040D02*
X117073437Y-147307420D01*
X117073437Y-147307420D02*
X117170199Y-147307420D01*
X117170199Y-147307420D02*
X117315342Y-147259040D01*
X117315342Y-147259040D02*
X117412104Y-147162278D01*
X117412104Y-147162278D02*
X117460485Y-147065516D01*
X117460485Y-147065516D02*
X117508866Y-146871992D01*
X117508866Y-146871992D02*
X117508866Y-146726849D01*
X117508866Y-146726849D02*
X117460485Y-146533325D01*
X117460485Y-146533325D02*
X117412104Y-146436563D01*
X117412104Y-146436563D02*
X117315342Y-146339801D01*
X117315342Y-146339801D02*
X117170199Y-146291420D01*
X117170199Y-146291420D02*
X117073437Y-146291420D01*
X117073437Y-146291420D02*
X116928294Y-146339801D01*
X116928294Y-146339801D02*
X116879913Y-146388182D01*
X116444485Y-146775230D02*
X116105818Y-146775230D01*
X115960675Y-147307420D02*
X116444485Y-147307420D01*
X116444485Y-147307420D02*
X116444485Y-146291420D01*
X116444485Y-146291420D02*
X115960675Y-146291420D01*
X115041437Y-147307420D02*
X115525247Y-147307420D01*
X115525247Y-147307420D02*
X115525247Y-146291420D01*
X114218961Y-147307420D02*
X114702771Y-147307420D01*
X114702771Y-147307420D02*
X114702771Y-146291420D01*
X174380676Y-149593420D02*
X174380676Y-148577420D01*
X174380676Y-148577420D02*
X173993628Y-148577420D01*
X173993628Y-148577420D02*
X173896866Y-148625801D01*
X173896866Y-148625801D02*
X173848485Y-148674182D01*
X173848485Y-148674182D02*
X173800104Y-148770944D01*
X173800104Y-148770944D02*
X173800104Y-148916087D01*
X173800104Y-148916087D02*
X173848485Y-149012849D01*
X173848485Y-149012849D02*
X173896866Y-149061230D01*
X173896866Y-149061230D02*
X173993628Y-149109611D01*
X173993628Y-149109611D02*
X174380676Y-149109611D01*
X172784104Y-149593420D02*
X173122771Y-149109611D01*
X173364676Y-149593420D02*
X173364676Y-148577420D01*
X173364676Y-148577420D02*
X172977628Y-148577420D01*
X172977628Y-148577420D02*
X172880866Y-148625801D01*
X172880866Y-148625801D02*
X172832485Y-148674182D01*
X172832485Y-148674182D02*
X172784104Y-148770944D01*
X172784104Y-148770944D02*
X172784104Y-148916087D01*
X172784104Y-148916087D02*
X172832485Y-149012849D01*
X172832485Y-149012849D02*
X172880866Y-149061230D01*
X172880866Y-149061230D02*
X172977628Y-149109611D01*
X172977628Y-149109611D02*
X173364676Y-149109611D01*
X172155152Y-148577420D02*
X171961628Y-148577420D01*
X171961628Y-148577420D02*
X171864866Y-148625801D01*
X171864866Y-148625801D02*
X171768104Y-148722563D01*
X171768104Y-148722563D02*
X171719723Y-148916087D01*
X171719723Y-148916087D02*
X171719723Y-149254754D01*
X171719723Y-149254754D02*
X171768104Y-149448278D01*
X171768104Y-149448278D02*
X171864866Y-149545040D01*
X171864866Y-149545040D02*
X171961628Y-149593420D01*
X171961628Y-149593420D02*
X172155152Y-149593420D01*
X172155152Y-149593420D02*
X172251914Y-149545040D01*
X172251914Y-149545040D02*
X172348676Y-149448278D01*
X172348676Y-149448278D02*
X172397057Y-149254754D01*
X172397057Y-149254754D02*
X172397057Y-148916087D01*
X172397057Y-148916087D02*
X172348676Y-148722563D01*
X172348676Y-148722563D02*
X172251914Y-148625801D01*
X172251914Y-148625801D02*
X172155152Y-148577420D01*
X170752104Y-148625801D02*
X170848866Y-148577420D01*
X170848866Y-148577420D02*
X170994009Y-148577420D01*
X170994009Y-148577420D02*
X171139152Y-148625801D01*
X171139152Y-148625801D02*
X171235914Y-148722563D01*
X171235914Y-148722563D02*
X171284295Y-148819325D01*
X171284295Y-148819325D02*
X171332676Y-149012849D01*
X171332676Y-149012849D02*
X171332676Y-149157992D01*
X171332676Y-149157992D02*
X171284295Y-149351516D01*
X171284295Y-149351516D02*
X171235914Y-149448278D01*
X171235914Y-149448278D02*
X171139152Y-149545040D01*
X171139152Y-149545040D02*
X170994009Y-149593420D01*
X170994009Y-149593420D02*
X170897247Y-149593420D01*
X170897247Y-149593420D02*
X170752104Y-149545040D01*
X170752104Y-149545040D02*
X170703723Y-149496659D01*
X170703723Y-149496659D02*
X170703723Y-149157992D01*
X170703723Y-149157992D02*
X170897247Y-149157992D01*
X169687723Y-149593420D02*
X170026390Y-149109611D01*
X170268295Y-149593420D02*
X170268295Y-148577420D01*
X170268295Y-148577420D02*
X169881247Y-148577420D01*
X169881247Y-148577420D02*
X169784485Y-148625801D01*
X169784485Y-148625801D02*
X169736104Y-148674182D01*
X169736104Y-148674182D02*
X169687723Y-148770944D01*
X169687723Y-148770944D02*
X169687723Y-148916087D01*
X169687723Y-148916087D02*
X169736104Y-149012849D01*
X169736104Y-149012849D02*
X169784485Y-149061230D01*
X169784485Y-149061230D02*
X169881247Y-149109611D01*
X169881247Y-149109611D02*
X170268295Y-149109611D01*
X169300676Y-149303135D02*
X168816866Y-149303135D01*
X169397438Y-149593420D02*
X169058771Y-148577420D01*
X169058771Y-148577420D02*
X168720104Y-149593420D01*
X168381438Y-149593420D02*
X168381438Y-148577420D01*
X168381438Y-148577420D02*
X168042771Y-149303135D01*
X168042771Y-149303135D02*
X167704104Y-148577420D01*
X167704104Y-148577420D02*
X167704104Y-149593420D01*
X167220295Y-149593420D02*
X167220295Y-148577420D01*
X167220295Y-148577420D02*
X166881628Y-149303135D01*
X166881628Y-149303135D02*
X166542961Y-148577420D01*
X166542961Y-148577420D02*
X166542961Y-149593420D01*
X166059152Y-149061230D02*
X165720485Y-149061230D01*
X165575342Y-149593420D02*
X166059152Y-149593420D01*
X166059152Y-149593420D02*
X166059152Y-148577420D01*
X166059152Y-148577420D02*
X165575342Y-148577420D01*
X164559342Y-149593420D02*
X164898009Y-149109611D01*
X165139914Y-149593420D02*
X165139914Y-148577420D01*
X165139914Y-148577420D02*
X164752866Y-148577420D01*
X164752866Y-148577420D02*
X164656104Y-148625801D01*
X164656104Y-148625801D02*
X164607723Y-148674182D01*
X164607723Y-148674182D02*
X164559342Y-148770944D01*
X164559342Y-148770944D02*
X164559342Y-148916087D01*
X164559342Y-148916087D02*
X164607723Y-149012849D01*
X164607723Y-149012849D02*
X164656104Y-149061230D01*
X164656104Y-149061230D02*
X164752866Y-149109611D01*
X164752866Y-149109611D02*
X165139914Y-149109611D01*
D11*
X104914294Y-98008209D02*
X104580961Y-98008209D01*
X104438104Y-98532019D02*
X104914294Y-98532019D01*
X104914294Y-98532019D02*
X104914294Y-97532019D01*
X104914294Y-97532019D02*
X104438104Y-97532019D01*
X104009532Y-98151066D02*
X103247628Y-98151066D01*
X102771437Y-98532019D02*
X102771437Y-97532019D01*
X102771437Y-97532019D02*
X102438104Y-98246304D01*
X102438104Y-98246304D02*
X102104771Y-97532019D01*
X102104771Y-97532019D02*
X102104771Y-98532019D01*
X101676199Y-98246304D02*
X101200009Y-98246304D01*
X101771437Y-98532019D02*
X101438104Y-97532019D01*
X101438104Y-97532019D02*
X101104771Y-98532019D01*
X100914294Y-97532019D02*
X100342866Y-97532019D01*
X100628580Y-98532019D02*
X100628580Y-97532019D01*
X99438104Y-98436780D02*
X99485723Y-98484400D01*
X99485723Y-98484400D02*
X99628580Y-98532019D01*
X99628580Y-98532019D02*
X99723818Y-98532019D01*
X99723818Y-98532019D02*
X99866675Y-98484400D01*
X99866675Y-98484400D02*
X99961913Y-98389161D01*
X99961913Y-98389161D02*
X100009532Y-98293923D01*
X100009532Y-98293923D02*
X100057151Y-98103447D01*
X100057151Y-98103447D02*
X100057151Y-97960590D01*
X100057151Y-97960590D02*
X100009532Y-97770114D01*
X100009532Y-97770114D02*
X99961913Y-97674876D01*
X99961913Y-97674876D02*
X99866675Y-97579638D01*
X99866675Y-97579638D02*
X99723818Y-97532019D01*
X99723818Y-97532019D02*
X99628580Y-97532019D01*
X99628580Y-97532019D02*
X99485723Y-97579638D01*
X99485723Y-97579638D02*
X99438104Y-97627257D01*
X99009532Y-98532019D02*
X99009532Y-97532019D01*
X99009532Y-98008209D02*
X98438104Y-98008209D01*
X98438104Y-98532019D02*
X98438104Y-97532019D01*
D10*
X131424437Y-149151460D02*
X131908247Y-149151460D01*
X131908247Y-149151460D02*
X131908247Y-148135460D01*
X130892247Y-148135460D02*
X130698723Y-148135460D01*
X130698723Y-148135460D02*
X130601961Y-148183841D01*
X130601961Y-148183841D02*
X130505199Y-148280603D01*
X130505199Y-148280603D02*
X130456818Y-148474127D01*
X130456818Y-148474127D02*
X130456818Y-148812794D01*
X130456818Y-148812794D02*
X130505199Y-149006318D01*
X130505199Y-149006318D02*
X130601961Y-149103080D01*
X130601961Y-149103080D02*
X130698723Y-149151460D01*
X130698723Y-149151460D02*
X130892247Y-149151460D01*
X130892247Y-149151460D02*
X130989009Y-149103080D01*
X130989009Y-149103080D02*
X131085771Y-149006318D01*
X131085771Y-149006318D02*
X131134152Y-148812794D01*
X131134152Y-148812794D02*
X131134152Y-148474127D01*
X131134152Y-148474127D02*
X131085771Y-148280603D01*
X131085771Y-148280603D02*
X130989009Y-148183841D01*
X130989009Y-148183841D02*
X130892247Y-148135460D01*
X130118152Y-148135460D02*
X129440818Y-149151460D01*
X129440818Y-148135460D02*
X130118152Y-149151460D01*
X128424819Y-148135460D02*
X127844247Y-148135460D01*
X128134533Y-149151460D02*
X128134533Y-148135460D01*
X127553962Y-148861175D02*
X127070152Y-148861175D01*
X127650724Y-149151460D02*
X127312057Y-148135460D01*
X127312057Y-148135460D02*
X126973390Y-149151460D01*
X126634724Y-149151460D02*
X126634724Y-148135460D01*
X126634724Y-148135460D02*
X126054152Y-149151460D01*
X126054152Y-149151460D02*
X126054152Y-148135460D01*
X125570343Y-149151460D02*
X125570343Y-148135460D01*
X124989771Y-149151460D02*
X125425200Y-148570889D01*
X124989771Y-148135460D02*
X125570343Y-148716032D01*
X129271485Y-149781380D02*
X128690913Y-149781380D01*
X128981199Y-150797380D02*
X128981199Y-149781380D01*
X127771675Y-150700619D02*
X127820056Y-150749000D01*
X127820056Y-150749000D02*
X127965199Y-150797380D01*
X127965199Y-150797380D02*
X128061961Y-150797380D01*
X128061961Y-150797380D02*
X128207104Y-150749000D01*
X128207104Y-150749000D02*
X128303866Y-150652238D01*
X128303866Y-150652238D02*
X128352247Y-150555476D01*
X128352247Y-150555476D02*
X128400628Y-150361952D01*
X128400628Y-150361952D02*
X128400628Y-150216809D01*
X128400628Y-150216809D02*
X128352247Y-150023285D01*
X128352247Y-150023285D02*
X128303866Y-149926523D01*
X128303866Y-149926523D02*
X128207104Y-149829761D01*
X128207104Y-149829761D02*
X128061961Y-149781380D01*
X128061961Y-149781380D02*
X127965199Y-149781380D01*
X127965199Y-149781380D02*
X127820056Y-149829761D01*
X127820056Y-149829761D02*
X127771675Y-149878142D01*
D11*
X124869247Y-98532019D02*
X124869247Y-97532019D01*
X124869247Y-97532019D02*
X124297819Y-98532019D01*
X124297819Y-98532019D02*
X124297819Y-97532019D01*
X123631152Y-97532019D02*
X123440676Y-97532019D01*
X123440676Y-97532019D02*
X123345438Y-97579638D01*
X123345438Y-97579638D02*
X123250200Y-97674876D01*
X123250200Y-97674876D02*
X123202581Y-97865352D01*
X123202581Y-97865352D02*
X123202581Y-98198685D01*
X123202581Y-98198685D02*
X123250200Y-98389161D01*
X123250200Y-98389161D02*
X123345438Y-98484400D01*
X123345438Y-98484400D02*
X123440676Y-98532019D01*
X123440676Y-98532019D02*
X123631152Y-98532019D01*
X123631152Y-98532019D02*
X123726390Y-98484400D01*
X123726390Y-98484400D02*
X123821628Y-98389161D01*
X123821628Y-98389161D02*
X123869247Y-98198685D01*
X123869247Y-98198685D02*
X123869247Y-97865352D01*
X123869247Y-97865352D02*
X123821628Y-97674876D01*
X123821628Y-97674876D02*
X123726390Y-97579638D01*
X123726390Y-97579638D02*
X123631152Y-97532019D01*
X122869247Y-97532019D02*
X122202581Y-97532019D01*
X122202581Y-97532019D02*
X122869247Y-98532019D01*
X122869247Y-98532019D02*
X122202581Y-98532019D01*
X121916866Y-97532019D02*
X121250200Y-97532019D01*
X121250200Y-97532019D02*
X121916866Y-98532019D01*
X121916866Y-98532019D02*
X121250200Y-98532019D01*
X120393057Y-98532019D02*
X120869247Y-98532019D01*
X120869247Y-98532019D02*
X120869247Y-97532019D01*
X120059723Y-98008209D02*
X119726390Y-98008209D01*
X119583533Y-98532019D02*
X120059723Y-98532019D01*
X120059723Y-98532019D02*
X120059723Y-97532019D01*
X120059723Y-97532019D02*
X119583533Y-97532019D01*
X116320342Y-98611400D02*
X116177485Y-98659019D01*
X116177485Y-98659019D02*
X115939390Y-98659019D01*
X115939390Y-98659019D02*
X115844152Y-98611400D01*
X115844152Y-98611400D02*
X115796533Y-98563780D01*
X115796533Y-98563780D02*
X115748914Y-98468542D01*
X115748914Y-98468542D02*
X115748914Y-98373304D01*
X115748914Y-98373304D02*
X115796533Y-98278066D01*
X115796533Y-98278066D02*
X115844152Y-98230447D01*
X115844152Y-98230447D02*
X115939390Y-98182828D01*
X115939390Y-98182828D02*
X116129866Y-98135209D01*
X116129866Y-98135209D02*
X116225104Y-98087590D01*
X116225104Y-98087590D02*
X116272723Y-98039971D01*
X116272723Y-98039971D02*
X116320342Y-97944733D01*
X116320342Y-97944733D02*
X116320342Y-97849495D01*
X116320342Y-97849495D02*
X116272723Y-97754257D01*
X116272723Y-97754257D02*
X116225104Y-97706638D01*
X116225104Y-97706638D02*
X116129866Y-97659019D01*
X116129866Y-97659019D02*
X115891771Y-97659019D01*
X115891771Y-97659019D02*
X115748914Y-97706638D01*
X115129866Y-97659019D02*
X114939390Y-97659019D01*
X114939390Y-97659019D02*
X114844152Y-97706638D01*
X114844152Y-97706638D02*
X114748914Y-97801876D01*
X114748914Y-97801876D02*
X114701295Y-97992352D01*
X114701295Y-97992352D02*
X114701295Y-98325685D01*
X114701295Y-98325685D02*
X114748914Y-98516161D01*
X114748914Y-98516161D02*
X114844152Y-98611400D01*
X114844152Y-98611400D02*
X114939390Y-98659019D01*
X114939390Y-98659019D02*
X115129866Y-98659019D01*
X115129866Y-98659019D02*
X115225104Y-98611400D01*
X115225104Y-98611400D02*
X115320342Y-98516161D01*
X115320342Y-98516161D02*
X115367961Y-98325685D01*
X115367961Y-98325685D02*
X115367961Y-97992352D01*
X115367961Y-97992352D02*
X115320342Y-97801876D01*
X115320342Y-97801876D02*
X115225104Y-97706638D01*
X115225104Y-97706638D02*
X115129866Y-97659019D01*
X113796533Y-98659019D02*
X114272723Y-98659019D01*
X114272723Y-98659019D02*
X114272723Y-97659019D01*
X113463199Y-98659019D02*
X113463199Y-97659019D01*
X112987009Y-98659019D02*
X112987009Y-97659019D01*
X112987009Y-97659019D02*
X112748914Y-97659019D01*
X112748914Y-97659019D02*
X112606057Y-97706638D01*
X112606057Y-97706638D02*
X112510819Y-97801876D01*
X112510819Y-97801876D02*
X112463200Y-97897114D01*
X112463200Y-97897114D02*
X112415581Y-98087590D01*
X112415581Y-98087590D02*
X112415581Y-98230447D01*
X112415581Y-98230447D02*
X112463200Y-98420923D01*
X112463200Y-98420923D02*
X112510819Y-98516161D01*
X112510819Y-98516161D02*
X112606057Y-98611400D01*
X112606057Y-98611400D02*
X112748914Y-98659019D01*
X112748914Y-98659019D02*
X112987009Y-98659019D01*
X111225104Y-98659019D02*
X111225104Y-97659019D01*
X111225104Y-97659019D02*
X110844152Y-97659019D01*
X110844152Y-97659019D02*
X110748914Y-97706638D01*
X110748914Y-97706638D02*
X110701295Y-97754257D01*
X110701295Y-97754257D02*
X110653676Y-97849495D01*
X110653676Y-97849495D02*
X110653676Y-97992352D01*
X110653676Y-97992352D02*
X110701295Y-98087590D01*
X110701295Y-98087590D02*
X110748914Y-98135209D01*
X110748914Y-98135209D02*
X110844152Y-98182828D01*
X110844152Y-98182828D02*
X111225104Y-98182828D01*
X109653676Y-98659019D02*
X109987009Y-98182828D01*
X110225104Y-98659019D02*
X110225104Y-97659019D01*
X110225104Y-97659019D02*
X109844152Y-97659019D01*
X109844152Y-97659019D02*
X109748914Y-97706638D01*
X109748914Y-97706638D02*
X109701295Y-97754257D01*
X109701295Y-97754257D02*
X109653676Y-97849495D01*
X109653676Y-97849495D02*
X109653676Y-97992352D01*
X109653676Y-97992352D02*
X109701295Y-98087590D01*
X109701295Y-98087590D02*
X109748914Y-98135209D01*
X109748914Y-98135209D02*
X109844152Y-98182828D01*
X109844152Y-98182828D02*
X110225104Y-98182828D01*
X109034628Y-97659019D02*
X108844152Y-97659019D01*
X108844152Y-97659019D02*
X108748914Y-97706638D01*
X108748914Y-97706638D02*
X108653676Y-97801876D01*
X108653676Y-97801876D02*
X108606057Y-97992352D01*
X108606057Y-97992352D02*
X108606057Y-98325685D01*
X108606057Y-98325685D02*
X108653676Y-98516161D01*
X108653676Y-98516161D02*
X108748914Y-98611400D01*
X108748914Y-98611400D02*
X108844152Y-98659019D01*
X108844152Y-98659019D02*
X109034628Y-98659019D01*
X109034628Y-98659019D02*
X109129866Y-98611400D01*
X109129866Y-98611400D02*
X109225104Y-98516161D01*
X109225104Y-98516161D02*
X109272723Y-98325685D01*
X109272723Y-98325685D02*
X109272723Y-97992352D01*
X109272723Y-97992352D02*
X109225104Y-97801876D01*
X109225104Y-97801876D02*
X109129866Y-97706638D01*
X109129866Y-97706638D02*
X109034628Y-97659019D01*
X108177485Y-98659019D02*
X108177485Y-97659019D01*
X108177485Y-97659019D02*
X107796533Y-97659019D01*
X107796533Y-97659019D02*
X107701295Y-97706638D01*
X107701295Y-97706638D02*
X107653676Y-97754257D01*
X107653676Y-97754257D02*
X107606057Y-97849495D01*
X107606057Y-97849495D02*
X107606057Y-97992352D01*
X107606057Y-97992352D02*
X107653676Y-98087590D01*
X107653676Y-98087590D02*
X107701295Y-98135209D01*
X107701295Y-98135209D02*
X107796533Y-98182828D01*
X107796533Y-98182828D02*
X108177485Y-98182828D01*
D10*
X158433104Y-148450420D02*
X158094437Y-149466420D01*
X158094437Y-149466420D02*
X157755770Y-148450420D01*
X157465485Y-149176135D02*
X156981675Y-149176135D01*
X157562247Y-149466420D02*
X157223580Y-148450420D01*
X157223580Y-148450420D02*
X156884913Y-149466420D01*
X156062437Y-149466420D02*
X156546247Y-149466420D01*
X156546247Y-149466420D02*
X156546247Y-148450420D01*
X155868914Y-148450420D02*
X155530247Y-149466420D01*
X155530247Y-149466420D02*
X155191580Y-148450420D01*
X154852914Y-148934230D02*
X154514247Y-148934230D01*
X154369104Y-149466420D02*
X154852914Y-149466420D01*
X154852914Y-149466420D02*
X154852914Y-148450420D01*
X154852914Y-148450420D02*
X154369104Y-148450420D01*
X152579009Y-149369659D02*
X152627390Y-149418040D01*
X152627390Y-149418040D02*
X152772533Y-149466420D01*
X152772533Y-149466420D02*
X152869295Y-149466420D01*
X152869295Y-149466420D02*
X153014438Y-149418040D01*
X153014438Y-149418040D02*
X153111200Y-149321278D01*
X153111200Y-149321278D02*
X153159581Y-149224516D01*
X153159581Y-149224516D02*
X153207962Y-149030992D01*
X153207962Y-149030992D02*
X153207962Y-148885849D01*
X153207962Y-148885849D02*
X153159581Y-148692325D01*
X153159581Y-148692325D02*
X153111200Y-148595563D01*
X153111200Y-148595563D02*
X153014438Y-148498801D01*
X153014438Y-148498801D02*
X152869295Y-148450420D01*
X152869295Y-148450420D02*
X152772533Y-148450420D01*
X152772533Y-148450420D02*
X152627390Y-148498801D01*
X152627390Y-148498801D02*
X152579009Y-148547182D01*
X152143581Y-149466420D02*
X152143581Y-148450420D01*
X152143581Y-148450420D02*
X151563009Y-149466420D01*
X151563009Y-149466420D02*
X151563009Y-148450420D01*
X151224343Y-148450420D02*
X150643771Y-148450420D01*
X150934057Y-149466420D02*
X150934057Y-148450420D01*
X149724533Y-149466420D02*
X150063200Y-148982611D01*
X150305105Y-149466420D02*
X150305105Y-148450420D01*
X150305105Y-148450420D02*
X149918057Y-148450420D01*
X149918057Y-148450420D02*
X149821295Y-148498801D01*
X149821295Y-148498801D02*
X149772914Y-148547182D01*
X149772914Y-148547182D02*
X149724533Y-148643944D01*
X149724533Y-148643944D02*
X149724533Y-148789087D01*
X149724533Y-148789087D02*
X149772914Y-148885849D01*
X149772914Y-148885849D02*
X149821295Y-148934230D01*
X149821295Y-148934230D02*
X149918057Y-148982611D01*
X149918057Y-148982611D02*
X150305105Y-148982611D01*
X148805295Y-149466420D02*
X149289105Y-149466420D01*
X149289105Y-149466420D02*
X149289105Y-148450420D01*
X93713179Y-139380685D02*
X94729179Y-139380685D01*
X94729179Y-139380685D02*
X94729179Y-138993637D01*
X94729179Y-138993637D02*
X94680798Y-138896875D01*
X94680798Y-138896875D02*
X94632417Y-138848494D01*
X94632417Y-138848494D02*
X94535655Y-138800113D01*
X94535655Y-138800113D02*
X94390512Y-138800113D01*
X94390512Y-138800113D02*
X94293750Y-138848494D01*
X94293750Y-138848494D02*
X94245369Y-138896875D01*
X94245369Y-138896875D02*
X94196988Y-138993637D01*
X94196988Y-138993637D02*
X94196988Y-139380685D01*
X93713179Y-137784113D02*
X94196988Y-138122780D01*
X93713179Y-138364685D02*
X94729179Y-138364685D01*
X94729179Y-138364685D02*
X94729179Y-137977637D01*
X94729179Y-137977637D02*
X94680798Y-137880875D01*
X94680798Y-137880875D02*
X94632417Y-137832494D01*
X94632417Y-137832494D02*
X94535655Y-137784113D01*
X94535655Y-137784113D02*
X94390512Y-137784113D01*
X94390512Y-137784113D02*
X94293750Y-137832494D01*
X94293750Y-137832494D02*
X94245369Y-137880875D01*
X94245369Y-137880875D02*
X94196988Y-137977637D01*
X94196988Y-137977637D02*
X94196988Y-138364685D01*
X94245369Y-137348685D02*
X94245369Y-137010018D01*
X93713179Y-136864875D02*
X93713179Y-137348685D01*
X93713179Y-137348685D02*
X94729179Y-137348685D01*
X94729179Y-137348685D02*
X94729179Y-136864875D01*
X93761560Y-136477828D02*
X93713179Y-136332685D01*
X93713179Y-136332685D02*
X93713179Y-136090780D01*
X93713179Y-136090780D02*
X93761560Y-135994018D01*
X93761560Y-135994018D02*
X93809940Y-135945637D01*
X93809940Y-135945637D02*
X93906702Y-135897256D01*
X93906702Y-135897256D02*
X94003464Y-135897256D01*
X94003464Y-135897256D02*
X94100226Y-135945637D01*
X94100226Y-135945637D02*
X94148607Y-135994018D01*
X94148607Y-135994018D02*
X94196988Y-136090780D01*
X94196988Y-136090780D02*
X94245369Y-136284304D01*
X94245369Y-136284304D02*
X94293750Y-136381066D01*
X94293750Y-136381066D02*
X94342131Y-136429447D01*
X94342131Y-136429447D02*
X94438893Y-136477828D01*
X94438893Y-136477828D02*
X94535655Y-136477828D01*
X94535655Y-136477828D02*
X94632417Y-136429447D01*
X94632417Y-136429447D02*
X94680798Y-136381066D01*
X94680798Y-136381066D02*
X94729179Y-136284304D01*
X94729179Y-136284304D02*
X94729179Y-136042399D01*
X94729179Y-136042399D02*
X94680798Y-135897256D01*
X93761560Y-135510209D02*
X93713179Y-135365066D01*
X93713179Y-135365066D02*
X93713179Y-135123161D01*
X93713179Y-135123161D02*
X93761560Y-135026399D01*
X93761560Y-135026399D02*
X93809940Y-134978018D01*
X93809940Y-134978018D02*
X93906702Y-134929637D01*
X93906702Y-134929637D02*
X94003464Y-134929637D01*
X94003464Y-134929637D02*
X94100226Y-134978018D01*
X94100226Y-134978018D02*
X94148607Y-135026399D01*
X94148607Y-135026399D02*
X94196988Y-135123161D01*
X94196988Y-135123161D02*
X94245369Y-135316685D01*
X94245369Y-135316685D02*
X94293750Y-135413447D01*
X94293750Y-135413447D02*
X94342131Y-135461828D01*
X94342131Y-135461828D02*
X94438893Y-135510209D01*
X94438893Y-135510209D02*
X94535655Y-135510209D01*
X94535655Y-135510209D02*
X94632417Y-135461828D01*
X94632417Y-135461828D02*
X94680798Y-135413447D01*
X94680798Y-135413447D02*
X94729179Y-135316685D01*
X94729179Y-135316685D02*
X94729179Y-135074780D01*
X94729179Y-135074780D02*
X94680798Y-134929637D01*
X94729179Y-134494209D02*
X93906702Y-134494209D01*
X93906702Y-134494209D02*
X93809940Y-134445828D01*
X93809940Y-134445828D02*
X93761560Y-134397447D01*
X93761560Y-134397447D02*
X93713179Y-134300685D01*
X93713179Y-134300685D02*
X93713179Y-134107161D01*
X93713179Y-134107161D02*
X93761560Y-134010399D01*
X93761560Y-134010399D02*
X93809940Y-133962018D01*
X93809940Y-133962018D02*
X93906702Y-133913637D01*
X93906702Y-133913637D02*
X94729179Y-133913637D01*
X93713179Y-132849256D02*
X94196988Y-133187923D01*
X93713179Y-133429828D02*
X94729179Y-133429828D01*
X94729179Y-133429828D02*
X94729179Y-133042780D01*
X94729179Y-133042780D02*
X94680798Y-132946018D01*
X94680798Y-132946018D02*
X94632417Y-132897637D01*
X94632417Y-132897637D02*
X94535655Y-132849256D01*
X94535655Y-132849256D02*
X94390512Y-132849256D01*
X94390512Y-132849256D02*
X94293750Y-132897637D01*
X94293750Y-132897637D02*
X94245369Y-132946018D01*
X94245369Y-132946018D02*
X94196988Y-133042780D01*
X94196988Y-133042780D02*
X94196988Y-133429828D01*
X94245369Y-132413828D02*
X94245369Y-132075161D01*
X93713179Y-131930018D02*
X93713179Y-132413828D01*
X93713179Y-132413828D02*
X94729179Y-132413828D01*
X94729179Y-132413828D02*
X94729179Y-131930018D01*
X94729179Y-130865638D02*
X94729179Y-130285066D01*
X93713179Y-130575352D02*
X94729179Y-130575352D01*
X93713179Y-129365828D02*
X94196988Y-129704495D01*
X93713179Y-129946400D02*
X94729179Y-129946400D01*
X94729179Y-129946400D02*
X94729179Y-129559352D01*
X94729179Y-129559352D02*
X94680798Y-129462590D01*
X94680798Y-129462590D02*
X94632417Y-129414209D01*
X94632417Y-129414209D02*
X94535655Y-129365828D01*
X94535655Y-129365828D02*
X94390512Y-129365828D01*
X94390512Y-129365828D02*
X94293750Y-129414209D01*
X94293750Y-129414209D02*
X94245369Y-129462590D01*
X94245369Y-129462590D02*
X94196988Y-129559352D01*
X94196988Y-129559352D02*
X94196988Y-129946400D01*
X94003464Y-128978781D02*
X94003464Y-128494971D01*
X93713179Y-129075543D02*
X94729179Y-128736876D01*
X94729179Y-128736876D02*
X93713179Y-128398209D01*
X93713179Y-128059543D02*
X94729179Y-128059543D01*
X94729179Y-128059543D02*
X93713179Y-127478971D01*
X93713179Y-127478971D02*
X94729179Y-127478971D01*
X93761560Y-127043543D02*
X93713179Y-126898400D01*
X93713179Y-126898400D02*
X93713179Y-126656495D01*
X93713179Y-126656495D02*
X93761560Y-126559733D01*
X93761560Y-126559733D02*
X93809940Y-126511352D01*
X93809940Y-126511352D02*
X93906702Y-126462971D01*
X93906702Y-126462971D02*
X94003464Y-126462971D01*
X94003464Y-126462971D02*
X94100226Y-126511352D01*
X94100226Y-126511352D02*
X94148607Y-126559733D01*
X94148607Y-126559733D02*
X94196988Y-126656495D01*
X94196988Y-126656495D02*
X94245369Y-126850019D01*
X94245369Y-126850019D02*
X94293750Y-126946781D01*
X94293750Y-126946781D02*
X94342131Y-126995162D01*
X94342131Y-126995162D02*
X94438893Y-127043543D01*
X94438893Y-127043543D02*
X94535655Y-127043543D01*
X94535655Y-127043543D02*
X94632417Y-126995162D01*
X94632417Y-126995162D02*
X94680798Y-126946781D01*
X94680798Y-126946781D02*
X94729179Y-126850019D01*
X94729179Y-126850019D02*
X94729179Y-126608114D01*
X94729179Y-126608114D02*
X94680798Y-126462971D01*
X93713179Y-126027543D02*
X94729179Y-126027543D01*
X94729179Y-126027543D02*
X94729179Y-125785638D01*
X94729179Y-125785638D02*
X94680798Y-125640495D01*
X94680798Y-125640495D02*
X94584036Y-125543733D01*
X94584036Y-125543733D02*
X94487274Y-125495352D01*
X94487274Y-125495352D02*
X94293750Y-125446971D01*
X94293750Y-125446971D02*
X94148607Y-125446971D01*
X94148607Y-125446971D02*
X93955083Y-125495352D01*
X93955083Y-125495352D02*
X93858321Y-125543733D01*
X93858321Y-125543733D02*
X93761560Y-125640495D01*
X93761560Y-125640495D02*
X93713179Y-125785638D01*
X93713179Y-125785638D02*
X93713179Y-126027543D01*
X94729179Y-125011543D02*
X93906702Y-125011543D01*
X93906702Y-125011543D02*
X93809940Y-124963162D01*
X93809940Y-124963162D02*
X93761560Y-124914781D01*
X93761560Y-124914781D02*
X93713179Y-124818019D01*
X93713179Y-124818019D02*
X93713179Y-124624495D01*
X93713179Y-124624495D02*
X93761560Y-124527733D01*
X93761560Y-124527733D02*
X93809940Y-124479352D01*
X93809940Y-124479352D02*
X93906702Y-124430971D01*
X93906702Y-124430971D02*
X94729179Y-124430971D01*
X93809940Y-123366590D02*
X93761560Y-123414971D01*
X93761560Y-123414971D02*
X93713179Y-123560114D01*
X93713179Y-123560114D02*
X93713179Y-123656876D01*
X93713179Y-123656876D02*
X93761560Y-123802019D01*
X93761560Y-123802019D02*
X93858321Y-123898781D01*
X93858321Y-123898781D02*
X93955083Y-123947162D01*
X93955083Y-123947162D02*
X94148607Y-123995543D01*
X94148607Y-123995543D02*
X94293750Y-123995543D01*
X94293750Y-123995543D02*
X94487274Y-123947162D01*
X94487274Y-123947162D02*
X94584036Y-123898781D01*
X94584036Y-123898781D02*
X94680798Y-123802019D01*
X94680798Y-123802019D02*
X94729179Y-123656876D01*
X94729179Y-123656876D02*
X94729179Y-123560114D01*
X94729179Y-123560114D02*
X94680798Y-123414971D01*
X94680798Y-123414971D02*
X94632417Y-123366590D01*
X94245369Y-122931162D02*
X94245369Y-122592495D01*
X93713179Y-122447352D02*
X93713179Y-122931162D01*
X93713179Y-122931162D02*
X94729179Y-122931162D01*
X94729179Y-122931162D02*
X94729179Y-122447352D01*
X93713179Y-121431352D02*
X94196988Y-121770019D01*
X93713179Y-122011924D02*
X94729179Y-122011924D01*
X94729179Y-122011924D02*
X94729179Y-121624876D01*
X94729179Y-121624876D02*
X94680798Y-121528114D01*
X94680798Y-121528114D02*
X94632417Y-121479733D01*
X94632417Y-121479733D02*
X94535655Y-121431352D01*
X94535655Y-121431352D02*
X94390512Y-121431352D01*
X94390512Y-121431352D02*
X94293750Y-121479733D01*
X94293750Y-121479733D02*
X94245369Y-121528114D01*
X94245369Y-121528114D02*
X94196988Y-121624876D01*
X94196988Y-121624876D02*
X94196988Y-122011924D01*
X93761560Y-121044305D02*
X93713179Y-120899162D01*
X93713179Y-120899162D02*
X93713179Y-120657257D01*
X93713179Y-120657257D02*
X93761560Y-120560495D01*
X93761560Y-120560495D02*
X93809940Y-120512114D01*
X93809940Y-120512114D02*
X93906702Y-120463733D01*
X93906702Y-120463733D02*
X94003464Y-120463733D01*
X94003464Y-120463733D02*
X94100226Y-120512114D01*
X94100226Y-120512114D02*
X94148607Y-120560495D01*
X94148607Y-120560495D02*
X94196988Y-120657257D01*
X94196988Y-120657257D02*
X94245369Y-120850781D01*
X94245369Y-120850781D02*
X94293750Y-120947543D01*
X94293750Y-120947543D02*
X94342131Y-120995924D01*
X94342131Y-120995924D02*
X94438893Y-121044305D01*
X94438893Y-121044305D02*
X94535655Y-121044305D01*
X94535655Y-121044305D02*
X94632417Y-120995924D01*
X94632417Y-120995924D02*
X94680798Y-120947543D01*
X94680798Y-120947543D02*
X94729179Y-120850781D01*
X94729179Y-120850781D02*
X94729179Y-120608876D01*
X94729179Y-120608876D02*
X94680798Y-120463733D01*
D11*
%TO.C,TP1*%
X161866104Y-132406219D02*
X161294676Y-132406219D01*
X161580390Y-133406219D02*
X161580390Y-132406219D01*
X160961342Y-133406219D02*
X160961342Y-132406219D01*
X160961342Y-132406219D02*
X160580390Y-132406219D01*
X160580390Y-132406219D02*
X160485152Y-132453838D01*
X160485152Y-132453838D02*
X160437533Y-132501457D01*
X160437533Y-132501457D02*
X160389914Y-132596695D01*
X160389914Y-132596695D02*
X160389914Y-132739552D01*
X160389914Y-132739552D02*
X160437533Y-132834790D01*
X160437533Y-132834790D02*
X160485152Y-132882409D01*
X160485152Y-132882409D02*
X160580390Y-132930028D01*
X160580390Y-132930028D02*
X160961342Y-132930028D01*
X159437533Y-133406219D02*
X160008961Y-133406219D01*
X159723247Y-133406219D02*
X159723247Y-132406219D01*
X159723247Y-132406219D02*
X159818485Y-132549076D01*
X159818485Y-132549076D02*
X159913723Y-132644314D01*
X159913723Y-132644314D02*
X160008961Y-132691933D01*
%TO.C,TP3*%
X181932104Y-146935019D02*
X181360676Y-146935019D01*
X181646390Y-147935019D02*
X181646390Y-146935019D01*
X181027342Y-147935019D02*
X181027342Y-146935019D01*
X181027342Y-146935019D02*
X180646390Y-146935019D01*
X180646390Y-146935019D02*
X180551152Y-146982638D01*
X180551152Y-146982638D02*
X180503533Y-147030257D01*
X180503533Y-147030257D02*
X180455914Y-147125495D01*
X180455914Y-147125495D02*
X180455914Y-147268352D01*
X180455914Y-147268352D02*
X180503533Y-147363590D01*
X180503533Y-147363590D02*
X180551152Y-147411209D01*
X180551152Y-147411209D02*
X180646390Y-147458828D01*
X180646390Y-147458828D02*
X181027342Y-147458828D01*
X180122580Y-146935019D02*
X179503533Y-146935019D01*
X179503533Y-146935019D02*
X179836866Y-147315971D01*
X179836866Y-147315971D02*
X179694009Y-147315971D01*
X179694009Y-147315971D02*
X179598771Y-147363590D01*
X179598771Y-147363590D02*
X179551152Y-147411209D01*
X179551152Y-147411209D02*
X179503533Y-147506447D01*
X179503533Y-147506447D02*
X179503533Y-147744542D01*
X179503533Y-147744542D02*
X179551152Y-147839780D01*
X179551152Y-147839780D02*
X179598771Y-147887400D01*
X179598771Y-147887400D02*
X179694009Y-147935019D01*
X179694009Y-147935019D02*
X179979723Y-147935019D01*
X179979723Y-147935019D02*
X180074961Y-147887400D01*
X180074961Y-147887400D02*
X180122580Y-147839780D01*
%TO.C,TP4*%
X167797004Y-109749419D02*
X167225576Y-109749419D01*
X167511290Y-110749419D02*
X167511290Y-109749419D01*
X166892242Y-110749419D02*
X166892242Y-109749419D01*
X166892242Y-109749419D02*
X166511290Y-109749419D01*
X166511290Y-109749419D02*
X166416052Y-109797038D01*
X166416052Y-109797038D02*
X166368433Y-109844657D01*
X166368433Y-109844657D02*
X166320814Y-109939895D01*
X166320814Y-109939895D02*
X166320814Y-110082752D01*
X166320814Y-110082752D02*
X166368433Y-110177990D01*
X166368433Y-110177990D02*
X166416052Y-110225609D01*
X166416052Y-110225609D02*
X166511290Y-110273228D01*
X166511290Y-110273228D02*
X166892242Y-110273228D01*
X165463671Y-110082752D02*
X165463671Y-110749419D01*
X165701766Y-109701800D02*
X165939861Y-110416085D01*
X165939861Y-110416085D02*
X165320814Y-110416085D01*
%TO.C,TP5*%
X181678104Y-144776019D02*
X181106676Y-144776019D01*
X181392390Y-145776019D02*
X181392390Y-144776019D01*
X180773342Y-145776019D02*
X180773342Y-144776019D01*
X180773342Y-144776019D02*
X180392390Y-144776019D01*
X180392390Y-144776019D02*
X180297152Y-144823638D01*
X180297152Y-144823638D02*
X180249533Y-144871257D01*
X180249533Y-144871257D02*
X180201914Y-144966495D01*
X180201914Y-144966495D02*
X180201914Y-145109352D01*
X180201914Y-145109352D02*
X180249533Y-145204590D01*
X180249533Y-145204590D02*
X180297152Y-145252209D01*
X180297152Y-145252209D02*
X180392390Y-145299828D01*
X180392390Y-145299828D02*
X180773342Y-145299828D01*
X179297152Y-144776019D02*
X179773342Y-144776019D01*
X179773342Y-144776019D02*
X179820961Y-145252209D01*
X179820961Y-145252209D02*
X179773342Y-145204590D01*
X179773342Y-145204590D02*
X179678104Y-145156971D01*
X179678104Y-145156971D02*
X179440009Y-145156971D01*
X179440009Y-145156971D02*
X179344771Y-145204590D01*
X179344771Y-145204590D02*
X179297152Y-145252209D01*
X179297152Y-145252209D02*
X179249533Y-145347447D01*
X179249533Y-145347447D02*
X179249533Y-145585542D01*
X179249533Y-145585542D02*
X179297152Y-145680780D01*
X179297152Y-145680780D02*
X179344771Y-145728400D01*
X179344771Y-145728400D02*
X179440009Y-145776019D01*
X179440009Y-145776019D02*
X179678104Y-145776019D01*
X179678104Y-145776019D02*
X179773342Y-145728400D01*
X179773342Y-145728400D02*
X179820961Y-145680780D01*
%TO.C,TP10*%
X152182294Y-107184019D02*
X151610866Y-107184019D01*
X151896580Y-108184019D02*
X151896580Y-107184019D01*
X151277532Y-108184019D02*
X151277532Y-107184019D01*
X151277532Y-107184019D02*
X150896580Y-107184019D01*
X150896580Y-107184019D02*
X150801342Y-107231638D01*
X150801342Y-107231638D02*
X150753723Y-107279257D01*
X150753723Y-107279257D02*
X150706104Y-107374495D01*
X150706104Y-107374495D02*
X150706104Y-107517352D01*
X150706104Y-107517352D02*
X150753723Y-107612590D01*
X150753723Y-107612590D02*
X150801342Y-107660209D01*
X150801342Y-107660209D02*
X150896580Y-107707828D01*
X150896580Y-107707828D02*
X151277532Y-107707828D01*
X149753723Y-108184019D02*
X150325151Y-108184019D01*
X150039437Y-108184019D02*
X150039437Y-107184019D01*
X150039437Y-107184019D02*
X150134675Y-107326876D01*
X150134675Y-107326876D02*
X150229913Y-107422114D01*
X150229913Y-107422114D02*
X150325151Y-107469733D01*
X149134675Y-107184019D02*
X149039437Y-107184019D01*
X149039437Y-107184019D02*
X148944199Y-107231638D01*
X148944199Y-107231638D02*
X148896580Y-107279257D01*
X148896580Y-107279257D02*
X148848961Y-107374495D01*
X148848961Y-107374495D02*
X148801342Y-107564971D01*
X148801342Y-107564971D02*
X148801342Y-107803066D01*
X148801342Y-107803066D02*
X148848961Y-107993542D01*
X148848961Y-107993542D02*
X148896580Y-108088780D01*
X148896580Y-108088780D02*
X148944199Y-108136400D01*
X148944199Y-108136400D02*
X149039437Y-108184019D01*
X149039437Y-108184019D02*
X149134675Y-108184019D01*
X149134675Y-108184019D02*
X149229913Y-108136400D01*
X149229913Y-108136400D02*
X149277532Y-108088780D01*
X149277532Y-108088780D02*
X149325151Y-107993542D01*
X149325151Y-107993542D02*
X149372770Y-107803066D01*
X149372770Y-107803066D02*
X149372770Y-107564971D01*
X149372770Y-107564971D02*
X149325151Y-107374495D01*
X149325151Y-107374495D02*
X149277532Y-107279257D01*
X149277532Y-107279257D02*
X149229913Y-107231638D01*
X149229913Y-107231638D02*
X149134675Y-107184019D01*
%TO.C,TP2*%
X181386004Y-104453519D02*
X180814576Y-104453519D01*
X181100290Y-105453519D02*
X181100290Y-104453519D01*
X180481242Y-105453519D02*
X180481242Y-104453519D01*
X180481242Y-104453519D02*
X180100290Y-104453519D01*
X180100290Y-104453519D02*
X180005052Y-104501138D01*
X180005052Y-104501138D02*
X179957433Y-104548757D01*
X179957433Y-104548757D02*
X179909814Y-104643995D01*
X179909814Y-104643995D02*
X179909814Y-104786852D01*
X179909814Y-104786852D02*
X179957433Y-104882090D01*
X179957433Y-104882090D02*
X180005052Y-104929709D01*
X180005052Y-104929709D02*
X180100290Y-104977328D01*
X180100290Y-104977328D02*
X180481242Y-104977328D01*
X179528861Y-104548757D02*
X179481242Y-104501138D01*
X179481242Y-104501138D02*
X179386004Y-104453519D01*
X179386004Y-104453519D02*
X179147909Y-104453519D01*
X179147909Y-104453519D02*
X179052671Y-104501138D01*
X179052671Y-104501138D02*
X179005052Y-104548757D01*
X179005052Y-104548757D02*
X178957433Y-104643995D01*
X178957433Y-104643995D02*
X178957433Y-104739233D01*
X178957433Y-104739233D02*
X179005052Y-104882090D01*
X179005052Y-104882090D02*
X179576480Y-105453519D01*
X179576480Y-105453519D02*
X178957433Y-105453519D01*
%TO.C,TP11*%
X174902594Y-115223119D02*
X174331166Y-115223119D01*
X174616880Y-116223119D02*
X174616880Y-115223119D01*
X173997832Y-116223119D02*
X173997832Y-115223119D01*
X173997832Y-115223119D02*
X173616880Y-115223119D01*
X173616880Y-115223119D02*
X173521642Y-115270738D01*
X173521642Y-115270738D02*
X173474023Y-115318357D01*
X173474023Y-115318357D02*
X173426404Y-115413595D01*
X173426404Y-115413595D02*
X173426404Y-115556452D01*
X173426404Y-115556452D02*
X173474023Y-115651690D01*
X173474023Y-115651690D02*
X173521642Y-115699309D01*
X173521642Y-115699309D02*
X173616880Y-115746928D01*
X173616880Y-115746928D02*
X173997832Y-115746928D01*
X172474023Y-116223119D02*
X173045451Y-116223119D01*
X172759737Y-116223119D02*
X172759737Y-115223119D01*
X172759737Y-115223119D02*
X172854975Y-115365976D01*
X172854975Y-115365976D02*
X172950213Y-115461214D01*
X172950213Y-115461214D02*
X173045451Y-115508833D01*
X171521642Y-116223119D02*
X172093070Y-116223119D01*
X171807356Y-116223119D02*
X171807356Y-115223119D01*
X171807356Y-115223119D02*
X171902594Y-115365976D01*
X171902594Y-115365976D02*
X171997832Y-115461214D01*
X171997832Y-115461214D02*
X172093070Y-115508833D01*
%TO.C,TP8*%
X122242104Y-113407019D02*
X121670676Y-113407019D01*
X121956390Y-114407019D02*
X121956390Y-113407019D01*
X121337342Y-114407019D02*
X121337342Y-113407019D01*
X121337342Y-113407019D02*
X120956390Y-113407019D01*
X120956390Y-113407019D02*
X120861152Y-113454638D01*
X120861152Y-113454638D02*
X120813533Y-113502257D01*
X120813533Y-113502257D02*
X120765914Y-113597495D01*
X120765914Y-113597495D02*
X120765914Y-113740352D01*
X120765914Y-113740352D02*
X120813533Y-113835590D01*
X120813533Y-113835590D02*
X120861152Y-113883209D01*
X120861152Y-113883209D02*
X120956390Y-113930828D01*
X120956390Y-113930828D02*
X121337342Y-113930828D01*
X120194485Y-113835590D02*
X120289723Y-113787971D01*
X120289723Y-113787971D02*
X120337342Y-113740352D01*
X120337342Y-113740352D02*
X120384961Y-113645114D01*
X120384961Y-113645114D02*
X120384961Y-113597495D01*
X120384961Y-113597495D02*
X120337342Y-113502257D01*
X120337342Y-113502257D02*
X120289723Y-113454638D01*
X120289723Y-113454638D02*
X120194485Y-113407019D01*
X120194485Y-113407019D02*
X120004009Y-113407019D01*
X120004009Y-113407019D02*
X119908771Y-113454638D01*
X119908771Y-113454638D02*
X119861152Y-113502257D01*
X119861152Y-113502257D02*
X119813533Y-113597495D01*
X119813533Y-113597495D02*
X119813533Y-113645114D01*
X119813533Y-113645114D02*
X119861152Y-113740352D01*
X119861152Y-113740352D02*
X119908771Y-113787971D01*
X119908771Y-113787971D02*
X120004009Y-113835590D01*
X120004009Y-113835590D02*
X120194485Y-113835590D01*
X120194485Y-113835590D02*
X120289723Y-113883209D01*
X120289723Y-113883209D02*
X120337342Y-113930828D01*
X120337342Y-113930828D02*
X120384961Y-114026066D01*
X120384961Y-114026066D02*
X120384961Y-114216542D01*
X120384961Y-114216542D02*
X120337342Y-114311780D01*
X120337342Y-114311780D02*
X120289723Y-114359400D01*
X120289723Y-114359400D02*
X120194485Y-114407019D01*
X120194485Y-114407019D02*
X120004009Y-114407019D01*
X120004009Y-114407019D02*
X119908771Y-114359400D01*
X119908771Y-114359400D02*
X119861152Y-114311780D01*
X119861152Y-114311780D02*
X119813533Y-114216542D01*
X119813533Y-114216542D02*
X119813533Y-114026066D01*
X119813533Y-114026066D02*
X119861152Y-113930828D01*
X119861152Y-113930828D02*
X119908771Y-113883209D01*
X119908771Y-113883209D02*
X120004009Y-113835590D01*
%TO.C,TP9*%
X186631104Y-137283019D02*
X186059676Y-137283019D01*
X186345390Y-138283019D02*
X186345390Y-137283019D01*
X185726342Y-138283019D02*
X185726342Y-137283019D01*
X185726342Y-137283019D02*
X185345390Y-137283019D01*
X185345390Y-137283019D02*
X185250152Y-137330638D01*
X185250152Y-137330638D02*
X185202533Y-137378257D01*
X185202533Y-137378257D02*
X185154914Y-137473495D01*
X185154914Y-137473495D02*
X185154914Y-137616352D01*
X185154914Y-137616352D02*
X185202533Y-137711590D01*
X185202533Y-137711590D02*
X185250152Y-137759209D01*
X185250152Y-137759209D02*
X185345390Y-137806828D01*
X185345390Y-137806828D02*
X185726342Y-137806828D01*
X184678723Y-138283019D02*
X184488247Y-138283019D01*
X184488247Y-138283019D02*
X184393009Y-138235400D01*
X184393009Y-138235400D02*
X184345390Y-138187780D01*
X184345390Y-138187780D02*
X184250152Y-138044923D01*
X184250152Y-138044923D02*
X184202533Y-137854447D01*
X184202533Y-137854447D02*
X184202533Y-137473495D01*
X184202533Y-137473495D02*
X184250152Y-137378257D01*
X184250152Y-137378257D02*
X184297771Y-137330638D01*
X184297771Y-137330638D02*
X184393009Y-137283019D01*
X184393009Y-137283019D02*
X184583485Y-137283019D01*
X184583485Y-137283019D02*
X184678723Y-137330638D01*
X184678723Y-137330638D02*
X184726342Y-137378257D01*
X184726342Y-137378257D02*
X184773961Y-137473495D01*
X184773961Y-137473495D02*
X184773961Y-137711590D01*
X184773961Y-137711590D02*
X184726342Y-137806828D01*
X184726342Y-137806828D02*
X184678723Y-137854447D01*
X184678723Y-137854447D02*
X184583485Y-137902066D01*
X184583485Y-137902066D02*
X184393009Y-137902066D01*
X184393009Y-137902066D02*
X184297771Y-137854447D01*
X184297771Y-137854447D02*
X184250152Y-137806828D01*
X184250152Y-137806828D02*
X184202533Y-137711590D01*
%TO.C,TP13*%
X178852294Y-121204819D02*
X178280866Y-121204819D01*
X178566580Y-122204819D02*
X178566580Y-121204819D01*
X177947532Y-122204819D02*
X177947532Y-121204819D01*
X177947532Y-121204819D02*
X177566580Y-121204819D01*
X177566580Y-121204819D02*
X177471342Y-121252438D01*
X177471342Y-121252438D02*
X177423723Y-121300057D01*
X177423723Y-121300057D02*
X177376104Y-121395295D01*
X177376104Y-121395295D02*
X177376104Y-121538152D01*
X177376104Y-121538152D02*
X177423723Y-121633390D01*
X177423723Y-121633390D02*
X177471342Y-121681009D01*
X177471342Y-121681009D02*
X177566580Y-121728628D01*
X177566580Y-121728628D02*
X177947532Y-121728628D01*
X176423723Y-122204819D02*
X176995151Y-122204819D01*
X176709437Y-122204819D02*
X176709437Y-121204819D01*
X176709437Y-121204819D02*
X176804675Y-121347676D01*
X176804675Y-121347676D02*
X176899913Y-121442914D01*
X176899913Y-121442914D02*
X176995151Y-121490533D01*
X176090389Y-121204819D02*
X175471342Y-121204819D01*
X175471342Y-121204819D02*
X175804675Y-121585771D01*
X175804675Y-121585771D02*
X175661818Y-121585771D01*
X175661818Y-121585771D02*
X175566580Y-121633390D01*
X175566580Y-121633390D02*
X175518961Y-121681009D01*
X175518961Y-121681009D02*
X175471342Y-121776247D01*
X175471342Y-121776247D02*
X175471342Y-122014342D01*
X175471342Y-122014342D02*
X175518961Y-122109580D01*
X175518961Y-122109580D02*
X175566580Y-122157200D01*
X175566580Y-122157200D02*
X175661818Y-122204819D01*
X175661818Y-122204819D02*
X175947532Y-122204819D01*
X175947532Y-122204819D02*
X176042770Y-122157200D01*
X176042770Y-122157200D02*
X176090389Y-122109580D01*
%TO.C,TP6*%
X177995104Y-129840819D02*
X177423676Y-129840819D01*
X177709390Y-130840819D02*
X177709390Y-129840819D01*
X177090342Y-130840819D02*
X177090342Y-129840819D01*
X177090342Y-129840819D02*
X176709390Y-129840819D01*
X176709390Y-129840819D02*
X176614152Y-129888438D01*
X176614152Y-129888438D02*
X176566533Y-129936057D01*
X176566533Y-129936057D02*
X176518914Y-130031295D01*
X176518914Y-130031295D02*
X176518914Y-130174152D01*
X176518914Y-130174152D02*
X176566533Y-130269390D01*
X176566533Y-130269390D02*
X176614152Y-130317009D01*
X176614152Y-130317009D02*
X176709390Y-130364628D01*
X176709390Y-130364628D02*
X177090342Y-130364628D01*
X175661771Y-129840819D02*
X175852247Y-129840819D01*
X175852247Y-129840819D02*
X175947485Y-129888438D01*
X175947485Y-129888438D02*
X175995104Y-129936057D01*
X175995104Y-129936057D02*
X176090342Y-130078914D01*
X176090342Y-130078914D02*
X176137961Y-130269390D01*
X176137961Y-130269390D02*
X176137961Y-130650342D01*
X176137961Y-130650342D02*
X176090342Y-130745580D01*
X176090342Y-130745580D02*
X176042723Y-130793200D01*
X176042723Y-130793200D02*
X175947485Y-130840819D01*
X175947485Y-130840819D02*
X175757009Y-130840819D01*
X175757009Y-130840819D02*
X175661771Y-130793200D01*
X175661771Y-130793200D02*
X175614152Y-130745580D01*
X175614152Y-130745580D02*
X175566533Y-130650342D01*
X175566533Y-130650342D02*
X175566533Y-130412247D01*
X175566533Y-130412247D02*
X175614152Y-130317009D01*
X175614152Y-130317009D02*
X175661771Y-130269390D01*
X175661771Y-130269390D02*
X175757009Y-130221771D01*
X175757009Y-130221771D02*
X175947485Y-130221771D01*
X175947485Y-130221771D02*
X176042723Y-130269390D01*
X176042723Y-130269390D02*
X176090342Y-130317009D01*
X176090342Y-130317009D02*
X176137961Y-130412247D01*
%TO.C,TP7*%
X177233104Y-133981019D02*
X176661676Y-133981019D01*
X176947390Y-134981019D02*
X176947390Y-133981019D01*
X176328342Y-134981019D02*
X176328342Y-133981019D01*
X176328342Y-133981019D02*
X175947390Y-133981019D01*
X175947390Y-133981019D02*
X175852152Y-134028638D01*
X175852152Y-134028638D02*
X175804533Y-134076257D01*
X175804533Y-134076257D02*
X175756914Y-134171495D01*
X175756914Y-134171495D02*
X175756914Y-134314352D01*
X175756914Y-134314352D02*
X175804533Y-134409590D01*
X175804533Y-134409590D02*
X175852152Y-134457209D01*
X175852152Y-134457209D02*
X175947390Y-134504828D01*
X175947390Y-134504828D02*
X176328342Y-134504828D01*
X175423580Y-133981019D02*
X174756914Y-133981019D01*
X174756914Y-133981019D02*
X175185485Y-134981019D01*
%TO.C,TP12*%
X182408294Y-132634819D02*
X181836866Y-132634819D01*
X182122580Y-133634819D02*
X182122580Y-132634819D01*
X181503532Y-133634819D02*
X181503532Y-132634819D01*
X181503532Y-132634819D02*
X181122580Y-132634819D01*
X181122580Y-132634819D02*
X181027342Y-132682438D01*
X181027342Y-132682438D02*
X180979723Y-132730057D01*
X180979723Y-132730057D02*
X180932104Y-132825295D01*
X180932104Y-132825295D02*
X180932104Y-132968152D01*
X180932104Y-132968152D02*
X180979723Y-133063390D01*
X180979723Y-133063390D02*
X181027342Y-133111009D01*
X181027342Y-133111009D02*
X181122580Y-133158628D01*
X181122580Y-133158628D02*
X181503532Y-133158628D01*
X179979723Y-133634819D02*
X180551151Y-133634819D01*
X180265437Y-133634819D02*
X180265437Y-132634819D01*
X180265437Y-132634819D02*
X180360675Y-132777676D01*
X180360675Y-132777676D02*
X180455913Y-132872914D01*
X180455913Y-132872914D02*
X180551151Y-132920533D01*
X179598770Y-132730057D02*
X179551151Y-132682438D01*
X179551151Y-132682438D02*
X179455913Y-132634819D01*
X179455913Y-132634819D02*
X179217818Y-132634819D01*
X179217818Y-132634819D02*
X179122580Y-132682438D01*
X179122580Y-132682438D02*
X179074961Y-132730057D01*
X179074961Y-132730057D02*
X179027342Y-132825295D01*
X179027342Y-132825295D02*
X179027342Y-132920533D01*
X179027342Y-132920533D02*
X179074961Y-133063390D01*
X179074961Y-133063390D02*
X179646389Y-133634819D01*
X179646389Y-133634819D02*
X179027342Y-133634819D01*
%TD*%
M02*
