%TF.GenerationSoftware,KiCad,Pcbnew,(6.0.5)*%
%TF.CreationDate,2022-05-28T08:12:23-07:00*%
%TF.ProjectId,Engine-Controller,456e6769-6e65-42d4-936f-6e74726f6c6c,1.0*%
%TF.SameCoordinates,Original*%
%TF.FileFunction,Copper,L4,Bot*%
%TF.FilePolarity,Positive*%
%FSLAX46Y46*%
G04 Gerber Fmt 4.6, Leading zero omitted, Abs format (unit mm)*
G04 Created by KiCad (PCBNEW (6.0.5)) date 2022-05-28 08:12:23*
%MOMM*%
%LPD*%
G01*
G04 APERTURE LIST*
%TA.AperFunction,ComponentPad*%
%ADD10O,2.200000X4.400000*%
%TD*%
%TA.AperFunction,ComponentPad*%
%ADD11O,1.900000X3.800000*%
%TD*%
%TA.AperFunction,ComponentPad*%
%ADD12O,3.800000X1.900000*%
%TD*%
%TA.AperFunction,ComponentPad*%
%ADD13R,1.478000X1.478000*%
%TD*%
%TA.AperFunction,ComponentPad*%
%ADD14C,1.478000*%
%TD*%
%TA.AperFunction,ComponentPad*%
%ADD15C,3.366000*%
%TD*%
%TA.AperFunction,ComponentPad*%
%ADD16C,1.066800*%
%TD*%
%TA.AperFunction,ComponentPad*%
%ADD17R,2.050000X2.050000*%
%TD*%
%TA.AperFunction,ComponentPad*%
%ADD18C,2.050000*%
%TD*%
%TA.AperFunction,ComponentPad*%
%ADD19R,1.700000X1.700000*%
%TD*%
%TA.AperFunction,ComponentPad*%
%ADD20C,1.700000*%
%TD*%
%TA.AperFunction,ComponentPad*%
%ADD21R,1.008000X1.008000*%
%TD*%
%TA.AperFunction,ComponentPad*%
%ADD22C,1.008000*%
%TD*%
%TA.AperFunction,ComponentPad*%
%ADD23R,1.650000X1.650000*%
%TD*%
%TA.AperFunction,ComponentPad*%
%ADD24C,1.650000*%
%TD*%
%TA.AperFunction,ComponentPad*%
%ADD25C,0.500000*%
%TD*%
%TA.AperFunction,ComponentPad*%
%ADD26R,1.258000X1.258000*%
%TD*%
%TA.AperFunction,ComponentPad*%
%ADD27C,1.258000*%
%TD*%
%TA.AperFunction,ComponentPad*%
%ADD28R,1.605000X1.605000*%
%TD*%
%TA.AperFunction,ComponentPad*%
%ADD29C,1.605000*%
%TD*%
%TA.AperFunction,SMDPad,CuDef*%
%ADD30C,1.524000*%
%TD*%
%TA.AperFunction,ViaPad*%
%ADD31C,0.500000*%
%TD*%
%TA.AperFunction,ViaPad*%
%ADD32C,1.016000*%
%TD*%
%TA.AperFunction,ViaPad*%
%ADD33C,0.762000*%
%TD*%
%TA.AperFunction,ViaPad*%
%ADD34C,1.270000*%
%TD*%
%TA.AperFunction,Conductor*%
%ADD35C,0.177800*%
%TD*%
%TA.AperFunction,Conductor*%
%ADD36C,0.254000*%
%TD*%
%TA.AperFunction,Conductor*%
%ADD37C,0.762000*%
%TD*%
%TA.AperFunction,Conductor*%
%ADD38C,0.508000*%
%TD*%
%TA.AperFunction,Conductor*%
%ADD39C,1.778000*%
%TD*%
G04 APERTURE END LIST*
D10*
%TO.P,P1,1*%
%TO.N,Net-(D5-Pad2)*%
X192443200Y-104546400D03*
D11*
%TO.P,P1,2*%
%TO.N,Earth*%
X198398200Y-104546400D03*
D12*
%TO.P,P1,3,MountPin*%
X195148200Y-99856400D03*
%TD*%
D13*
%TO.P,P5,1,VCC*%
%TO.N,5V_USB*%
X190574500Y-118231600D03*
D14*
%TO.P,P5,2,D-*%
%TO.N,/Page2/D-*%
X190574500Y-120731600D03*
%TO.P,P5,3,D+*%
%TO.N,/Page2/D+*%
X192574500Y-120731600D03*
%TO.P,P5,4,GND*%
%TO.N,Earth*%
X192574500Y-118231600D03*
D15*
%TO.P,P5,S1,SHIELD*%
X195284500Y-125501600D03*
%TO.P,P5,S2,SHIELD*%
X195284500Y-113461600D03*
%TD*%
D16*
%TO.P,P3,1,1*%
%TO.N,3.3V*%
X175463200Y-144159350D03*
%TO.P,P3,2,2*%
X175463200Y-145429350D03*
%TO.P,P3,3,3*%
%TO.N,Earth*%
X174193200Y-144159350D03*
%TO.P,P3,4,4*%
X174193200Y-145429350D03*
%TO.P,P3,5,5*%
X172923200Y-144159350D03*
%TO.P,P3,6,6*%
X172923200Y-145429350D03*
%TO.P,P3,7,7*%
%TO.N,SWDIO*%
X171653200Y-144159350D03*
%TO.P,P3,8,8*%
%TO.N,Earth*%
X171653200Y-145429350D03*
%TO.P,P3,9,9*%
%TO.N,SWCLK*%
X170383200Y-144159350D03*
%TO.P,P3,10,10*%
%TO.N,Earth*%
X170383200Y-145429350D03*
%TO.P,P3,11,11*%
%TO.N,unconnected-(P3-Pad11)*%
X169113200Y-144159350D03*
%TO.P,P3,12,12*%
%TO.N,Earth*%
X169113200Y-145429350D03*
%TO.P,P3,13,13*%
%TO.N,SWO*%
X167843200Y-144159350D03*
%TO.P,P3,14,14*%
%TO.N,Earth*%
X167843200Y-145429350D03*
%TO.P,P3,15,15*%
%TO.N,NRST*%
X166573200Y-144159350D03*
%TO.P,P3,16,16*%
%TO.N,Earth*%
X166573200Y-145429350D03*
%TO.P,P3,17,17*%
%TO.N,unconnected-(P3-Pad17)*%
X165303200Y-144159350D03*
%TO.P,P3,18,18*%
%TO.N,Earth*%
X165303200Y-145429350D03*
%TO.P,P3,19,19*%
%TO.N,unconnected-(P3-Pad19)*%
X164033200Y-144159350D03*
%TO.P,P3,20,20*%
%TO.N,Earth*%
X164033200Y-145429350D03*
%TD*%
%TO.P,P8,1,1*%
%TO.N,5V*%
X90627200Y-137439400D03*
%TO.P,P8,2,2*%
X89357200Y-137439400D03*
%TO.P,P8,3,3*%
X90627200Y-136169400D03*
%TO.P,P8,4,4*%
X89357200Y-136169400D03*
%TO.P,P8,5,5*%
%TO.N,PT1+*%
X90627200Y-134899400D03*
%TO.P,P8,6,6*%
%TO.N,PT1-*%
X89357200Y-134899400D03*
%TO.P,P8,7,7*%
%TO.N,PT2+*%
X90627200Y-133629400D03*
%TO.P,P8,8,8*%
%TO.N,PT2-*%
X89357200Y-133629400D03*
%TO.P,P8,9,9*%
%TO.N,PT3+*%
X90627200Y-132359400D03*
%TO.P,P8,10,10*%
%TO.N,PT3-*%
X89357200Y-132359400D03*
%TO.P,P8,11,11*%
%TO.N,PT4+*%
X90627200Y-131089400D03*
%TO.P,P8,12,12*%
%TO.N,PT4-*%
X89357200Y-131089400D03*
%TO.P,P8,13,13*%
%TO.N,PT5+*%
X90627200Y-129819400D03*
%TO.P,P8,14,14*%
%TO.N,PT5-*%
X89357200Y-129819400D03*
%TO.P,P8,15,15*%
%TO.N,PT6+*%
X90627200Y-128549400D03*
%TO.P,P8,16,16*%
%TO.N,PT6-*%
X89357200Y-128549400D03*
%TO.P,P8,17,17*%
%TO.N,PT7+*%
X90627200Y-127279400D03*
%TO.P,P8,18,18*%
%TO.N,PT7-*%
X89357200Y-127279400D03*
%TO.P,P8,19,19*%
%TO.N,PT8+*%
X90627200Y-126009400D03*
%TO.P,P8,20,20*%
%TO.N,PT8-*%
X89357200Y-126009400D03*
%TO.P,P8,21,21*%
%TO.N,Earth*%
X90627200Y-124739400D03*
%TO.P,P8,22,22*%
X89357200Y-124739400D03*
%TO.P,P8,23,23*%
X90627200Y-123469400D03*
%TO.P,P8,24,24*%
X89357200Y-123469400D03*
%TO.P,P8,25,25*%
X90627200Y-122199400D03*
%TO.P,P8,26,26*%
X89357200Y-122199400D03*
%TD*%
D17*
%TO.P,P7,1,1*%
%TO.N,V_HEAD*%
X134991700Y-108682900D03*
D18*
%TO.P,P7,2,2*%
%TO.N,Earth*%
X131031700Y-108682900D03*
%TD*%
D19*
%TO.P,P11,1,1*%
%TO.N,/Sensors/TC+*%
X130251200Y-146011900D03*
D20*
%TO.P,P11,2,2*%
%TO.N,/Sensors/TC-*%
X126751199Y-146011900D03*
%TD*%
D21*
%TO.P,P17,1,+12V*%
%TO.N,Earth*%
X120061200Y-149250400D03*
D22*
%TO.P,P17,2,GND*%
%TO.N,/Sensors/LC+*%
X118811200Y-149250400D03*
%TO.P,P17,3,3*%
%TO.N,/Sensors/LC-*%
X117561200Y-149250400D03*
%TO.P,P17,4,4*%
%TO.N,5V*%
X116311200Y-149250400D03*
%TD*%
D23*
%TO.P,P2,1,5*%
%TO.N,Net-(P10-Pad2)*%
X99517200Y-100990400D03*
D24*
%TO.P,P2,2,6*%
%TO.N,Net-(P2-Pad2)*%
X104597200Y-100990400D03*
%TO.P,P2,3,5*%
%TO.N,SP_CONT*%
X109677200Y-100990400D03*
%TO.P,P2,4,6*%
%TO.N,Earth*%
X114757200Y-100990400D03*
%TO.P,P2,5,5*%
%TO.N,NOZ_CONT*%
X119837200Y-100990400D03*
%TO.P,P2,6,6*%
%TO.N,Earth*%
X124917200Y-100990400D03*
%TD*%
D25*
%TO.P,U14,22*%
%TO.N,N/C*%
X148809200Y-135804400D03*
%TO.P,U14,23*%
X149809200Y-135804400D03*
%TO.P,U14,24*%
X150809200Y-135804400D03*
%TO.P,U14,25*%
X148809200Y-136804400D03*
%TO.P,U14,26*%
X149809200Y-136804400D03*
%TO.P,U14,27*%
X150809200Y-136804400D03*
%TO.P,U14,28*%
X148809200Y-137804400D03*
%TO.P,U14,29*%
X149809200Y-137804400D03*
%TO.P,U14,30*%
X150809200Y-137804400D03*
%TD*%
D26*
%TO.P,P6,1,+12V*%
%TO.N,5V*%
X150492200Y-145326400D03*
D27*
%TO.P,P6,2,GND*%
%TO.N,ValveCtrl_TX*%
X152492200Y-145326400D03*
%TO.P,P6,3,3*%
%TO.N,ValveCtrl_RX*%
X154492200Y-145326400D03*
%TO.P,P6,4,4*%
%TO.N,Earth*%
X156492200Y-145326400D03*
%TD*%
D28*
%TO.P,P18,1,+12V*%
%TO.N,3.3V*%
X182905400Y-150266400D03*
D29*
%TO.P,P18,2,GND*%
%TO.N,5V*%
X185445400Y-150266400D03*
%TO.P,P18,3,3*%
%TO.N,VIN*%
X187985400Y-150266400D03*
%TO.P,P18,4,4*%
%TO.N,Earth*%
X190525400Y-150266400D03*
%TD*%
D23*
%TO.P,P10,1,5*%
%TO.N,VIN*%
X91262200Y-106705400D03*
D24*
%TO.P,P10,2,6*%
%TO.N,Net-(P10-Pad2)*%
X91262200Y-111785400D03*
%TD*%
D30*
%TO.P,TP1,1*%
%TO.N,NRST*%
X160604200Y-130962400D03*
%TD*%
%TO.P,TP3,1*%
%TO.N,Earth*%
X178003200Y-147345400D03*
%TD*%
%TO.P,TP4,1*%
%TO.N,5V*%
X166573200Y-108610400D03*
%TD*%
%TO.P,TP5,1*%
%TO.N,3.3V*%
X178003200Y-145186400D03*
%TD*%
%TO.P,TP10,1*%
%TO.N,5V_SRC*%
X148793200Y-105943400D03*
%TD*%
%TO.P,TP2,1*%
%TO.N,VIN*%
X179908200Y-103022400D03*
%TD*%
%TO.P,TP11,1*%
%TO.N,5V_BUCK*%
X173164500Y-113779300D03*
%TD*%
%TO.P,TP8,1*%
%TO.N,FIRE*%
X118440200Y-114071400D03*
%TD*%
%TO.P,TP9,1*%
%TO.N,FLASH_SCK*%
X183083200Y-137820400D03*
%TD*%
%TO.P,TP13,1*%
%TO.N,~{USB_SUSPEND}*%
X177114200Y-123723400D03*
%TD*%
%TO.P,TP6,1*%
%TO.N,FLASH_SS*%
X176733200Y-132359400D03*
%TD*%
%TO.P,TP7,1*%
%TO.N,FLASH_MISO*%
X177495200Y-136042400D03*
%TD*%
%TO.P,TP12,1*%
%TO.N,FLASH_MOSI*%
X180670200Y-135153400D03*
%TD*%
D31*
%TO.N,Earth*%
X180035200Y-136423400D03*
D32*
X130441700Y-124294900D03*
D31*
X181610000Y-124968000D03*
X187909200Y-110642400D03*
X156540200Y-128295400D03*
D33*
X144856200Y-109372400D03*
D31*
X171692200Y-120128400D03*
D33*
X137337800Y-106603800D03*
D31*
X111137700Y-138010900D03*
D32*
X170256200Y-104546400D03*
D31*
X107264200Y-135407400D03*
D32*
X181559200Y-110007400D03*
D31*
X181229000Y-126212600D03*
D32*
X94564200Y-141757400D03*
X177114200Y-103022400D03*
D31*
X167970200Y-137312400D03*
D32*
X156032200Y-106324400D03*
D31*
X93294200Y-126898400D03*
X142570200Y-120650000D03*
X156794200Y-136804400D03*
X174967000Y-119546000D03*
X100279200Y-110515400D03*
D32*
X153746200Y-98450400D03*
D31*
X146126200Y-135280400D03*
X149072600Y-123901200D03*
X153492200Y-123850400D03*
X107137200Y-111023400D03*
D33*
X145858200Y-115228400D03*
D31*
X112499200Y-108455400D03*
D33*
X143261200Y-101681400D03*
D31*
X142443200Y-136042400D03*
X145491200Y-144805400D03*
X180242200Y-118690400D03*
X170408600Y-113995200D03*
X136093200Y-134899400D03*
X156564700Y-115062900D03*
X111261200Y-126069400D03*
X150381600Y-128993000D03*
D32*
X196285800Y-144912400D03*
D31*
%TO.N,3.3V*%
X156397200Y-124628400D03*
X135839200Y-144805400D03*
X183083200Y-132613400D03*
X145872200Y-131851400D03*
X149809200Y-140233400D03*
X117297200Y-109626400D03*
X187782200Y-113817400D03*
X101422200Y-112547400D03*
X157556200Y-134772400D03*
X187638600Y-137930800D03*
D32*
X141173200Y-112928400D03*
D31*
X169240200Y-134772400D03*
X140411200Y-101752400D03*
X171780200Y-119278400D03*
X155778200Y-118135400D03*
X159334200Y-110515400D03*
%TO.N,SWCLK*%
X166827200Y-121945400D03*
%TO.N,SWDIO*%
X168732200Y-122834400D03*
D32*
%TO.N,5V*%
X108280200Y-132867400D03*
D31*
X97358200Y-123088400D03*
D34*
X150063200Y-110642400D03*
D32*
X140792200Y-110896400D03*
X94183200Y-135407400D03*
D31*
X98501200Y-115722400D03*
D32*
X139776200Y-116357400D03*
D31*
%TO.N,SDA*%
X152222200Y-132486400D03*
X157111700Y-123532900D03*
%TO.N,SCL*%
X152222200Y-133248400D03*
X157937200Y-123596400D03*
D32*
%TO.N,A3.3V*%
X130886200Y-121183400D03*
D31*
X156342200Y-129128400D03*
X114249200Y-116865400D03*
X148539200Y-133121400D03*
X145364200Y-132613400D03*
X132918200Y-124866400D03*
X136728200Y-128803400D03*
X118694200Y-127914400D03*
%TO.N,/Sensors/TC-*%
X136552200Y-138758400D03*
X135839200Y-141122400D03*
%TO.N,/Sensors/TC+*%
X145872680Y-137057920D03*
X147433200Y-139254400D03*
%TO.N,SD_DAT2*%
X189179200Y-132613400D03*
X167970200Y-119786400D03*
%TO.N,SD_DAT3*%
X167144700Y-119849900D03*
X190068200Y-133375400D03*
%TO.N,SD_CMD*%
X165938200Y-120294400D03*
X187782200Y-136931400D03*
X179019200Y-129184400D03*
X176098200Y-128930400D03*
%TO.N,SD_CLK*%
X191719200Y-131978400D03*
X171145200Y-115722400D03*
%TO.N,SD_DAT0*%
X171653200Y-124612400D03*
X173177200Y-134899400D03*
%TO.N,SD_DAT1*%
X173431200Y-135661400D03*
X172415200Y-124358400D03*
%TO.N,PT1-*%
X102311200Y-117627400D03*
X89357200Y-140233400D03*
%TO.N,PT2-*%
X102946200Y-116992400D03*
X88468200Y-140106400D03*
%TO.N,PT4+*%
X97358200Y-126898400D03*
X99136200Y-125882400D03*
%TO.N,PT6-*%
X92659200Y-118516400D03*
%TO.N,PT7+*%
X92405200Y-124104400D03*
%TO.N,W_MISO*%
X157001200Y-120628400D03*
X149174200Y-143027400D03*
%TO.N,W_MOSI*%
X158445200Y-121818400D03*
X148793200Y-143662400D03*
%TO.N,W_SCK*%
X148920200Y-144551400D03*
X159207200Y-121691400D03*
%TO.N,SD_DETECT*%
X175043200Y-131128400D03*
X189214600Y-145532000D03*
%TO.N,FLASH_SS*%
X175559200Y-131628400D03*
%TO.N,FLASH_MISO*%
X175717200Y-133883400D03*
%TO.N,FLASH_SCK*%
X182067200Y-136677400D03*
%TO.N,FLASH_MOSI*%
X183718200Y-136042400D03*
X178511200Y-130835400D03*
%TO.N,FLASH_WP*%
X174320200Y-129184400D03*
X179908200Y-133375400D03*
%TO.N,W_SS*%
X161112200Y-135534400D03*
X161112200Y-143916400D03*
%TO.N,STATUS_B*%
X170002200Y-137312400D03*
X164922200Y-131978400D03*
%TO.N,STATUS_G*%
X164350700Y-131533900D03*
X171526200Y-136677400D03*
%TO.N,STATUS_R*%
X163652200Y-131470400D03*
X170002200Y-134010400D03*
%TO.N,FLASH_HOLD*%
X181051200Y-132232400D03*
X176352200Y-129565400D03*
%TO.N,Net-(R19-Pad2)*%
X106248200Y-122961400D03*
X120500200Y-122425400D03*
X110312200Y-130073400D03*
X124818200Y-133347400D03*
%TO.N,5V_BUCK*%
X173101000Y-112395000D03*
D32*
%TO.N,5V_USB*%
X184988200Y-106578400D03*
X145872200Y-103022400D03*
D31*
%TO.N,5V_SRC*%
X144602200Y-102006400D03*
X147777200Y-108229400D03*
%TO.N,Net-(R27-Pad1)*%
X114249200Y-126390400D03*
X105486200Y-127533400D03*
%TO.N,NRST*%
X162001200Y-129946400D03*
%TO.N,VIN*%
X106187199Y-104353401D03*
D34*
X181705250Y-99802950D03*
D31*
%TO.N,FIRE*%
X149999200Y-121628400D03*
X139268200Y-123469400D03*
X104724200Y-114452400D03*
X115773200Y-114325400D03*
%TO.N,PT*%
X143475200Y-126628400D03*
X149444200Y-126628400D03*
X143332200Y-128930400D03*
X112725200Y-135153400D03*
%TO.N,LC*%
X153365200Y-127533400D03*
X141427200Y-133248400D03*
%TO.N,SWO*%
X165430200Y-121564400D03*
%TO.N,TC_ALERT*%
X152476200Y-139090400D03*
X156159200Y-139471400D03*
%TO.N,TC_OC*%
X150459200Y-140218400D03*
X155143200Y-140106400D03*
%TO.N,TC_SC*%
X156174200Y-140853400D03*
X149159200Y-140853400D03*
%TO.N,PT_GAIN7*%
X168224200Y-129692400D03*
X159334200Y-120802400D03*
X153619200Y-114579400D03*
X136855200Y-116738400D03*
%TO.N,SP_CONT*%
X124282200Y-113563400D03*
X126695200Y-128930400D03*
X131140200Y-134264400D03*
X155651200Y-138709400D03*
X137998200Y-132486400D03*
X126314200Y-125628400D03*
%TO.N,NOZ_CONT*%
X139141200Y-131851400D03*
X155778200Y-137820400D03*
X130505200Y-133375400D03*
X125298200Y-113436400D03*
X127330200Y-125628400D03*
X127711200Y-128930400D03*
%TO.N,PT_MUX_A*%
X103454200Y-121691400D03*
X103454200Y-119024400D03*
X157302200Y-125628400D03*
%TO.N,~{USB_SUSPEND}*%
X179146200Y-121564400D03*
X174574200Y-122326400D03*
%TO.N,E_CONT*%
X140030200Y-131724400D03*
X106883200Y-112801400D03*
X128727200Y-131089400D03*
X126060200Y-115468400D03*
X128346200Y-125501400D03*
X155270200Y-137185400D03*
X128727200Y-128676400D03*
X109423200Y-113309400D03*
%TO.N,RX_USB*%
X172328200Y-123128400D03*
X177518600Y-128826800D03*
%TO.N,TX_USB*%
X172844200Y-122628400D03*
X178130200Y-129184400D03*
%TO.N,PT_MUX_B*%
X105359200Y-124485400D03*
X166065200Y-128930400D03*
X157175200Y-126898400D03*
X159969200Y-128930400D03*
%TO.N,PT_MUX_C*%
X164287200Y-129565400D03*
X157302200Y-128041400D03*
X104470200Y-122453400D03*
X160477200Y-129565400D03*
X105232200Y-125501400D03*
%TO.N,PT_GAIN0*%
X152476200Y-116484400D03*
X166065200Y-114833400D03*
%TO.N,PT_GAIN1*%
X165303200Y-115468400D03*
X125044200Y-129184400D03*
X151587200Y-116637760D03*
X117551200Y-132359400D03*
%TO.N,PT_GAIN2*%
X124409200Y-129819400D03*
X165049200Y-116357400D03*
X150825200Y-116865400D03*
X118440200Y-132613400D03*
%TO.N,PT_GAIN3*%
X150825200Y-117627400D03*
X164033200Y-116357400D03*
%TO.N,PT_GAIN4*%
X162763200Y-114452400D03*
X119964200Y-118008400D03*
%TO.N,PT_GAIN5*%
X161937700Y-114261900D03*
X113741200Y-123215400D03*
%TO.N,PT_GAIN6*%
X161239200Y-114706400D03*
X112852200Y-123596400D03*
%TO.N,PT-*%
X100533200Y-129565400D03*
X97358200Y-124612400D03*
%TO.N,PT+*%
X100279200Y-130708400D03*
X96215200Y-126644400D03*
%TD*%
D35*
%TO.N,Earth*%
X174955200Y-147345400D02*
X174320200Y-146710400D01*
X174320200Y-146710400D02*
X174320200Y-145567400D01*
X178003200Y-147345400D02*
X174955200Y-147345400D01*
%TO.N,3.3V*%
X178003200Y-145186400D02*
X176733200Y-145186400D01*
X176606200Y-145313400D02*
X175717200Y-145313400D01*
X176733200Y-145186400D02*
X176606200Y-145313400D01*
%TO.N,SWCLK*%
X172161200Y-142392400D02*
X171145200Y-142392400D01*
X171145200Y-142392400D02*
X170383200Y-143154400D01*
X172745880Y-136500080D02*
X172745880Y-141807720D01*
X172161200Y-135915400D02*
X172745880Y-136500080D01*
X170383200Y-143154400D02*
X170383200Y-143916400D01*
X172161200Y-127279400D02*
X172161200Y-135915400D01*
X166827200Y-121945400D02*
X172161200Y-127279400D01*
X172745880Y-141807720D02*
X172161200Y-142392400D01*
%TO.N,SWDIO*%
X172542200Y-135788400D02*
X173050200Y-136296400D01*
X171653200Y-143281400D02*
X171653200Y-144043400D01*
X172161200Y-142773400D02*
X171653200Y-143281400D01*
X168732200Y-123215400D02*
X170891200Y-125374400D01*
X173050200Y-142265400D02*
X172542200Y-142773400D01*
X168732200Y-122834400D02*
X168732200Y-123215400D01*
X172542200Y-125882400D02*
X172542200Y-135788400D01*
X170891200Y-125374400D02*
X172034200Y-125374400D01*
X172034200Y-125374400D02*
X172542200Y-125882400D01*
X172542200Y-142773400D02*
X172161200Y-142773400D01*
X173050200Y-136296400D02*
X173050200Y-142265400D01*
D36*
%TO.N,5V*%
X94183200Y-126263400D02*
X94183200Y-135407400D01*
D35*
X166573200Y-108610400D02*
X166573200Y-106705400D01*
D37*
X197434200Y-140868400D02*
X197434200Y-131343400D01*
D36*
X97358200Y-123088400D02*
X98501200Y-121945400D01*
D37*
X179781200Y-111404400D02*
X174955200Y-106578400D01*
X199212200Y-109499400D02*
X184607200Y-109499400D01*
X177622200Y-151409400D02*
X154000200Y-151409400D01*
X194640200Y-141884400D02*
X196418200Y-141884400D01*
X116281200Y-150774400D02*
X116281200Y-149377400D01*
X184607200Y-109499400D02*
X182702200Y-111404400D01*
X185369200Y-148107400D02*
X188417200Y-148107400D01*
X185445400Y-150266400D02*
X185445400Y-148183600D01*
D36*
X98501200Y-121945400D02*
X98501200Y-115722400D01*
X96977200Y-123469400D02*
X94183200Y-126263400D01*
D37*
X116916200Y-151409400D02*
X116281200Y-150774400D01*
D38*
X139776200Y-116357400D02*
X139776200Y-111912400D01*
D37*
X174955200Y-106578400D02*
X166446200Y-106578400D01*
X200609200Y-128168400D02*
X200609200Y-110896400D01*
X180924200Y-148107400D02*
X177622200Y-151409400D01*
X150492200Y-151203400D02*
X150698200Y-151409400D01*
X154000200Y-151409400D02*
X150698200Y-151409400D01*
X150698200Y-151409400D02*
X116916200Y-151409400D01*
X154127200Y-104165400D02*
X150063200Y-108229400D01*
D36*
X96977200Y-123469400D02*
X97358200Y-123088400D01*
D37*
X159588200Y-104165400D02*
X154127200Y-104165400D01*
X196418200Y-141884400D02*
X197434200Y-140868400D01*
X185445400Y-148183600D02*
X185369200Y-148107400D01*
X197434200Y-131343400D02*
X200609200Y-128168400D01*
X188417200Y-148107400D02*
X194640200Y-141884400D01*
X182702200Y-111404400D02*
X179781200Y-111404400D01*
X166446200Y-106578400D02*
X162001200Y-106578400D01*
X162001200Y-106578400D02*
X159588200Y-104165400D01*
X150492200Y-145326400D02*
X150492200Y-151203400D01*
X185369200Y-148107400D02*
X180924200Y-148107400D01*
D38*
X108280200Y-141219400D02*
X108280200Y-132994400D01*
D37*
X150063200Y-108229400D02*
X150063200Y-110642400D01*
D38*
X108280200Y-132994400D02*
X108280200Y-132867400D01*
D35*
X166573200Y-106705400D02*
X166446200Y-106578400D01*
D38*
X116311200Y-149250400D02*
X108280200Y-141219400D01*
X139776200Y-111912400D02*
X140792200Y-110896400D01*
D37*
X200609200Y-110896400D02*
X199212200Y-109499400D01*
D35*
%TO.N,SDA*%
X155093826Y-132486400D02*
X157849013Y-129731213D01*
X152222200Y-132486400D02*
X155093826Y-132486400D01*
X157849013Y-124270213D02*
X157111700Y-123532900D01*
X157849013Y-129731213D02*
X157849013Y-124270213D01*
%TO.N,SCL*%
X158191200Y-123850400D02*
X158064200Y-123723400D01*
X158191200Y-129819400D02*
X158191200Y-123850400D01*
X152222200Y-133248400D02*
X154762200Y-133248400D01*
X154762200Y-133248400D02*
X158191200Y-129819400D01*
X158064200Y-123723400D02*
X157937200Y-123596400D01*
%TO.N,A3.3V*%
X144348200Y-128803400D02*
X144348200Y-131597400D01*
X143890520Y-128345720D02*
X144348200Y-128803400D01*
X136728200Y-128803400D02*
X139776200Y-128803400D01*
X139776200Y-128803400D02*
X140233880Y-128345720D01*
X130886200Y-122834400D02*
X130886200Y-121183400D01*
X140233880Y-128345720D02*
X143890520Y-128345720D01*
D36*
X152532200Y-129128400D02*
X148539200Y-133121400D01*
D35*
X132918200Y-124866400D02*
X130886200Y-122834400D01*
D36*
X156342200Y-129128400D02*
X152532200Y-129128400D01*
D35*
X144348200Y-131597400D02*
X145364200Y-132613400D01*
%TO.N,/Sensors/TC-*%
X136552200Y-138758400D02*
X136552200Y-140409400D01*
X135839200Y-141122400D02*
X128727200Y-141122400D01*
X136552200Y-140409400D02*
X135839200Y-141122400D01*
X128727200Y-141122400D02*
X126822200Y-143027400D01*
X126822200Y-143027400D02*
X126822200Y-145821400D01*
%TO.N,/Sensors/TC+*%
X147433200Y-139254400D02*
X147433200Y-138618440D01*
X147433200Y-138618440D02*
X145872680Y-137057920D01*
D39*
%TO.N,Net-(P10-Pad2)*%
X92659200Y-111785400D02*
X91262200Y-111785400D01*
X99517200Y-104927400D02*
X92659200Y-111785400D01*
X99517200Y-100990400D02*
X99517200Y-104927400D01*
D35*
%TO.N,SD_DAT2*%
X167970200Y-119786400D02*
X168859200Y-120675400D01*
X172161200Y-120675400D02*
X184099200Y-132613400D01*
X184099200Y-132613400D02*
X189179200Y-132613400D01*
X168859200Y-120675400D02*
X172161200Y-120675400D01*
%TO.N,SD_DAT3*%
X182448200Y-131392774D02*
X182448200Y-132740400D01*
X182448200Y-132740400D02*
X183083200Y-133375400D01*
X168605200Y-121310400D02*
X172365826Y-121310400D01*
X167144700Y-119849900D02*
X168605200Y-121310400D01*
X172365826Y-121310400D02*
X182448200Y-131392774D01*
X183083200Y-133375400D02*
X190068200Y-133375400D01*
%TO.N,SD_CMD*%
X172924147Y-124154720D02*
X173432146Y-124154720D01*
X182143880Y-132309080D02*
X182143880Y-132944080D01*
X186131200Y-136931400D02*
X187782200Y-136931400D01*
X175717200Y-126439774D02*
X175717200Y-128549400D01*
X171018200Y-122199400D02*
X171780200Y-122961400D01*
X182143880Y-132944080D02*
X186131200Y-136931400D01*
X173432146Y-124154720D02*
X175717200Y-126439774D01*
X172492826Y-123723400D02*
X172924147Y-124154720D01*
X171780200Y-123469400D02*
X172034200Y-123723400D01*
X167843200Y-122199400D02*
X171018200Y-122199400D01*
X172034200Y-123723400D02*
X172492826Y-123723400D01*
X179019200Y-129184400D02*
X182143880Y-132309080D01*
X165938200Y-120294400D02*
X167843200Y-122199400D01*
X175717200Y-128549400D02*
X176098200Y-128930400D01*
X171780200Y-122961400D02*
X171780200Y-123469400D01*
%TO.N,SD_CLK*%
X183972200Y-131978400D02*
X191719200Y-131978400D01*
X171145200Y-115722400D02*
X171145200Y-116992400D01*
X179654200Y-120802400D02*
X180670200Y-121818400D01*
X171145200Y-116992400D02*
X174955200Y-120802400D01*
X180670200Y-121818400D02*
X180670200Y-128676400D01*
X180670200Y-128676400D02*
X183972200Y-131978400D01*
X174955200Y-120802400D02*
X179654200Y-120802400D01*
%TO.N,SD_DAT0*%
X173177200Y-134899400D02*
X173177200Y-125882400D01*
X173177200Y-125882400D02*
X171907200Y-124612400D01*
X171907200Y-124612400D02*
X171653200Y-124612400D01*
%TO.N,SD_DAT1*%
X173558200Y-125501400D02*
X173558200Y-134518400D01*
X173812200Y-135280400D02*
X173431200Y-135661400D01*
X172415200Y-124358400D02*
X173558200Y-125501400D01*
X173558200Y-134518400D02*
X173812200Y-134772400D01*
X173812200Y-134772400D02*
X173812200Y-135280400D01*
%TO.N,PT1-*%
X102311200Y-131089400D02*
X102311200Y-117627400D01*
X89357200Y-140233400D02*
X93167200Y-140233400D01*
X93167200Y-140233400D02*
X102311200Y-131089400D01*
%TO.N,PT2-*%
X89230200Y-140868400D02*
X91135200Y-140868400D01*
X102615520Y-118085080D02*
X102946200Y-117754400D01*
X102615520Y-131215454D02*
X102615520Y-118085080D01*
X91465880Y-140537720D02*
X93370880Y-140537720D01*
X93370880Y-140537720D02*
X93370880Y-140460094D01*
X88468200Y-140106400D02*
X89230200Y-140868400D01*
X91135200Y-140868400D02*
X91465880Y-140537720D01*
X93370880Y-140460094D02*
X102615520Y-131215454D01*
X102946200Y-117754400D02*
X102946200Y-116992400D01*
%TO.N,PT4+*%
X97358200Y-126898400D02*
X98628200Y-126898400D01*
X99136200Y-126390400D02*
X99136200Y-125882400D01*
X98628200Y-126898400D02*
X99136200Y-126390400D01*
%TO.N,PT6-*%
X89357200Y-128549400D02*
X88214200Y-127406400D01*
X88214200Y-127406400D02*
X88214200Y-121945400D01*
X88214200Y-121945400D02*
X91643200Y-118516400D01*
X91643200Y-118516400D02*
X92659200Y-118516400D01*
%TO.N,PT7+*%
X90627200Y-127279400D02*
X92405200Y-125501400D01*
X92405200Y-125501400D02*
X92405200Y-124104400D01*
%TO.N,W_MISO*%
X158598560Y-139191040D02*
X158598560Y-122860760D01*
X154431520Y-143358080D02*
X158598560Y-139191040D01*
X149174200Y-143027400D02*
X149504880Y-143358080D01*
X157001200Y-121263400D02*
X157001200Y-120628400D01*
X149504880Y-143358080D02*
X154431520Y-143358080D01*
X158598560Y-122860760D02*
X157001200Y-121263400D01*
%TO.N,W_MOSI*%
X154635200Y-143662400D02*
X158902880Y-139394720D01*
X158902880Y-139394720D02*
X158902880Y-122276080D01*
X158902880Y-122276080D02*
X158445200Y-121818400D01*
X148793200Y-143662400D02*
X154635200Y-143662400D01*
%TO.N,W_SCK*%
X159207200Y-139598400D02*
X159207200Y-121691400D01*
X149428200Y-144043400D02*
X154762200Y-144043400D01*
X148920200Y-144551400D02*
X149428200Y-144043400D01*
X154762200Y-144043400D02*
X159207200Y-139598400D01*
%TO.N,SD_DETECT*%
X185242200Y-145567400D02*
X189179200Y-145567400D01*
X175043200Y-135368400D02*
X185242200Y-145567400D01*
X175043200Y-131128400D02*
X175043200Y-135368400D01*
%TO.N,FLASH_SS*%
X175559200Y-131628400D02*
X175559200Y-132074400D01*
X175559200Y-132074400D02*
X175717200Y-132232400D01*
X175717200Y-132232400D02*
X176479200Y-132232400D01*
%TO.N,FLASH_MISO*%
X177495200Y-136042400D02*
X175717200Y-134264400D01*
X175717200Y-134264400D02*
X175717200Y-133883400D01*
%TO.N,FLASH_SCK*%
X182067200Y-136677400D02*
X182829200Y-137439400D01*
%TO.N,FLASH_MOSI*%
X181749700Y-134073900D02*
X183718200Y-136042400D01*
X178511200Y-130835400D02*
X181749700Y-134073900D01*
X180670200Y-135153400D02*
X181749700Y-134073900D01*
%TO.N,FLASH_WP*%
X176098200Y-130962400D02*
X177495200Y-130962400D01*
X177495200Y-130962400D02*
X179908200Y-133375400D01*
X174320200Y-129184400D02*
X176098200Y-130962400D01*
%TO.N,W_SS*%
X161112200Y-143916400D02*
X161112200Y-135534400D01*
%TO.N,STATUS_B*%
X164922200Y-131978400D02*
X166700200Y-131978400D01*
X168859200Y-136169400D02*
X170002200Y-137312400D01*
X168859200Y-135407400D02*
X168859200Y-136169400D01*
X168478200Y-135026400D02*
X168859200Y-135407400D01*
X166700200Y-131978400D02*
X168478200Y-133756400D01*
X168478200Y-133756400D02*
X168478200Y-135026400D01*
%TO.N,STATUS_G*%
X171526200Y-136423400D02*
X171526200Y-136677400D01*
X171526200Y-136296400D02*
X171526200Y-136423400D01*
X164668200Y-131216400D02*
X166446200Y-131216400D01*
X164350700Y-131533900D02*
X164668200Y-131216400D01*
X166446200Y-131216400D02*
X171526200Y-136296400D01*
%TO.N,STATUS_R*%
X163652200Y-131343400D02*
X163652200Y-131470400D01*
X164414200Y-130581400D02*
X163652200Y-131343400D01*
X170002200Y-134010400D02*
X166573200Y-130581400D01*
X166573200Y-130581400D02*
X164414200Y-130581400D01*
%TO.N,FLASH_HOLD*%
X176860200Y-130073400D02*
X178892200Y-130073400D01*
X176352200Y-129565400D02*
X176860200Y-130073400D01*
X178892200Y-130073400D02*
X181051200Y-132232400D01*
%TO.N,Net-(R19-Pad2)*%
X124818200Y-133347400D02*
X113586200Y-133347400D01*
X120500200Y-122425400D02*
X106784200Y-122425400D01*
X106784200Y-122425400D02*
X106248200Y-122961400D01*
X113586200Y-133347400D02*
X110312200Y-130073400D01*
D36*
%TO.N,5V_BUCK*%
X173101000Y-112395000D02*
X173101000Y-113792000D01*
D37*
%TO.N,5V_USB*%
X172034200Y-103022400D02*
X174574200Y-105562400D01*
X145872200Y-103022400D02*
X172034200Y-103022400D01*
X183972200Y-105562400D02*
X184988200Y-106578400D01*
X174574200Y-105562400D02*
X183972200Y-105562400D01*
D35*
%TO.N,5V_SRC*%
X147777200Y-108229400D02*
X148793200Y-107213400D01*
X144602200Y-105054400D02*
X144602200Y-102006400D01*
X148793200Y-107213400D02*
X148793200Y-106324400D01*
X147777200Y-108229400D02*
X144602200Y-105054400D01*
%TO.N,Net-(R27-Pad1)*%
X113106200Y-127533400D02*
X114249200Y-126390400D01*
X105486200Y-127533400D02*
X113106200Y-127533400D01*
%TO.N,NRST*%
X162001200Y-130962400D02*
X162001200Y-129946400D01*
X166573200Y-142900400D02*
X168732200Y-140741400D01*
X166573200Y-144159350D02*
X166573200Y-142900400D01*
X163017200Y-132105400D02*
X162001200Y-131089400D01*
X168732200Y-140741400D02*
X168732200Y-136550400D01*
X164287200Y-132105400D02*
X163017200Y-132105400D01*
X162001200Y-131089400D02*
X162001200Y-130962400D01*
X168732200Y-136550400D02*
X164287200Y-132105400D01*
X160604200Y-130962400D02*
X162001200Y-130962400D01*
D38*
%TO.N,VIN*%
X202133200Y-128676400D02*
X202133200Y-110261400D01*
X199974200Y-108102400D02*
X192100200Y-108102400D01*
D39*
X107137200Y-97815400D02*
X139649200Y-97815400D01*
X176396650Y-99802950D02*
X181705250Y-99802950D01*
X96215200Y-101752400D02*
X96215200Y-100611378D01*
D38*
X195351400Y-142900400D02*
X197561200Y-142900400D01*
X184689750Y-99802950D02*
X181705250Y-99802950D01*
D36*
X181705250Y-102368350D02*
X181705250Y-99802950D01*
D38*
X202133200Y-110261400D02*
X199974200Y-108102400D01*
D39*
X96215200Y-100611378D02*
X99011178Y-97815400D01*
D38*
X192100200Y-108102400D02*
X190576200Y-106578400D01*
D39*
X99011178Y-97815400D02*
X107137200Y-97815400D01*
X139649200Y-97815400D02*
X141808200Y-99974400D01*
X141808200Y-99974400D02*
X156159200Y-99974400D01*
D38*
X107137200Y-103403400D02*
X107137200Y-97815400D01*
D36*
X181051200Y-103022400D02*
X181705250Y-102368350D01*
D38*
X190576200Y-106578400D02*
X190576200Y-103403400D01*
X106187199Y-104353401D02*
X107137200Y-103403400D01*
X197561200Y-142900400D02*
X198450200Y-142011400D01*
D36*
X179908200Y-103022400D02*
X181051200Y-103022400D01*
D38*
X190576200Y-103403400D02*
X188925200Y-101752400D01*
X186639200Y-101752400D02*
X184689750Y-99802950D01*
X187985400Y-150266400D02*
X195351400Y-142900400D01*
X198450200Y-132359400D02*
X202133200Y-128676400D01*
D39*
X156159200Y-99974400D02*
X157175200Y-100990400D01*
X175209200Y-100990400D02*
X176396650Y-99802950D01*
D38*
X188925200Y-101752400D02*
X186639200Y-101752400D01*
D39*
X91262200Y-106705400D02*
X96215200Y-101752400D01*
X157175200Y-100990400D02*
X175209200Y-100990400D01*
D38*
X198450200Y-142011400D02*
X198450200Y-132359400D01*
%TO.N,FIRE*%
X115646200Y-114452400D02*
X115773200Y-114325400D01*
X104724200Y-114452400D02*
X115646200Y-114452400D01*
D36*
X141109200Y-121628400D02*
X139268200Y-123469400D01*
D35*
X116027200Y-114071400D02*
X115773200Y-114325400D01*
D36*
X149999200Y-121628400D02*
X141109200Y-121628400D01*
D35*
X118440200Y-114071400D02*
X116027200Y-114071400D01*
D36*
%TO.N,PT*%
X140284200Y-128930400D02*
X143332200Y-128930400D01*
X112725200Y-135153400D02*
X134061200Y-135153400D01*
X134061200Y-135153400D02*
X140284200Y-128930400D01*
X149444200Y-126628400D02*
X143475200Y-126628400D01*
%TO.N,LC*%
X147650200Y-133248400D02*
X141427200Y-133248400D01*
X153365200Y-127533400D02*
X147650200Y-133248400D01*
D35*
%TO.N,SWO*%
X165430200Y-121564400D02*
X171780200Y-127914400D01*
X171780200Y-136042400D02*
X172415200Y-136677400D01*
X172415200Y-141503400D02*
X171907200Y-142011400D01*
X167843200Y-142773400D02*
X167843200Y-143916400D01*
X171907200Y-142011400D02*
X168605200Y-142011400D01*
X172415200Y-136677400D02*
X172415200Y-141503400D01*
X171780200Y-127914400D02*
X171780200Y-136042400D01*
X168605200Y-142011400D02*
X167843200Y-142773400D01*
%TO.N,TC_ALERT*%
X152476200Y-139090400D02*
X152984200Y-139090400D01*
X153365200Y-139471400D02*
X156159200Y-139471400D01*
X152984200Y-139090400D02*
X153365200Y-139471400D01*
%TO.N,TC_OC*%
X152476200Y-140233400D02*
X150474200Y-140233400D01*
X152603200Y-140106400D02*
X152476200Y-140233400D01*
X150474200Y-140233400D02*
X150459200Y-140218400D01*
X155143200Y-140106400D02*
X152603200Y-140106400D01*
%TO.N,TC_SC*%
X149159200Y-140853400D02*
X156174200Y-140853400D01*
%TO.N,PT_GAIN7*%
X159334200Y-120802400D02*
X168224200Y-129692400D01*
X137720240Y-117603440D02*
X148055160Y-117603440D01*
X136855200Y-116738400D02*
X137720240Y-117603440D01*
X148438560Y-117220040D02*
X148438560Y-116916667D01*
X148055160Y-117603440D02*
X148438560Y-117220040D01*
X150775827Y-114579400D02*
X153619200Y-114579400D01*
X148438560Y-116916667D02*
X150775827Y-114579400D01*
D36*
%TO.N,SP_CONT*%
X129108200Y-134264400D02*
X131140200Y-134264400D01*
D35*
X153492200Y-138709400D02*
X151841200Y-137058400D01*
X139141200Y-134772400D02*
X137998200Y-133629400D01*
X151841200Y-135026400D02*
X151587200Y-134772400D01*
D36*
X126695200Y-131851400D02*
X129108200Y-134264400D01*
X124282200Y-123596400D02*
X126314200Y-125628400D01*
D35*
X137998200Y-133629400D02*
X137998200Y-132486400D01*
X151841200Y-137058400D02*
X151841200Y-135026400D01*
X155651200Y-138709400D02*
X153492200Y-138709400D01*
X151587200Y-134772400D02*
X139141200Y-134772400D01*
D36*
X124282200Y-113563400D02*
X124282200Y-123596400D01*
X126695200Y-128930400D02*
X126695200Y-131851400D01*
D35*
%TO.N,NOZ_CONT*%
X125298200Y-113436400D02*
X125298200Y-123596400D01*
X153111200Y-137820400D02*
X153047700Y-137756900D01*
X139141200Y-134137400D02*
X139395200Y-134391400D01*
X152222200Y-134977027D02*
X152222200Y-136931400D01*
X127711200Y-128930400D02*
X127711200Y-131851400D01*
X155778200Y-137820400D02*
X153111200Y-137820400D01*
X127711200Y-131851400D02*
X129235200Y-133375400D01*
X129235200Y-133375400D02*
X130505200Y-133375400D01*
X139395200Y-134391400D02*
X151636573Y-134391400D01*
X125298200Y-123596400D02*
X127330200Y-125628400D01*
X151636573Y-134391400D02*
X152222200Y-134977027D01*
X152222200Y-136931400D02*
X153047700Y-137756900D01*
X139141200Y-131851400D02*
X139141200Y-134137400D01*
%TO.N,PT_MUX_A*%
X103454200Y-121691400D02*
X104597200Y-121691400D01*
X106070880Y-124181080D02*
X116788254Y-124181080D01*
X152857200Y-126263400D02*
X156667200Y-126263400D01*
X116788254Y-124181080D02*
X119963254Y-127356080D01*
X105613200Y-123723400D02*
X106070880Y-124181080D01*
X104597200Y-121691400D02*
X105613200Y-122707400D01*
X103454200Y-119024400D02*
X103454200Y-121691400D01*
X119963254Y-127356080D02*
X151764520Y-127356080D01*
X156667200Y-126263400D02*
X157302200Y-125628400D01*
X105613200Y-122707400D02*
X105613200Y-123723400D01*
X151764520Y-127356080D02*
X152857200Y-126263400D01*
%TO.N,~{USB_SUSPEND}*%
X177114200Y-123723400D02*
X177114200Y-122326400D01*
X177114200Y-122326400D02*
X178638200Y-122326400D01*
X178638200Y-122326400D02*
X179146200Y-121818400D01*
X179146200Y-121818400D02*
X179146200Y-121564400D01*
X174574200Y-122326400D02*
X177114200Y-122326400D01*
%TO.N,E_CONT*%
X139522200Y-132232400D02*
X140030200Y-131724400D01*
X155270200Y-137185400D02*
X152984200Y-137185400D01*
X128727200Y-131089400D02*
X128727200Y-128676400D01*
X128346200Y-125501400D02*
X128092200Y-125501400D01*
X152984200Y-137185400D02*
X152526520Y-136727720D01*
X128092200Y-125501400D02*
X126060200Y-123469400D01*
X107391200Y-113309400D02*
X106883200Y-112801400D01*
X152526520Y-134850974D02*
X151762626Y-134087080D01*
X151762626Y-134087080D02*
X139725880Y-134087080D01*
X109423200Y-113309400D02*
X107391200Y-113309400D01*
X126060200Y-123469400D02*
X126060200Y-115468400D01*
X152526520Y-136727720D02*
X152526520Y-134850974D01*
X139522200Y-133883400D02*
X139522200Y-132232400D01*
X139725880Y-134087080D02*
X139522200Y-133883400D01*
%TO.N,RX_USB*%
X177622200Y-128723200D02*
X177518600Y-128826800D01*
X172328200Y-123128400D02*
X173050200Y-123850400D01*
X177622200Y-127914400D02*
X177622200Y-128723200D01*
X173558200Y-123850400D02*
X177622200Y-127914400D01*
X173050200Y-123850400D02*
X173558200Y-123850400D01*
%TO.N,TX_USB*%
X178130200Y-127914400D02*
X172844200Y-122628400D01*
X178130200Y-129184400D02*
X178130200Y-127914400D01*
%TO.N,PT_MUX_B*%
X151918826Y-127660400D02*
X152985147Y-126594080D01*
X119837200Y-127660400D02*
X151918826Y-127660400D01*
X159969200Y-128930400D02*
X166065200Y-128930400D01*
X105359200Y-124485400D02*
X116662200Y-124485400D01*
X152985147Y-126594080D02*
X156870880Y-126594080D01*
X156870880Y-126594080D02*
X157175200Y-126898400D01*
X116662200Y-124485400D02*
X119837200Y-127660400D01*
%TO.N,PT_MUX_C*%
X105232200Y-125501400D02*
X105486200Y-125501400D01*
X164033200Y-129311400D02*
X164287200Y-129565400D01*
X104470200Y-122453400D02*
X104470200Y-124739400D01*
X156159200Y-126898400D02*
X157302200Y-128041400D01*
X151968200Y-128041400D02*
X153111200Y-126898400D01*
X119787826Y-128041400D02*
X151968200Y-128041400D01*
X106197880Y-124789720D02*
X116536146Y-124789720D01*
X160477200Y-129565400D02*
X161112200Y-129565400D01*
X116536146Y-124789720D02*
X119787826Y-128041400D01*
X105486200Y-125501400D02*
X106197880Y-124789720D01*
X161366200Y-129311400D02*
X164033200Y-129311400D01*
X161112200Y-129565400D02*
X161366200Y-129311400D01*
X153111200Y-126898400D02*
X156159200Y-126898400D01*
X104470200Y-124739400D02*
X105232200Y-125501400D01*
%TO.N,PT_GAIN0*%
X152706240Y-116714440D02*
X156641787Y-116714440D01*
X162890200Y-115444440D02*
X163501240Y-114833400D01*
X163501240Y-114833400D02*
X166065200Y-114833400D01*
X156641787Y-116714440D02*
X157911787Y-115444440D01*
X152476200Y-116484400D02*
X152706240Y-116714440D01*
X157911787Y-115444440D02*
X162890200Y-115444440D01*
%TO.N,PT_GAIN1*%
X156796092Y-117018760D02*
X158066093Y-115748760D01*
X151587200Y-116637760D02*
X151968200Y-117018760D01*
X165252880Y-115418080D02*
X163526146Y-115418080D01*
X117551200Y-132359400D02*
X118313200Y-131597400D01*
X163526146Y-115418080D02*
X163195466Y-115748760D01*
X158066093Y-115748760D02*
X163144200Y-115748760D01*
X121996200Y-129184400D02*
X119583200Y-131597400D01*
X118313200Y-131597400D02*
X119583200Y-131597400D01*
X125044200Y-129184400D02*
X121996200Y-129184400D01*
X165303200Y-115468400D02*
X165252880Y-115418080D01*
X151968200Y-117018760D02*
X156796092Y-117018760D01*
%TO.N,PT_GAIN2*%
X119837200Y-132613400D02*
X118440200Y-132613400D01*
X165049200Y-116357400D02*
X164414200Y-115722400D01*
X163321520Y-116053080D02*
X158192146Y-116053080D01*
X163652200Y-115722400D02*
X163321520Y-116053080D01*
X156922146Y-117323080D02*
X151282880Y-117323080D01*
X150952200Y-116992400D02*
X150825200Y-116865400D01*
X158192146Y-116053080D02*
X156922146Y-117323080D01*
X164414200Y-115722400D02*
X163652200Y-115722400D01*
X151282880Y-117323080D02*
X150952200Y-116992400D01*
X124409200Y-129819400D02*
X122631200Y-129819400D01*
X122631200Y-129819400D02*
X119837200Y-132613400D01*
%TO.N,PT_GAIN3*%
X150825200Y-117627400D02*
X157048200Y-117627400D01*
X158318200Y-116357400D02*
X164033200Y-116357400D01*
X157048200Y-117627400D02*
X158318200Y-116357400D01*
%TO.N,PT_GAIN4*%
X120980200Y-118008400D02*
X122504200Y-119532400D01*
X148742880Y-117755346D02*
X148742880Y-117042720D01*
X160274466Y-114351760D02*
X160986147Y-113640080D01*
X155064120Y-115801480D02*
X156513840Y-114351760D01*
X156513840Y-114351760D02*
X160274466Y-114351760D01*
X148590466Y-117907760D02*
X148742880Y-117755346D01*
X153493654Y-115801480D02*
X155064120Y-115801480D01*
X162763200Y-114071400D02*
X162763200Y-114452400D01*
X160986147Y-113640080D02*
X162331880Y-113640080D01*
X152678933Y-114986760D02*
X153493654Y-115801480D01*
X162331880Y-113640080D02*
X162763200Y-114071400D01*
X142826093Y-117907760D02*
X148590466Y-117907760D01*
X123191920Y-126443120D02*
X134290733Y-126443120D01*
X119964200Y-118008400D02*
X120980200Y-118008400D01*
X148742880Y-117042720D02*
X150798840Y-114986760D01*
X122504200Y-125755400D02*
X123191920Y-126443120D01*
X122504200Y-119532400D02*
X122504200Y-125755400D01*
X150798840Y-114986760D02*
X152678933Y-114986760D01*
X134290733Y-126443120D02*
X142826093Y-117907760D01*
%TO.N,PT_GAIN5*%
X148716520Y-118212080D02*
X142952147Y-118212080D01*
X157839400Y-114656080D02*
X156389679Y-116105800D01*
X160400520Y-114656080D02*
X157839400Y-114656080D01*
X161937700Y-114261900D02*
X161620200Y-113944400D01*
X134416786Y-126747440D02*
X120219765Y-126747440D01*
X149047200Y-117881400D02*
X148716520Y-118212080D01*
X114098240Y-123572440D02*
X113741200Y-123215400D01*
X119850024Y-126377699D02*
X119850024Y-126353850D01*
X120219765Y-126747440D02*
X119850024Y-126377699D01*
X156389679Y-116105800D02*
X153367600Y-116105800D01*
X142952147Y-118212080D02*
X134416786Y-126747440D01*
X161112200Y-113944400D02*
X160400520Y-114656080D01*
X119850024Y-126353850D02*
X117068614Y-123572440D01*
X153367600Y-116105800D02*
X152552880Y-115291080D01*
X150953147Y-115291080D02*
X149047200Y-117197027D01*
X161620200Y-113944400D02*
X161112200Y-113944400D01*
X149047200Y-117197027D02*
X149047200Y-117881400D01*
X152552880Y-115291080D02*
X150953147Y-115291080D01*
X117068614Y-123572440D02*
X114098240Y-123572440D01*
%TO.N,PT_GAIN6*%
X149428200Y-118262400D02*
X149174200Y-118516400D01*
X156515733Y-116410120D02*
X153163920Y-116410120D01*
X157965453Y-114960400D02*
X156515733Y-116410120D01*
X120089308Y-127051760D02*
X117170200Y-124104400D01*
X160985200Y-114960400D02*
X161239200Y-114706400D01*
X116942560Y-123876760D02*
X113132560Y-123876760D01*
X143078200Y-118516400D02*
X134542840Y-127051760D01*
X157965453Y-114960400D02*
X160985200Y-114960400D01*
X153163920Y-116410120D02*
X152349200Y-115595400D01*
X113132560Y-123876760D02*
X112852200Y-123596400D01*
X152349200Y-115595400D02*
X151079200Y-115595400D01*
X149174200Y-118516400D02*
X143078200Y-118516400D01*
X134542840Y-127051760D02*
X120089308Y-127051760D01*
X117170200Y-124104400D02*
X116942560Y-123876760D01*
X151079200Y-115595400D02*
X149428200Y-117246400D01*
X149428200Y-117246400D02*
X149428200Y-118262400D01*
%TO.N,PT-*%
X97866200Y-125120400D02*
X99136200Y-125120400D01*
X97358200Y-124612400D02*
X97866200Y-125120400D01*
X100533200Y-126517400D02*
X100533200Y-129565400D01*
X99136200Y-125120400D02*
X100533200Y-126517400D01*
%TO.N,PT+*%
X96215200Y-126644400D02*
X100279200Y-130708400D01*
%TD*%
M02*
