%TF.GenerationSoftware,KiCad,Pcbnew,5.1.10*%
%TF.CreationDate,2021-11-13T19:57:08-07:00*%
%TF.ProjectId,Engine-Controller,456e6769-6e65-42d4-936f-6e74726f6c6c,1.0*%
%TF.SameCoordinates,Original*%
%TF.FileFunction,Copper,L4,Bot*%
%TF.FilePolarity,Positive*%
%FSLAX46Y46*%
G04 Gerber Fmt 4.6, Leading zero omitted, Abs format (unit mm)*
G04 Created by KiCad (PCBNEW 5.1.10) date 2021-11-13 19:57:08*
%MOMM*%
%LPD*%
G01*
G04 APERTURE LIST*
%TA.AperFunction,ComponentPad*%
%ADD10C,1.524000*%
%TD*%
%TA.AperFunction,ComponentPad*%
%ADD11C,3.366000*%
%TD*%
%TA.AperFunction,ComponentPad*%
%ADD12C,1.478000*%
%TD*%
%TA.AperFunction,ComponentPad*%
%ADD13R,1.478000X1.478000*%
%TD*%
%TA.AperFunction,SMDPad,CuDef*%
%ADD14C,1.524000*%
%TD*%
%TA.AperFunction,ComponentPad*%
%ADD15O,2.200000X4.400000*%
%TD*%
%TA.AperFunction,ComponentPad*%
%ADD16O,1.900000X3.800000*%
%TD*%
%TA.AperFunction,ComponentPad*%
%ADD17O,3.800000X1.900000*%
%TD*%
%TA.AperFunction,ComponentPad*%
%ADD18C,1.498600*%
%TD*%
%TA.AperFunction,ComponentPad*%
%ADD19C,1.650000*%
%TD*%
%TA.AperFunction,ComponentPad*%
%ADD20R,1.650000X1.650000*%
%TD*%
%TA.AperFunction,ViaPad*%
%ADD21C,0.500000*%
%TD*%
%TA.AperFunction,ViaPad*%
%ADD22C,1.016000*%
%TD*%
%TA.AperFunction,ViaPad*%
%ADD23C,0.762000*%
%TD*%
%TA.AperFunction,ViaPad*%
%ADD24C,1.270000*%
%TD*%
%TA.AperFunction,ViaPad*%
%ADD25C,1.778000*%
%TD*%
%TA.AperFunction,Conductor*%
%ADD26C,0.254000*%
%TD*%
%TA.AperFunction,Conductor*%
%ADD27C,0.762000*%
%TD*%
%TA.AperFunction,Conductor*%
%ADD28C,1.778000*%
%TD*%
%TA.AperFunction,Conductor*%
%ADD29C,0.177800*%
%TD*%
G04 APERTURE END LIST*
D10*
%TO.P,P4,10*%
%TO.N,PD9*%
X187782200Y-150279100D03*
%TO.P,P4,9*%
%TO.N,PD8*%
X185242200Y-150279100D03*
%TO.P,P4,8*%
%TO.N,PD7*%
X182702200Y-150279100D03*
%TO.P,P4,7*%
%TO.N,PD6*%
X180162200Y-150279100D03*
%TO.P,P4,6*%
%TO.N,PD5_BUF*%
X177622200Y-150279100D03*
%TO.P,P4,5*%
%TO.N,PD4_BUF*%
X175082200Y-150279100D03*
%TO.P,P4,4*%
%TO.N,PD3_BUF*%
X172542200Y-150279100D03*
%TO.P,P4,3*%
%TO.N,PD2_BUF*%
X170002200Y-150279100D03*
%TO.P,P4,2*%
%TO.N,PD1_BUF*%
X167462200Y-150279100D03*
%TO.P,P4,1*%
%TO.N,PD0_BUF*%
X164922200Y-150279100D03*
%TD*%
D11*
%TO.P,P2,S2*%
%TO.N,Earth*%
X195318200Y-113258400D03*
%TO.P,P2,S1*%
X195318200Y-125298400D03*
D12*
%TO.P,P2,4*%
X192608200Y-118028400D03*
%TO.P,P2,3*%
%TO.N,/USB/D+*%
X192608200Y-120528400D03*
D13*
%TO.P,P2,1*%
%TO.N,5V_USB*%
X190608200Y-118028400D03*
D12*
%TO.P,P2,2*%
%TO.N,/USB/D-*%
X190608200Y-120528400D03*
%TD*%
D10*
%TO.P,P7,10*%
%TO.N,Earth*%
X145173700Y-150088600D03*
%TO.P,P7,9*%
%TO.N,3.3V*%
X142633700Y-150088600D03*
%TO.P,P7,8*%
%TO.N,Net-(P7-Pad8)*%
X140093700Y-150088600D03*
%TO.P,P7,7*%
%TO.N,A6*%
X137553700Y-150088600D03*
%TO.P,P7,6*%
%TO.N,A5*%
X135013700Y-150088600D03*
%TO.P,P7,5*%
%TO.N,A4*%
X132473700Y-150088600D03*
%TO.P,P7,4*%
%TO.N,A3*%
X129933700Y-150088600D03*
%TO.P,P7,3*%
%TO.N,A2*%
X127393700Y-150088600D03*
%TO.P,P7,2*%
%TO.N,A1*%
X124853700Y-150088600D03*
%TO.P,P7,1*%
%TO.N,A0*%
X122313700Y-150088600D03*
%TD*%
D14*
%TO.P,TP7,1*%
%TO.N,FLASH_MISO*%
X170395900Y-138176000D03*
%TD*%
%TO.P,TP1,1*%
%TO.N,NRST*%
X136779000Y-132143500D03*
%TD*%
%TO.P,TP2,1*%
%TO.N,VIN*%
X181470300Y-115252500D03*
%TD*%
%TO.P,TP3,1*%
%TO.N,Earth*%
X172542200Y-143090900D03*
%TD*%
%TO.P,TP4,1*%
%TO.N,/power/5V*%
X141617700Y-109245400D03*
%TD*%
%TO.P,TP5,1*%
%TO.N,3.3V*%
X169570400Y-143090900D03*
%TD*%
D15*
%TO.P,P1,1*%
%TO.N,/power/V_JACK*%
X192443200Y-104546400D03*
D16*
%TO.P,P1,2*%
%TO.N,Earth*%
X198398200Y-104546400D03*
D17*
%TO.P,P1,3*%
X195148200Y-99856400D03*
%TD*%
D10*
%TO.P,P5,B5*%
%TO.N,SS*%
X128600200Y-100990400D03*
%TO.P,P5,B4*%
%TO.N,MOSI*%
X131140200Y-100990400D03*
%TO.P,P5,B3*%
%TO.N,MISO*%
X133680200Y-100990400D03*
%TO.P,P5,B2*%
%TO.N,SCK*%
X136220200Y-100990400D03*
%TO.P,P5,B1*%
%TO.N,Earth*%
X138760200Y-100990400D03*
%TO.P,P5,A5*%
%TO.N,SDA*%
X128600200Y-98450400D03*
%TO.P,P5,A4*%
%TO.N,SCL*%
X131140200Y-98450400D03*
%TO.P,P5,A3*%
%TO.N,TX*%
X133680200Y-98450400D03*
%TO.P,P5,A2*%
%TO.N,RX*%
X136220200Y-98450400D03*
%TO.P,P5,A1*%
%TO.N,V_HEAD*%
X138760200Y-98450400D03*
%TD*%
D14*
%TO.P,TP9,1*%
%TO.N,FLASH_MOSI*%
X179476400Y-134607300D03*
%TD*%
%TO.P,TP10,1*%
%TO.N,5V_SRC*%
X143332200Y-122897900D03*
%TD*%
%TO.P,TP6,1*%
%TO.N,FLASH_SS*%
X170446700Y-136004300D03*
%TD*%
%TO.P,TP8,1*%
%TO.N,FLASH_SCK*%
X172580300Y-138252200D03*
%TD*%
%TO.P,TP11,1*%
%TO.N,5V_BUCK*%
X173164500Y-113779300D03*
%TD*%
D18*
%TO.P,P3,19*%
%TO.N,Net-(P3-Pad19)*%
X108026200Y-122072400D03*
%TO.P,P3,20*%
%TO.N,Earth*%
X105486200Y-122072400D03*
%TO.P,P3,17*%
%TO.N,Net-(P3-Pad17)*%
X108026200Y-124612400D03*
%TO.P,P3,18*%
%TO.N,Earth*%
X105486200Y-124612400D03*
%TO.P,P3,15*%
%TO.N,NRST*%
X108026200Y-127152400D03*
%TO.P,P3,16*%
%TO.N,Earth*%
X105486200Y-127152400D03*
%TO.P,P3,13*%
%TO.N,SWO*%
X108026200Y-129692400D03*
%TO.P,P3,14*%
%TO.N,Earth*%
X105486200Y-129692400D03*
%TO.P,P3,11*%
%TO.N,Net-(P3-Pad11)*%
X108026200Y-132232400D03*
%TO.P,P3,12*%
%TO.N,Earth*%
X105486200Y-132232400D03*
%TO.P,P3,9*%
%TO.N,SWCLK*%
X108026200Y-134772400D03*
%TO.P,P3,10*%
%TO.N,Earth*%
X105486200Y-134772400D03*
%TO.P,P3,7*%
%TO.N,SWDIO*%
X108026200Y-137312400D03*
%TO.P,P3,8*%
%TO.N,Earth*%
X105486200Y-137312400D03*
%TO.P,P3,5*%
X108026200Y-139852400D03*
%TO.P,P3,6*%
X105486200Y-139852400D03*
%TO.P,P3,3*%
X108026200Y-142392400D03*
%TO.P,P3,4*%
X105486200Y-142392400D03*
%TO.P,P3,1*%
%TO.N,Net-(P3-Pad1)*%
X108026200Y-144932400D03*
%TO.P,P3,2*%
%TO.N,Net-(P3-Pad2)*%
X105486200Y-144932400D03*
%TD*%
D19*
%TO.P,P8,6*%
%TO.N,Earth*%
X123012200Y-100482400D03*
%TO.P,P8,5*%
%TO.N,SP_CONT*%
X117932200Y-100482400D03*
%TO.P,P8,4*%
%TO.N,Earth*%
X112852200Y-100482400D03*
%TO.P,P8,3*%
%TO.N,NOZ_CONT*%
X107772200Y-100482400D03*
%TO.P,P8,2*%
%TO.N,Net-(P8-Pad2)*%
X102692200Y-100482400D03*
D20*
%TO.P,P8,1*%
%TO.N,VIN*%
X97612200Y-100482400D03*
%TD*%
D14*
%TO.P,TP12,1*%
%TO.N,~USB_SUSPEND*%
X164109400Y-117144800D03*
%TD*%
%TO.P,TP13,1*%
%TO.N,FIRE*%
X130149600Y-111188500D03*
%TD*%
D21*
%TO.N,Earth*%
X164922200Y-121564400D03*
D22*
X170256200Y-104546400D03*
X181559200Y-110007400D03*
X177114200Y-103022400D03*
X153746200Y-98450400D03*
X156032200Y-106324400D03*
D23*
X143261200Y-101681400D03*
X147142200Y-109880400D03*
D22*
X96850200Y-115468400D03*
X111582200Y-115214400D03*
D21*
X181610000Y-124968000D03*
X181229000Y-126212600D03*
D23*
X186004200Y-122174000D03*
X180682900Y-119176800D03*
D21*
X169418000Y-120307100D03*
X161264600Y-136880600D03*
X162369500Y-140792200D03*
X149936200Y-140677900D03*
X148780500Y-136093200D03*
X146596100Y-130149600D03*
X142290800Y-130746500D03*
X142328900Y-126644400D03*
X147637500Y-114490500D03*
X150279100Y-118745000D03*
X146545300Y-125996700D03*
D22*
X196285800Y-144912400D03*
D21*
X174002700Y-139611100D03*
D22*
X115976400Y-113068100D03*
D21*
X123012200Y-108623100D03*
X125780800Y-111531400D03*
X117297200Y-118795800D03*
X115201700Y-126263400D03*
X170408600Y-113995200D03*
X174307500Y-143129000D03*
D23*
X120973850Y-111639350D03*
%TO.N,3.3V*%
X142316200Y-97942400D03*
D22*
X114515900Y-108216700D03*
D23*
X177330100Y-117703600D03*
D21*
X181305200Y-133426200D03*
X191262000Y-138036300D03*
X185547000Y-143116300D03*
X126961900Y-114388900D03*
X139674600Y-123837700D03*
X159956500Y-148958300D03*
X152882600Y-114122200D03*
X125818900Y-117881400D03*
X169189400Y-141490700D03*
X146392900Y-126644400D03*
X149296000Y-131160400D03*
X151206200Y-136893300D03*
X162096450Y-136861550D03*
X164160200Y-120586500D03*
X149244050Y-118535450D03*
%TO.N,SWCLK*%
X139928600Y-117055900D03*
X149669500Y-112547400D03*
X145834100Y-113284000D03*
%TO.N,SWDIO*%
X133883400Y-117132100D03*
X139369800Y-113728500D03*
X145326100Y-112560100D03*
X161264600Y-122669300D03*
%TO.N,SS*%
X128612900Y-107353100D03*
X135661400Y-110947200D03*
X142786100Y-110959900D03*
X153428700Y-131203700D03*
%TO.N,MOSI*%
X131152900Y-107365800D03*
X152806400Y-130073400D03*
%TO.N,MISO*%
X133680200Y-107353100D03*
X152171400Y-129222500D03*
%TO.N,SCK*%
X136232900Y-108077000D03*
X151574500Y-130073400D03*
%TO.N,SDA*%
X126326900Y-107391200D03*
X135597900Y-111747300D03*
%TO.N,SCL*%
X129882900Y-107530900D03*
X151777700Y-118008400D03*
%TO.N,TX*%
X132422900Y-107454700D03*
X150177500Y-129120900D03*
%TO.N,RX*%
X134975600Y-108064300D03*
X150717250Y-129952750D03*
%TO.N,/MCU_STATUS*%
X145630900Y-120624600D03*
X140233400Y-121310400D03*
%TO.N,PD6*%
X175882300Y-141871700D03*
X158216600Y-125425200D03*
%TO.N,PD7*%
X176834800Y-141655800D03*
X157734000Y-124714000D03*
%TO.N,PD8*%
X178244500Y-141719300D03*
X173304200Y-131876800D03*
%TO.N,PD9*%
X179324000Y-141935200D03*
X172097700Y-131165600D03*
%TO.N,A5*%
X143967200Y-138036300D03*
X151968200Y-137401300D03*
%TO.N,A1*%
X141198600Y-131000500D03*
X142303500Y-129540000D03*
%TO.N,A0*%
X140284200Y-131292600D03*
X141795500Y-128816100D03*
%TO.N,SD_DETECT*%
X162712400Y-135648700D03*
X160070800Y-133045200D03*
%TO.N,FLASH_SS*%
X172364400Y-134759700D03*
%TO.N,FLASH_MISO*%
X179679600Y-139534900D03*
X183515000Y-139941300D03*
X172567600Y-136029700D03*
%TO.N,FLASH_SCK*%
X171456350Y-139871450D03*
%TO.N,FLASH_MOSI*%
X178365150Y-136645650D03*
X183159400Y-136639300D03*
%TO.N,FLASH_WP*%
X168262300Y-135140700D03*
X161150300Y-132816600D03*
%TO.N,SD_SS*%
X165608000Y-127977900D03*
X158343600Y-127977900D03*
%TO.N,PD5*%
X156286200Y-147395500D03*
X156273500Y-139687300D03*
X153098500Y-139153900D03*
X156654500Y-117690900D03*
%TO.N,PD4*%
X150075900Y-146494500D03*
X157175200Y-118262400D03*
%TO.N,PD3*%
X151231600Y-147256500D03*
X157454600Y-121767600D03*
%TO.N,PD2*%
X154851100Y-141147800D03*
X158127700Y-122161300D03*
%TO.N,PD1*%
X158051500Y-141592300D03*
X158800800Y-129324100D03*
%TO.N,PD0*%
X160134300Y-143929100D03*
X159562800Y-129997200D03*
%TO.N,FLASH_HOLD*%
X165658800Y-128765300D03*
X156044900Y-128663700D03*
%TO.N,5V_BUCK*%
X173101000Y-112395000D03*
%TO.N,/power/5V*%
X143911200Y-107434500D03*
D22*
%TO.N,5V_USB*%
X183972200Y-108610400D03*
X145872200Y-103022400D03*
D21*
%TO.N,5V_SRC*%
X140995400Y-117894100D03*
X139331700Y-114947700D03*
X155765500Y-105168700D03*
X152463500Y-104267000D03*
X145148300Y-122047000D03*
%TO.N,NRST*%
X116890800Y-131267200D03*
X118960900Y-133337300D03*
X134854950Y-131070350D03*
D24*
%TO.N,VIN*%
X181705250Y-99802950D03*
D21*
X179844700Y-113385600D03*
%TO.N,FIRE*%
X131991100Y-110197900D03*
%TO.N,Net-(J2-Pad2)*%
X155625800Y-117271800D03*
X154343100Y-121716800D03*
%TO.N,SWO*%
X149212300Y-113423700D03*
X146786600Y-113982500D03*
X140322300Y-116154200D03*
%TO.N,PD5_BUF*%
X160858200Y-150012400D03*
%TO.N,PD4_BUF*%
X154914600Y-151726900D03*
%TO.N,PD3_BUF*%
X151752300Y-150990300D03*
%TO.N,SP_CONT*%
X126453900Y-112776000D03*
X146405600Y-124955300D03*
X149961600Y-124968000D03*
%TO.N,NOZ_CONT*%
X121780300Y-112788700D03*
X146494500Y-124231400D03*
X149948900Y-124218700D03*
D25*
%TO.N,Net-(P8-Pad2)*%
X117538500Y-108077000D03*
D21*
X114935000Y-114452400D03*
%TO.N,~USB_RST*%
X172275500Y-126098300D03*
X175869600Y-120713500D03*
%TO.N,~USB_SUSPEND*%
X163556950Y-119983250D03*
%TO.N,E_CONT*%
X145694400Y-125501400D03*
X149479000Y-125488700D03*
%TO.N,TX_USB*%
X175044100Y-129336800D03*
X174536100Y-127584200D03*
%TD*%
D26*
%TO.N,Earth*%
X172542200Y-143090900D02*
X174307500Y-143129000D01*
X174307500Y-143129000D02*
X174269400Y-143090900D01*
%TO.N,3.3V*%
X169570400Y-143090900D02*
X169570400Y-141871700D01*
X169570400Y-141871700D02*
X169189400Y-141490700D01*
X169189400Y-141490700D02*
X169189400Y-141490700D01*
%TO.N,SWCLK*%
X108026200Y-134772400D02*
X118795800Y-134772400D01*
X118795800Y-134772400D02*
X136486900Y-117081300D01*
X136512300Y-117068600D02*
X139890500Y-117043200D01*
X149669500Y-112547400D02*
X149669500Y-112547400D01*
X148170900Y-113309400D02*
X149669500Y-112547400D01*
X145834100Y-113284000D02*
X148170900Y-113309400D01*
%TO.N,SWDIO*%
X133883400Y-117132100D02*
X135686800Y-115328700D01*
X135686800Y-115328700D02*
X137744200Y-115328700D01*
X137744200Y-115328700D02*
X139369800Y-113728500D01*
X139369800Y-113728500D02*
X139344400Y-113728500D01*
X145326100Y-112560100D02*
X148450300Y-112560100D01*
X148967001Y-112043399D02*
X153496199Y-112043399D01*
X148450300Y-112560100D02*
X148967001Y-112043399D01*
X153496199Y-112043399D02*
X161277300Y-119824500D01*
X161277300Y-119824500D02*
X161264600Y-122669300D01*
X161264600Y-122669300D02*
X161277300Y-122682000D01*
%TO.N,SS*%
X128612900Y-107353100D02*
X129794000Y-108534200D01*
X129794000Y-108534200D02*
X133248400Y-108534200D01*
X133248400Y-108534200D02*
X135661400Y-110947200D01*
X135661400Y-110947200D02*
X135661400Y-110947200D01*
X142786100Y-110959900D02*
X142786100Y-111607600D01*
X142786100Y-111607600D02*
X148602700Y-117424200D01*
X148602700Y-117424200D02*
X152298400Y-117424200D01*
X152298400Y-117424200D02*
X153428700Y-118554500D01*
X153428700Y-118554500D02*
X153428700Y-131203700D01*
X153428700Y-131203700D02*
X153428700Y-131203700D01*
%TO.N,MOSI*%
X131669601Y-106849099D02*
X136660701Y-106849099D01*
X131152900Y-107365800D02*
X131669601Y-106849099D01*
X143634701Y-113823099D02*
X152552059Y-122701139D01*
X136660701Y-106849099D02*
X143634701Y-113823099D01*
X152552060Y-122701631D02*
X152806400Y-122955971D01*
X152552059Y-122701139D02*
X152552060Y-122701631D01*
X152806400Y-122955971D02*
X152806400Y-129552700D01*
X152806400Y-129552700D02*
X152806400Y-129654300D01*
X152806400Y-129552700D02*
X152806400Y-130073400D01*
X152806400Y-130073400D02*
X152806400Y-130073400D01*
%TO.N,MISO*%
X152171400Y-129222500D02*
X152171400Y-129222500D01*
X152171400Y-122859800D02*
X152171400Y-129222500D01*
X137769600Y-108521500D02*
X152171400Y-122859800D01*
X136931400Y-107848400D02*
X137769600Y-108521500D01*
X136254922Y-107353100D02*
X136931400Y-107848400D01*
X133680200Y-107353100D02*
X136254922Y-107353100D01*
%TO.N,SCK*%
X151574500Y-130073400D02*
X151485600Y-130187700D01*
X136817100Y-108597700D02*
X136232900Y-108077000D01*
X151599900Y-123012200D02*
X136817100Y-108597700D01*
X151574500Y-130073400D02*
X151599900Y-123012200D01*
%TO.N,SDA*%
X126326900Y-107391200D02*
X127558800Y-107391200D01*
X127558800Y-107391200D02*
X129184400Y-109016800D01*
X129184400Y-109016800D02*
X132867400Y-109016800D01*
X132867400Y-109016800D02*
X135597900Y-111747300D01*
X135597900Y-111747300D02*
X135597900Y-111747300D01*
%TO.N,SCL*%
X130945711Y-106468089D02*
X136833789Y-106468089D01*
X129882900Y-107530900D02*
X130945711Y-106468089D01*
X145529300Y-115163600D02*
X145529300Y-115171702D01*
X136833789Y-106468089D02*
X145529300Y-115163600D01*
X145529300Y-115171702D02*
X148378560Y-118008400D01*
X148378560Y-118008400D02*
X151777700Y-118008400D01*
X151777700Y-118008400D02*
X151777700Y-118008400D01*
%TO.N,TX*%
X132422900Y-107454700D02*
X133096000Y-108127800D01*
X133096000Y-108127800D02*
X133934200Y-108127800D01*
X133934200Y-108127800D02*
X135204200Y-109397800D01*
X136302962Y-109397800D02*
X150374562Y-123469400D01*
X135204200Y-109397800D02*
X136302962Y-109397800D01*
X150465601Y-123560439D02*
X150465601Y-128832799D01*
X150374562Y-123469400D02*
X150465601Y-123560439D01*
X150465601Y-128832799D02*
X150177500Y-129120900D01*
X150177500Y-129120900D02*
X150177500Y-129120900D01*
%TO.N,RX*%
X150717250Y-129952750D02*
X150710900Y-129959100D01*
X150974222Y-129695778D02*
X150717250Y-129952750D01*
X136156700Y-108724700D02*
X151053800Y-123190000D01*
X135343900Y-108724700D02*
X136156700Y-108724700D01*
X151053800Y-123190000D02*
X150974222Y-129695778D01*
X134975600Y-108064300D02*
X135343900Y-108724700D01*
%TO.N,/MCU_STATUS*%
X145630900Y-120624600D02*
X140830300Y-120624600D01*
X140830300Y-120624600D02*
X140271500Y-121183400D01*
X140271500Y-121183400D02*
X140233400Y-121310400D01*
X140233400Y-121310400D02*
X140271500Y-121183400D01*
%TO.N,PD6*%
X175882300Y-141871700D02*
X175882300Y-136263728D01*
X175882300Y-136263728D02*
X170911172Y-131292600D01*
X170911172Y-131292600D02*
X170878490Y-131259919D01*
X170878490Y-131259919D02*
X170878490Y-125666490D01*
X170637200Y-125425200D02*
X170878490Y-125666490D01*
X158216600Y-125425200D02*
X170637200Y-125425200D01*
%TO.N,PD7*%
X176834800Y-141655800D02*
X176352200Y-141173200D01*
X176352200Y-141173200D02*
X176352200Y-136194800D01*
X176352200Y-136194800D02*
X171678600Y-131521200D01*
X171678600Y-131521200D02*
X171259500Y-131102100D01*
X171259500Y-131102100D02*
X171259500Y-125209300D01*
X171259500Y-125209300D02*
X170764200Y-124714000D01*
X170764200Y-124714000D02*
X157734000Y-124714000D01*
X157734000Y-124714000D02*
X157734000Y-124714000D01*
%TO.N,PD8*%
X178244500Y-141719300D02*
X176999900Y-140474700D01*
X176999900Y-140474700D02*
X176999900Y-135547100D01*
X176999900Y-135547100D02*
X173304200Y-131876800D01*
X173304200Y-131876800D02*
X173329600Y-131876800D01*
%TO.N,PD9*%
X179324000Y-141935200D02*
X177571400Y-140182600D01*
X177571400Y-140182600D02*
X177571400Y-135026400D01*
X177571400Y-135026400D02*
X173710600Y-131165600D01*
X173710600Y-131165600D02*
X172097700Y-131165600D01*
X172097700Y-131165600D02*
X172097700Y-131165600D01*
%TO.N,A5*%
X143967200Y-138036300D02*
X151333200Y-138036300D01*
X151333200Y-138036300D02*
X151968200Y-137401300D01*
X151968200Y-137401300D02*
X151968200Y-137401300D01*
%TO.N,A1*%
X141198600Y-131000500D02*
X142316200Y-129882900D01*
X142316200Y-129882900D02*
X142303500Y-129540000D01*
X142303500Y-129540000D02*
X142316200Y-129552700D01*
%TO.N,A0*%
X140284200Y-131292600D02*
X140284200Y-130327400D01*
X140284200Y-130327400D02*
X141795500Y-128816100D01*
X141795500Y-128816100D02*
X141795500Y-128816100D01*
%TO.N,SD_DETECT*%
X162712400Y-135648700D02*
X160070800Y-133045200D01*
X160070800Y-133045200D02*
X160108900Y-133045200D01*
%TO.N,FLASH_SS*%
X172364400Y-134759700D02*
X172364400Y-135153400D01*
X172364400Y-135153400D02*
X171551600Y-135966200D01*
X171551600Y-135966200D02*
X170497500Y-135966200D01*
%TO.N,FLASH_MISO*%
X179679600Y-139534900D02*
X183108600Y-139534900D01*
X183108600Y-139534900D02*
X183515000Y-139941300D01*
X183515000Y-139941300D02*
X183515000Y-139941300D01*
X172567600Y-136029700D02*
X170637200Y-137960100D01*
%TO.N,FLASH_SCK*%
X171456350Y-139871450D02*
X172104050Y-139871450D01*
X172104050Y-139871450D02*
X172593000Y-139382500D01*
X172593000Y-139382500D02*
X172593000Y-138328400D01*
%TO.N,FLASH_MOSI*%
X178365150Y-136645650D02*
X183159400Y-136639300D01*
X183159400Y-136639300D02*
X183153050Y-136645650D01*
X178365150Y-136645650D02*
X178365150Y-135756650D01*
X178365150Y-135756650D02*
X179438300Y-134683500D01*
%TO.N,FLASH_WP*%
X168262300Y-135140700D02*
X163474400Y-135140700D01*
X163474400Y-135140700D02*
X161150300Y-132816600D01*
X161150300Y-132816600D02*
X161150300Y-132816600D01*
%TO.N,SD_SS*%
X165608000Y-127977900D02*
X161429700Y-127977900D01*
X161429700Y-127977900D02*
X161544000Y-127977900D01*
X158343600Y-127977900D02*
X161429700Y-127977900D01*
%TO.N,PD5*%
X156286200Y-147395500D02*
X156273500Y-139687300D01*
X156273500Y-139687300D02*
X156286200Y-139700000D01*
X153098500Y-139153900D02*
X153111200Y-139153900D01*
X153441380Y-138823720D02*
X153441380Y-136690120D01*
X153111200Y-139153900D02*
X153441380Y-138823720D01*
X154216080Y-135915420D02*
X154216080Y-123342420D01*
X153441380Y-136690120D02*
X154216080Y-135915420D01*
X154216080Y-123342420D02*
X156654500Y-120904000D01*
X156654500Y-120904000D02*
X156654500Y-117690900D01*
X156654500Y-117690900D02*
X156654500Y-117690900D01*
%TO.N,PD4*%
X150075900Y-146494500D02*
X150075900Y-144208500D01*
X153822390Y-140462010D02*
X153822390Y-137121910D01*
X150075900Y-144208500D02*
X153822390Y-140462010D01*
X154597090Y-136347210D02*
X154597090Y-123799610D01*
X153822390Y-137121910D02*
X154597090Y-136347210D01*
X154597090Y-123799610D02*
X157175200Y-121221500D01*
X157175200Y-121221500D02*
X157175200Y-118262400D01*
X157175200Y-118262400D02*
X157175200Y-118262400D01*
%TO.N,PD3*%
X151231600Y-147256500D02*
X151231600Y-143725900D01*
X151231600Y-143725900D02*
X154203400Y-140754100D01*
X154203400Y-137490200D02*
X154978100Y-136715500D01*
X154203400Y-140754100D02*
X154203400Y-137490200D01*
X154978100Y-136715500D02*
X154978100Y-124244100D01*
X154978100Y-124244100D02*
X157454600Y-121767600D01*
X157454600Y-121767600D02*
X157454600Y-121767600D01*
%TO.N,PD2*%
X154851100Y-141147800D02*
X154851100Y-137490200D01*
X154851100Y-137490200D02*
X155384500Y-136956800D01*
X155384500Y-136956800D02*
X155384500Y-124904500D01*
X155384500Y-124904500D02*
X158127700Y-122161300D01*
X158127700Y-122161300D02*
X158127700Y-122161300D01*
%TO.N,PD1*%
X158051500Y-141592300D02*
X158051500Y-130086100D01*
X158051500Y-130086100D02*
X158661100Y-129501900D01*
X158661100Y-129501900D02*
X158661100Y-129476500D01*
%TO.N,PD0*%
X159566799Y-130001199D02*
X159562800Y-129997200D01*
X160134300Y-134150100D02*
X159566799Y-133582599D01*
X159566799Y-133582599D02*
X159566799Y-130001199D01*
X160134300Y-143929100D02*
X160134300Y-134150100D01*
%TO.N,FLASH_HOLD*%
X156044900Y-128663700D02*
X164947600Y-128663700D01*
X165049200Y-128765300D02*
X165658800Y-128765300D01*
X164947600Y-128663700D02*
X165049200Y-128765300D01*
%TO.N,5V_BUCK*%
X173101000Y-112395000D02*
X173101000Y-113792000D01*
%TO.N,/power/5V*%
X143911200Y-107434500D02*
X143911200Y-108209200D01*
X143911200Y-108209200D02*
X142976600Y-109143800D01*
X142976600Y-109143800D02*
X141439900Y-109143800D01*
D27*
%TO.N,5V_USB*%
X183972200Y-108610400D02*
X183972200Y-107848400D01*
X183972200Y-107848400D02*
X183972200Y-106578400D01*
X183972200Y-106578400D02*
X182956200Y-105562400D01*
X182956200Y-105562400D02*
X174574200Y-105562400D01*
X174574200Y-105562400D02*
X172034200Y-103022400D01*
X172034200Y-103022400D02*
X145872200Y-103022400D01*
D26*
%TO.N,5V_SRC*%
X140995400Y-117894100D02*
X140995400Y-116535200D01*
X140995400Y-116535200D02*
X140995400Y-115531900D01*
X140995400Y-115531900D02*
X140385800Y-114922300D01*
X140385800Y-114922300D02*
X139331700Y-114947700D01*
X139331700Y-114947700D02*
X139357100Y-114922300D01*
X155765500Y-105168700D02*
X153365200Y-105168700D01*
X153365200Y-105168700D02*
X152463500Y-104267000D01*
X152463500Y-104267000D02*
X152463500Y-104267000D01*
X145148300Y-122047000D02*
X144195800Y-122047000D01*
X144195800Y-122047000D02*
X143510000Y-122732800D01*
%TO.N,NRST*%
X116890800Y-131267200D02*
X118960900Y-133337300D01*
X118960900Y-133337300D02*
X118960900Y-133337300D01*
X134854950Y-131070350D02*
X135921750Y-131070350D01*
X135921750Y-131070350D02*
X136715500Y-131864100D01*
D28*
%TO.N,VIN*%
X186410601Y-111531401D02*
X187921900Y-110020102D01*
X125552200Y-99263200D02*
X125552200Y-102717600D01*
X97612200Y-100279200D02*
X100368100Y-97523300D01*
X97612200Y-100482400D02*
X97612200Y-100279200D01*
X100368100Y-97523300D02*
X123812300Y-97523300D01*
X125552200Y-102717600D02*
X128130300Y-105295700D01*
X123812300Y-97523300D02*
X125552200Y-99263200D01*
X128130300Y-105295700D02*
X150698200Y-105295700D01*
X178904901Y-111531401D02*
X186410601Y-111531401D01*
X187921900Y-106019600D02*
X181705250Y-99802950D01*
X150698200Y-105295700D02*
X154584400Y-109181900D01*
X154584400Y-109181900D02*
X176555400Y-109181900D01*
X187921900Y-110020102D02*
X187921900Y-106019600D01*
X176555400Y-109181900D02*
X178904901Y-111531401D01*
D26*
X179844700Y-113385600D02*
X181381400Y-114922300D01*
%TO.N,FIRE*%
X131000500Y-111188500D02*
X131991100Y-110197900D01*
X130149600Y-111188500D02*
X131000500Y-111188500D01*
%TO.N,Net-(J2-Pad2)*%
X155625800Y-117271800D02*
X155625800Y-120510300D01*
X155625800Y-120510300D02*
X154343100Y-121716800D01*
X154343100Y-121716800D02*
X154419300Y-121716800D01*
%TO.N,SWO*%
X149212300Y-113423700D02*
X148234400Y-114071400D01*
X147875422Y-113982500D02*
X146786600Y-113982500D01*
X147964322Y-114071400D02*
X147875422Y-113982500D01*
X148234400Y-114071400D02*
X147964322Y-114071400D01*
X122872500Y-129667000D02*
X107911900Y-129667000D01*
X136436100Y-116103400D02*
X122872500Y-129667000D01*
X140322300Y-116154200D02*
X136436100Y-116103400D01*
%TO.N,PD5_BUF*%
X177622200Y-150279100D02*
X176072800Y-148729700D01*
X176072800Y-148729700D02*
X162140900Y-148729700D01*
X162140900Y-148729700D02*
X160858200Y-150012400D01*
X160858200Y-150012400D02*
X160858200Y-150012400D01*
%TO.N,PD4_BUF*%
X154914600Y-151726900D02*
X163690300Y-151726900D01*
X163830010Y-151866610D02*
X174116990Y-151866610D01*
X163690300Y-151726900D02*
X163830010Y-151866610D01*
X175069500Y-150914100D02*
X175069500Y-150215600D01*
X174116990Y-151866610D02*
X174751990Y-151866610D01*
X174751990Y-151866610D02*
X175133000Y-151485600D01*
X175133000Y-151485600D02*
X175133000Y-150380700D01*
%TO.N,PD3_BUF*%
X151752300Y-150990300D02*
X163626800Y-150990300D01*
X163626800Y-150990300D02*
X164122100Y-151485600D01*
X164122100Y-151485600D02*
X171348400Y-151485600D01*
X171348400Y-151485600D02*
X172669200Y-150164800D01*
%TO.N,SP_CONT*%
X126453900Y-112776000D02*
X125895100Y-112776000D01*
X125895100Y-112776000D02*
X117881400Y-104762300D01*
X117881400Y-104762300D02*
X117881400Y-100596700D01*
X149948900Y-124955300D02*
X149961600Y-124968000D01*
X146405600Y-124955300D02*
X149948900Y-124955300D01*
%TO.N,NOZ_CONT*%
X121780300Y-112788700D02*
X121780300Y-109715300D01*
X121780300Y-109715300D02*
X115138200Y-103073200D01*
X115138200Y-103073200D02*
X108661200Y-103073200D01*
X108661200Y-103073200D02*
X107772200Y-102184200D01*
X107772200Y-102184200D02*
X107772200Y-100393500D01*
X146494500Y-124231400D02*
X149948900Y-124218700D01*
X149948900Y-124218700D02*
X149974300Y-124231400D01*
D28*
%TO.N,Net-(P8-Pad2)*%
X102692200Y-100482400D02*
X102692200Y-104330500D01*
X102692200Y-104330500D02*
X103860600Y-105498900D01*
X103860600Y-105498900D02*
X114960400Y-105498900D01*
X114960400Y-105498900D02*
X117538500Y-108077000D01*
X117563900Y-108102400D02*
X117563900Y-108102400D01*
X117563900Y-108102400D02*
X117563900Y-108102400D01*
X117538500Y-108077000D02*
X117563900Y-108102400D01*
D26*
X114935000Y-110680500D02*
X117538500Y-108077000D01*
X114935000Y-114452400D02*
X114935000Y-110680500D01*
%TO.N,~USB_RST*%
X172275500Y-126098300D02*
X172275500Y-124307600D01*
X172275500Y-124307600D02*
X175869600Y-120713500D01*
X175869600Y-120713500D02*
X175869600Y-120713500D01*
%TO.N,~USB_SUSPEND*%
X163556950Y-119983250D02*
X163556950Y-118586250D01*
X163556950Y-118586250D02*
X164096700Y-118046500D01*
X164096700Y-118046500D02*
X164096700Y-117005100D01*
%TO.N,E_CONT*%
X145694400Y-125501400D02*
X145703101Y-125492699D01*
X145703101Y-125492699D02*
X149444899Y-125492699D01*
D29*
%TO.N,TX_USB*%
X175044100Y-129336800D02*
X175031400Y-129324100D01*
D26*
X174536100Y-127584200D02*
X174536100Y-127965200D01*
X175044100Y-128473200D02*
X175044100Y-129336800D01*
X174536100Y-127965200D02*
X175044100Y-128473200D01*
%TD*%
M02*
