%TF.GenerationSoftware,KiCad,Pcbnew,7.0.1*%
%TF.CreationDate,2023-06-09T14:16:41-07:00*%
%TF.ProjectId,Engine-Controller,456e6769-6e65-42d4-936f-6e74726f6c6c,1.0*%
%TF.SameCoordinates,Original*%
%TF.FileFunction,Legend,Bot*%
%TF.FilePolarity,Positive*%
%FSLAX46Y46*%
G04 Gerber Fmt 4.6, Leading zero omitted, Abs format (unit mm)*
G04 Created by KiCad (PCBNEW 7.0.1) date 2023-06-09 14:16:41*
%MOMM*%
%LPD*%
G01*
G04 APERTURE LIST*
%ADD10C,0.200000*%
%ADD11C,0.203200*%
G04 APERTURE END LIST*
D10*
X199228778Y-137749804D02*
X199228778Y-136449804D01*
X199228778Y-136449804D02*
X198733540Y-136449804D01*
X198733540Y-136449804D02*
X198609730Y-136511709D01*
X198609730Y-136511709D02*
X198547825Y-136573614D01*
X198547825Y-136573614D02*
X198485921Y-136697423D01*
X198485921Y-136697423D02*
X198485921Y-136883138D01*
X198485921Y-136883138D02*
X198547825Y-137006947D01*
X198547825Y-137006947D02*
X198609730Y-137068852D01*
X198609730Y-137068852D02*
X198733540Y-137130757D01*
X198733540Y-137130757D02*
X199228778Y-137130757D01*
X197743063Y-137749804D02*
X197866873Y-137687900D01*
X197866873Y-137687900D02*
X197928778Y-137564090D01*
X197928778Y-137564090D02*
X197928778Y-136449804D01*
X197309730Y-137687900D02*
X197185921Y-137749804D01*
X197185921Y-137749804D02*
X196938302Y-137749804D01*
X196938302Y-137749804D02*
X196814492Y-137687900D01*
X196814492Y-137687900D02*
X196752588Y-137564090D01*
X196752588Y-137564090D02*
X196752588Y-137502185D01*
X196752588Y-137502185D02*
X196814492Y-137378376D01*
X196814492Y-137378376D02*
X196938302Y-137316471D01*
X196938302Y-137316471D02*
X197124016Y-137316471D01*
X197124016Y-137316471D02*
X197247826Y-137254566D01*
X197247826Y-137254566D02*
X197309730Y-137130757D01*
X197309730Y-137130757D02*
X197309730Y-137068852D01*
X197309730Y-137068852D02*
X197247826Y-136945042D01*
X197247826Y-136945042D02*
X197124016Y-136883138D01*
X197124016Y-136883138D02*
X196938302Y-136883138D01*
X196938302Y-136883138D02*
X196814492Y-136945042D01*
X194647826Y-137749804D02*
X194647826Y-136449804D01*
X194647826Y-137687900D02*
X194771635Y-137749804D01*
X194771635Y-137749804D02*
X195019254Y-137749804D01*
X195019254Y-137749804D02*
X195143064Y-137687900D01*
X195143064Y-137687900D02*
X195204969Y-137625995D01*
X195204969Y-137625995D02*
X195266873Y-137502185D01*
X195266873Y-137502185D02*
X195266873Y-137130757D01*
X195266873Y-137130757D02*
X195204969Y-137006947D01*
X195204969Y-137006947D02*
X195143064Y-136945042D01*
X195143064Y-136945042D02*
X195019254Y-136883138D01*
X195019254Y-136883138D02*
X194771635Y-136883138D01*
X194771635Y-136883138D02*
X194647826Y-136945042D01*
X193843064Y-137749804D02*
X193966874Y-137687900D01*
X193966874Y-137687900D02*
X194028779Y-137625995D01*
X194028779Y-137625995D02*
X194090683Y-137502185D01*
X194090683Y-137502185D02*
X194090683Y-137130757D01*
X194090683Y-137130757D02*
X194028779Y-137006947D01*
X194028779Y-137006947D02*
X193966874Y-136945042D01*
X193966874Y-136945042D02*
X193843064Y-136883138D01*
X193843064Y-136883138D02*
X193657350Y-136883138D01*
X193657350Y-136883138D02*
X193533541Y-136945042D01*
X193533541Y-136945042D02*
X193471636Y-137006947D01*
X193471636Y-137006947D02*
X193409731Y-137130757D01*
X193409731Y-137130757D02*
X193409731Y-137502185D01*
X193409731Y-137502185D02*
X193471636Y-137625995D01*
X193471636Y-137625995D02*
X193533541Y-137687900D01*
X193533541Y-137687900D02*
X193657350Y-137749804D01*
X193657350Y-137749804D02*
X193843064Y-137749804D01*
X192852589Y-136883138D02*
X192852589Y-137749804D01*
X192852589Y-137006947D02*
X192790684Y-136945042D01*
X192790684Y-136945042D02*
X192666874Y-136883138D01*
X192666874Y-136883138D02*
X192481160Y-136883138D01*
X192481160Y-136883138D02*
X192357351Y-136945042D01*
X192357351Y-136945042D02*
X192295446Y-137068852D01*
X192295446Y-137068852D02*
X192295446Y-137749804D01*
X191614494Y-136449804D02*
X191738303Y-136697423D01*
X191243065Y-136883138D02*
X190747827Y-136883138D01*
X191057351Y-136449804D02*
X191057351Y-137564090D01*
X191057351Y-137564090D02*
X190995446Y-137687900D01*
X190995446Y-137687900D02*
X190871636Y-137749804D01*
X190871636Y-137749804D02*
X190747827Y-137749804D01*
X189324018Y-137749804D02*
X189324018Y-136449804D01*
X189324018Y-136945042D02*
X189200208Y-136883138D01*
X189200208Y-136883138D02*
X188952589Y-136883138D01*
X188952589Y-136883138D02*
X188828780Y-136945042D01*
X188828780Y-136945042D02*
X188766875Y-137006947D01*
X188766875Y-137006947D02*
X188704970Y-137130757D01*
X188704970Y-137130757D02*
X188704970Y-137502185D01*
X188704970Y-137502185D02*
X188766875Y-137625995D01*
X188766875Y-137625995D02*
X188828780Y-137687900D01*
X188828780Y-137687900D02*
X188952589Y-137749804D01*
X188952589Y-137749804D02*
X189200208Y-137749804D01*
X189200208Y-137749804D02*
X189324018Y-137687900D01*
X187962113Y-137749804D02*
X188085923Y-137687900D01*
X188085923Y-137687900D02*
X188147828Y-137564090D01*
X188147828Y-137564090D02*
X188147828Y-136449804D01*
X187281161Y-137749804D02*
X187404971Y-137687900D01*
X187404971Y-137687900D02*
X187466876Y-137625995D01*
X187466876Y-137625995D02*
X187528780Y-137502185D01*
X187528780Y-137502185D02*
X187528780Y-137130757D01*
X187528780Y-137130757D02*
X187466876Y-137006947D01*
X187466876Y-137006947D02*
X187404971Y-136945042D01*
X187404971Y-136945042D02*
X187281161Y-136883138D01*
X187281161Y-136883138D02*
X187095447Y-136883138D01*
X187095447Y-136883138D02*
X186971638Y-136945042D01*
X186971638Y-136945042D02*
X186909733Y-137006947D01*
X186909733Y-137006947D02*
X186847828Y-137130757D01*
X186847828Y-137130757D02*
X186847828Y-137502185D01*
X186847828Y-137502185D02*
X186909733Y-137625995D01*
X186909733Y-137625995D02*
X186971638Y-137687900D01*
X186971638Y-137687900D02*
X187095447Y-137749804D01*
X187095447Y-137749804D02*
X187281161Y-137749804D01*
X186414495Y-136883138D02*
X186166876Y-137749804D01*
X186166876Y-137749804D02*
X185919257Y-137130757D01*
X185919257Y-137130757D02*
X185671638Y-137749804D01*
X185671638Y-137749804D02*
X185424019Y-136883138D01*
X183381162Y-136883138D02*
X183381162Y-137749804D01*
X183938305Y-136883138D02*
X183938305Y-137564090D01*
X183938305Y-137564090D02*
X183876400Y-137687900D01*
X183876400Y-137687900D02*
X183752590Y-137749804D01*
X183752590Y-137749804D02*
X183566876Y-137749804D01*
X183566876Y-137749804D02*
X183443067Y-137687900D01*
X183443067Y-137687900D02*
X183381162Y-137625995D01*
X182762115Y-136883138D02*
X182762115Y-138183138D01*
X182762115Y-136945042D02*
X182638305Y-136883138D01*
X182638305Y-136883138D02*
X182390686Y-136883138D01*
X182390686Y-136883138D02*
X182266877Y-136945042D01*
X182266877Y-136945042D02*
X182204972Y-137006947D01*
X182204972Y-137006947D02*
X182143067Y-137130757D01*
X182143067Y-137130757D02*
X182143067Y-137502185D01*
X182143067Y-137502185D02*
X182204972Y-137625995D01*
X182204972Y-137625995D02*
X182266877Y-137687900D01*
X182266877Y-137687900D02*
X182390686Y-137749804D01*
X182390686Y-137749804D02*
X182638305Y-137749804D01*
X182638305Y-137749804D02*
X182762115Y-137687900D01*
X180781163Y-136883138D02*
X180285925Y-136883138D01*
X180595449Y-136449804D02*
X180595449Y-137564090D01*
X180595449Y-137564090D02*
X180533544Y-137687900D01*
X180533544Y-137687900D02*
X180409734Y-137749804D01*
X180409734Y-137749804D02*
X180285925Y-137749804D01*
X179852592Y-137749804D02*
X179852592Y-136449804D01*
X179295449Y-137749804D02*
X179295449Y-137068852D01*
X179295449Y-137068852D02*
X179357354Y-136945042D01*
X179357354Y-136945042D02*
X179481163Y-136883138D01*
X179481163Y-136883138D02*
X179666877Y-136883138D01*
X179666877Y-136883138D02*
X179790687Y-136945042D01*
X179790687Y-136945042D02*
X179852592Y-137006947D01*
X178676402Y-137749804D02*
X178676402Y-136883138D01*
X178676402Y-136449804D02*
X178738306Y-136511709D01*
X178738306Y-136511709D02*
X178676402Y-136573614D01*
X178676402Y-136573614D02*
X178614497Y-136511709D01*
X178614497Y-136511709D02*
X178676402Y-136449804D01*
X178676402Y-136449804D02*
X178676402Y-136573614D01*
X178119258Y-137687900D02*
X177995449Y-137749804D01*
X177995449Y-137749804D02*
X177747830Y-137749804D01*
X177747830Y-137749804D02*
X177624020Y-137687900D01*
X177624020Y-137687900D02*
X177562116Y-137564090D01*
X177562116Y-137564090D02*
X177562116Y-137502185D01*
X177562116Y-137502185D02*
X177624020Y-137378376D01*
X177624020Y-137378376D02*
X177747830Y-137316471D01*
X177747830Y-137316471D02*
X177933544Y-137316471D01*
X177933544Y-137316471D02*
X178057354Y-137254566D01*
X178057354Y-137254566D02*
X178119258Y-137130757D01*
X178119258Y-137130757D02*
X178119258Y-137068852D01*
X178119258Y-137068852D02*
X178057354Y-136945042D01*
X178057354Y-136945042D02*
X177933544Y-136883138D01*
X177933544Y-136883138D02*
X177747830Y-136883138D01*
X177747830Y-136883138D02*
X177624020Y-136945042D01*
X176200211Y-136883138D02*
X175704973Y-136883138D01*
X176014497Y-136449804D02*
X176014497Y-137564090D01*
X176014497Y-137564090D02*
X175952592Y-137687900D01*
X175952592Y-137687900D02*
X175828782Y-137749804D01*
X175828782Y-137749804D02*
X175704973Y-137749804D01*
X175271640Y-137749804D02*
X175271640Y-136883138D01*
X175271640Y-136449804D02*
X175333544Y-136511709D01*
X175333544Y-136511709D02*
X175271640Y-136573614D01*
X175271640Y-136573614D02*
X175209735Y-136511709D01*
X175209735Y-136511709D02*
X175271640Y-136449804D01*
X175271640Y-136449804D02*
X175271640Y-136573614D01*
X174652592Y-137749804D02*
X174652592Y-136883138D01*
X174652592Y-137006947D02*
X174590687Y-136945042D01*
X174590687Y-136945042D02*
X174466877Y-136883138D01*
X174466877Y-136883138D02*
X174281163Y-136883138D01*
X174281163Y-136883138D02*
X174157354Y-136945042D01*
X174157354Y-136945042D02*
X174095449Y-137068852D01*
X174095449Y-137068852D02*
X174095449Y-137749804D01*
X174095449Y-137068852D02*
X174033544Y-136945042D01*
X174033544Y-136945042D02*
X173909735Y-136883138D01*
X173909735Y-136883138D02*
X173724020Y-136883138D01*
X173724020Y-136883138D02*
X173600211Y-136945042D01*
X173600211Y-136945042D02*
X173538306Y-137068852D01*
X173538306Y-137068852D02*
X173538306Y-137749804D01*
X172424021Y-137687900D02*
X172547830Y-137749804D01*
X172547830Y-137749804D02*
X172795449Y-137749804D01*
X172795449Y-137749804D02*
X172919259Y-137687900D01*
X172919259Y-137687900D02*
X172981163Y-137564090D01*
X172981163Y-137564090D02*
X172981163Y-137068852D01*
X172981163Y-137068852D02*
X172919259Y-136945042D01*
X172919259Y-136945042D02*
X172795449Y-136883138D01*
X172795449Y-136883138D02*
X172547830Y-136883138D01*
X172547830Y-136883138D02*
X172424021Y-136945042D01*
X172424021Y-136945042D02*
X172362116Y-137068852D01*
X172362116Y-137068852D02*
X172362116Y-137192661D01*
X172362116Y-137192661D02*
X172981163Y-137316471D01*
X192574018Y-139855804D02*
X193007351Y-139236757D01*
X193316875Y-139855804D02*
X193316875Y-138555804D01*
X193316875Y-138555804D02*
X192821637Y-138555804D01*
X192821637Y-138555804D02*
X192697827Y-138617709D01*
X192697827Y-138617709D02*
X192635922Y-138679614D01*
X192635922Y-138679614D02*
X192574018Y-138803423D01*
X192574018Y-138803423D02*
X192574018Y-138989138D01*
X192574018Y-138989138D02*
X192635922Y-139112947D01*
X192635922Y-139112947D02*
X192697827Y-139174852D01*
X192697827Y-139174852D02*
X192821637Y-139236757D01*
X192821637Y-139236757D02*
X193316875Y-139236757D01*
X192016875Y-139855804D02*
X192016875Y-138555804D01*
X191397827Y-139855804D02*
X191397827Y-138555804D01*
X191397827Y-138555804D02*
X190902589Y-138555804D01*
X190902589Y-138555804D02*
X190778779Y-138617709D01*
X190778779Y-138617709D02*
X190716874Y-138679614D01*
X190716874Y-138679614D02*
X190654970Y-138803423D01*
X190654970Y-138803423D02*
X190654970Y-138989138D01*
X190654970Y-138989138D02*
X190716874Y-139112947D01*
X190716874Y-139112947D02*
X190778779Y-139174852D01*
X190778779Y-139174852D02*
X190902589Y-139236757D01*
X190902589Y-139236757D02*
X191397827Y-139236757D01*
X188488303Y-138555804D02*
X189107351Y-138555804D01*
X189107351Y-138555804D02*
X189169255Y-139174852D01*
X189169255Y-139174852D02*
X189107351Y-139112947D01*
X189107351Y-139112947D02*
X188983541Y-139051042D01*
X188983541Y-139051042D02*
X188674017Y-139051042D01*
X188674017Y-139051042D02*
X188550208Y-139112947D01*
X188550208Y-139112947D02*
X188488303Y-139174852D01*
X188488303Y-139174852D02*
X188426398Y-139298661D01*
X188426398Y-139298661D02*
X188426398Y-139608185D01*
X188426398Y-139608185D02*
X188488303Y-139731995D01*
X188488303Y-139731995D02*
X188550208Y-139793900D01*
X188550208Y-139793900D02*
X188674017Y-139855804D01*
X188674017Y-139855804D02*
X188983541Y-139855804D01*
X188983541Y-139855804D02*
X189107351Y-139793900D01*
X189107351Y-139793900D02*
X189169255Y-139731995D01*
X186940684Y-138493900D02*
X188054970Y-140165328D01*
X185826398Y-139855804D02*
X186569255Y-139855804D01*
X186197827Y-139855804D02*
X186197827Y-138555804D01*
X186197827Y-138555804D02*
X186321636Y-138741519D01*
X186321636Y-138741519D02*
X186445446Y-138865328D01*
X186445446Y-138865328D02*
X186569255Y-138927233D01*
X185331160Y-138679614D02*
X185269256Y-138617709D01*
X185269256Y-138617709D02*
X185145446Y-138555804D01*
X185145446Y-138555804D02*
X184835922Y-138555804D01*
X184835922Y-138555804D02*
X184712113Y-138617709D01*
X184712113Y-138617709D02*
X184650208Y-138679614D01*
X184650208Y-138679614D02*
X184588303Y-138803423D01*
X184588303Y-138803423D02*
X184588303Y-138927233D01*
X184588303Y-138927233D02*
X184650208Y-139112947D01*
X184650208Y-139112947D02*
X185393065Y-139855804D01*
X185393065Y-139855804D02*
X184588303Y-139855804D01*
X183102589Y-138493900D02*
X184216875Y-140165328D01*
X182731160Y-138679614D02*
X182669256Y-138617709D01*
X182669256Y-138617709D02*
X182545446Y-138555804D01*
X182545446Y-138555804D02*
X182235922Y-138555804D01*
X182235922Y-138555804D02*
X182112113Y-138617709D01*
X182112113Y-138617709D02*
X182050208Y-138679614D01*
X182050208Y-138679614D02*
X181988303Y-138803423D01*
X181988303Y-138803423D02*
X181988303Y-138927233D01*
X181988303Y-138927233D02*
X182050208Y-139112947D01*
X182050208Y-139112947D02*
X182793065Y-139855804D01*
X182793065Y-139855804D02*
X181988303Y-139855804D01*
X181183542Y-138555804D02*
X181059732Y-138555804D01*
X181059732Y-138555804D02*
X180935923Y-138617709D01*
X180935923Y-138617709D02*
X180874018Y-138679614D01*
X180874018Y-138679614D02*
X180812113Y-138803423D01*
X180812113Y-138803423D02*
X180750208Y-139051042D01*
X180750208Y-139051042D02*
X180750208Y-139360566D01*
X180750208Y-139360566D02*
X180812113Y-139608185D01*
X180812113Y-139608185D02*
X180874018Y-139731995D01*
X180874018Y-139731995D02*
X180935923Y-139793900D01*
X180935923Y-139793900D02*
X181059732Y-139855804D01*
X181059732Y-139855804D02*
X181183542Y-139855804D01*
X181183542Y-139855804D02*
X181307351Y-139793900D01*
X181307351Y-139793900D02*
X181369256Y-139731995D01*
X181369256Y-139731995D02*
X181431161Y-139608185D01*
X181431161Y-139608185D02*
X181493065Y-139360566D01*
X181493065Y-139360566D02*
X181493065Y-139051042D01*
X181493065Y-139051042D02*
X181431161Y-138803423D01*
X181431161Y-138803423D02*
X181369256Y-138679614D01*
X181369256Y-138679614D02*
X181307351Y-138617709D01*
X181307351Y-138617709D02*
X181183542Y-138555804D01*
X180254970Y-138679614D02*
X180193066Y-138617709D01*
X180193066Y-138617709D02*
X180069256Y-138555804D01*
X180069256Y-138555804D02*
X179759732Y-138555804D01*
X179759732Y-138555804D02*
X179635923Y-138617709D01*
X179635923Y-138617709D02*
X179574018Y-138679614D01*
X179574018Y-138679614D02*
X179512113Y-138803423D01*
X179512113Y-138803423D02*
X179512113Y-138927233D01*
X179512113Y-138927233D02*
X179574018Y-139112947D01*
X179574018Y-139112947D02*
X180316875Y-139855804D01*
X180316875Y-139855804D02*
X179512113Y-139855804D01*
X179078780Y-138555804D02*
X178274018Y-138555804D01*
X178274018Y-138555804D02*
X178707352Y-139051042D01*
X178707352Y-139051042D02*
X178521637Y-139051042D01*
X178521637Y-139051042D02*
X178397828Y-139112947D01*
X178397828Y-139112947D02*
X178335923Y-139174852D01*
X178335923Y-139174852D02*
X178274018Y-139298661D01*
X178274018Y-139298661D02*
X178274018Y-139608185D01*
X178274018Y-139608185D02*
X178335923Y-139731995D01*
X178335923Y-139731995D02*
X178397828Y-139793900D01*
X178397828Y-139793900D02*
X178521637Y-139855804D01*
X178521637Y-139855804D02*
X178893066Y-139855804D01*
X178893066Y-139855804D02*
X179016875Y-139793900D01*
X179016875Y-139793900D02*
X179078780Y-139731995D01*
X119710702Y-140902595D02*
X119772606Y-140964500D01*
X119772606Y-140964500D02*
X119958321Y-141026404D01*
X119958321Y-141026404D02*
X120082130Y-141026404D01*
X120082130Y-141026404D02*
X120267844Y-140964500D01*
X120267844Y-140964500D02*
X120391654Y-140840690D01*
X120391654Y-140840690D02*
X120453559Y-140716880D01*
X120453559Y-140716880D02*
X120515463Y-140469261D01*
X120515463Y-140469261D02*
X120515463Y-140283547D01*
X120515463Y-140283547D02*
X120453559Y-140035928D01*
X120453559Y-140035928D02*
X120391654Y-139912119D01*
X120391654Y-139912119D02*
X120267844Y-139788309D01*
X120267844Y-139788309D02*
X120082130Y-139726404D01*
X120082130Y-139726404D02*
X119958321Y-139726404D01*
X119958321Y-139726404D02*
X119772606Y-139788309D01*
X119772606Y-139788309D02*
X119710702Y-139850214D01*
X119153559Y-141026404D02*
X119153559Y-140159738D01*
X119153559Y-140407357D02*
X119091654Y-140283547D01*
X119091654Y-140283547D02*
X119029749Y-140221642D01*
X119029749Y-140221642D02*
X118905940Y-140159738D01*
X118905940Y-140159738D02*
X118782130Y-140159738D01*
X117853559Y-140964500D02*
X117977368Y-141026404D01*
X117977368Y-141026404D02*
X118224987Y-141026404D01*
X118224987Y-141026404D02*
X118348797Y-140964500D01*
X118348797Y-140964500D02*
X118410701Y-140840690D01*
X118410701Y-140840690D02*
X118410701Y-140345452D01*
X118410701Y-140345452D02*
X118348797Y-140221642D01*
X118348797Y-140221642D02*
X118224987Y-140159738D01*
X118224987Y-140159738D02*
X117977368Y-140159738D01*
X117977368Y-140159738D02*
X117853559Y-140221642D01*
X117853559Y-140221642D02*
X117791654Y-140345452D01*
X117791654Y-140345452D02*
X117791654Y-140469261D01*
X117791654Y-140469261D02*
X118410701Y-140593071D01*
X116677368Y-141026404D02*
X116677368Y-139726404D01*
X116677368Y-140964500D02*
X116801177Y-141026404D01*
X116801177Y-141026404D02*
X117048796Y-141026404D01*
X117048796Y-141026404D02*
X117172606Y-140964500D01*
X117172606Y-140964500D02*
X117234511Y-140902595D01*
X117234511Y-140902595D02*
X117296415Y-140778785D01*
X117296415Y-140778785D02*
X117296415Y-140407357D01*
X117296415Y-140407357D02*
X117234511Y-140283547D01*
X117234511Y-140283547D02*
X117172606Y-140221642D01*
X117172606Y-140221642D02*
X117048796Y-140159738D01*
X117048796Y-140159738D02*
X116801177Y-140159738D01*
X116801177Y-140159738D02*
X116677368Y-140221642D01*
X116058321Y-140902595D02*
X115996416Y-140964500D01*
X115996416Y-140964500D02*
X116058321Y-141026404D01*
X116058321Y-141026404D02*
X116120225Y-140964500D01*
X116120225Y-140964500D02*
X116058321Y-140902595D01*
X116058321Y-140902595D02*
X116058321Y-141026404D01*
X113705940Y-140902595D02*
X113767844Y-140964500D01*
X113767844Y-140964500D02*
X113953559Y-141026404D01*
X113953559Y-141026404D02*
X114077368Y-141026404D01*
X114077368Y-141026404D02*
X114263082Y-140964500D01*
X114263082Y-140964500D02*
X114386892Y-140840690D01*
X114386892Y-140840690D02*
X114448797Y-140716880D01*
X114448797Y-140716880D02*
X114510701Y-140469261D01*
X114510701Y-140469261D02*
X114510701Y-140283547D01*
X114510701Y-140283547D02*
X114448797Y-140035928D01*
X114448797Y-140035928D02*
X114386892Y-139912119D01*
X114386892Y-139912119D02*
X114263082Y-139788309D01*
X114263082Y-139788309D02*
X114077368Y-139726404D01*
X114077368Y-139726404D02*
X113953559Y-139726404D01*
X113953559Y-139726404D02*
X113767844Y-139788309D01*
X113767844Y-139788309D02*
X113705940Y-139850214D01*
X112963082Y-141026404D02*
X113086892Y-140964500D01*
X113086892Y-140964500D02*
X113148797Y-140902595D01*
X113148797Y-140902595D02*
X113210701Y-140778785D01*
X113210701Y-140778785D02*
X113210701Y-140407357D01*
X113210701Y-140407357D02*
X113148797Y-140283547D01*
X113148797Y-140283547D02*
X113086892Y-140221642D01*
X113086892Y-140221642D02*
X112963082Y-140159738D01*
X112963082Y-140159738D02*
X112777368Y-140159738D01*
X112777368Y-140159738D02*
X112653559Y-140221642D01*
X112653559Y-140221642D02*
X112591654Y-140283547D01*
X112591654Y-140283547D02*
X112529749Y-140407357D01*
X112529749Y-140407357D02*
X112529749Y-140778785D01*
X112529749Y-140778785D02*
X112591654Y-140902595D01*
X112591654Y-140902595D02*
X112653559Y-140964500D01*
X112653559Y-140964500D02*
X112777368Y-141026404D01*
X112777368Y-141026404D02*
X112963082Y-141026404D01*
X111786892Y-141026404D02*
X111910702Y-140964500D01*
X111910702Y-140964500D02*
X111972607Y-140840690D01*
X111972607Y-140840690D02*
X111972607Y-139726404D01*
X111477369Y-140159738D02*
X110982131Y-140159738D01*
X111291655Y-139726404D02*
X111291655Y-140840690D01*
X111291655Y-140840690D02*
X111229750Y-140964500D01*
X111229750Y-140964500D02*
X111105940Y-141026404D01*
X111105940Y-141026404D02*
X110982131Y-141026404D01*
X110363083Y-141026404D02*
X110486893Y-140964500D01*
X110486893Y-140964500D02*
X110548798Y-140902595D01*
X110548798Y-140902595D02*
X110610702Y-140778785D01*
X110610702Y-140778785D02*
X110610702Y-140407357D01*
X110610702Y-140407357D02*
X110548798Y-140283547D01*
X110548798Y-140283547D02*
X110486893Y-140221642D01*
X110486893Y-140221642D02*
X110363083Y-140159738D01*
X110363083Y-140159738D02*
X110177369Y-140159738D01*
X110177369Y-140159738D02*
X110053560Y-140221642D01*
X110053560Y-140221642D02*
X109991655Y-140283547D01*
X109991655Y-140283547D02*
X109929750Y-140407357D01*
X109929750Y-140407357D02*
X109929750Y-140778785D01*
X109929750Y-140778785D02*
X109991655Y-140902595D01*
X109991655Y-140902595D02*
X110053560Y-140964500D01*
X110053560Y-140964500D02*
X110177369Y-141026404D01*
X110177369Y-141026404D02*
X110363083Y-141026404D01*
X109372608Y-140159738D02*
X109372608Y-141026404D01*
X109372608Y-140283547D02*
X109310703Y-140221642D01*
X109310703Y-140221642D02*
X109186893Y-140159738D01*
X109186893Y-140159738D02*
X109001179Y-140159738D01*
X109001179Y-140159738D02*
X108877370Y-140221642D01*
X108877370Y-140221642D02*
X108815465Y-140345452D01*
X108815465Y-140345452D02*
X108815465Y-141026404D01*
X107267846Y-140654976D02*
X106648799Y-140654976D01*
X107391656Y-141026404D02*
X106958323Y-139726404D01*
X106958323Y-139726404D02*
X106524989Y-141026404D01*
X105534513Y-140964500D02*
X105658322Y-141026404D01*
X105658322Y-141026404D02*
X105905941Y-141026404D01*
X105905941Y-141026404D02*
X106029751Y-140964500D01*
X106029751Y-140964500D02*
X106091656Y-140902595D01*
X106091656Y-140902595D02*
X106153560Y-140778785D01*
X106153560Y-140778785D02*
X106153560Y-140407357D01*
X106153560Y-140407357D02*
X106091656Y-140283547D01*
X106091656Y-140283547D02*
X106029751Y-140221642D01*
X106029751Y-140221642D02*
X105905941Y-140159738D01*
X105905941Y-140159738D02*
X105658322Y-140159738D01*
X105658322Y-140159738D02*
X105534513Y-140221642D01*
X104791655Y-141026404D02*
X104915465Y-140964500D01*
X104915465Y-140964500D02*
X104977370Y-140902595D01*
X104977370Y-140902595D02*
X105039274Y-140778785D01*
X105039274Y-140778785D02*
X105039274Y-140407357D01*
X105039274Y-140407357D02*
X104977370Y-140283547D01*
X104977370Y-140283547D02*
X104915465Y-140221642D01*
X104915465Y-140221642D02*
X104791655Y-140159738D01*
X104791655Y-140159738D02*
X104605941Y-140159738D01*
X104605941Y-140159738D02*
X104482132Y-140221642D01*
X104482132Y-140221642D02*
X104420227Y-140283547D01*
X104420227Y-140283547D02*
X104358322Y-140407357D01*
X104358322Y-140407357D02*
X104358322Y-140778785D01*
X104358322Y-140778785D02*
X104420227Y-140902595D01*
X104420227Y-140902595D02*
X104482132Y-140964500D01*
X104482132Y-140964500D02*
X104605941Y-141026404D01*
X104605941Y-141026404D02*
X104791655Y-141026404D01*
X103863084Y-140964500D02*
X103739275Y-141026404D01*
X103739275Y-141026404D02*
X103491656Y-141026404D01*
X103491656Y-141026404D02*
X103367846Y-140964500D01*
X103367846Y-140964500D02*
X103305942Y-140840690D01*
X103305942Y-140840690D02*
X103305942Y-140778785D01*
X103305942Y-140778785D02*
X103367846Y-140654976D01*
X103367846Y-140654976D02*
X103491656Y-140593071D01*
X103491656Y-140593071D02*
X103677370Y-140593071D01*
X103677370Y-140593071D02*
X103801180Y-140531166D01*
X103801180Y-140531166D02*
X103863084Y-140407357D01*
X103863084Y-140407357D02*
X103863084Y-140345452D01*
X103863084Y-140345452D02*
X103801180Y-140221642D01*
X103801180Y-140221642D02*
X103677370Y-140159738D01*
X103677370Y-140159738D02*
X103491656Y-140159738D01*
X103491656Y-140159738D02*
X103367846Y-140221642D01*
X102934513Y-140159738D02*
X102439275Y-140159738D01*
X102748799Y-139726404D02*
X102748799Y-140840690D01*
X102748799Y-140840690D02*
X102686894Y-140964500D01*
X102686894Y-140964500D02*
X102563084Y-141026404D01*
X102563084Y-141026404D02*
X102439275Y-141026404D01*
X101448799Y-141026404D02*
X101448799Y-140345452D01*
X101448799Y-140345452D02*
X101510704Y-140221642D01*
X101510704Y-140221642D02*
X101634513Y-140159738D01*
X101634513Y-140159738D02*
X101882132Y-140159738D01*
X101882132Y-140159738D02*
X102005942Y-140221642D01*
X101448799Y-140964500D02*
X101572608Y-141026404D01*
X101572608Y-141026404D02*
X101882132Y-141026404D01*
X101882132Y-141026404D02*
X102005942Y-140964500D01*
X102005942Y-140964500D02*
X102067846Y-140840690D01*
X102067846Y-140840690D02*
X102067846Y-140716880D01*
X102067846Y-140716880D02*
X102005942Y-140593071D01*
X102005942Y-140593071D02*
X101882132Y-140531166D01*
X101882132Y-140531166D02*
X101572608Y-140531166D01*
X101572608Y-140531166D02*
X101448799Y-140469261D01*
X99901180Y-139850214D02*
X99839276Y-139788309D01*
X99839276Y-139788309D02*
X99715466Y-139726404D01*
X99715466Y-139726404D02*
X99405942Y-139726404D01*
X99405942Y-139726404D02*
X99282133Y-139788309D01*
X99282133Y-139788309D02*
X99220228Y-139850214D01*
X99220228Y-139850214D02*
X99158323Y-139974023D01*
X99158323Y-139974023D02*
X99158323Y-140097833D01*
X99158323Y-140097833D02*
X99220228Y-140283547D01*
X99220228Y-140283547D02*
X99963085Y-141026404D01*
X99963085Y-141026404D02*
X99158323Y-141026404D01*
X98353562Y-139726404D02*
X98229752Y-139726404D01*
X98229752Y-139726404D02*
X98105943Y-139788309D01*
X98105943Y-139788309D02*
X98044038Y-139850214D01*
X98044038Y-139850214D02*
X97982133Y-139974023D01*
X97982133Y-139974023D02*
X97920228Y-140221642D01*
X97920228Y-140221642D02*
X97920228Y-140531166D01*
X97920228Y-140531166D02*
X97982133Y-140778785D01*
X97982133Y-140778785D02*
X98044038Y-140902595D01*
X98044038Y-140902595D02*
X98105943Y-140964500D01*
X98105943Y-140964500D02*
X98229752Y-141026404D01*
X98229752Y-141026404D02*
X98353562Y-141026404D01*
X98353562Y-141026404D02*
X98477371Y-140964500D01*
X98477371Y-140964500D02*
X98539276Y-140902595D01*
X98539276Y-140902595D02*
X98601181Y-140778785D01*
X98601181Y-140778785D02*
X98663085Y-140531166D01*
X98663085Y-140531166D02*
X98663085Y-140221642D01*
X98663085Y-140221642D02*
X98601181Y-139974023D01*
X98601181Y-139974023D02*
X98539276Y-139850214D01*
X98539276Y-139850214D02*
X98477371Y-139788309D01*
X98477371Y-139788309D02*
X98353562Y-139726404D01*
X96682133Y-141026404D02*
X97424990Y-141026404D01*
X97053562Y-141026404D02*
X97053562Y-139726404D01*
X97053562Y-139726404D02*
X97177371Y-139912119D01*
X97177371Y-139912119D02*
X97301181Y-140035928D01*
X97301181Y-140035928D02*
X97424990Y-140097833D01*
X96063086Y-141026404D02*
X95815467Y-141026404D01*
X95815467Y-141026404D02*
X95691657Y-140964500D01*
X95691657Y-140964500D02*
X95629753Y-140902595D01*
X95629753Y-140902595D02*
X95505943Y-140716880D01*
X95505943Y-140716880D02*
X95444038Y-140469261D01*
X95444038Y-140469261D02*
X95444038Y-139974023D01*
X95444038Y-139974023D02*
X95505943Y-139850214D01*
X95505943Y-139850214D02*
X95567848Y-139788309D01*
X95567848Y-139788309D02*
X95691657Y-139726404D01*
X95691657Y-139726404D02*
X95939276Y-139726404D01*
X95939276Y-139726404D02*
X96063086Y-139788309D01*
X96063086Y-139788309D02*
X96124991Y-139850214D01*
X96124991Y-139850214D02*
X96186895Y-139974023D01*
X96186895Y-139974023D02*
X96186895Y-140283547D01*
X96186895Y-140283547D02*
X96124991Y-140407357D01*
X96124991Y-140407357D02*
X96063086Y-140469261D01*
X96063086Y-140469261D02*
X95939276Y-140531166D01*
X95939276Y-140531166D02*
X95691657Y-140531166D01*
X95691657Y-140531166D02*
X95567848Y-140469261D01*
X95567848Y-140469261D02*
X95505943Y-140407357D01*
X95505943Y-140407357D02*
X95444038Y-140283547D01*
X94886896Y-140531166D02*
X93896420Y-140531166D01*
X93339276Y-139850214D02*
X93277372Y-139788309D01*
X93277372Y-139788309D02*
X93153562Y-139726404D01*
X93153562Y-139726404D02*
X92844038Y-139726404D01*
X92844038Y-139726404D02*
X92720229Y-139788309D01*
X92720229Y-139788309D02*
X92658324Y-139850214D01*
X92658324Y-139850214D02*
X92596419Y-139974023D01*
X92596419Y-139974023D02*
X92596419Y-140097833D01*
X92596419Y-140097833D02*
X92658324Y-140283547D01*
X92658324Y-140283547D02*
X93401181Y-141026404D01*
X93401181Y-141026404D02*
X92596419Y-141026404D01*
X91791658Y-139726404D02*
X91667848Y-139726404D01*
X91667848Y-139726404D02*
X91544039Y-139788309D01*
X91544039Y-139788309D02*
X91482134Y-139850214D01*
X91482134Y-139850214D02*
X91420229Y-139974023D01*
X91420229Y-139974023D02*
X91358324Y-140221642D01*
X91358324Y-140221642D02*
X91358324Y-140531166D01*
X91358324Y-140531166D02*
X91420229Y-140778785D01*
X91420229Y-140778785D02*
X91482134Y-140902595D01*
X91482134Y-140902595D02*
X91544039Y-140964500D01*
X91544039Y-140964500D02*
X91667848Y-141026404D01*
X91667848Y-141026404D02*
X91791658Y-141026404D01*
X91791658Y-141026404D02*
X91915467Y-140964500D01*
X91915467Y-140964500D02*
X91977372Y-140902595D01*
X91977372Y-140902595D02*
X92039277Y-140778785D01*
X92039277Y-140778785D02*
X92101181Y-140531166D01*
X92101181Y-140531166D02*
X92101181Y-140221642D01*
X92101181Y-140221642D02*
X92039277Y-139974023D01*
X92039277Y-139974023D02*
X91977372Y-139850214D01*
X91977372Y-139850214D02*
X91915467Y-139788309D01*
X91915467Y-139788309D02*
X91791658Y-139726404D01*
X90863086Y-139850214D02*
X90801182Y-139788309D01*
X90801182Y-139788309D02*
X90677372Y-139726404D01*
X90677372Y-139726404D02*
X90367848Y-139726404D01*
X90367848Y-139726404D02*
X90244039Y-139788309D01*
X90244039Y-139788309D02*
X90182134Y-139850214D01*
X90182134Y-139850214D02*
X90120229Y-139974023D01*
X90120229Y-139974023D02*
X90120229Y-140097833D01*
X90120229Y-140097833D02*
X90182134Y-140283547D01*
X90182134Y-140283547D02*
X90924991Y-141026404D01*
X90924991Y-141026404D02*
X90120229Y-141026404D01*
X89686896Y-139726404D02*
X88882134Y-139726404D01*
X88882134Y-139726404D02*
X89315468Y-140221642D01*
X89315468Y-140221642D02*
X89129753Y-140221642D01*
X89129753Y-140221642D02*
X89005944Y-140283547D01*
X89005944Y-140283547D02*
X88944039Y-140345452D01*
X88944039Y-140345452D02*
X88882134Y-140469261D01*
X88882134Y-140469261D02*
X88882134Y-140778785D01*
X88882134Y-140778785D02*
X88944039Y-140902595D01*
X88944039Y-140902595D02*
X89005944Y-140964500D01*
X89005944Y-140964500D02*
X89129753Y-141026404D01*
X89129753Y-141026404D02*
X89501182Y-141026404D01*
X89501182Y-141026404D02*
X89624991Y-140964500D01*
X89624991Y-140964500D02*
X89686896Y-140902595D01*
X113829752Y-141832404D02*
X113582133Y-141832404D01*
X113582133Y-141832404D02*
X113458323Y-141894309D01*
X113458323Y-141894309D02*
X113334514Y-142018119D01*
X113334514Y-142018119D02*
X113272609Y-142265738D01*
X113272609Y-142265738D02*
X113272609Y-142699071D01*
X113272609Y-142699071D02*
X113334514Y-142946690D01*
X113334514Y-142946690D02*
X113458323Y-143070500D01*
X113458323Y-143070500D02*
X113582133Y-143132404D01*
X113582133Y-143132404D02*
X113829752Y-143132404D01*
X113829752Y-143132404D02*
X113953561Y-143070500D01*
X113953561Y-143070500D02*
X114077371Y-142946690D01*
X114077371Y-142946690D02*
X114139275Y-142699071D01*
X114139275Y-142699071D02*
X114139275Y-142265738D01*
X114139275Y-142265738D02*
X114077371Y-142018119D01*
X114077371Y-142018119D02*
X113953561Y-141894309D01*
X113953561Y-141894309D02*
X113829752Y-141832404D01*
X112034513Y-141894309D02*
X112158323Y-141832404D01*
X112158323Y-141832404D02*
X112344037Y-141832404D01*
X112344037Y-141832404D02*
X112529751Y-141894309D01*
X112529751Y-141894309D02*
X112653561Y-142018119D01*
X112653561Y-142018119D02*
X112715466Y-142141928D01*
X112715466Y-142141928D02*
X112777370Y-142389547D01*
X112777370Y-142389547D02*
X112777370Y-142575261D01*
X112777370Y-142575261D02*
X112715466Y-142822880D01*
X112715466Y-142822880D02*
X112653561Y-142946690D01*
X112653561Y-142946690D02*
X112529751Y-143070500D01*
X112529751Y-143070500D02*
X112344037Y-143132404D01*
X112344037Y-143132404D02*
X112220228Y-143132404D01*
X112220228Y-143132404D02*
X112034513Y-143070500D01*
X112034513Y-143070500D02*
X111972609Y-143008595D01*
X111972609Y-143008595D02*
X111972609Y-142575261D01*
X111972609Y-142575261D02*
X112220228Y-142575261D01*
X109805942Y-143132404D02*
X110424990Y-143132404D01*
X110424990Y-143132404D02*
X110424990Y-141832404D01*
X109372609Y-143132404D02*
X109372609Y-142265738D01*
X109372609Y-141832404D02*
X109434513Y-141894309D01*
X109434513Y-141894309D02*
X109372609Y-141956214D01*
X109372609Y-141956214D02*
X109310704Y-141894309D01*
X109310704Y-141894309D02*
X109372609Y-141832404D01*
X109372609Y-141832404D02*
X109372609Y-141956214D01*
X108196418Y-142265738D02*
X108196418Y-143565738D01*
X108196418Y-143070500D02*
X108320227Y-143132404D01*
X108320227Y-143132404D02*
X108567846Y-143132404D01*
X108567846Y-143132404D02*
X108691656Y-143070500D01*
X108691656Y-143070500D02*
X108753561Y-143008595D01*
X108753561Y-143008595D02*
X108815465Y-142884785D01*
X108815465Y-142884785D02*
X108815465Y-142513357D01*
X108815465Y-142513357D02*
X108753561Y-142389547D01*
X108753561Y-142389547D02*
X108691656Y-142327642D01*
X108691656Y-142327642D02*
X108567846Y-142265738D01*
X108567846Y-142265738D02*
X108320227Y-142265738D01*
X108320227Y-142265738D02*
X108196418Y-142327642D01*
X107020228Y-142265738D02*
X107020228Y-143132404D01*
X107577371Y-142265738D02*
X107577371Y-142946690D01*
X107577371Y-142946690D02*
X107515466Y-143070500D01*
X107515466Y-143070500D02*
X107391656Y-143132404D01*
X107391656Y-143132404D02*
X107205942Y-143132404D01*
X107205942Y-143132404D02*
X107082133Y-143070500D01*
X107082133Y-143070500D02*
X107020228Y-143008595D01*
X106401181Y-143132404D02*
X106401181Y-142265738D01*
X106401181Y-141832404D02*
X106463085Y-141894309D01*
X106463085Y-141894309D02*
X106401181Y-141956214D01*
X106401181Y-141956214D02*
X106339276Y-141894309D01*
X106339276Y-141894309D02*
X106401181Y-141832404D01*
X106401181Y-141832404D02*
X106401181Y-141956214D01*
X105224990Y-143132404D02*
X105224990Y-141832404D01*
X105224990Y-143070500D02*
X105348799Y-143132404D01*
X105348799Y-143132404D02*
X105596418Y-143132404D01*
X105596418Y-143132404D02*
X105720228Y-143070500D01*
X105720228Y-143070500D02*
X105782133Y-143008595D01*
X105782133Y-143008595D02*
X105844037Y-142884785D01*
X105844037Y-142884785D02*
X105844037Y-142513357D01*
X105844037Y-142513357D02*
X105782133Y-142389547D01*
X105782133Y-142389547D02*
X105720228Y-142327642D01*
X105720228Y-142327642D02*
X105596418Y-142265738D01*
X105596418Y-142265738D02*
X105348799Y-142265738D01*
X105348799Y-142265738D02*
X105224990Y-142327642D01*
X104667847Y-143070500D02*
X104544038Y-143132404D01*
X104544038Y-143132404D02*
X104296419Y-143132404D01*
X104296419Y-143132404D02*
X104172609Y-143070500D01*
X104172609Y-143070500D02*
X104110705Y-142946690D01*
X104110705Y-142946690D02*
X104110705Y-142884785D01*
X104110705Y-142884785D02*
X104172609Y-142760976D01*
X104172609Y-142760976D02*
X104296419Y-142699071D01*
X104296419Y-142699071D02*
X104482133Y-142699071D01*
X104482133Y-142699071D02*
X104605943Y-142637166D01*
X104605943Y-142637166D02*
X104667847Y-142513357D01*
X104667847Y-142513357D02*
X104667847Y-142451452D01*
X104667847Y-142451452D02*
X104605943Y-142327642D01*
X104605943Y-142327642D02*
X104482133Y-142265738D01*
X104482133Y-142265738D02*
X104296419Y-142265738D01*
X104296419Y-142265738D02*
X104172609Y-142327642D01*
X102624990Y-142760976D02*
X102005943Y-142760976D01*
X102748800Y-143132404D02*
X102315467Y-141832404D01*
X102315467Y-141832404D02*
X101882133Y-143132404D01*
X101572609Y-142265738D02*
X101263085Y-143132404D01*
X101263085Y-143132404D02*
X100953562Y-142265738D01*
X100458324Y-143132404D02*
X100458324Y-142265738D01*
X100458324Y-141832404D02*
X100520228Y-141894309D01*
X100520228Y-141894309D02*
X100458324Y-141956214D01*
X100458324Y-141956214D02*
X100396419Y-141894309D01*
X100396419Y-141894309D02*
X100458324Y-141832404D01*
X100458324Y-141832404D02*
X100458324Y-141956214D01*
X99653561Y-143132404D02*
X99777371Y-143070500D01*
X99777371Y-143070500D02*
X99839276Y-143008595D01*
X99839276Y-143008595D02*
X99901180Y-142884785D01*
X99901180Y-142884785D02*
X99901180Y-142513357D01*
X99901180Y-142513357D02*
X99839276Y-142389547D01*
X99839276Y-142389547D02*
X99777371Y-142327642D01*
X99777371Y-142327642D02*
X99653561Y-142265738D01*
X99653561Y-142265738D02*
X99467847Y-142265738D01*
X99467847Y-142265738D02*
X99344038Y-142327642D01*
X99344038Y-142327642D02*
X99282133Y-142389547D01*
X99282133Y-142389547D02*
X99220228Y-142513357D01*
X99220228Y-142513357D02*
X99220228Y-142884785D01*
X99220228Y-142884785D02*
X99282133Y-143008595D01*
X99282133Y-143008595D02*
X99344038Y-143070500D01*
X99344038Y-143070500D02*
X99467847Y-143132404D01*
X99467847Y-143132404D02*
X99653561Y-143132404D01*
X98663086Y-142265738D02*
X98663086Y-143132404D01*
X98663086Y-142389547D02*
X98601181Y-142327642D01*
X98601181Y-142327642D02*
X98477371Y-142265738D01*
X98477371Y-142265738D02*
X98291657Y-142265738D01*
X98291657Y-142265738D02*
X98167848Y-142327642D01*
X98167848Y-142327642D02*
X98105943Y-142451452D01*
X98105943Y-142451452D02*
X98105943Y-143132404D01*
X97486896Y-143132404D02*
X97486896Y-142265738D01*
X97486896Y-141832404D02*
X97548800Y-141894309D01*
X97548800Y-141894309D02*
X97486896Y-141956214D01*
X97486896Y-141956214D02*
X97424991Y-141894309D01*
X97424991Y-141894309D02*
X97486896Y-141832404D01*
X97486896Y-141832404D02*
X97486896Y-141956214D01*
X96310705Y-143070500D02*
X96434514Y-143132404D01*
X96434514Y-143132404D02*
X96682133Y-143132404D01*
X96682133Y-143132404D02*
X96805943Y-143070500D01*
X96805943Y-143070500D02*
X96867848Y-143008595D01*
X96867848Y-143008595D02*
X96929752Y-142884785D01*
X96929752Y-142884785D02*
X96929752Y-142513357D01*
X96929752Y-142513357D02*
X96867848Y-142389547D01*
X96867848Y-142389547D02*
X96805943Y-142327642D01*
X96805943Y-142327642D02*
X96682133Y-142265738D01*
X96682133Y-142265738D02*
X96434514Y-142265738D01*
X96434514Y-142265738D02*
X96310705Y-142327642D01*
X95815466Y-143070500D02*
X95691657Y-143132404D01*
X95691657Y-143132404D02*
X95444038Y-143132404D01*
X95444038Y-143132404D02*
X95320228Y-143070500D01*
X95320228Y-143070500D02*
X95258324Y-142946690D01*
X95258324Y-142946690D02*
X95258324Y-142884785D01*
X95258324Y-142884785D02*
X95320228Y-142760976D01*
X95320228Y-142760976D02*
X95444038Y-142699071D01*
X95444038Y-142699071D02*
X95629752Y-142699071D01*
X95629752Y-142699071D02*
X95753562Y-142637166D01*
X95753562Y-142637166D02*
X95815466Y-142513357D01*
X95815466Y-142513357D02*
X95815466Y-142451452D01*
X95815466Y-142451452D02*
X95753562Y-142327642D01*
X95753562Y-142327642D02*
X95629752Y-142265738D01*
X95629752Y-142265738D02*
X95444038Y-142265738D01*
X95444038Y-142265738D02*
X95320228Y-142327642D01*
D11*
X134046684Y-151523820D02*
X134530494Y-151523820D01*
X134530494Y-151523820D02*
X134530494Y-150507820D01*
X133514494Y-150507820D02*
X133320970Y-150507820D01*
X133320970Y-150507820D02*
X133224208Y-150556201D01*
X133224208Y-150556201D02*
X133127446Y-150652963D01*
X133127446Y-150652963D02*
X133079065Y-150846487D01*
X133079065Y-150846487D02*
X133079065Y-151185154D01*
X133079065Y-151185154D02*
X133127446Y-151378678D01*
X133127446Y-151378678D02*
X133224208Y-151475440D01*
X133224208Y-151475440D02*
X133320970Y-151523820D01*
X133320970Y-151523820D02*
X133514494Y-151523820D01*
X133514494Y-151523820D02*
X133611256Y-151475440D01*
X133611256Y-151475440D02*
X133708018Y-151378678D01*
X133708018Y-151378678D02*
X133756399Y-151185154D01*
X133756399Y-151185154D02*
X133756399Y-150846487D01*
X133756399Y-150846487D02*
X133708018Y-150652963D01*
X133708018Y-150652963D02*
X133611256Y-150556201D01*
X133611256Y-150556201D02*
X133514494Y-150507820D01*
X132692018Y-151233535D02*
X132208208Y-151233535D01*
X132788780Y-151523820D02*
X132450113Y-150507820D01*
X132450113Y-150507820D02*
X132111446Y-151523820D01*
X131772780Y-151523820D02*
X131772780Y-150507820D01*
X131772780Y-150507820D02*
X131530875Y-150507820D01*
X131530875Y-150507820D02*
X131385732Y-150556201D01*
X131385732Y-150556201D02*
X131288970Y-150652963D01*
X131288970Y-150652963D02*
X131240589Y-150749725D01*
X131240589Y-150749725D02*
X131192208Y-150943249D01*
X131192208Y-150943249D02*
X131192208Y-151088392D01*
X131192208Y-151088392D02*
X131240589Y-151281916D01*
X131240589Y-151281916D02*
X131288970Y-151378678D01*
X131288970Y-151378678D02*
X131385732Y-151475440D01*
X131385732Y-151475440D02*
X131530875Y-151523820D01*
X131530875Y-151523820D02*
X131772780Y-151523820D01*
X129402113Y-151427059D02*
X129450494Y-151475440D01*
X129450494Y-151475440D02*
X129595637Y-151523820D01*
X129595637Y-151523820D02*
X129692399Y-151523820D01*
X129692399Y-151523820D02*
X129837542Y-151475440D01*
X129837542Y-151475440D02*
X129934304Y-151378678D01*
X129934304Y-151378678D02*
X129982685Y-151281916D01*
X129982685Y-151281916D02*
X130031066Y-151088392D01*
X130031066Y-151088392D02*
X130031066Y-150943249D01*
X130031066Y-150943249D02*
X129982685Y-150749725D01*
X129982685Y-150749725D02*
X129934304Y-150652963D01*
X129934304Y-150652963D02*
X129837542Y-150556201D01*
X129837542Y-150556201D02*
X129692399Y-150507820D01*
X129692399Y-150507820D02*
X129595637Y-150507820D01*
X129595637Y-150507820D02*
X129450494Y-150556201D01*
X129450494Y-150556201D02*
X129402113Y-150604582D01*
X128966685Y-150991630D02*
X128628018Y-150991630D01*
X128482875Y-151523820D02*
X128966685Y-151523820D01*
X128966685Y-151523820D02*
X128966685Y-150507820D01*
X128966685Y-150507820D02*
X128482875Y-150507820D01*
X127563637Y-151523820D02*
X128047447Y-151523820D01*
X128047447Y-151523820D02*
X128047447Y-150507820D01*
X126741161Y-151523820D02*
X127224971Y-151523820D01*
X127224971Y-151523820D02*
X127224971Y-150507820D01*
X174380676Y-149593420D02*
X174380676Y-148577420D01*
X174380676Y-148577420D02*
X173993628Y-148577420D01*
X173993628Y-148577420D02*
X173896866Y-148625801D01*
X173896866Y-148625801D02*
X173848485Y-148674182D01*
X173848485Y-148674182D02*
X173800104Y-148770944D01*
X173800104Y-148770944D02*
X173800104Y-148916087D01*
X173800104Y-148916087D02*
X173848485Y-149012849D01*
X173848485Y-149012849D02*
X173896866Y-149061230D01*
X173896866Y-149061230D02*
X173993628Y-149109611D01*
X173993628Y-149109611D02*
X174380676Y-149109611D01*
X172784104Y-149593420D02*
X173122771Y-149109611D01*
X173364676Y-149593420D02*
X173364676Y-148577420D01*
X173364676Y-148577420D02*
X172977628Y-148577420D01*
X172977628Y-148577420D02*
X172880866Y-148625801D01*
X172880866Y-148625801D02*
X172832485Y-148674182D01*
X172832485Y-148674182D02*
X172784104Y-148770944D01*
X172784104Y-148770944D02*
X172784104Y-148916087D01*
X172784104Y-148916087D02*
X172832485Y-149012849D01*
X172832485Y-149012849D02*
X172880866Y-149061230D01*
X172880866Y-149061230D02*
X172977628Y-149109611D01*
X172977628Y-149109611D02*
X173364676Y-149109611D01*
X172155152Y-148577420D02*
X171961628Y-148577420D01*
X171961628Y-148577420D02*
X171864866Y-148625801D01*
X171864866Y-148625801D02*
X171768104Y-148722563D01*
X171768104Y-148722563D02*
X171719723Y-148916087D01*
X171719723Y-148916087D02*
X171719723Y-149254754D01*
X171719723Y-149254754D02*
X171768104Y-149448278D01*
X171768104Y-149448278D02*
X171864866Y-149545040D01*
X171864866Y-149545040D02*
X171961628Y-149593420D01*
X171961628Y-149593420D02*
X172155152Y-149593420D01*
X172155152Y-149593420D02*
X172251914Y-149545040D01*
X172251914Y-149545040D02*
X172348676Y-149448278D01*
X172348676Y-149448278D02*
X172397057Y-149254754D01*
X172397057Y-149254754D02*
X172397057Y-148916087D01*
X172397057Y-148916087D02*
X172348676Y-148722563D01*
X172348676Y-148722563D02*
X172251914Y-148625801D01*
X172251914Y-148625801D02*
X172155152Y-148577420D01*
X170752104Y-148625801D02*
X170848866Y-148577420D01*
X170848866Y-148577420D02*
X170994009Y-148577420D01*
X170994009Y-148577420D02*
X171139152Y-148625801D01*
X171139152Y-148625801D02*
X171235914Y-148722563D01*
X171235914Y-148722563D02*
X171284295Y-148819325D01*
X171284295Y-148819325D02*
X171332676Y-149012849D01*
X171332676Y-149012849D02*
X171332676Y-149157992D01*
X171332676Y-149157992D02*
X171284295Y-149351516D01*
X171284295Y-149351516D02*
X171235914Y-149448278D01*
X171235914Y-149448278D02*
X171139152Y-149545040D01*
X171139152Y-149545040D02*
X170994009Y-149593420D01*
X170994009Y-149593420D02*
X170897247Y-149593420D01*
X170897247Y-149593420D02*
X170752104Y-149545040D01*
X170752104Y-149545040D02*
X170703723Y-149496659D01*
X170703723Y-149496659D02*
X170703723Y-149157992D01*
X170703723Y-149157992D02*
X170897247Y-149157992D01*
X169687723Y-149593420D02*
X170026390Y-149109611D01*
X170268295Y-149593420D02*
X170268295Y-148577420D01*
X170268295Y-148577420D02*
X169881247Y-148577420D01*
X169881247Y-148577420D02*
X169784485Y-148625801D01*
X169784485Y-148625801D02*
X169736104Y-148674182D01*
X169736104Y-148674182D02*
X169687723Y-148770944D01*
X169687723Y-148770944D02*
X169687723Y-148916087D01*
X169687723Y-148916087D02*
X169736104Y-149012849D01*
X169736104Y-149012849D02*
X169784485Y-149061230D01*
X169784485Y-149061230D02*
X169881247Y-149109611D01*
X169881247Y-149109611D02*
X170268295Y-149109611D01*
X169300676Y-149303135D02*
X168816866Y-149303135D01*
X169397438Y-149593420D02*
X169058771Y-148577420D01*
X169058771Y-148577420D02*
X168720104Y-149593420D01*
X168381438Y-149593420D02*
X168381438Y-148577420D01*
X168381438Y-148577420D02*
X168042771Y-149303135D01*
X168042771Y-149303135D02*
X167704104Y-148577420D01*
X167704104Y-148577420D02*
X167704104Y-149593420D01*
X167220295Y-149593420D02*
X167220295Y-148577420D01*
X167220295Y-148577420D02*
X166881628Y-149303135D01*
X166881628Y-149303135D02*
X166542961Y-148577420D01*
X166542961Y-148577420D02*
X166542961Y-149593420D01*
X166059152Y-149061230D02*
X165720485Y-149061230D01*
X165575342Y-149593420D02*
X166059152Y-149593420D01*
X166059152Y-149593420D02*
X166059152Y-148577420D01*
X166059152Y-148577420D02*
X165575342Y-148577420D01*
X164559342Y-149593420D02*
X164898009Y-149109611D01*
X165139914Y-149593420D02*
X165139914Y-148577420D01*
X165139914Y-148577420D02*
X164752866Y-148577420D01*
X164752866Y-148577420D02*
X164656104Y-148625801D01*
X164656104Y-148625801D02*
X164607723Y-148674182D01*
X164607723Y-148674182D02*
X164559342Y-148770944D01*
X164559342Y-148770944D02*
X164559342Y-148916087D01*
X164559342Y-148916087D02*
X164607723Y-149012849D01*
X164607723Y-149012849D02*
X164656104Y-149061230D01*
X164656104Y-149061230D02*
X164752866Y-149109611D01*
X164752866Y-149109611D02*
X165139914Y-149109611D01*
X144480037Y-149634060D02*
X144963847Y-149634060D01*
X144963847Y-149634060D02*
X144963847Y-148618060D01*
X143947847Y-148618060D02*
X143754323Y-148618060D01*
X143754323Y-148618060D02*
X143657561Y-148666441D01*
X143657561Y-148666441D02*
X143560799Y-148763203D01*
X143560799Y-148763203D02*
X143512418Y-148956727D01*
X143512418Y-148956727D02*
X143512418Y-149295394D01*
X143512418Y-149295394D02*
X143560799Y-149488918D01*
X143560799Y-149488918D02*
X143657561Y-149585680D01*
X143657561Y-149585680D02*
X143754323Y-149634060D01*
X143754323Y-149634060D02*
X143947847Y-149634060D01*
X143947847Y-149634060D02*
X144044609Y-149585680D01*
X144044609Y-149585680D02*
X144141371Y-149488918D01*
X144141371Y-149488918D02*
X144189752Y-149295394D01*
X144189752Y-149295394D02*
X144189752Y-148956727D01*
X144189752Y-148956727D02*
X144141371Y-148763203D01*
X144141371Y-148763203D02*
X144044609Y-148666441D01*
X144044609Y-148666441D02*
X143947847Y-148618060D01*
X143173752Y-148618060D02*
X142496418Y-149634060D01*
X142496418Y-148618060D02*
X143173752Y-149634060D01*
X141480419Y-148618060D02*
X140899847Y-148618060D01*
X141190133Y-149634060D02*
X141190133Y-148618060D01*
X140609562Y-149343775D02*
X140125752Y-149343775D01*
X140706324Y-149634060D02*
X140367657Y-148618060D01*
X140367657Y-148618060D02*
X140028990Y-149634060D01*
X139690324Y-149634060D02*
X139690324Y-148618060D01*
X139690324Y-148618060D02*
X139109752Y-149634060D01*
X139109752Y-149634060D02*
X139109752Y-148618060D01*
X138625943Y-149634060D02*
X138625943Y-148618060D01*
X138045371Y-149634060D02*
X138480800Y-149053489D01*
X138045371Y-148618060D02*
X138625943Y-149198632D01*
X142327085Y-150263980D02*
X141746513Y-150263980D01*
X142036799Y-151279980D02*
X142036799Y-150263980D01*
X140827275Y-151183219D02*
X140875656Y-151231600D01*
X140875656Y-151231600D02*
X141020799Y-151279980D01*
X141020799Y-151279980D02*
X141117561Y-151279980D01*
X141117561Y-151279980D02*
X141262704Y-151231600D01*
X141262704Y-151231600D02*
X141359466Y-151134838D01*
X141359466Y-151134838D02*
X141407847Y-151038076D01*
X141407847Y-151038076D02*
X141456228Y-150844552D01*
X141456228Y-150844552D02*
X141456228Y-150699409D01*
X141456228Y-150699409D02*
X141407847Y-150505885D01*
X141407847Y-150505885D02*
X141359466Y-150409123D01*
X141359466Y-150409123D02*
X141262704Y-150312361D01*
X141262704Y-150312361D02*
X141117561Y-150263980D01*
X141117561Y-150263980D02*
X141020799Y-150263980D01*
X141020799Y-150263980D02*
X140875656Y-150312361D01*
X140875656Y-150312361D02*
X140827275Y-150360742D01*
X158433104Y-148450420D02*
X158094437Y-149466420D01*
X158094437Y-149466420D02*
X157755770Y-148450420D01*
X157465485Y-149176135D02*
X156981675Y-149176135D01*
X157562247Y-149466420D02*
X157223580Y-148450420D01*
X157223580Y-148450420D02*
X156884913Y-149466420D01*
X156062437Y-149466420D02*
X156546247Y-149466420D01*
X156546247Y-149466420D02*
X156546247Y-148450420D01*
X155868914Y-148450420D02*
X155530247Y-149466420D01*
X155530247Y-149466420D02*
X155191580Y-148450420D01*
X154852914Y-148934230D02*
X154514247Y-148934230D01*
X154369104Y-149466420D02*
X154852914Y-149466420D01*
X154852914Y-149466420D02*
X154852914Y-148450420D01*
X154852914Y-148450420D02*
X154369104Y-148450420D01*
X152579009Y-149369659D02*
X152627390Y-149418040D01*
X152627390Y-149418040D02*
X152772533Y-149466420D01*
X152772533Y-149466420D02*
X152869295Y-149466420D01*
X152869295Y-149466420D02*
X153014438Y-149418040D01*
X153014438Y-149418040D02*
X153111200Y-149321278D01*
X153111200Y-149321278D02*
X153159581Y-149224516D01*
X153159581Y-149224516D02*
X153207962Y-149030992D01*
X153207962Y-149030992D02*
X153207962Y-148885849D01*
X153207962Y-148885849D02*
X153159581Y-148692325D01*
X153159581Y-148692325D02*
X153111200Y-148595563D01*
X153111200Y-148595563D02*
X153014438Y-148498801D01*
X153014438Y-148498801D02*
X152869295Y-148450420D01*
X152869295Y-148450420D02*
X152772533Y-148450420D01*
X152772533Y-148450420D02*
X152627390Y-148498801D01*
X152627390Y-148498801D02*
X152579009Y-148547182D01*
X152143581Y-149466420D02*
X152143581Y-148450420D01*
X152143581Y-148450420D02*
X151563009Y-149466420D01*
X151563009Y-149466420D02*
X151563009Y-148450420D01*
X151224343Y-148450420D02*
X150643771Y-148450420D01*
X150934057Y-149466420D02*
X150934057Y-148450420D01*
X149724533Y-149466420D02*
X150063200Y-148982611D01*
X150305105Y-149466420D02*
X150305105Y-148450420D01*
X150305105Y-148450420D02*
X149918057Y-148450420D01*
X149918057Y-148450420D02*
X149821295Y-148498801D01*
X149821295Y-148498801D02*
X149772914Y-148547182D01*
X149772914Y-148547182D02*
X149724533Y-148643944D01*
X149724533Y-148643944D02*
X149724533Y-148789087D01*
X149724533Y-148789087D02*
X149772914Y-148885849D01*
X149772914Y-148885849D02*
X149821295Y-148934230D01*
X149821295Y-148934230D02*
X149918057Y-148982611D01*
X149918057Y-148982611D02*
X150305105Y-148982611D01*
X148805295Y-149466420D02*
X149289105Y-149466420D01*
X149289105Y-149466420D02*
X149289105Y-148450420D01*
X118044685Y-151396820D02*
X118044685Y-150380820D01*
X118044685Y-150380820D02*
X117657637Y-150380820D01*
X117657637Y-150380820D02*
X117560875Y-150429201D01*
X117560875Y-150429201D02*
X117512494Y-150477582D01*
X117512494Y-150477582D02*
X117464113Y-150574344D01*
X117464113Y-150574344D02*
X117464113Y-150719487D01*
X117464113Y-150719487D02*
X117512494Y-150816249D01*
X117512494Y-150816249D02*
X117560875Y-150864630D01*
X117560875Y-150864630D02*
X117657637Y-150913011D01*
X117657637Y-150913011D02*
X118044685Y-150913011D01*
X116448113Y-151396820D02*
X116786780Y-150913011D01*
X117028685Y-151396820D02*
X117028685Y-150380820D01*
X117028685Y-150380820D02*
X116641637Y-150380820D01*
X116641637Y-150380820D02*
X116544875Y-150429201D01*
X116544875Y-150429201D02*
X116496494Y-150477582D01*
X116496494Y-150477582D02*
X116448113Y-150574344D01*
X116448113Y-150574344D02*
X116448113Y-150719487D01*
X116448113Y-150719487D02*
X116496494Y-150816249D01*
X116496494Y-150816249D02*
X116544875Y-150864630D01*
X116544875Y-150864630D02*
X116641637Y-150913011D01*
X116641637Y-150913011D02*
X117028685Y-150913011D01*
X116012685Y-150864630D02*
X115674018Y-150864630D01*
X115528875Y-151396820D02*
X116012685Y-151396820D01*
X116012685Y-151396820D02*
X116012685Y-150380820D01*
X116012685Y-150380820D02*
X115528875Y-150380820D01*
X115141828Y-151348440D02*
X114996685Y-151396820D01*
X114996685Y-151396820D02*
X114754780Y-151396820D01*
X114754780Y-151396820D02*
X114658018Y-151348440D01*
X114658018Y-151348440D02*
X114609637Y-151300059D01*
X114609637Y-151300059D02*
X114561256Y-151203297D01*
X114561256Y-151203297D02*
X114561256Y-151106535D01*
X114561256Y-151106535D02*
X114609637Y-151009773D01*
X114609637Y-151009773D02*
X114658018Y-150961392D01*
X114658018Y-150961392D02*
X114754780Y-150913011D01*
X114754780Y-150913011D02*
X114948304Y-150864630D01*
X114948304Y-150864630D02*
X115045066Y-150816249D01*
X115045066Y-150816249D02*
X115093447Y-150767868D01*
X115093447Y-150767868D02*
X115141828Y-150671106D01*
X115141828Y-150671106D02*
X115141828Y-150574344D01*
X115141828Y-150574344D02*
X115093447Y-150477582D01*
X115093447Y-150477582D02*
X115045066Y-150429201D01*
X115045066Y-150429201D02*
X114948304Y-150380820D01*
X114948304Y-150380820D02*
X114706399Y-150380820D01*
X114706399Y-150380820D02*
X114561256Y-150429201D01*
X114174209Y-151348440D02*
X114029066Y-151396820D01*
X114029066Y-151396820D02*
X113787161Y-151396820D01*
X113787161Y-151396820D02*
X113690399Y-151348440D01*
X113690399Y-151348440D02*
X113642018Y-151300059D01*
X113642018Y-151300059D02*
X113593637Y-151203297D01*
X113593637Y-151203297D02*
X113593637Y-151106535D01*
X113593637Y-151106535D02*
X113642018Y-151009773D01*
X113642018Y-151009773D02*
X113690399Y-150961392D01*
X113690399Y-150961392D02*
X113787161Y-150913011D01*
X113787161Y-150913011D02*
X113980685Y-150864630D01*
X113980685Y-150864630D02*
X114077447Y-150816249D01*
X114077447Y-150816249D02*
X114125828Y-150767868D01*
X114125828Y-150767868D02*
X114174209Y-150671106D01*
X114174209Y-150671106D02*
X114174209Y-150574344D01*
X114174209Y-150574344D02*
X114125828Y-150477582D01*
X114125828Y-150477582D02*
X114077447Y-150429201D01*
X114077447Y-150429201D02*
X113980685Y-150380820D01*
X113980685Y-150380820D02*
X113738780Y-150380820D01*
X113738780Y-150380820D02*
X113593637Y-150429201D01*
X113158209Y-150380820D02*
X113158209Y-151203297D01*
X113158209Y-151203297D02*
X113109828Y-151300059D01*
X113109828Y-151300059D02*
X113061447Y-151348440D01*
X113061447Y-151348440D02*
X112964685Y-151396820D01*
X112964685Y-151396820D02*
X112771161Y-151396820D01*
X112771161Y-151396820D02*
X112674399Y-151348440D01*
X112674399Y-151348440D02*
X112626018Y-151300059D01*
X112626018Y-151300059D02*
X112577637Y-151203297D01*
X112577637Y-151203297D02*
X112577637Y-150380820D01*
X111513256Y-151396820D02*
X111851923Y-150913011D01*
X112093828Y-151396820D02*
X112093828Y-150380820D01*
X112093828Y-150380820D02*
X111706780Y-150380820D01*
X111706780Y-150380820D02*
X111610018Y-150429201D01*
X111610018Y-150429201D02*
X111561637Y-150477582D01*
X111561637Y-150477582D02*
X111513256Y-150574344D01*
X111513256Y-150574344D02*
X111513256Y-150719487D01*
X111513256Y-150719487D02*
X111561637Y-150816249D01*
X111561637Y-150816249D02*
X111610018Y-150864630D01*
X111610018Y-150864630D02*
X111706780Y-150913011D01*
X111706780Y-150913011D02*
X112093828Y-150913011D01*
X111077828Y-150864630D02*
X110739161Y-150864630D01*
X110594018Y-151396820D02*
X111077828Y-151396820D01*
X111077828Y-151396820D02*
X111077828Y-150380820D01*
X111077828Y-150380820D02*
X110594018Y-150380820D01*
X109529638Y-150380820D02*
X108949066Y-150380820D01*
X109239352Y-151396820D02*
X109239352Y-150380820D01*
X108029828Y-151396820D02*
X108368495Y-150913011D01*
X108610400Y-151396820D02*
X108610400Y-150380820D01*
X108610400Y-150380820D02*
X108223352Y-150380820D01*
X108223352Y-150380820D02*
X108126590Y-150429201D01*
X108126590Y-150429201D02*
X108078209Y-150477582D01*
X108078209Y-150477582D02*
X108029828Y-150574344D01*
X108029828Y-150574344D02*
X108029828Y-150719487D01*
X108029828Y-150719487D02*
X108078209Y-150816249D01*
X108078209Y-150816249D02*
X108126590Y-150864630D01*
X108126590Y-150864630D02*
X108223352Y-150913011D01*
X108223352Y-150913011D02*
X108610400Y-150913011D01*
X107642781Y-151106535D02*
X107158971Y-151106535D01*
X107739543Y-151396820D02*
X107400876Y-150380820D01*
X107400876Y-150380820D02*
X107062209Y-151396820D01*
X106723543Y-151396820D02*
X106723543Y-150380820D01*
X106723543Y-150380820D02*
X106142971Y-151396820D01*
X106142971Y-151396820D02*
X106142971Y-150380820D01*
X105707543Y-151348440D02*
X105562400Y-151396820D01*
X105562400Y-151396820D02*
X105320495Y-151396820D01*
X105320495Y-151396820D02*
X105223733Y-151348440D01*
X105223733Y-151348440D02*
X105175352Y-151300059D01*
X105175352Y-151300059D02*
X105126971Y-151203297D01*
X105126971Y-151203297D02*
X105126971Y-151106535D01*
X105126971Y-151106535D02*
X105175352Y-151009773D01*
X105175352Y-151009773D02*
X105223733Y-150961392D01*
X105223733Y-150961392D02*
X105320495Y-150913011D01*
X105320495Y-150913011D02*
X105514019Y-150864630D01*
X105514019Y-150864630D02*
X105610781Y-150816249D01*
X105610781Y-150816249D02*
X105659162Y-150767868D01*
X105659162Y-150767868D02*
X105707543Y-150671106D01*
X105707543Y-150671106D02*
X105707543Y-150574344D01*
X105707543Y-150574344D02*
X105659162Y-150477582D01*
X105659162Y-150477582D02*
X105610781Y-150429201D01*
X105610781Y-150429201D02*
X105514019Y-150380820D01*
X105514019Y-150380820D02*
X105272114Y-150380820D01*
X105272114Y-150380820D02*
X105126971Y-150429201D01*
X104691543Y-151396820D02*
X104691543Y-150380820D01*
X104691543Y-150380820D02*
X104449638Y-150380820D01*
X104449638Y-150380820D02*
X104304495Y-150429201D01*
X104304495Y-150429201D02*
X104207733Y-150525963D01*
X104207733Y-150525963D02*
X104159352Y-150622725D01*
X104159352Y-150622725D02*
X104110971Y-150816249D01*
X104110971Y-150816249D02*
X104110971Y-150961392D01*
X104110971Y-150961392D02*
X104159352Y-151154916D01*
X104159352Y-151154916D02*
X104207733Y-151251678D01*
X104207733Y-151251678D02*
X104304495Y-151348440D01*
X104304495Y-151348440D02*
X104449638Y-151396820D01*
X104449638Y-151396820D02*
X104691543Y-151396820D01*
X103675543Y-150380820D02*
X103675543Y-151203297D01*
X103675543Y-151203297D02*
X103627162Y-151300059D01*
X103627162Y-151300059D02*
X103578781Y-151348440D01*
X103578781Y-151348440D02*
X103482019Y-151396820D01*
X103482019Y-151396820D02*
X103288495Y-151396820D01*
X103288495Y-151396820D02*
X103191733Y-151348440D01*
X103191733Y-151348440D02*
X103143352Y-151300059D01*
X103143352Y-151300059D02*
X103094971Y-151203297D01*
X103094971Y-151203297D02*
X103094971Y-150380820D01*
X102030590Y-151300059D02*
X102078971Y-151348440D01*
X102078971Y-151348440D02*
X102224114Y-151396820D01*
X102224114Y-151396820D02*
X102320876Y-151396820D01*
X102320876Y-151396820D02*
X102466019Y-151348440D01*
X102466019Y-151348440D02*
X102562781Y-151251678D01*
X102562781Y-151251678D02*
X102611162Y-151154916D01*
X102611162Y-151154916D02*
X102659543Y-150961392D01*
X102659543Y-150961392D02*
X102659543Y-150816249D01*
X102659543Y-150816249D02*
X102611162Y-150622725D01*
X102611162Y-150622725D02*
X102562781Y-150525963D01*
X102562781Y-150525963D02*
X102466019Y-150429201D01*
X102466019Y-150429201D02*
X102320876Y-150380820D01*
X102320876Y-150380820D02*
X102224114Y-150380820D01*
X102224114Y-150380820D02*
X102078971Y-150429201D01*
X102078971Y-150429201D02*
X102030590Y-150477582D01*
X101595162Y-150864630D02*
X101256495Y-150864630D01*
X101111352Y-151396820D02*
X101595162Y-151396820D01*
X101595162Y-151396820D02*
X101595162Y-150380820D01*
X101595162Y-150380820D02*
X101111352Y-150380820D01*
X100095352Y-151396820D02*
X100434019Y-150913011D01*
X100675924Y-151396820D02*
X100675924Y-150380820D01*
X100675924Y-150380820D02*
X100288876Y-150380820D01*
X100288876Y-150380820D02*
X100192114Y-150429201D01*
X100192114Y-150429201D02*
X100143733Y-150477582D01*
X100143733Y-150477582D02*
X100095352Y-150574344D01*
X100095352Y-150574344D02*
X100095352Y-150719487D01*
X100095352Y-150719487D02*
X100143733Y-150816249D01*
X100143733Y-150816249D02*
X100192114Y-150864630D01*
X100192114Y-150864630D02*
X100288876Y-150913011D01*
X100288876Y-150913011D02*
X100675924Y-150913011D01*
X99708305Y-151348440D02*
X99563162Y-151396820D01*
X99563162Y-151396820D02*
X99321257Y-151396820D01*
X99321257Y-151396820D02*
X99224495Y-151348440D01*
X99224495Y-151348440D02*
X99176114Y-151300059D01*
X99176114Y-151300059D02*
X99127733Y-151203297D01*
X99127733Y-151203297D02*
X99127733Y-151106535D01*
X99127733Y-151106535D02*
X99176114Y-151009773D01*
X99176114Y-151009773D02*
X99224495Y-150961392D01*
X99224495Y-150961392D02*
X99321257Y-150913011D01*
X99321257Y-150913011D02*
X99514781Y-150864630D01*
X99514781Y-150864630D02*
X99611543Y-150816249D01*
X99611543Y-150816249D02*
X99659924Y-150767868D01*
X99659924Y-150767868D02*
X99708305Y-150671106D01*
X99708305Y-150671106D02*
X99708305Y-150574344D01*
X99708305Y-150574344D02*
X99659924Y-150477582D01*
X99659924Y-150477582D02*
X99611543Y-150429201D01*
X99611543Y-150429201D02*
X99514781Y-150380820D01*
X99514781Y-150380820D02*
X99272876Y-150380820D01*
X99272876Y-150380820D02*
X99127733Y-150429201D01*
D10*
X180148739Y-98405204D02*
X180767787Y-98405204D01*
X180767787Y-98405204D02*
X180767787Y-97105204D01*
X179467787Y-97105204D02*
X179343977Y-97105204D01*
X179343977Y-97105204D02*
X179220168Y-97167109D01*
X179220168Y-97167109D02*
X179158263Y-97229014D01*
X179158263Y-97229014D02*
X179096358Y-97352823D01*
X179096358Y-97352823D02*
X179034453Y-97600442D01*
X179034453Y-97600442D02*
X179034453Y-97909966D01*
X179034453Y-97909966D02*
X179096358Y-98157585D01*
X179096358Y-98157585D02*
X179158263Y-98281395D01*
X179158263Y-98281395D02*
X179220168Y-98343300D01*
X179220168Y-98343300D02*
X179343977Y-98405204D01*
X179343977Y-98405204D02*
X179467787Y-98405204D01*
X179467787Y-98405204D02*
X179591596Y-98343300D01*
X179591596Y-98343300D02*
X179653501Y-98281395D01*
X179653501Y-98281395D02*
X179715406Y-98157585D01*
X179715406Y-98157585D02*
X179777310Y-97909966D01*
X179777310Y-97909966D02*
X179777310Y-97600442D01*
X179777310Y-97600442D02*
X179715406Y-97352823D01*
X179715406Y-97352823D02*
X179653501Y-97229014D01*
X179653501Y-97229014D02*
X179591596Y-97167109D01*
X179591596Y-97167109D02*
X179467787Y-97105204D01*
X178229692Y-97105204D02*
X178105882Y-97105204D01*
X178105882Y-97105204D02*
X177982073Y-97167109D01*
X177982073Y-97167109D02*
X177920168Y-97229014D01*
X177920168Y-97229014D02*
X177858263Y-97352823D01*
X177858263Y-97352823D02*
X177796358Y-97600442D01*
X177796358Y-97600442D02*
X177796358Y-97909966D01*
X177796358Y-97909966D02*
X177858263Y-98157585D01*
X177858263Y-98157585D02*
X177920168Y-98281395D01*
X177920168Y-98281395D02*
X177982073Y-98343300D01*
X177982073Y-98343300D02*
X178105882Y-98405204D01*
X178105882Y-98405204D02*
X178229692Y-98405204D01*
X178229692Y-98405204D02*
X178353501Y-98343300D01*
X178353501Y-98343300D02*
X178415406Y-98281395D01*
X178415406Y-98281395D02*
X178477311Y-98157585D01*
X178477311Y-98157585D02*
X178539215Y-97909966D01*
X178539215Y-97909966D02*
X178539215Y-97600442D01*
X178539215Y-97600442D02*
X178477311Y-97352823D01*
X178477311Y-97352823D02*
X178415406Y-97229014D01*
X178415406Y-97229014D02*
X178353501Y-97167109D01*
X178353501Y-97167109D02*
X178229692Y-97105204D01*
X176991597Y-97105204D02*
X176867787Y-97105204D01*
X176867787Y-97105204D02*
X176743978Y-97167109D01*
X176743978Y-97167109D02*
X176682073Y-97229014D01*
X176682073Y-97229014D02*
X176620168Y-97352823D01*
X176620168Y-97352823D02*
X176558263Y-97600442D01*
X176558263Y-97600442D02*
X176558263Y-97909966D01*
X176558263Y-97909966D02*
X176620168Y-98157585D01*
X176620168Y-98157585D02*
X176682073Y-98281395D01*
X176682073Y-98281395D02*
X176743978Y-98343300D01*
X176743978Y-98343300D02*
X176867787Y-98405204D01*
X176867787Y-98405204D02*
X176991597Y-98405204D01*
X176991597Y-98405204D02*
X177115406Y-98343300D01*
X177115406Y-98343300D02*
X177177311Y-98281395D01*
X177177311Y-98281395D02*
X177239216Y-98157585D01*
X177239216Y-98157585D02*
X177301120Y-97909966D01*
X177301120Y-97909966D02*
X177301120Y-97600442D01*
X177301120Y-97600442D02*
X177239216Y-97352823D01*
X177239216Y-97352823D02*
X177177311Y-97229014D01*
X177177311Y-97229014D02*
X177115406Y-97167109D01*
X177115406Y-97167109D02*
X176991597Y-97105204D01*
X176063025Y-97229014D02*
X176001121Y-97167109D01*
X176001121Y-97167109D02*
X175877311Y-97105204D01*
X175877311Y-97105204D02*
X175567787Y-97105204D01*
X175567787Y-97105204D02*
X175443978Y-97167109D01*
X175443978Y-97167109D02*
X175382073Y-97229014D01*
X175382073Y-97229014D02*
X175320168Y-97352823D01*
X175320168Y-97352823D02*
X175320168Y-97476633D01*
X175320168Y-97476633D02*
X175382073Y-97662347D01*
X175382073Y-97662347D02*
X176124930Y-98405204D01*
X176124930Y-98405204D02*
X175320168Y-98405204D01*
X173153502Y-98405204D02*
X173772550Y-98405204D01*
X173772550Y-98405204D02*
X173772550Y-97105204D01*
X172720169Y-98405204D02*
X172720169Y-97538538D01*
X172720169Y-97105204D02*
X172782073Y-97167109D01*
X172782073Y-97167109D02*
X172720169Y-97229014D01*
X172720169Y-97229014D02*
X172658264Y-97167109D01*
X172658264Y-97167109D02*
X172720169Y-97105204D01*
X172720169Y-97105204D02*
X172720169Y-97229014D01*
X171543978Y-97538538D02*
X171543978Y-98838538D01*
X171543978Y-98343300D02*
X171667787Y-98405204D01*
X171667787Y-98405204D02*
X171915406Y-98405204D01*
X171915406Y-98405204D02*
X172039216Y-98343300D01*
X172039216Y-98343300D02*
X172101121Y-98281395D01*
X172101121Y-98281395D02*
X172163025Y-98157585D01*
X172163025Y-98157585D02*
X172163025Y-97786157D01*
X172163025Y-97786157D02*
X172101121Y-97662347D01*
X172101121Y-97662347D02*
X172039216Y-97600442D01*
X172039216Y-97600442D02*
X171915406Y-97538538D01*
X171915406Y-97538538D02*
X171667787Y-97538538D01*
X171667787Y-97538538D02*
X171543978Y-97600442D01*
X170367788Y-97538538D02*
X170367788Y-98405204D01*
X170924931Y-97538538D02*
X170924931Y-98219490D01*
X170924931Y-98219490D02*
X170863026Y-98343300D01*
X170863026Y-98343300D02*
X170739216Y-98405204D01*
X170739216Y-98405204D02*
X170553502Y-98405204D01*
X170553502Y-98405204D02*
X170429693Y-98343300D01*
X170429693Y-98343300D02*
X170367788Y-98281395D01*
X169748741Y-98405204D02*
X169748741Y-97538538D01*
X169748741Y-97105204D02*
X169810645Y-97167109D01*
X169810645Y-97167109D02*
X169748741Y-97229014D01*
X169748741Y-97229014D02*
X169686836Y-97167109D01*
X169686836Y-97167109D02*
X169748741Y-97105204D01*
X169748741Y-97105204D02*
X169748741Y-97229014D01*
X168572550Y-98405204D02*
X168572550Y-97105204D01*
X168572550Y-98343300D02*
X168696359Y-98405204D01*
X168696359Y-98405204D02*
X168943978Y-98405204D01*
X168943978Y-98405204D02*
X169067788Y-98343300D01*
X169067788Y-98343300D02*
X169129693Y-98281395D01*
X169129693Y-98281395D02*
X169191597Y-98157585D01*
X169191597Y-98157585D02*
X169191597Y-97786157D01*
X169191597Y-97786157D02*
X169129693Y-97662347D01*
X169129693Y-97662347D02*
X169067788Y-97600442D01*
X169067788Y-97600442D02*
X168943978Y-97538538D01*
X168943978Y-97538538D02*
X168696359Y-97538538D01*
X168696359Y-97538538D02*
X168572550Y-97600442D01*
X166963027Y-97724252D02*
X166529693Y-97724252D01*
X166343979Y-98405204D02*
X166963027Y-98405204D01*
X166963027Y-98405204D02*
X166963027Y-97105204D01*
X166963027Y-97105204D02*
X166343979Y-97105204D01*
X165786837Y-97538538D02*
X165786837Y-98405204D01*
X165786837Y-97662347D02*
X165724932Y-97600442D01*
X165724932Y-97600442D02*
X165601122Y-97538538D01*
X165601122Y-97538538D02*
X165415408Y-97538538D01*
X165415408Y-97538538D02*
X165291599Y-97600442D01*
X165291599Y-97600442D02*
X165229694Y-97724252D01*
X165229694Y-97724252D02*
X165229694Y-98405204D01*
X164053504Y-97538538D02*
X164053504Y-98590919D01*
X164053504Y-98590919D02*
X164115409Y-98714728D01*
X164115409Y-98714728D02*
X164177313Y-98776633D01*
X164177313Y-98776633D02*
X164301123Y-98838538D01*
X164301123Y-98838538D02*
X164486837Y-98838538D01*
X164486837Y-98838538D02*
X164610647Y-98776633D01*
X164053504Y-98343300D02*
X164177313Y-98405204D01*
X164177313Y-98405204D02*
X164424932Y-98405204D01*
X164424932Y-98405204D02*
X164548742Y-98343300D01*
X164548742Y-98343300D02*
X164610647Y-98281395D01*
X164610647Y-98281395D02*
X164672551Y-98157585D01*
X164672551Y-98157585D02*
X164672551Y-97786157D01*
X164672551Y-97786157D02*
X164610647Y-97662347D01*
X164610647Y-97662347D02*
X164548742Y-97600442D01*
X164548742Y-97600442D02*
X164424932Y-97538538D01*
X164424932Y-97538538D02*
X164177313Y-97538538D01*
X164177313Y-97538538D02*
X164053504Y-97600442D01*
X163434457Y-98405204D02*
X163434457Y-97538538D01*
X163434457Y-97105204D02*
X163496361Y-97167109D01*
X163496361Y-97167109D02*
X163434457Y-97229014D01*
X163434457Y-97229014D02*
X163372552Y-97167109D01*
X163372552Y-97167109D02*
X163434457Y-97105204D01*
X163434457Y-97105204D02*
X163434457Y-97229014D01*
X162815409Y-97538538D02*
X162815409Y-98405204D01*
X162815409Y-97662347D02*
X162753504Y-97600442D01*
X162753504Y-97600442D02*
X162629694Y-97538538D01*
X162629694Y-97538538D02*
X162443980Y-97538538D01*
X162443980Y-97538538D02*
X162320171Y-97600442D01*
X162320171Y-97600442D02*
X162258266Y-97724252D01*
X162258266Y-97724252D02*
X162258266Y-98405204D01*
X161143981Y-98343300D02*
X161267790Y-98405204D01*
X161267790Y-98405204D02*
X161515409Y-98405204D01*
X161515409Y-98405204D02*
X161639219Y-98343300D01*
X161639219Y-98343300D02*
X161701123Y-98219490D01*
X161701123Y-98219490D02*
X161701123Y-97724252D01*
X161701123Y-97724252D02*
X161639219Y-97600442D01*
X161639219Y-97600442D02*
X161515409Y-97538538D01*
X161515409Y-97538538D02*
X161267790Y-97538538D01*
X161267790Y-97538538D02*
X161143981Y-97600442D01*
X161143981Y-97600442D02*
X161082076Y-97724252D01*
X161082076Y-97724252D02*
X161082076Y-97848061D01*
X161082076Y-97848061D02*
X161701123Y-97971871D01*
X158791600Y-98281395D02*
X158853504Y-98343300D01*
X158853504Y-98343300D02*
X159039219Y-98405204D01*
X159039219Y-98405204D02*
X159163028Y-98405204D01*
X159163028Y-98405204D02*
X159348742Y-98343300D01*
X159348742Y-98343300D02*
X159472552Y-98219490D01*
X159472552Y-98219490D02*
X159534457Y-98095680D01*
X159534457Y-98095680D02*
X159596361Y-97848061D01*
X159596361Y-97848061D02*
X159596361Y-97662347D01*
X159596361Y-97662347D02*
X159534457Y-97414728D01*
X159534457Y-97414728D02*
X159472552Y-97290919D01*
X159472552Y-97290919D02*
X159348742Y-97167109D01*
X159348742Y-97167109D02*
X159163028Y-97105204D01*
X159163028Y-97105204D02*
X159039219Y-97105204D01*
X159039219Y-97105204D02*
X158853504Y-97167109D01*
X158853504Y-97167109D02*
X158791600Y-97229014D01*
X158048742Y-98405204D02*
X158172552Y-98343300D01*
X158172552Y-98343300D02*
X158234457Y-98281395D01*
X158234457Y-98281395D02*
X158296361Y-98157585D01*
X158296361Y-98157585D02*
X158296361Y-97786157D01*
X158296361Y-97786157D02*
X158234457Y-97662347D01*
X158234457Y-97662347D02*
X158172552Y-97600442D01*
X158172552Y-97600442D02*
X158048742Y-97538538D01*
X158048742Y-97538538D02*
X157863028Y-97538538D01*
X157863028Y-97538538D02*
X157739219Y-97600442D01*
X157739219Y-97600442D02*
X157677314Y-97662347D01*
X157677314Y-97662347D02*
X157615409Y-97786157D01*
X157615409Y-97786157D02*
X157615409Y-98157585D01*
X157615409Y-98157585D02*
X157677314Y-98281395D01*
X157677314Y-98281395D02*
X157739219Y-98343300D01*
X157739219Y-98343300D02*
X157863028Y-98405204D01*
X157863028Y-98405204D02*
X158048742Y-98405204D01*
X157058267Y-97538538D02*
X157058267Y-98405204D01*
X157058267Y-97662347D02*
X156996362Y-97600442D01*
X156996362Y-97600442D02*
X156872552Y-97538538D01*
X156872552Y-97538538D02*
X156686838Y-97538538D01*
X156686838Y-97538538D02*
X156563029Y-97600442D01*
X156563029Y-97600442D02*
X156501124Y-97724252D01*
X156501124Y-97724252D02*
X156501124Y-98405204D01*
X156067791Y-97538538D02*
X155572553Y-97538538D01*
X155882077Y-97105204D02*
X155882077Y-98219490D01*
X155882077Y-98219490D02*
X155820172Y-98343300D01*
X155820172Y-98343300D02*
X155696362Y-98405204D01*
X155696362Y-98405204D02*
X155572553Y-98405204D01*
X155139220Y-98405204D02*
X155139220Y-97538538D01*
X155139220Y-97786157D02*
X155077315Y-97662347D01*
X155077315Y-97662347D02*
X155015410Y-97600442D01*
X155015410Y-97600442D02*
X154891601Y-97538538D01*
X154891601Y-97538538D02*
X154767791Y-97538538D01*
X154148743Y-98405204D02*
X154272553Y-98343300D01*
X154272553Y-98343300D02*
X154334458Y-98281395D01*
X154334458Y-98281395D02*
X154396362Y-98157585D01*
X154396362Y-98157585D02*
X154396362Y-97786157D01*
X154396362Y-97786157D02*
X154334458Y-97662347D01*
X154334458Y-97662347D02*
X154272553Y-97600442D01*
X154272553Y-97600442D02*
X154148743Y-97538538D01*
X154148743Y-97538538D02*
X153963029Y-97538538D01*
X153963029Y-97538538D02*
X153839220Y-97600442D01*
X153839220Y-97600442D02*
X153777315Y-97662347D01*
X153777315Y-97662347D02*
X153715410Y-97786157D01*
X153715410Y-97786157D02*
X153715410Y-98157585D01*
X153715410Y-98157585D02*
X153777315Y-98281395D01*
X153777315Y-98281395D02*
X153839220Y-98343300D01*
X153839220Y-98343300D02*
X153963029Y-98405204D01*
X153963029Y-98405204D02*
X154148743Y-98405204D01*
X152972553Y-98405204D02*
X153096363Y-98343300D01*
X153096363Y-98343300D02*
X153158268Y-98219490D01*
X153158268Y-98219490D02*
X153158268Y-97105204D01*
X152291601Y-98405204D02*
X152415411Y-98343300D01*
X152415411Y-98343300D02*
X152477316Y-98219490D01*
X152477316Y-98219490D02*
X152477316Y-97105204D01*
X151301126Y-98343300D02*
X151424935Y-98405204D01*
X151424935Y-98405204D02*
X151672554Y-98405204D01*
X151672554Y-98405204D02*
X151796364Y-98343300D01*
X151796364Y-98343300D02*
X151858268Y-98219490D01*
X151858268Y-98219490D02*
X151858268Y-97724252D01*
X151858268Y-97724252D02*
X151796364Y-97600442D01*
X151796364Y-97600442D02*
X151672554Y-97538538D01*
X151672554Y-97538538D02*
X151424935Y-97538538D01*
X151424935Y-97538538D02*
X151301126Y-97600442D01*
X151301126Y-97600442D02*
X151239221Y-97724252D01*
X151239221Y-97724252D02*
X151239221Y-97848061D01*
X151239221Y-97848061D02*
X151858268Y-97971871D01*
X150682078Y-98405204D02*
X150682078Y-97538538D01*
X150682078Y-97786157D02*
X150620173Y-97662347D01*
X150620173Y-97662347D02*
X150558268Y-97600442D01*
X150558268Y-97600442D02*
X150434459Y-97538538D01*
X150434459Y-97538538D02*
X150310649Y-97538538D01*
X148143983Y-98405204D02*
X148577316Y-97786157D01*
X148886840Y-98405204D02*
X148886840Y-97105204D01*
X148886840Y-97105204D02*
X148391602Y-97105204D01*
X148391602Y-97105204D02*
X148267792Y-97167109D01*
X148267792Y-97167109D02*
X148205887Y-97229014D01*
X148205887Y-97229014D02*
X148143983Y-97352823D01*
X148143983Y-97352823D02*
X148143983Y-97538538D01*
X148143983Y-97538538D02*
X148205887Y-97662347D01*
X148205887Y-97662347D02*
X148267792Y-97724252D01*
X148267792Y-97724252D02*
X148391602Y-97786157D01*
X148391602Y-97786157D02*
X148886840Y-97786157D01*
X147091602Y-98343300D02*
X147215411Y-98405204D01*
X147215411Y-98405204D02*
X147463030Y-98405204D01*
X147463030Y-98405204D02*
X147586840Y-98343300D01*
X147586840Y-98343300D02*
X147648744Y-98219490D01*
X147648744Y-98219490D02*
X147648744Y-97724252D01*
X147648744Y-97724252D02*
X147586840Y-97600442D01*
X147586840Y-97600442D02*
X147463030Y-97538538D01*
X147463030Y-97538538D02*
X147215411Y-97538538D01*
X147215411Y-97538538D02*
X147091602Y-97600442D01*
X147091602Y-97600442D02*
X147029697Y-97724252D01*
X147029697Y-97724252D02*
X147029697Y-97848061D01*
X147029697Y-97848061D02*
X147648744Y-97971871D01*
X146596363Y-97538538D02*
X146286839Y-98405204D01*
X146286839Y-98405204D02*
X145977316Y-97538538D01*
X143872554Y-97105204D02*
X144491602Y-97105204D01*
X144491602Y-97105204D02*
X144553506Y-97724252D01*
X144553506Y-97724252D02*
X144491602Y-97662347D01*
X144491602Y-97662347D02*
X144367792Y-97600442D01*
X144367792Y-97600442D02*
X144058268Y-97600442D01*
X144058268Y-97600442D02*
X143934459Y-97662347D01*
X143934459Y-97662347D02*
X143872554Y-97724252D01*
X143872554Y-97724252D02*
X143810649Y-97848061D01*
X143810649Y-97848061D02*
X143810649Y-98157585D01*
X143810649Y-98157585D02*
X143872554Y-98281395D01*
X143872554Y-98281395D02*
X143934459Y-98343300D01*
X143934459Y-98343300D02*
X144058268Y-98405204D01*
X144058268Y-98405204D02*
X144367792Y-98405204D01*
X144367792Y-98405204D02*
X144491602Y-98343300D01*
X144491602Y-98343300D02*
X144553506Y-98281395D01*
X143253507Y-98281395D02*
X143191602Y-98343300D01*
X143191602Y-98343300D02*
X143253507Y-98405204D01*
X143253507Y-98405204D02*
X143315411Y-98343300D01*
X143315411Y-98343300D02*
X143253507Y-98281395D01*
X143253507Y-98281395D02*
X143253507Y-98405204D01*
X141953506Y-98405204D02*
X142696363Y-98405204D01*
X142324935Y-98405204D02*
X142324935Y-97105204D01*
X142324935Y-97105204D02*
X142448744Y-97290919D01*
X142448744Y-97290919D02*
X142572554Y-97414728D01*
X142572554Y-97414728D02*
X142696363Y-97476633D01*
X174855884Y-100449300D02*
X174670170Y-100511204D01*
X174670170Y-100511204D02*
X174360646Y-100511204D01*
X174360646Y-100511204D02*
X174236837Y-100449300D01*
X174236837Y-100449300D02*
X174174932Y-100387395D01*
X174174932Y-100387395D02*
X174113027Y-100263585D01*
X174113027Y-100263585D02*
X174113027Y-100139776D01*
X174113027Y-100139776D02*
X174174932Y-100015966D01*
X174174932Y-100015966D02*
X174236837Y-99954061D01*
X174236837Y-99954061D02*
X174360646Y-99892157D01*
X174360646Y-99892157D02*
X174608265Y-99830252D01*
X174608265Y-99830252D02*
X174732075Y-99768347D01*
X174732075Y-99768347D02*
X174793980Y-99706442D01*
X174793980Y-99706442D02*
X174855884Y-99582633D01*
X174855884Y-99582633D02*
X174855884Y-99458823D01*
X174855884Y-99458823D02*
X174793980Y-99335014D01*
X174793980Y-99335014D02*
X174732075Y-99273109D01*
X174732075Y-99273109D02*
X174608265Y-99211204D01*
X174608265Y-99211204D02*
X174298742Y-99211204D01*
X174298742Y-99211204D02*
X174113027Y-99273109D01*
X172998742Y-99644538D02*
X172998742Y-100511204D01*
X173555885Y-99644538D02*
X173555885Y-100325490D01*
X173555885Y-100325490D02*
X173493980Y-100449300D01*
X173493980Y-100449300D02*
X173370170Y-100511204D01*
X173370170Y-100511204D02*
X173184456Y-100511204D01*
X173184456Y-100511204D02*
X173060647Y-100449300D01*
X173060647Y-100449300D02*
X172998742Y-100387395D01*
X172379695Y-99644538D02*
X172379695Y-100511204D01*
X172379695Y-99768347D02*
X172317790Y-99706442D01*
X172317790Y-99706442D02*
X172193980Y-99644538D01*
X172193980Y-99644538D02*
X172008266Y-99644538D01*
X172008266Y-99644538D02*
X171884457Y-99706442D01*
X171884457Y-99706442D02*
X171822552Y-99830252D01*
X171822552Y-99830252D02*
X171822552Y-100511204D01*
X170213029Y-100511204D02*
X170213029Y-99211204D01*
X170213029Y-99211204D02*
X169903505Y-99211204D01*
X169903505Y-99211204D02*
X169717791Y-99273109D01*
X169717791Y-99273109D02*
X169593981Y-99396919D01*
X169593981Y-99396919D02*
X169532076Y-99520728D01*
X169532076Y-99520728D02*
X169470172Y-99768347D01*
X169470172Y-99768347D02*
X169470172Y-99954061D01*
X169470172Y-99954061D02*
X169532076Y-100201680D01*
X169532076Y-100201680D02*
X169593981Y-100325490D01*
X169593981Y-100325490D02*
X169717791Y-100449300D01*
X169717791Y-100449300D02*
X169903505Y-100511204D01*
X169903505Y-100511204D02*
X170213029Y-100511204D01*
X168417791Y-100449300D02*
X168541600Y-100511204D01*
X168541600Y-100511204D02*
X168789219Y-100511204D01*
X168789219Y-100511204D02*
X168913029Y-100449300D01*
X168913029Y-100449300D02*
X168974933Y-100325490D01*
X168974933Y-100325490D02*
X168974933Y-99830252D01*
X168974933Y-99830252D02*
X168913029Y-99706442D01*
X168913029Y-99706442D02*
X168789219Y-99644538D01*
X168789219Y-99644538D02*
X168541600Y-99644538D01*
X168541600Y-99644538D02*
X168417791Y-99706442D01*
X168417791Y-99706442D02*
X168355886Y-99830252D01*
X168355886Y-99830252D02*
X168355886Y-99954061D01*
X168355886Y-99954061D02*
X168974933Y-100077871D01*
X167922552Y-99644538D02*
X167613028Y-100511204D01*
X167613028Y-100511204D02*
X167303505Y-99644538D01*
X166808267Y-100511204D02*
X166808267Y-99644538D01*
X166808267Y-99211204D02*
X166870171Y-99273109D01*
X166870171Y-99273109D02*
X166808267Y-99335014D01*
X166808267Y-99335014D02*
X166746362Y-99273109D01*
X166746362Y-99273109D02*
X166808267Y-99211204D01*
X166808267Y-99211204D02*
X166808267Y-99335014D01*
X166003504Y-100511204D02*
X166127314Y-100449300D01*
X166127314Y-100449300D02*
X166189219Y-100325490D01*
X166189219Y-100325490D02*
X166189219Y-99211204D01*
X163774934Y-100511204D02*
X164208267Y-99892157D01*
X164517791Y-100511204D02*
X164517791Y-99211204D01*
X164517791Y-99211204D02*
X164022553Y-99211204D01*
X164022553Y-99211204D02*
X163898743Y-99273109D01*
X163898743Y-99273109D02*
X163836838Y-99335014D01*
X163836838Y-99335014D02*
X163774934Y-99458823D01*
X163774934Y-99458823D02*
X163774934Y-99644538D01*
X163774934Y-99644538D02*
X163836838Y-99768347D01*
X163836838Y-99768347D02*
X163898743Y-99830252D01*
X163898743Y-99830252D02*
X164022553Y-99892157D01*
X164022553Y-99892157D02*
X164517791Y-99892157D01*
X163032076Y-100511204D02*
X163155886Y-100449300D01*
X163155886Y-100449300D02*
X163217791Y-100387395D01*
X163217791Y-100387395D02*
X163279695Y-100263585D01*
X163279695Y-100263585D02*
X163279695Y-99892157D01*
X163279695Y-99892157D02*
X163217791Y-99768347D01*
X163217791Y-99768347D02*
X163155886Y-99706442D01*
X163155886Y-99706442D02*
X163032076Y-99644538D01*
X163032076Y-99644538D02*
X162846362Y-99644538D01*
X162846362Y-99644538D02*
X162722553Y-99706442D01*
X162722553Y-99706442D02*
X162660648Y-99768347D01*
X162660648Y-99768347D02*
X162598743Y-99892157D01*
X162598743Y-99892157D02*
X162598743Y-100263585D01*
X162598743Y-100263585D02*
X162660648Y-100387395D01*
X162660648Y-100387395D02*
X162722553Y-100449300D01*
X162722553Y-100449300D02*
X162846362Y-100511204D01*
X162846362Y-100511204D02*
X163032076Y-100511204D01*
X161484458Y-100449300D02*
X161608267Y-100511204D01*
X161608267Y-100511204D02*
X161855886Y-100511204D01*
X161855886Y-100511204D02*
X161979696Y-100449300D01*
X161979696Y-100449300D02*
X162041601Y-100387395D01*
X162041601Y-100387395D02*
X162103505Y-100263585D01*
X162103505Y-100263585D02*
X162103505Y-99892157D01*
X162103505Y-99892157D02*
X162041601Y-99768347D01*
X162041601Y-99768347D02*
X161979696Y-99706442D01*
X161979696Y-99706442D02*
X161855886Y-99644538D01*
X161855886Y-99644538D02*
X161608267Y-99644538D01*
X161608267Y-99644538D02*
X161484458Y-99706442D01*
X160927315Y-100511204D02*
X160927315Y-99211204D01*
X160803505Y-100015966D02*
X160432077Y-100511204D01*
X160432077Y-99644538D02*
X160927315Y-100139776D01*
X159379696Y-100449300D02*
X159503505Y-100511204D01*
X159503505Y-100511204D02*
X159751124Y-100511204D01*
X159751124Y-100511204D02*
X159874934Y-100449300D01*
X159874934Y-100449300D02*
X159936838Y-100325490D01*
X159936838Y-100325490D02*
X159936838Y-99830252D01*
X159936838Y-99830252D02*
X159874934Y-99706442D01*
X159874934Y-99706442D02*
X159751124Y-99644538D01*
X159751124Y-99644538D02*
X159503505Y-99644538D01*
X159503505Y-99644538D02*
X159379696Y-99706442D01*
X159379696Y-99706442D02*
X159317791Y-99830252D01*
X159317791Y-99830252D02*
X159317791Y-99954061D01*
X159317791Y-99954061D02*
X159936838Y-100077871D01*
X158946362Y-99644538D02*
X158451124Y-99644538D01*
X158760648Y-99211204D02*
X158760648Y-100325490D01*
X158760648Y-100325490D02*
X158698743Y-100449300D01*
X158698743Y-100449300D02*
X158574933Y-100511204D01*
X158574933Y-100511204D02*
X158451124Y-100511204D01*
X158017791Y-100511204D02*
X158017791Y-99644538D01*
X158017791Y-99892157D02*
X157955886Y-99768347D01*
X157955886Y-99768347D02*
X157893981Y-99706442D01*
X157893981Y-99706442D02*
X157770172Y-99644538D01*
X157770172Y-99644538D02*
X157646362Y-99644538D01*
X157336838Y-99644538D02*
X157027314Y-100511204D01*
X156717791Y-99644538D02*
X157027314Y-100511204D01*
X157027314Y-100511204D02*
X157151124Y-100820728D01*
X157151124Y-100820728D02*
X157213029Y-100882633D01*
X157213029Y-100882633D02*
X157336838Y-100944538D01*
X155293981Y-100139776D02*
X154674934Y-100139776D01*
X155417791Y-100511204D02*
X154984458Y-99211204D01*
X154984458Y-99211204D02*
X154551124Y-100511204D01*
X154241600Y-99644538D02*
X153932076Y-100511204D01*
X153932076Y-100511204D02*
X153622553Y-99644538D01*
X153127315Y-100511204D02*
X153127315Y-99644538D01*
X153127315Y-99211204D02*
X153189219Y-99273109D01*
X153189219Y-99273109D02*
X153127315Y-99335014D01*
X153127315Y-99335014D02*
X153065410Y-99273109D01*
X153065410Y-99273109D02*
X153127315Y-99211204D01*
X153127315Y-99211204D02*
X153127315Y-99335014D01*
X152322552Y-100511204D02*
X152446362Y-100449300D01*
X152446362Y-100449300D02*
X152508267Y-100387395D01*
X152508267Y-100387395D02*
X152570171Y-100263585D01*
X152570171Y-100263585D02*
X152570171Y-99892157D01*
X152570171Y-99892157D02*
X152508267Y-99768347D01*
X152508267Y-99768347D02*
X152446362Y-99706442D01*
X152446362Y-99706442D02*
X152322552Y-99644538D01*
X152322552Y-99644538D02*
X152136838Y-99644538D01*
X152136838Y-99644538D02*
X152013029Y-99706442D01*
X152013029Y-99706442D02*
X151951124Y-99768347D01*
X151951124Y-99768347D02*
X151889219Y-99892157D01*
X151889219Y-99892157D02*
X151889219Y-100263585D01*
X151889219Y-100263585D02*
X151951124Y-100387395D01*
X151951124Y-100387395D02*
X152013029Y-100449300D01*
X152013029Y-100449300D02*
X152136838Y-100511204D01*
X152136838Y-100511204D02*
X152322552Y-100511204D01*
X151332077Y-99644538D02*
X151332077Y-100511204D01*
X151332077Y-99768347D02*
X151270172Y-99706442D01*
X151270172Y-99706442D02*
X151146362Y-99644538D01*
X151146362Y-99644538D02*
X150960648Y-99644538D01*
X150960648Y-99644538D02*
X150836839Y-99706442D01*
X150836839Y-99706442D02*
X150774934Y-99830252D01*
X150774934Y-99830252D02*
X150774934Y-100511204D01*
X150155887Y-100511204D02*
X150155887Y-99644538D01*
X150155887Y-99211204D02*
X150217791Y-99273109D01*
X150217791Y-99273109D02*
X150155887Y-99335014D01*
X150155887Y-99335014D02*
X150093982Y-99273109D01*
X150093982Y-99273109D02*
X150155887Y-99211204D01*
X150155887Y-99211204D02*
X150155887Y-99335014D01*
X148979696Y-100449300D02*
X149103505Y-100511204D01*
X149103505Y-100511204D02*
X149351124Y-100511204D01*
X149351124Y-100511204D02*
X149474934Y-100449300D01*
X149474934Y-100449300D02*
X149536839Y-100387395D01*
X149536839Y-100387395D02*
X149598743Y-100263585D01*
X149598743Y-100263585D02*
X149598743Y-99892157D01*
X149598743Y-99892157D02*
X149536839Y-99768347D01*
X149536839Y-99768347D02*
X149474934Y-99706442D01*
X149474934Y-99706442D02*
X149351124Y-99644538D01*
X149351124Y-99644538D02*
X149103505Y-99644538D01*
X149103505Y-99644538D02*
X148979696Y-99706442D01*
X148484457Y-100449300D02*
X148360648Y-100511204D01*
X148360648Y-100511204D02*
X148113029Y-100511204D01*
X148113029Y-100511204D02*
X147989219Y-100449300D01*
X147989219Y-100449300D02*
X147927315Y-100325490D01*
X147927315Y-100325490D02*
X147927315Y-100263585D01*
X147927315Y-100263585D02*
X147989219Y-100139776D01*
X147989219Y-100139776D02*
X148113029Y-100077871D01*
X148113029Y-100077871D02*
X148298743Y-100077871D01*
X148298743Y-100077871D02*
X148422553Y-100015966D01*
X148422553Y-100015966D02*
X148484457Y-99892157D01*
X148484457Y-99892157D02*
X148484457Y-99830252D01*
X148484457Y-99830252D02*
X148422553Y-99706442D01*
X148422553Y-99706442D02*
X148298743Y-99644538D01*
X148298743Y-99644538D02*
X148113029Y-99644538D01*
X148113029Y-99644538D02*
X147989219Y-99706442D01*
M02*
