M48
; DRILL file {KiCad (6.0.5)} date Sat May 28 08:12:29 2022
; FORMAT={-:-/ absolute / inch / decimal}
; #@! TF.CreationDate,2022-05-28T08:12:29-07:00
; #@! TF.GenerationSoftware,Kicad,Pcbnew,(6.0.5)
; #@! TF.FileFunction,Plated,1,4,PTH
FMAT,2
INCH
; #@! TA.AperFunction,Plated,PTH,ViaDrill
T1C0.0118
; #@! TA.AperFunction,Plated,PTH,ComponentDrill
T2C0.0118
; #@! TA.AperFunction,Plated,PTH,ViaDrill
T3C0.0157
; #@! TA.AperFunction,Plated,PTH,ComponentDrill
T4C0.0197
; #@! TA.AperFunction,Plated,PTH,ViaDrill
T5C0.0200
; #@! TA.AperFunction,Plated,PTH,ComponentDrill
T6C0.0290
; #@! TA.AperFunction,Plated,PTH,ComponentDrill
T7C0.0295
; #@! TA.AperFunction,Plated,PTH,ComponentDrill
T8C0.0299
; #@! TA.AperFunction,Plated,PTH,ViaDrill
T9C0.0300
; #@! TA.AperFunction,Plated,PTH,ComponentDrill
T10C0.0382
; #@! TA.AperFunction,Plated,PTH,ComponentDrill
T11C0.0402
; #@! TA.AperFunction,Plated,PTH,ComponentDrill
T12C0.0421
; #@! TA.AperFunction,Plated,PTH,ComponentDrill
T13C0.0433
; #@! TA.AperFunction,Plated,PTH,ComponentDrill
T14C0.0472
; #@! TA.AperFunction,Plated,PTH,ComponentDrill
T15C0.0669
; #@! TA.AperFunction,Plated,PTH,ComponentDrill
T16C0.0925
%
G90
G05
T1
X3.483Y-5.516
X3.518Y-5.521
X3.638Y-4.886
X3.648Y-4.666
X3.673Y-4.996
X3.788Y-4.986
X3.833Y-4.846
X3.833Y-4.906
X3.833Y-4.996
X3.878Y-4.556
X3.903Y-4.956
X3.948Y-4.351
X3.948Y-5.146
X3.958Y-5.101
X3.993Y-4.431
X4.028Y-4.631
X4.053Y-4.606
X4.073Y-4.686
X4.073Y-4.791
X4.113Y-4.821
X4.123Y-4.506
X4.143Y-4.941
X4.148Y-4.901
X4.153Y-5.021
X4.1806Y-4.1084
X4.183Y-4.841
X4.208Y-4.441
X4.218Y-4.371
X4.223Y-5.331
X4.308Y-4.461
X4.343Y-5.121
X4.3755Y-5.4335
X4.3804Y-4.9634
X4.4291Y-4.2699
X4.438Y-5.321
X4.443Y-4.866
X4.478Y-4.851
X4.498Y-4.601
X4.498Y-4.976
X4.558Y-4.501
X4.618Y-4.316
X4.628Y-5.211
X4.663Y-5.221
X4.673Y-5.036
X4.723Y-4.646
X4.7441Y-4.8199
X4.893Y-4.471
X4.898Y-5.111
X4.9141Y-5.2499
X4.923Y-5.086
X4.933Y-4.466
X4.963Y-4.546
X4.973Y-4.946
X4.988Y-5.076
X5.013Y-4.946
X5.028Y-5.076
X5.053Y-4.941
X5.068Y-5.066
X5.068Y-5.161
X5.138Y-5.251
X5.163Y-5.286
X5.233Y-4.916
X5.348Y-5.556
X5.348Y-5.701
X5.358Y-5.311
X5.3761Y-5.4629
X5.383Y-5.071
X5.388Y-4.596
X5.433Y-5.216
X5.478Y-5.191
X5.483Y-4.861
X5.513Y-5.186
X5.528Y-4.006
X5.568Y-5.246
X5.608Y-5.356
X5.613Y-4.75
X5.643Y-5.076
X5.6486Y-4.9854
X5.693Y-4.016
X5.723Y-5.221
X5.728Y-5.701
X5.743Y-5.191
X5.743Y-5.396
X5.753Y-5.326
X5.8045Y-5.4825
X5.818Y-4.261
X5.848Y-5.241
X5.858Y-5.656
X5.863Y-5.691
X5.869Y-4.878
X5.8724Y-5.5454
X5.873Y-5.631
X5.8836Y-4.9854
X5.898Y-5.521
X5.9055Y-4.7885
X5.9205Y-5.0785
X5.9236Y-5.5204
X5.938Y-4.601
X5.938Y-4.631
X5.968Y-4.592
X5.993Y-5.216
X5.993Y-5.246
X6.003Y-4.586
X6.003Y-5.476
X6.038Y-5.021
X6.043Y-4.876
X6.048Y-4.511
X6.108Y-5.516
X6.113Y-5.401
X6.128Y-5.461
X6.133Y-4.651
X6.133Y-5.426
X6.148Y-5.491
X6.1486Y-5.5454
X6.1552Y-5.0838
X6.1574Y-4.9066
X6.163Y-5.051
X6.164Y-4.53
X6.173Y-5.386
X6.1811Y-4.7491
X6.1855Y-4.8635
X6.188Y-4.996
X6.193Y-4.946
X6.193Y-5.041
X6.203Y-5.306
X6.218Y-4.866
X6.238Y-4.796
X6.268Y-4.791
X6.273Y-4.351
X6.273Y-4.756
X6.298Y-5.076
X6.318Y-5.101
X6.343Y-5.336
X6.343Y-5.666
X6.348Y-4.516
X6.3755Y-4.4985
X6.378Y-5.116
X6.408Y-4.506
X6.443Y-5.176
X6.458Y-4.581
X6.468Y-5.101
X6.4705Y-5.1785
X6.493Y-5.196
X6.498Y-4.581
X6.508Y-4.546
X6.513Y-4.786
X6.533Y-4.736
X6.538Y-4.521
X6.538Y-5.076
X6.568Y-4.801
X6.5805Y-4.7185
X6.613Y-4.716
X6.613Y-5.406
X6.623Y-5.106
X6.643Y-4.836
X6.663Y-5.306
X6.693Y-5.276
X6.693Y-5.406
X6.709Y-4.488
X6.738Y-4.556
X6.753Y-5.381
X6.758Y-4.906
X6.7595Y-4.7295
X6.763Y-4.696
X6.7846Y-4.8476
X6.788Y-4.896
X6.8049Y-4.8279
X6.815Y-4.425
X6.818Y-5.311
X6.828Y-5.341
X6.863Y-5.086
X6.873Y-4.816
X6.8885Y-4.7065
X6.8915Y-5.1625
X6.9118Y-5.1822
X6.918Y-5.271
X6.933Y-5.076
X6.943Y-5.101
X6.9889Y-5.0719
X7.013Y-5.086
X7.028Y-5.151
X7.048Y-5.086
X7.053Y-4.786
X7.083Y-5.251
X7.088Y-5.371
X7.0961Y-4.6729
X7.128Y-5.206
X7.135Y-4.969
X7.15Y-4.92
X7.168Y-5.381
X7.208Y-5.221
X7.233Y-5.356
X7.3873Y-5.4303
X7.393Y-4.481
X7.393Y-5.391
X7.398Y-4.356
X7.448Y-5.221
X7.4494Y-5.7296
X7.483Y-5.251
X7.548Y-5.196
T2
X5.8586Y-5.3466
X5.8586Y-5.386
X5.8586Y-5.4254
X5.898Y-5.3466
X5.898Y-5.386
X5.898Y-5.4254
X5.9374Y-5.3466
X5.9374Y-5.386
X5.9374Y-5.4254
T3
X5.407Y-4.197
X5.6402Y-4.0032
X5.703Y-4.306
X5.7424Y-4.5366
T4
X4.5792Y-5.876
X4.6284Y-5.876
X4.6776Y-5.876
X4.7268Y-5.876
T5
X3.708Y-5.331
X3.723Y-5.581
X4.263Y-5.231
X5.1355Y-4.8935
X5.153Y-4.771
X5.503Y-4.581
X5.543Y-4.366
X5.558Y-4.446
X5.743Y-4.056
X6.053Y-3.876
X6.143Y-4.186
X6.703Y-4.116
X6.973Y-4.056
X7.148Y-4.331
X7.283Y-4.196
X7.7278Y-5.7052
T6
X3.518Y-4.811
X3.518Y-4.861
X3.518Y-4.911
X3.518Y-4.961
X3.518Y-5.011
X3.518Y-5.061
X3.518Y-5.111
X3.518Y-5.161
X3.518Y-5.211
X3.518Y-5.261
X3.518Y-5.311
X3.518Y-5.361
X3.518Y-5.411
X3.568Y-4.811
X3.568Y-4.861
X3.568Y-4.911
X3.568Y-4.961
X3.568Y-5.011
X3.568Y-5.061
X3.568Y-5.111
X3.568Y-5.161
X3.568Y-5.211
X3.568Y-5.261
X3.568Y-5.311
X3.568Y-5.361
X3.568Y-5.411
X6.458Y-5.6756
X6.458Y-5.7256
X6.508Y-5.6756
X6.508Y-5.7256
X6.558Y-5.6756
X6.558Y-5.7256
X6.608Y-5.6756
X6.608Y-5.7256
X6.658Y-5.6756
X6.658Y-5.7256
X6.708Y-5.6756
X6.708Y-5.7256
X6.758Y-5.6756
X6.758Y-5.7256
X6.808Y-5.6756
X6.808Y-5.7256
X6.858Y-5.6756
X6.858Y-5.7256
X6.908Y-5.6756
X6.908Y-5.7256
T7
X5.9249Y-5.7215
X6.0036Y-5.7215
X6.0824Y-5.7215
X6.1611Y-5.7215
T9
X5.908Y-4.356
X7.1537Y-3.9293
T10
X7.5029Y-4.6548
X7.5029Y-4.7532
X7.5817Y-4.6548
X7.5817Y-4.7532
T12
X7.201Y-5.916
X7.301Y-5.916
X7.401Y-5.916
X7.501Y-5.916
T13
X3.593Y-4.201
X3.593Y-4.401
X3.918Y-3.976
X4.118Y-3.976
X4.318Y-3.976
X4.518Y-3.976
X4.718Y-3.976
X4.918Y-3.976
T14
X4.9902Y-5.7485
X5.128Y-5.7485
T15
X5.1587Y-4.2789
X5.3146Y-4.2789
T16
X7.6884Y-4.467
X7.6884Y-4.941
T8
G00X7.6379Y-3.9314
M15
G01X7.7281Y-3.9314
M16
G05
G00X7.811Y-4.1611
M15
G01X7.811Y-4.0709
M16
G05
T11
G00X7.5765Y-4.166
M15
G01X7.5765Y-4.066
M16
G05
T0
M30
