%TF.GenerationSoftware,KiCad,Pcbnew,7.0.1*%
%TF.CreationDate,2023-06-09T14:16:40-07:00*%
%TF.ProjectId,Engine-Controller,456e6769-6e65-42d4-936f-6e74726f6c6c,1.0*%
%TF.SameCoordinates,Original*%
%TF.FileFunction,Copper,L1,Top*%
%TF.FilePolarity,Positive*%
%FSLAX46Y46*%
G04 Gerber Fmt 4.6, Leading zero omitted, Abs format (unit mm)*
G04 Created by KiCad (PCBNEW 7.0.1) date 2023-06-09 14:16:40*
%MOMM*%
%LPD*%
G01*
G04 APERTURE LIST*
G04 Aperture macros list*
%AMRoundRect*
0 Rectangle with rounded corners*
0 $1 Rounding radius*
0 $2 $3 $4 $5 $6 $7 $8 $9 X,Y pos of 4 corners*
0 Add a 4 corners polygon primitive as box body*
4,1,4,$2,$3,$4,$5,$6,$7,$8,$9,$2,$3,0*
0 Add four circle primitives for the rounded corners*
1,1,$1+$1,$2,$3*
1,1,$1+$1,$4,$5*
1,1,$1+$1,$6,$7*
1,1,$1+$1,$8,$9*
0 Add four rect primitives between the rounded corners*
20,1,$1+$1,$2,$3,$4,$5,0*
20,1,$1+$1,$4,$5,$6,$7,0*
20,1,$1+$1,$6,$7,$8,$9,0*
20,1,$1+$1,$8,$9,$2,$3,0*%
G04 Aperture macros list end*
%TA.AperFunction,SMDPad,CuDef*%
%ADD10RoundRect,0.012800X-0.392200X-0.147200X0.392200X-0.147200X0.392200X0.147200X-0.392200X0.147200X0*%
%TD*%
%TA.AperFunction,SMDPad,CuDef*%
%ADD11RoundRect,0.012800X0.147200X-0.392200X0.147200X0.392200X-0.147200X0.392200X-0.147200X-0.392200X0*%
%TD*%
%TA.AperFunction,ComponentPad*%
%ADD12C,0.500000*%
%TD*%
%TA.AperFunction,SMDPad,CuDef*%
%ADD13R,3.250000X3.250000*%
%TD*%
%TA.AperFunction,ComponentPad*%
%ADD14C,1.066800*%
%TD*%
%TA.AperFunction,ComponentPad*%
%ADD15C,3.810000*%
%TD*%
%TA.AperFunction,ComponentPad*%
%ADD16C,1.270000*%
%TD*%
%TA.AperFunction,SMDPad,CuDef*%
%ADD17R,1.000000X1.100000*%
%TD*%
%TA.AperFunction,SMDPad,CuDef*%
%ADD18R,1.020000X0.940000*%
%TD*%
%TA.AperFunction,SMDPad,CuDef*%
%ADD19R,0.965200X1.295400*%
%TD*%
%TA.AperFunction,SMDPad,CuDef*%
%ADD20R,0.410000X1.570000*%
%TD*%
%TA.AperFunction,SMDPad,CuDef*%
%ADD21R,0.355600X1.384300*%
%TD*%
%TA.AperFunction,ComponentPad*%
%ADD22R,1.478000X1.478000*%
%TD*%
%TA.AperFunction,ComponentPad*%
%ADD23C,1.478000*%
%TD*%
%TA.AperFunction,ComponentPad*%
%ADD24C,3.366000*%
%TD*%
%TA.AperFunction,SMDPad,CuDef*%
%ADD25R,1.524000X0.558800*%
%TD*%
%TA.AperFunction,SMDPad,CuDef*%
%ADD26R,0.558800X1.320800*%
%TD*%
%TA.AperFunction,SMDPad,CuDef*%
%ADD27R,3.500000X3.500000*%
%TD*%
%TA.AperFunction,SMDPad,CuDef*%
%ADD28R,0.979300X0.558800*%
%TD*%
%TA.AperFunction,SMDPad,CuDef*%
%ADD29R,1.041400X0.584200*%
%TD*%
%TA.AperFunction,SMDPad,CuDef*%
%ADD30R,0.584200X1.041400*%
%TD*%
%TA.AperFunction,SMDPad,CuDef*%
%ADD31R,0.920000X1.380000*%
%TD*%
%TA.AperFunction,SMDPad,CuDef*%
%ADD32R,1.380000X0.920000*%
%TD*%
%TA.AperFunction,SMDPad,CuDef*%
%ADD33R,0.838200X0.457200*%
%TD*%
%TA.AperFunction,SMDPad,CuDef*%
%ADD34R,0.406400X0.952500*%
%TD*%
%TA.AperFunction,SMDPad,CuDef*%
%ADD35R,1.700000X0.990600*%
%TD*%
%TA.AperFunction,SMDPad,CuDef*%
%ADD36R,1.400000X0.620000*%
%TD*%
%TA.AperFunction,SMDPad,CuDef*%
%ADD37R,2.400000X1.100000*%
%TD*%
%TA.AperFunction,SMDPad,CuDef*%
%ADD38R,2.150000X0.950000*%
%TD*%
%TA.AperFunction,SMDPad,CuDef*%
%ADD39R,2.150000X3.250000*%
%TD*%
%TA.AperFunction,SMDPad,CuDef*%
%ADD40R,1.550000X0.600000*%
%TD*%
%TA.AperFunction,SMDPad,CuDef*%
%ADD41R,1.600000X3.200000*%
%TD*%
%TA.AperFunction,SMDPad,CuDef*%
%ADD42R,3.200000X1.600000*%
%TD*%
%TA.AperFunction,SMDPad,CuDef*%
%ADD43R,2.000000X4.000000*%
%TD*%
%TA.AperFunction,SMDPad,CuDef*%
%ADD44R,1.300000X1.100000*%
%TD*%
%TA.AperFunction,SMDPad,CuDef*%
%ADD45R,0.900000X0.254000*%
%TD*%
%TA.AperFunction,SMDPad,CuDef*%
%ADD46R,0.254000X0.900000*%
%TD*%
%TA.AperFunction,SMDPad,CuDef*%
%ADD47R,3.100000X3.100000*%
%TD*%
%TA.AperFunction,SMDPad,CuDef*%
%ADD48R,1.000000X0.800000*%
%TD*%
%TA.AperFunction,SMDPad,CuDef*%
%ADD49R,1.100000X1.000000*%
%TD*%
%TA.AperFunction,SMDPad,CuDef*%
%ADD50R,1.981200X0.558800*%
%TD*%
%TA.AperFunction,SMDPad,CuDef*%
%ADD51R,0.558800X1.981200*%
%TD*%
%TA.AperFunction,ComponentPad*%
%ADD52R,1.008000X1.008000*%
%TD*%
%TA.AperFunction,ComponentPad*%
%ADD53C,1.008000*%
%TD*%
%TA.AperFunction,ComponentPad*%
%ADD54R,2.050000X2.050000*%
%TD*%
%TA.AperFunction,ComponentPad*%
%ADD55C,2.050000*%
%TD*%
%TA.AperFunction,ComponentPad*%
%ADD56R,1.650000X1.650000*%
%TD*%
%TA.AperFunction,ComponentPad*%
%ADD57C,1.650000*%
%TD*%
%TA.AperFunction,ComponentPad*%
%ADD58R,1.258000X1.258000*%
%TD*%
%TA.AperFunction,ComponentPad*%
%ADD59C,1.258000*%
%TD*%
%TA.AperFunction,ComponentPad*%
%ADD60O,2.200000X4.400000*%
%TD*%
%TA.AperFunction,ComponentPad*%
%ADD61O,1.900000X3.800000*%
%TD*%
%TA.AperFunction,ComponentPad*%
%ADD62O,3.800000X1.900000*%
%TD*%
%TA.AperFunction,SMDPad,CuDef*%
%ADD63R,1.460500X0.558800*%
%TD*%
%TA.AperFunction,SMDPad,CuDef*%
%ADD64R,0.940000X1.020000*%
%TD*%
%TA.AperFunction,SMDPad,CuDef*%
%ADD65R,1.295400X0.558800*%
%TD*%
%TA.AperFunction,SMDPad,CuDef*%
%ADD66R,1.778000X1.270000*%
%TD*%
%TA.AperFunction,SMDPad,CuDef*%
%ADD67R,1.560000X0.280000*%
%TD*%
%TA.AperFunction,SMDPad,CuDef*%
%ADD68R,0.280000X1.560000*%
%TD*%
%TA.AperFunction,ComponentPad*%
%ADD69R,1.605000X1.605000*%
%TD*%
%TA.AperFunction,ComponentPad*%
%ADD70C,1.605000*%
%TD*%
%TA.AperFunction,ViaPad*%
%ADD71C,0.500000*%
%TD*%
%TA.AperFunction,ViaPad*%
%ADD72C,1.016000*%
%TD*%
%TA.AperFunction,ViaPad*%
%ADD73C,0.762000*%
%TD*%
%TA.AperFunction,ViaPad*%
%ADD74C,1.270000*%
%TD*%
%TA.AperFunction,Conductor*%
%ADD75C,0.254000*%
%TD*%
%TA.AperFunction,Conductor*%
%ADD76C,0.177800*%
%TD*%
%TA.AperFunction,Conductor*%
%ADD77C,0.508000*%
%TD*%
%TA.AperFunction,Conductor*%
%ADD78C,0.381000*%
%TD*%
%TA.AperFunction,Conductor*%
%ADD79C,0.762000*%
%TD*%
G04 APERTURE END LIST*
D10*
%TO.P,U14,1,GND*%
%TO.N,Earth*%
X147359200Y-135504400D03*
%TO.P,U14,2,Vin+*%
%TO.N,/Sensors/TC+*%
X147359200Y-136154400D03*
%TO.P,U14,3,GND*%
%TO.N,Earth*%
X147359200Y-136804400D03*
%TO.P,U14,4,Vin-*%
%TO.N,/Sensors/TC-*%
X147359200Y-137454400D03*
%TO.P,U14,5,GND*%
%TO.N,Earth*%
X147359200Y-138104400D03*
D11*
%TO.P,U14,6,Vsense*%
%TO.N,/Sensors/TC+*%
X148509200Y-139254400D03*
%TO.P,U14,7,SCalert*%
%TO.N,TC_SC*%
X149159200Y-139254400D03*
%TO.P,U14,8,VDD*%
%TO.N,3.3V*%
X149809200Y-139254400D03*
%TO.P,U14,9,OCalert*%
%TO.N,TC_OC*%
X150459200Y-139254400D03*
%TO.P,U14,10,GND*%
%TO.N,Earth*%
X151109200Y-139254400D03*
D10*
%TO.P,U14,11,Alert1*%
%TO.N,TC_ALERT*%
X152259200Y-138104400D03*
%TO.P,U14,12,Alert2*%
%TO.N,unconnected-(U14-Alert2-Pad12)*%
X152259200Y-137454400D03*
%TO.P,U14,13,GND*%
%TO.N,Earth*%
X152259200Y-136804400D03*
%TO.P,U14,14,Alert3*%
%TO.N,unconnected-(U14-Alert3-Pad14)*%
X152259200Y-136154400D03*
%TO.P,U14,15,Alert4*%
%TO.N,unconnected-(U14-Alert4-Pad15)*%
X152259200Y-135504400D03*
D11*
%TO.P,U14,16,ADDR*%
%TO.N,Earth*%
X151109200Y-134354400D03*
%TO.P,U14,17,GND*%
X150459200Y-134354400D03*
%TO.P,U14,18,GND*%
X149809200Y-134354400D03*
%TO.P,U14,19,SCL*%
%TO.N,SCL*%
X149159200Y-134354400D03*
%TO.P,U14,20,SDA*%
%TO.N,SDA*%
X148509200Y-134354400D03*
D12*
%TO.P,U14,21,GND*%
%TO.N,Earth*%
X148809200Y-135804400D03*
X148809200Y-136804400D03*
X148809200Y-137804400D03*
X149809200Y-135804400D03*
X149809200Y-136804400D03*
D13*
X149809200Y-136804400D03*
D12*
X149809200Y-137804400D03*
X150809200Y-135804400D03*
X150809200Y-136804400D03*
X150809200Y-137804400D03*
%TD*%
D14*
%TO.P,P8,1,1*%
%TO.N,5V*%
X116001800Y-147523200D03*
%TO.P,P8,2,2*%
X116001800Y-148793200D03*
%TO.P,P8,3,3*%
%TO.N,VIN*%
X114731800Y-147523200D03*
%TO.P,P8,4,4*%
X114731800Y-148793200D03*
%TO.P,P8,5,5*%
%TO.N,PT1+*%
X113461800Y-147523200D03*
%TO.P,P8,6,6*%
%TO.N,PT1-*%
X113461800Y-148793200D03*
%TO.P,P8,7,7*%
%TO.N,PT2+*%
X112191800Y-147523200D03*
%TO.P,P8,8,8*%
%TO.N,PT2-*%
X112191800Y-148793200D03*
%TO.P,P8,9,9*%
%TO.N,PT3+*%
X110921800Y-147523200D03*
%TO.P,P8,10,10*%
%TO.N,PT3-*%
X110921800Y-148793200D03*
%TO.P,P8,11,11*%
%TO.N,PT4+*%
X109651800Y-147523200D03*
%TO.P,P8,12,12*%
%TO.N,PT4-*%
X109651800Y-148793200D03*
%TO.P,P8,13,13*%
%TO.N,PT5+*%
X108381800Y-147523200D03*
%TO.P,P8,14,14*%
%TO.N,Earth*%
X108381800Y-148793200D03*
%TO.P,P8,15,15*%
%TO.N,PT6+*%
X107111800Y-147523200D03*
%TO.P,P8,16,16*%
%TO.N,Earth*%
X107111800Y-148793200D03*
%TO.P,P8,17,17*%
%TO.N,PT7+*%
X105841800Y-147523200D03*
%TO.P,P8,18,18*%
%TO.N,Earth*%
X105841800Y-148793200D03*
%TO.P,P8,19,19*%
%TO.N,PT8+*%
X104571800Y-147523200D03*
%TO.P,P8,20,20*%
%TO.N,Earth*%
X104571800Y-148793200D03*
%TO.P,P8,21,21*%
X103301800Y-147523200D03*
%TO.P,P8,22,22*%
X103301800Y-148793200D03*
%TO.P,P8,23,23*%
X102031800Y-147523200D03*
%TO.P,P8,24,24*%
X102031800Y-148793200D03*
%TO.P,P8,25,25*%
X100761800Y-147523200D03*
%TO.P,P8,26,26*%
X100761800Y-148793200D03*
%TD*%
D15*
%TO.P,P9,10*%
%TO.N,N/C*%
X94894400Y-127533400D03*
%TO.P,P9,9*%
X94894400Y-116103400D03*
D16*
%TO.P,P9,8*%
%TO.N,A*%
X103784400Y-126263400D03*
%TO.P,P9,7*%
%TO.N,B*%
X101244400Y-124993400D03*
%TO.P,P9,6*%
%TO.N,unconnected-(P9-Pad6)*%
X103784400Y-123723400D03*
%TO.P,P9,5*%
%TO.N,unconnected-(P9-Pad5)*%
X101244400Y-122453400D03*
%TO.P,P9,4*%
%TO.N,unconnected-(P9-Pad4)*%
X103784400Y-121183400D03*
%TO.P,P9,3*%
%TO.N,unconnected-(P9-Pad3)*%
X101244400Y-119913400D03*
%TO.P,P9,2*%
%TO.N,Y*%
X103784400Y-118643400D03*
%TO.P,P9,1*%
%TO.N,Z*%
X101244400Y-117373400D03*
%TD*%
D17*
%TO.P,C18,1*%
%TO.N,Earth*%
X106375200Y-109995600D03*
%TO.P,C18,2*%
%TO.N,FIRE*%
X106375200Y-111695600D03*
%TD*%
D18*
%TO.P,R7,1*%
%TO.N,FIRE*%
X108661200Y-111584800D03*
%TO.P,R7,2*%
%TO.N,Earth*%
X108661200Y-110004800D03*
%TD*%
D19*
%TO.P,D7,1,1*%
%TO.N,Earth*%
X168719500Y-113334800D03*
%TO.P,D7,2,2*%
%TO.N,Net-(D7-Pad2)*%
X165671500Y-113334800D03*
%TD*%
D20*
%TO.P,U6,1,STAT*%
%TO.N,5V_SRC*%
X144561200Y-100152400D03*
%TO.P,U6,2,D0*%
%TO.N,unconnected-(U6-D0-Pad2)*%
X143911200Y-100152400D03*
%TO.P,U6,3,D1*%
%TO.N,Earth*%
X143261200Y-100152400D03*
%TO.P,U6,4,ILIM*%
%TO.N,Net-(U6-ILIM)*%
X142611200Y-100152400D03*
%TO.P,U6,5,GND*%
%TO.N,Earth*%
X142611200Y-105892400D03*
%TO.P,U6,6,IN2*%
%TO.N,5V_USB*%
X143261200Y-105892400D03*
%TO.P,U6,7,OUT*%
%TO.N,5V*%
X143911200Y-105892400D03*
%TO.P,U6,8,IN1*%
%TO.N,5V_BUCK*%
X144561200Y-105892400D03*
%TD*%
D21*
%TO.P,U13,1,X4*%
%TO.N,unconnected-(U13-X4-Pad1)*%
X107890249Y-135494250D03*
%TO.P,U13,2,X6*%
%TO.N,unconnected-(U13-X6-Pad2)*%
X107240251Y-135494250D03*
%TO.P,U13,3,Y*%
%TO.N,PT-*%
X106590249Y-135494250D03*
%TO.P,U13,4,X7*%
%TO.N,unconnected-(U13-X7-Pad4)*%
X105940251Y-135494250D03*
%TO.P,U13,5,X5*%
%TO.N,unconnected-(U13-X5-Pad5)*%
X105290252Y-135494250D03*
%TO.P,U13,6,EN*%
%TO.N,Earth*%
X104640251Y-135494250D03*
%TO.P,U13,7*%
%TO.N,N/C*%
X103990252Y-135494250D03*
%TO.P,U13,8*%
%TO.N,Earth*%
X103340251Y-135494250D03*
%TO.P,U13,9,C*%
%TO.N,PT_MUX_C*%
X103340251Y-141374350D03*
%TO.P,U13,10,B*%
%TO.N,PT_MUX_B*%
X103990249Y-141374350D03*
%TO.P,U13,11,A*%
%TO.N,PT_MUX_A*%
X104640251Y-141374350D03*
%TO.P,U13,12,X3*%
%TO.N,PT4-*%
X105290249Y-141374350D03*
%TO.P,U13,13,X0*%
%TO.N,PT1-*%
X105940248Y-141374350D03*
%TO.P,U13,14,X1*%
%TO.N,PT2-*%
X106590249Y-141374350D03*
%TO.P,U13,15,X2*%
%TO.N,PT3-*%
X107240248Y-141374350D03*
%TO.P,U13,16*%
%TO.N,5V*%
X107890249Y-141374350D03*
%TD*%
%TO.P,U12,1,X4*%
%TO.N,unconnected-(U12-X4-Pad1)*%
X114113249Y-135341850D03*
%TO.P,U12,2,X6*%
%TO.N,unconnected-(U12-X6-Pad2)*%
X113463251Y-135341850D03*
%TO.P,U12,3,Y*%
%TO.N,PT+*%
X112813249Y-135341850D03*
%TO.P,U12,4,X7*%
%TO.N,unconnected-(U12-X7-Pad4)*%
X112163251Y-135341850D03*
%TO.P,U12,5,X5*%
%TO.N,unconnected-(U12-X5-Pad5)*%
X111513252Y-135341850D03*
%TO.P,U12,6,EN*%
%TO.N,Earth*%
X110863251Y-135341850D03*
%TO.P,U12,7*%
%TO.N,N/C*%
X110213252Y-135341850D03*
%TO.P,U12,8*%
%TO.N,Earth*%
X109563251Y-135341850D03*
%TO.P,U12,9,C*%
%TO.N,PT_MUX_C*%
X109563251Y-141221950D03*
%TO.P,U12,10,B*%
%TO.N,PT_MUX_B*%
X110213249Y-141221950D03*
%TO.P,U12,11,A*%
%TO.N,PT_MUX_A*%
X110863251Y-141221950D03*
%TO.P,U12,12,X3*%
%TO.N,PT4+*%
X111513249Y-141221950D03*
%TO.P,U12,13,X0*%
%TO.N,PT1+*%
X112163248Y-141221950D03*
%TO.P,U12,14,X1*%
%TO.N,PT2+*%
X112813249Y-141221950D03*
%TO.P,U12,15,X2*%
%TO.N,PT3+*%
X113463248Y-141221950D03*
%TO.P,U12,16*%
%TO.N,5V*%
X114113249Y-141221950D03*
%TD*%
D22*
%TO.P,P5,1,VCC*%
%TO.N,5V_USB*%
X190574500Y-118231600D03*
D23*
%TO.P,P5,2,D-*%
%TO.N,/Page2/D-*%
X190574500Y-120731600D03*
%TO.P,P5,3,D+*%
%TO.N,/Page2/D+*%
X192574500Y-120731600D03*
%TO.P,P5,4,GND*%
%TO.N,Earth*%
X192574500Y-118231600D03*
D24*
%TO.P,P5,S1,SHIELD*%
X195284500Y-125501600D03*
%TO.P,P5,S2,SHIELD*%
X195284500Y-113461600D03*
%TD*%
D19*
%TO.P,D3,1,1*%
%TO.N,Net-(D3-Pad1)*%
X182575200Y-113817400D03*
%TO.P,D3,2,2*%
%TO.N,3.3V*%
X185623200Y-113817400D03*
%TD*%
D25*
%TO.P,U4,1,\u002ACE*%
%TO.N,FLASH_SS*%
X178295300Y-132613400D03*
%TO.P,U4,2,SO*%
%TO.N,FLASH_MISO*%
X178295300Y-133883400D03*
%TO.P,U4,3,\u002AWP*%
%TO.N,FLASH_WP*%
X178295300Y-135153400D03*
%TO.P,U4,4,VSS*%
%TO.N,Earth*%
X178295300Y-136423400D03*
%TO.P,U4,5,SI*%
%TO.N,FLASH_MOSI*%
X185585100Y-136423400D03*
%TO.P,U4,6,SCK*%
%TO.N,FLASH_SCK*%
X185585100Y-135153400D03*
%TO.P,U4,7,\u002AHOLD*%
%TO.N,FLASH_HOLD*%
X185585100Y-133883400D03*
%TO.P,U4,8,VDD*%
%TO.N,3.3V*%
X185585100Y-132613400D03*
%TD*%
D26*
%TO.P,U11,1*%
%TO.N,E_CONT*%
X111779999Y-111760000D03*
%TO.P,U11,2,V-*%
%TO.N,Earth*%
X112730000Y-111760000D03*
%TO.P,U11,3,-*%
%TO.N,5V*%
X113680001Y-111760000D03*
%TO.P,U11,4,+*%
%TO.N,Net-(P2A-6)*%
X113680001Y-109372400D03*
%TO.P,U11,5,V+*%
%TO.N,VIN*%
X111779999Y-109372400D03*
%TD*%
D27*
%TO.P,L1,1*%
%TO.N,Net-(U2-SW)*%
X166324200Y-102006400D03*
%TO.P,L1,2*%
%TO.N,5V_BUCK*%
X157424200Y-102006400D03*
%TD*%
D28*
%TO.P,D8,1*%
%TO.N,/Page2/D-*%
X182562208Y-124068799D03*
%TO.P,D8,2*%
%TO.N,Earth*%
X182562208Y-125018800D03*
%TO.P,D8,3*%
%TO.N,/Page2/D+*%
X182562208Y-125968801D03*
%TO.P,D8,4*%
%TO.N,5V_USB*%
X185294104Y-125968801D03*
%TO.P,D8,5*%
%TO.N,unconnected-(D8-Pad5)*%
X185294104Y-124068799D03*
%TD*%
D19*
%TO.P,D9,1,1*%
%TO.N,Net-(D9-Pad1)*%
X133680200Y-127533400D03*
%TO.P,D9,2,2*%
%TO.N,A3.3V*%
X136728200Y-127533400D03*
%TD*%
%TO.P,D6,1,1*%
%TO.N,Earth*%
X187909200Y-108864400D03*
%TO.P,D6,2,2*%
%TO.N,Net-(D6-Pad2)*%
X184861200Y-108864400D03*
%TD*%
D29*
%TO.P,D4,1*%
%TO.N,VIN*%
X183718200Y-100799900D03*
%TO.P,D4,2*%
%TO.N,V_HEAD*%
X183718200Y-97116900D03*
%TD*%
D30*
%TO.P,D5,1*%
%TO.N,VIN*%
X185178700Y-104546400D03*
%TO.P,D5,2*%
%TO.N,Net-(D5-Pad2)*%
X188861700Y-104546400D03*
%TD*%
D31*
%TO.P,R19,1*%
%TO.N,Net-(U8--RG)*%
X120990400Y-127101600D03*
%TO.P,R19,2*%
%TO.N,Net-(U8-+RG)*%
X122900400Y-127101600D03*
%TD*%
D32*
%TO.P,R33,1*%
%TO.N,Net-(U15--RG)*%
X127076200Y-144414200D03*
%TO.P,R33,2*%
%TO.N,Net-(U15-+RG)*%
X127076200Y-142504200D03*
%TD*%
D33*
%TO.P,D2,1*%
%TO.N,Net-(U2-SW)*%
X170510200Y-100533200D03*
%TO.P,D2,2*%
%TO.N,Earth*%
X170510200Y-97891600D03*
%TD*%
D34*
%TO.P,Q1,1,G*%
%TO.N,FIRE*%
X102224799Y-112071150D03*
%TO.P,Q1,2,S*%
%TO.N,Earth*%
X103174800Y-112071150D03*
%TO.P,Q1,3*%
%TO.N,N/C*%
X104124801Y-112071150D03*
%TO.P,Q1,4*%
X104124801Y-109518450D03*
%TO.P,Q1,5,D*%
%TO.N,Net-(P2A-6)*%
X102224799Y-109518450D03*
%TD*%
D35*
%TO.P,B1,1,1*%
%TO.N,Net-(J1-B)*%
X146032200Y-130123999D03*
%TO.P,B1,2,2*%
%TO.N,unconnected-(B1-Pad2)*%
X140632200Y-130123999D03*
%TO.P,B1,3,3*%
%TO.N,NRST*%
X146032200Y-126924001D03*
%TO.P,B1,4,4*%
%TO.N,unconnected-(B1-Pad4)*%
X140632200Y-126924001D03*
%TD*%
D36*
%TO.P,P4,P1,DAT2*%
%TO.N,SD_DAT2*%
X189214600Y-134630800D03*
%TO.P,P4,P2,DAT3/CD*%
%TO.N,SD_DAT3*%
X189214600Y-135730800D03*
%TO.P,P4,P3,CMD*%
%TO.N,SD_CMD*%
X189214600Y-136830800D03*
%TO.P,P4,P4,VDD*%
%TO.N,3.3V*%
X189214600Y-137930800D03*
%TO.P,P4,P5,CLK*%
%TO.N,SD_CLK*%
X189214600Y-139030800D03*
%TO.P,P4,P6,VSS*%
%TO.N,Earth*%
X189214600Y-140130800D03*
%TO.P,P4,P7,DAT0*%
%TO.N,SD_DAT0*%
X189214600Y-141230800D03*
%TO.P,P4,P8,DAT1*%
%TO.N,SD_DAT1*%
X189214600Y-142330800D03*
%TO.P,P4,P9,DETECT*%
%TO.N,SD_DETECT*%
X189214600Y-143430800D03*
D37*
%TO.P,P4,SH1,SH1*%
%TO.N,Earth*%
X200214600Y-144810800D03*
%TO.P,P4,SH2,SH2*%
X191214600Y-144810800D03*
%TO.P,P4,SH3,SH3*%
X191214600Y-128660800D03*
%TO.P,P4,SH4,SH4*%
X200214600Y-128660800D03*
%TD*%
D38*
%TO.P,U3,1,GND*%
%TO.N,Earth*%
X143438200Y-115228400D03*
%TO.P,U3,2,VOUT*%
%TO.N,3.3V*%
X143438200Y-112928400D03*
D39*
X137638200Y-112928400D03*
D38*
%TO.P,U3,3,VIN*%
%TO.N,5V*%
X143438200Y-110628400D03*
%TD*%
%TO.P,U10,1,GND*%
%TO.N,Earth*%
X133765200Y-123483400D03*
%TO.P,U10,2,VOUT*%
%TO.N,A3.3V*%
X133765200Y-121183400D03*
D39*
X127965200Y-121183400D03*
D38*
%TO.P,U10,3,VIN*%
%TO.N,5V*%
X133765200Y-118883400D03*
%TD*%
D40*
%TO.P,U2,1,BOOT*%
%TO.N,Net-(U2-BOOT)*%
X173906200Y-107467400D03*
%TO.P,U2,2,SS*%
%TO.N,Net-(U2-SS)*%
X173906200Y-108737400D03*
%TO.P,U2,3,RT/SYNC*%
%TO.N,unconnected-(U2-RT{slash}SYNC-Pad3)*%
X173906200Y-110007400D03*
%TO.P,U2,4,FB*%
%TO.N,5V_BUCK*%
X173906200Y-111277400D03*
%TO.P,U2,5,EN*%
%TO.N,unconnected-(U2-EN-Pad5)*%
X179306200Y-111277400D03*
%TO.P,U2,6,GND*%
%TO.N,Earth*%
X179306200Y-110007400D03*
%TO.P,U2,7,VIN*%
%TO.N,VIN*%
X179306200Y-108737400D03*
%TO.P,U2,8,SW*%
%TO.N,Net-(U2-SW)*%
X179306200Y-107467400D03*
%TD*%
D41*
%TO.P,C29,1*%
%TO.N,5V*%
X118948200Y-142809600D03*
%TO.P,C29,2*%
%TO.N,Earth*%
X118948200Y-137809600D03*
%TD*%
D42*
%TO.P,C1,1*%
%TO.N,VIN*%
X178598200Y-99720400D03*
%TO.P,C1,2*%
%TO.N,Earth*%
X173598200Y-99720400D03*
%TD*%
D43*
%TO.P,C5,1*%
%TO.N,5V_BUCK*%
X150444200Y-106826400D03*
%TO.P,C5,2*%
%TO.N,Earth*%
X150444200Y-99726400D03*
%TD*%
D44*
%TO.P,Y1,1,1*%
%TO.N,OSC_IN*%
X146768200Y-122290000D03*
%TO.P,Y1,2*%
%TO.N,N/C*%
X144468200Y-122290000D03*
%TO.P,Y1,3,3*%
%TO.N,OSC_OUT*%
X144468200Y-124090000D03*
%TO.P,Y1,4*%
%TO.N,N/C*%
X146768200Y-124090000D03*
%TD*%
D45*
%TO.P,U5,1,DCD*%
%TO.N,unconnected-(U5-DCD-Pad1)*%
X180108600Y-126772800D03*
%TO.P,U5,2,RI*%
%TO.N,unconnected-(U5-RI-Pad2)*%
X180108600Y-126272800D03*
%TO.P,U5,3,GND*%
%TO.N,Earth*%
X180108600Y-125772800D03*
%TO.P,U5,4,D+*%
%TO.N,/Page2/D+*%
X180108600Y-125272800D03*
%TO.P,U5,5,D-*%
%TO.N,/Page2/D-*%
X180108600Y-124772800D03*
%TO.P,U5,6,VDD*%
%TO.N,unconnected-(U5-VDD-Pad6)*%
X180108600Y-124272800D03*
%TO.P,U5,7,REGIN*%
%TO.N,5V_USB*%
X180108600Y-123772800D03*
D46*
%TO.P,U5,8,VBUS*%
X179018600Y-122682800D03*
%TO.P,U5,9,~{RST}*%
%TO.N,~{USB_RST}*%
X178518600Y-122682800D03*
%TO.P,U5,10,NC*%
%TO.N,unconnected-(U5-NC-Pad10)*%
X178018600Y-122682800D03*
%TO.P,U5,11,~{SUSPEND}*%
%TO.N,~{USB_SUSPEND}*%
X177518600Y-122682800D03*
%TO.P,U5,12,SUSPEND*%
%TO.N,unconnected-(U5-SUSPEND-Pad12)*%
X177018600Y-122682800D03*
%TO.P,U5,13,NC@1*%
%TO.N,unconnected-(U5-NC@1-Pad13)*%
X176518600Y-122682800D03*
%TO.P,U5,14,NC@2*%
%TO.N,unconnected-(U5-NC@2-Pad14)*%
X176018600Y-122682800D03*
D45*
%TO.P,U5,15,NC@3*%
%TO.N,unconnected-(U5-NC@3-Pad15)*%
X174928600Y-123772800D03*
%TO.P,U5,16,NC@4*%
%TO.N,unconnected-(U5-NC@4-Pad16)*%
X174928600Y-124272800D03*
%TO.P,U5,17,NC@5*%
%TO.N,unconnected-(U5-NC@5-Pad17)*%
X174928600Y-124772800D03*
%TO.P,U5,18,NC/VPP*%
%TO.N,unconnected-(U5-NC{slash}VPP-Pad18)*%
X174928600Y-125272800D03*
%TO.P,U5,19,NC@6*%
%TO.N,unconnected-(U5-NC@6-Pad19)*%
X174928600Y-125772800D03*
%TO.P,U5,20,NC@7*%
%TO.N,unconnected-(U5-NC@7-Pad20)*%
X174928600Y-126272800D03*
%TO.P,U5,21,NC@8*%
%TO.N,unconnected-(U5-NC@8-Pad21)*%
X174928600Y-126772800D03*
D46*
%TO.P,U5,22,NC@9*%
%TO.N,unconnected-(U5-NC@9-Pad22)*%
X176018600Y-127862800D03*
%TO.P,U5,23,CTS*%
%TO.N,unconnected-(U5-CTS-Pad23)*%
X176518600Y-127862800D03*
%TO.P,U5,24,RTS*%
%TO.N,unconnected-(U5-RTS-Pad24)*%
X177018600Y-127862800D03*
%TO.P,U5,25,RXD*%
%TO.N,RX_USB*%
X177518600Y-127862800D03*
%TO.P,U5,26,TXD*%
%TO.N,TX_USB*%
X178018600Y-127862800D03*
%TO.P,U5,27,DSR*%
%TO.N,unconnected-(U5-DSR-Pad27)*%
X178518600Y-127862800D03*
%TO.P,U5,28,DTR*%
%TO.N,unconnected-(U5-DTR-Pad28)*%
X179018600Y-127862800D03*
D47*
%TO.P,U5,29,PAD*%
%TO.N,Earth*%
X177518600Y-125272800D03*
%TD*%
D48*
%TO.P,D1,1*%
%TO.N,3.3V*%
X182944200Y-142688400D03*
%TO.P,D1,2*%
%TO.N,Net-(D1-Pad2)*%
X181444200Y-142688400D03*
%TO.P,D1,3*%
%TO.N,Net-(D1-Pad3)*%
X181444200Y-141588400D03*
%TO.P,D1,4*%
%TO.N,Net-(D1-Pad4)*%
X182944200Y-141588400D03*
%TD*%
D49*
%TO.P,C4,1*%
%TO.N,Net-(U2-SW)*%
X174154200Y-104800400D03*
%TO.P,C4,2*%
%TO.N,Net-(U2-BOOT)*%
X172454200Y-104800400D03*
%TD*%
D17*
%TO.P,C3,1*%
%TO.N,Earth*%
X170256200Y-106490400D03*
%TO.P,C3,2*%
%TO.N,Net-(U2-SS)*%
X170256200Y-108190400D03*
%TD*%
D49*
%TO.P,C2,1*%
%TO.N,Earth*%
X181598200Y-103022400D03*
%TO.P,C2,2*%
%TO.N,VIN*%
X183298200Y-103022400D03*
%TD*%
%TO.P,C17,1*%
%TO.N,Earth*%
X156628200Y-108610400D03*
%TO.P,C17,2*%
%TO.N,5V_BUCK*%
X154928200Y-108610400D03*
%TD*%
D17*
%TO.P,C15,1*%
%TO.N,Earth*%
X146126200Y-109841400D03*
%TO.P,C15,2*%
%TO.N,5V_BUCK*%
X146126200Y-108141400D03*
%TD*%
D49*
%TO.P,C21,1*%
%TO.N,Earth*%
X156364200Y-135788400D03*
%TO.P,C21,2*%
%TO.N,3.3V*%
X158064200Y-135788400D03*
%TD*%
D17*
%TO.P,C10,1*%
%TO.N,Earth*%
X159982800Y-137425800D03*
%TO.P,C10,2*%
%TO.N,3.3V*%
X159982800Y-135725800D03*
%TD*%
%TO.P,C23,1*%
%TO.N,Earth*%
X166801800Y-137629000D03*
%TO.P,C23,2*%
%TO.N,CAP1*%
X166801800Y-135929000D03*
%TD*%
D49*
%TO.P,C14,1*%
%TO.N,Earth*%
X168644200Y-135788400D03*
%TO.P,C14,2*%
%TO.N,3.3V*%
X170344200Y-135788400D03*
%TD*%
D17*
%TO.P,C19,1*%
%TO.N,Earth*%
X183972200Y-118936400D03*
%TO.P,C19,2*%
%TO.N,5V_USB*%
X183972200Y-120636400D03*
%TD*%
%TO.P,C20,1*%
%TO.N,Earth*%
X181813200Y-118936400D03*
%TO.P,C20,2*%
%TO.N,5V_USB*%
X181813200Y-120636400D03*
%TD*%
D49*
%TO.P,C26,1*%
%TO.N,Earth*%
X174967000Y-120396000D03*
%TO.P,C26,2*%
%TO.N,CAP2*%
X173267000Y-120396000D03*
%TD*%
%TO.P,C11,1*%
%TO.N,Earth*%
X174916200Y-118516400D03*
%TO.P,C11,2*%
%TO.N,3.3V*%
X173216200Y-118516400D03*
%TD*%
D17*
%TO.P,C22,1*%
%TO.N,Earth*%
X155270200Y-114110400D03*
%TO.P,C22,2*%
%TO.N,3.3V*%
X155270200Y-115810400D03*
%TD*%
%TO.P,C34,1*%
%TO.N,OSC_OUT*%
X142062200Y-124040000D03*
%TO.P,C34,2*%
%TO.N,Earth*%
X142062200Y-122340000D03*
%TD*%
D49*
%TO.P,C33,1*%
%TO.N,OSC_IN*%
X146468200Y-120142000D03*
%TO.P,C33,2*%
%TO.N,Earth*%
X144768200Y-120142000D03*
%TD*%
%TO.P,C9,1*%
%TO.N,Earth*%
X150432400Y-123901200D03*
%TO.P,C9,2*%
%TO.N,3.3V*%
X152132400Y-123901200D03*
%TD*%
%TO.P,C12,1*%
%TO.N,Earth*%
X150381600Y-128092200D03*
%TO.P,C12,2*%
%TO.N,A3.3V*%
X152081600Y-128092200D03*
%TD*%
%TO.P,C13,1*%
%TO.N,Earth*%
X150381600Y-129946400D03*
%TO.P,C13,2*%
%TO.N,A3.3V*%
X152081600Y-129946400D03*
%TD*%
%TO.P,C31,1*%
%TO.N,Earth*%
X152437200Y-141249400D03*
%TO.P,C31,2*%
%TO.N,3.3V*%
X150737200Y-141249400D03*
%TD*%
%TO.P,C32,1*%
%TO.N,/Sensors/TC-*%
X139586600Y-140563600D03*
%TO.P,C32,2*%
%TO.N,/Sensors/TC+*%
X141286600Y-140563600D03*
%TD*%
D17*
%TO.P,C30,1*%
%TO.N,Earth*%
X123240800Y-148449400D03*
%TO.P,C30,2*%
%TO.N,5V*%
X123240800Y-146749400D03*
%TD*%
D49*
%TO.P,C24,1*%
%TO.N,Earth*%
X112738800Y-129159000D03*
%TO.P,C24,2*%
%TO.N,3.3V*%
X114438800Y-129159000D03*
%TD*%
D50*
%TO.P,U8,1,-RG*%
%TO.N,Net-(U8--RG)*%
X119481600Y-129743200D03*
%TO.P,U8,2,-IN*%
%TO.N,PT-*%
X119481600Y-131013200D03*
%TO.P,U8,3,+IN*%
%TO.N,PT+*%
X119481600Y-132283200D03*
%TO.P,U8,4,-VS*%
%TO.N,Earth*%
X119481600Y-133553200D03*
%TO.P,U8,5,REF*%
X124409200Y-133553200D03*
%TO.P,U8,6,OUT*%
%TO.N,PT*%
X124409200Y-132283200D03*
%TO.P,U8,7,+VS*%
%TO.N,5V*%
X124409200Y-131013200D03*
%TO.P,U8,8,+RG*%
%TO.N,Net-(U8-+RG)*%
X124409200Y-129743200D03*
%TD*%
D51*
%TO.P,U15,1,-RG*%
%TO.N,Net-(U15--RG)*%
X129311400Y-145999200D03*
%TO.P,U15,2,-IN*%
%TO.N,/Sensors/LC-*%
X130581400Y-145999200D03*
%TO.P,U15,3,+IN*%
%TO.N,/Sensors/LC+*%
X131851400Y-145999200D03*
%TO.P,U15,4,-VS*%
%TO.N,Earth*%
X133121400Y-145999200D03*
%TO.P,U15,5,REF*%
X133121400Y-141071600D03*
%TO.P,U15,6,OUT*%
%TO.N,LC*%
X131851400Y-141071600D03*
%TO.P,U15,7,+VS*%
%TO.N,5V*%
X130581400Y-141071600D03*
%TO.P,U15,8,+RG*%
%TO.N,Net-(U15-+RG)*%
X129311400Y-141071600D03*
%TD*%
D52*
%TO.P,P17,1,+12V*%
%TO.N,Earth*%
X132761200Y-149420500D03*
D53*
%TO.P,P17,2,GND*%
%TO.N,/Sensors/LC+*%
X131511200Y-149420500D03*
%TO.P,P17,3,3*%
%TO.N,/Sensors/LC-*%
X130261200Y-149420500D03*
%TO.P,P17,4,4*%
%TO.N,5V*%
X129011200Y-149420500D03*
%TD*%
D54*
%TO.P,P7,1,1*%
%TO.N,V_HEAD*%
X134991700Y-108682900D03*
D55*
%TO.P,P7,2,2*%
%TO.N,Earth*%
X131031700Y-108682900D03*
%TD*%
D56*
%TO.P,P2,1,5*%
%TO.N,VIN*%
X99847400Y-102412800D03*
D57*
%TO.P,P2,2,6*%
%TO.N,Net-(P2A-6)*%
X104927400Y-102412800D03*
%TO.P,P2,3,5*%
%TO.N,SP_CONT*%
X110007400Y-102412800D03*
%TO.P,P2,4,6*%
%TO.N,Earth*%
X115087400Y-102412800D03*
%TO.P,P2,5,5*%
%TO.N,NOZ_CONT*%
X120167400Y-102412800D03*
%TO.P,P2,6,6*%
%TO.N,Earth*%
X125247400Y-102412800D03*
%TD*%
D14*
%TO.P,P3,1,1*%
%TO.N,3.3V*%
X175463200Y-144159350D03*
%TO.P,P3,2,2*%
X175463200Y-145429350D03*
%TO.P,P3,3,3*%
%TO.N,Earth*%
X174193200Y-144159350D03*
%TO.P,P3,4,4*%
X174193200Y-145429350D03*
%TO.P,P3,5,5*%
X172923200Y-144159350D03*
%TO.P,P3,6,6*%
X172923200Y-145429350D03*
%TO.P,P3,7,7*%
%TO.N,SWDIO*%
X171653200Y-144159350D03*
%TO.P,P3,8,8*%
%TO.N,Earth*%
X171653200Y-145429350D03*
%TO.P,P3,9,9*%
%TO.N,SWCLK*%
X170383200Y-144159350D03*
%TO.P,P3,10,10*%
%TO.N,Earth*%
X170383200Y-145429350D03*
%TO.P,P3,11,11*%
%TO.N,unconnected-(P3-Pad11)*%
X169113200Y-144159350D03*
%TO.P,P3,12,12*%
%TO.N,Earth*%
X169113200Y-145429350D03*
%TO.P,P3,13,13*%
%TO.N,SWO*%
X167843200Y-144159350D03*
%TO.P,P3,14,14*%
%TO.N,Earth*%
X167843200Y-145429350D03*
%TO.P,P3,15,15*%
%TO.N,NRST*%
X166573200Y-144159350D03*
%TO.P,P3,16,16*%
%TO.N,Earth*%
X166573200Y-145429350D03*
%TO.P,P3,17,17*%
%TO.N,unconnected-(P3-Pad17)*%
X165303200Y-144159350D03*
%TO.P,P3,18,18*%
%TO.N,Earth*%
X165303200Y-145429350D03*
%TO.P,P3,19,19*%
%TO.N,unconnected-(P3-Pad19)*%
X164033200Y-144159350D03*
%TO.P,P3,20,20*%
%TO.N,Earth*%
X164033200Y-145429350D03*
%TD*%
D58*
%TO.P,P6,1,+12V*%
%TO.N,Earth*%
X150492200Y-145326400D03*
D59*
%TO.P,P6,2,GND*%
%TO.N,ValveCtrl_RX*%
X152492200Y-145326400D03*
%TO.P,P6,3,3*%
%TO.N,ValveCtrl_TX*%
X154492200Y-145326400D03*
%TO.P,P6,4,4*%
%TO.N,5V*%
X156492200Y-145326400D03*
%TD*%
D60*
%TO.P,P1,1*%
%TO.N,Net-(D5-Pad2)*%
X192443200Y-104546400D03*
D61*
%TO.P,P1,2*%
%TO.N,Earth*%
X198398200Y-104546400D03*
D62*
%TO.P,P1,3,MountPin*%
X195148200Y-99856400D03*
%TD*%
D56*
%TO.P,P11,1,5*%
%TO.N,/Sensors/TC+*%
X138709400Y-146685000D03*
D57*
%TO.P,P11,2,6*%
%TO.N,/Sensors/TC-*%
X143789400Y-146685000D03*
%TD*%
D63*
%TO.P,U7,1,VCC*%
%TO.N,3.3V*%
X116331858Y-127152400D03*
%TO.P,U7,2,R*%
%TO.N,RS485_RX*%
X116331858Y-125882400D03*
%TO.P,U7,3,D*%
%TO.N,RS485_TX*%
X116331858Y-124612400D03*
%TO.P,U7,4,GND*%
%TO.N,Earth*%
X116331858Y-123342400D03*
%TO.P,U7,5,Y*%
%TO.N,Net-(U7-Y)*%
X110883558Y-123342400D03*
%TO.P,U7,6,Z*%
%TO.N,Net-(U7-Z)*%
X110883558Y-124612400D03*
%TO.P,U7,7,B*%
%TO.N,Net-(U7-B)*%
X110883558Y-125882400D03*
%TO.P,U7,8,A*%
%TO.N,Net-(U7-A)*%
X110883558Y-127152400D03*
%TD*%
D18*
%TO.P,R27,1*%
%TO.N,Y*%
X111277400Y-119027000D03*
%TO.P,R27,2*%
%TO.N,Z*%
X111277400Y-117447000D03*
%TD*%
%TO.P,R26,1*%
%TO.N,B*%
X95148400Y-133042600D03*
%TO.P,R26,2*%
%TO.N,A*%
X95148400Y-134622600D03*
%TD*%
D64*
%TO.P,R25,1*%
%TO.N,Net-(U7-Y)*%
X114912200Y-118897400D03*
%TO.P,R25,2*%
%TO.N,Y*%
X113332200Y-118897400D03*
%TD*%
%TO.P,R24,1*%
%TO.N,Net-(U7-Z)*%
X114861400Y-116814600D03*
%TO.P,R24,2*%
%TO.N,Z*%
X113281400Y-116814600D03*
%TD*%
%TO.P,R23,1*%
%TO.N,Net-(U7-B)*%
X99316600Y-131978400D03*
%TO.P,R23,2*%
%TO.N,B*%
X97736600Y-131978400D03*
%TD*%
%TO.P,R22,1*%
%TO.N,Net-(U7-A)*%
X99265800Y-134010400D03*
%TO.P,R22,2*%
%TO.N,A*%
X97685800Y-134010400D03*
%TD*%
D65*
%TO.P,D11,1*%
%TO.N,Y*%
X108978700Y-119161601D03*
%TO.P,D11,2*%
%TO.N,Z*%
X108978700Y-117261599D03*
%TO.P,D11,3*%
%TO.N,Earth*%
X107073700Y-118211600D03*
%TD*%
%TO.P,D10,1*%
%TO.N,A*%
X92824300Y-134757201D03*
%TO.P,D10,2*%
%TO.N,B*%
X92824300Y-132857199D03*
%TO.P,D10,3*%
%TO.N,Earth*%
X90919300Y-133807200D03*
%TD*%
D66*
%TO.P,C6,1,1*%
%TO.N,5V*%
X147904200Y-112623600D03*
%TO.P,C6,2,2*%
%TO.N,Earth*%
X147904200Y-115265200D03*
%TD*%
%TO.P,C7,1,1*%
%TO.N,3.3V*%
X134442200Y-114249200D03*
%TO.P,C7,2,2*%
%TO.N,Earth*%
X134442200Y-111607600D03*
%TD*%
D17*
%TO.P,C8,1*%
%TO.N,Earth*%
X148259800Y-129882000D03*
%TO.P,C8,2*%
%TO.N,NRST*%
X148259800Y-128182000D03*
%TD*%
D49*
%TO.P,C16,1*%
%TO.N,Earth*%
X138926200Y-106070400D03*
%TO.P,C16,2*%
%TO.N,5V_USB*%
X140626200Y-106070400D03*
%TD*%
D64*
%TO.P,R8,1*%
%TO.N,5V_SRC*%
X143995200Y-97942400D03*
%TO.P,R8,2*%
%TO.N,3.3V*%
X142415200Y-97942400D03*
%TD*%
%TO.P,R9,1*%
%TO.N,Net-(U6-ILIM)*%
X140312200Y-104292400D03*
%TO.P,R9,2*%
%TO.N,Earth*%
X138732200Y-104292400D03*
%TD*%
%TO.P,R5,1*%
%TO.N,Net-(D3-Pad1)*%
X177777200Y-115468400D03*
%TO.P,R5,2*%
%TO.N,Earth*%
X176197200Y-115468400D03*
%TD*%
%TO.P,R2,1*%
%TO.N,VIN*%
X176324200Y-113182400D03*
%TO.P,R2,2*%
%TO.N,Net-(D6-Pad2)*%
X177904200Y-113182400D03*
%TD*%
D18*
%TO.P,R3,1*%
%TO.N,5V_BUCK*%
X163093400Y-111417100D03*
%TO.P,R3,2*%
%TO.N,Net-(D7-Pad2)*%
X163093400Y-112997100D03*
%TD*%
D67*
%TO.P,U1,1,PE2*%
%TO.N,unconnected-(U1-PE2-Pad1)*%
X154956200Y-119628400D03*
%TO.P,U1,2,PE3*%
%TO.N,unconnected-(U1-PE3-Pad2)*%
X154956200Y-120128400D03*
%TO.P,U1,3,PE4*%
%TO.N,FIRE*%
X154956200Y-120628400D03*
%TO.P,U1,4,PE5*%
%TO.N,unconnected-(U1-PE5-Pad4)*%
X154956200Y-121128400D03*
%TO.P,U1,5,PE6*%
%TO.N,unconnected-(U1-PE6-Pad5)*%
X154956200Y-121628400D03*
%TO.P,U1,6,VBAT*%
%TO.N,unconnected-(U1-VBAT-Pad6)*%
X154956200Y-122128400D03*
%TO.P,U1,7,PC13*%
%TO.N,unconnected-(U1-PC13-Pad7)*%
X154956200Y-122628400D03*
%TO.P,U1,8,PC14*%
%TO.N,unconnected-(U1-PC14-Pad8)*%
X154956200Y-123128400D03*
%TO.P,U1,9,PC15*%
%TO.N,unconnected-(U1-PC15-Pad9)*%
X154956200Y-123628400D03*
%TO.P,U1,10,VSS*%
%TO.N,Earth*%
X154956200Y-124128400D03*
%TO.P,U1,11,VDD*%
%TO.N,3.3V*%
X154956200Y-124628400D03*
%TO.P,U1,12,PH0*%
%TO.N,OSC_IN*%
X154956200Y-125128400D03*
%TO.P,U1,13,PH1*%
%TO.N,OSC_OUT*%
X154956200Y-125628400D03*
%TO.P,U1,14,NRST*%
%TO.N,NRST*%
X154956200Y-126128400D03*
%TO.P,U1,15,PC0*%
%TO.N,PT*%
X154956200Y-126628400D03*
%TO.P,U1,16,PC1*%
%TO.N,LC*%
X154956200Y-127128400D03*
%TO.P,U1,17,PC2_C*%
%TO.N,PT5+*%
X154956200Y-127628400D03*
%TO.P,U1,18,PC3_C*%
%TO.N,PT6+*%
X154956200Y-128128400D03*
%TO.P,U1,19,VSSA*%
%TO.N,Earth*%
X154956200Y-128628400D03*
%TO.P,U1,20,VREF+*%
%TO.N,A3.3V*%
X154956200Y-129128400D03*
%TO.P,U1,21,VDDA*%
X154956200Y-129628400D03*
%TO.P,U1,22,PA0*%
%TO.N,RS485_TX*%
X154956200Y-130128400D03*
%TO.P,U1,23,PA1*%
%TO.N,RS485_RX*%
X154956200Y-130628400D03*
%TO.P,U1,24,PA2*%
%TO.N,ValveCtrl_RX*%
X154956200Y-131128400D03*
%TO.P,U1,25,PA3*%
%TO.N,ValveCtrl_TX*%
X154956200Y-131628400D03*
D68*
%TO.P,U1,26,VSS*%
%TO.N,Earth*%
X156636200Y-133308400D03*
%TO.P,U1,27,VDD*%
%TO.N,3.3V*%
X157136200Y-133308400D03*
%TO.P,U1,28,PA4*%
%TO.N,unconnected-(U1-PA4-Pad28)*%
X157636200Y-133308400D03*
%TO.P,U1,29,PA5*%
%TO.N,unconnected-(U1-PA5-Pad29)*%
X158136200Y-133308400D03*
%TO.P,U1,30,PA6*%
%TO.N,unconnected-(U1-PA6-Pad30)*%
X158636200Y-133308400D03*
%TO.P,U1,31,PA7*%
%TO.N,unconnected-(U1-PA7-Pad31)*%
X159136200Y-133308400D03*
%TO.P,U1,32,PC4*%
%TO.N,PT7+*%
X159636200Y-133308400D03*
%TO.P,U1,33,PC5*%
%TO.N,PT8+*%
X160136200Y-133308400D03*
%TO.P,U1,34,PB0*%
%TO.N,unconnected-(U1-PB0-Pad34)*%
X160636200Y-133308400D03*
%TO.P,U1,35,PB1*%
%TO.N,unconnected-(U1-PB1-Pad35)*%
X161136200Y-133308400D03*
%TO.P,U1,36,PB2*%
%TO.N,unconnected-(U1-PB2-Pad36)*%
X161636200Y-133308400D03*
%TO.P,U1,37,PE7*%
%TO.N,E_CONT*%
X162136200Y-133308400D03*
%TO.P,U1,38,PE8*%
%TO.N,NOZ_CONT*%
X162636200Y-133308400D03*
%TO.P,U1,39,PE9*%
%TO.N,SP_CONT*%
X163136200Y-133308400D03*
%TO.P,U1,40,PE10*%
%TO.N,STATUS_R*%
X163636200Y-133308400D03*
%TO.P,U1,41,PE11*%
%TO.N,STATUS_G*%
X164136200Y-133308400D03*
%TO.P,U1,42,PE12*%
%TO.N,STATUS_B*%
X164636200Y-133308400D03*
%TO.P,U1,43,PE13*%
%TO.N,TC_ALERT*%
X165136200Y-133308400D03*
%TO.P,U1,44,PE14*%
%TO.N,TC_OC*%
X165636200Y-133308400D03*
%TO.P,U1,45,PE15*%
%TO.N,TC_SC*%
X166136200Y-133308400D03*
%TO.P,U1,46,PB10*%
%TO.N,FLASH_SCK*%
X166636200Y-133308400D03*
%TO.P,U1,47,PB11*%
%TO.N,unconnected-(U1-PB11-Pad47)*%
X167136200Y-133308400D03*
%TO.P,U1,48,VCAP1*%
%TO.N,CAP1*%
X167636200Y-133308400D03*
%TO.P,U1,49,VSS*%
%TO.N,Earth*%
X168136200Y-133308400D03*
%TO.P,U1,50,VDD*%
%TO.N,3.3V*%
X168636200Y-133308400D03*
D67*
%TO.P,U1,51,PB12*%
%TO.N,FLASH_SS*%
X170316200Y-131628400D03*
%TO.P,U1,52,PB13*%
%TO.N,SD_DETECT*%
X170316200Y-131128400D03*
%TO.P,U1,53,PB14*%
%TO.N,FLASH_MISO*%
X170316200Y-130628400D03*
%TO.P,U1,54,PB15*%
%TO.N,FLASH_MOSI*%
X170316200Y-130128400D03*
%TO.P,U1,55,PD8*%
%TO.N,unconnected-(U1-PD8-Pad55)*%
X170316200Y-129628400D03*
%TO.P,U1,56,PD9*%
%TO.N,PT_MUX_A*%
X170316200Y-129128400D03*
%TO.P,U1,57,PD10*%
%TO.N,PT_MUX_B*%
X170316200Y-128628400D03*
%TO.P,U1,58,PD11*%
%TO.N,PT_MUX_C*%
X170316200Y-128128400D03*
%TO.P,U1,59,PD12*%
%TO.N,FLASH_WP*%
X170316200Y-127628400D03*
%TO.P,U1,60,PD13*%
%TO.N,FLASH_HOLD*%
X170316200Y-127128400D03*
%TO.P,U1,61,PD14*%
%TO.N,unconnected-(U1-PD14-Pad61)*%
X170316200Y-126628400D03*
%TO.P,U1,62,PD15*%
%TO.N,unconnected-(U1-PD15-Pad62)*%
X170316200Y-126128400D03*
%TO.P,U1,63,PC6*%
%TO.N,~{USB_SUSPEND}*%
X170316200Y-125628400D03*
%TO.P,U1,64,PC7*%
%TO.N,~{USB_RST}*%
X170316200Y-125128400D03*
%TO.P,U1,65,PC8*%
%TO.N,SD_DAT0*%
X170316200Y-124628400D03*
%TO.P,U1,66,PC9*%
%TO.N,SD_DAT1*%
X170316200Y-124128400D03*
%TO.P,U1,67,PA8*%
%TO.N,unconnected-(U1-PA8-Pad67)*%
X170316200Y-123628400D03*
%TO.P,U1,68,PA9*%
%TO.N,RX_USB*%
X170316200Y-123128400D03*
%TO.P,U1,69,PA10*%
%TO.N,TX_USB*%
X170316200Y-122628400D03*
%TO.P,U1,70,PA11*%
%TO.N,unconnected-(U1-PA11-Pad70)*%
X170316200Y-122128400D03*
%TO.P,U1,71,PA12*%
%TO.N,unconnected-(U1-PA12-Pad71)*%
X170316200Y-121628400D03*
%TO.P,U1,72,PA13*%
%TO.N,SWDIO*%
X170316200Y-121128400D03*
%TO.P,U1,73,VCAP2*%
%TO.N,CAP2*%
X170316200Y-120628400D03*
%TO.P,U1,74,VSS*%
%TO.N,Earth*%
X170316200Y-120128400D03*
%TO.P,U1,75,VDD*%
%TO.N,3.3V*%
X170316200Y-119628400D03*
D68*
%TO.P,U1,76,PA14*%
%TO.N,SWCLK*%
X168636200Y-117948400D03*
%TO.P,U1,77,PA15*%
%TO.N,unconnected-(U1-PA15-Pad77)*%
X168136200Y-117948400D03*
%TO.P,U1,78,PC10*%
%TO.N,SD_DAT2*%
X167636200Y-117948400D03*
%TO.P,U1,79,PC11*%
%TO.N,SD_DAT3*%
X167136200Y-117948400D03*
%TO.P,U1,80,PC12*%
%TO.N,SD_CLK*%
X166636200Y-117948400D03*
%TO.P,U1,81,PD0*%
%TO.N,USB_DETECT*%
X166136200Y-117948400D03*
%TO.P,U1,82,PD1*%
%TO.N,unconnected-(U1-PD1-Pad82)*%
X165636200Y-117948400D03*
%TO.P,U1,83,PD2*%
%TO.N,SD_CMD*%
X165136200Y-117948400D03*
%TO.P,U1,84,PD3*%
%TO.N,unconnected-(U1-PD3-Pad84)*%
X164636200Y-117948400D03*
%TO.P,U1,85,PD4*%
%TO.N,unconnected-(U1-PD4-Pad85)*%
X164136200Y-117948400D03*
%TO.P,U1,86,PD5*%
%TO.N,unconnected-(U1-PD5-Pad86)*%
X163636200Y-117948400D03*
%TO.P,U1,87,PD6*%
%TO.N,unconnected-(U1-PD6-Pad87)*%
X163136200Y-117948400D03*
%TO.P,U1,88,PD7*%
%TO.N,unconnected-(U1-PD7-Pad88)*%
X162636200Y-117948400D03*
%TO.P,U1,89,PB3*%
%TO.N,SWO*%
X162136200Y-117948400D03*
%TO.P,U1,90,PB4*%
%TO.N,unconnected-(U1-PB4-Pad90)*%
X161636200Y-117948400D03*
%TO.P,U1,91,PB5*%
%TO.N,unconnected-(U1-PB5-Pad91)*%
X161136200Y-117948400D03*
%TO.P,U1,92,PB6*%
%TO.N,SCL*%
X160636200Y-117948400D03*
%TO.P,U1,93,PB7*%
%TO.N,SDA*%
X160136200Y-117948400D03*
%TO.P,U1,94,BOOT0*%
%TO.N,BOOT*%
X159636200Y-117948400D03*
%TO.P,U1,95,PB8*%
%TO.N,unconnected-(U1-PB8-Pad95)*%
X159136200Y-117948400D03*
%TO.P,U1,96,PB9*%
%TO.N,unconnected-(U1-PB9-Pad96)*%
X158636200Y-117948400D03*
%TO.P,U1,97,PE0*%
%TO.N,5V_SRC*%
X158136200Y-117948400D03*
%TO.P,U1,98,PE1*%
%TO.N,unconnected-(U1-PE1-Pad98)*%
X157636200Y-117948400D03*
%TO.P,U1,99,VSS*%
%TO.N,Earth*%
X157136200Y-117948400D03*
%TO.P,U1,100,VDD*%
%TO.N,3.3V*%
X156636200Y-117948400D03*
%TD*%
D66*
%TO.P,C27,1,1*%
%TO.N,5V*%
X137236200Y-118846600D03*
%TO.P,C27,2,2*%
%TO.N,Earth*%
X137236200Y-121488200D03*
%TD*%
D64*
%TO.P,R1,1*%
%TO.N,STATUS_B*%
X177467200Y-141503400D03*
%TO.P,R1,2*%
%TO.N,Net-(D1-Pad2)*%
X179047200Y-141503400D03*
%TD*%
%TO.P,R18,1*%
%TO.N,SWCLK*%
X170538200Y-141503400D03*
%TO.P,R18,2*%
%TO.N,3.3V*%
X168958200Y-141503400D03*
%TD*%
D18*
%TO.P,R14,1*%
%TO.N,~{USB_SUSPEND}*%
X179146200Y-120270400D03*
%TO.P,R14,2*%
%TO.N,Earth*%
X179146200Y-118690400D03*
%TD*%
D49*
%TO.P,J1,1,A*%
%TO.N,Earth*%
X137072000Y-136829800D03*
%TO.P,J1,2,B*%
%TO.N,Net-(J1-B)*%
X138772000Y-136829800D03*
%TD*%
D18*
%TO.P,R34,1*%
%TO.N,FLASH_SCK*%
X186766200Y-130228400D03*
%TO.P,R34,2*%
%TO.N,Earth*%
X186766200Y-128648400D03*
%TD*%
D64*
%TO.P,R16,1*%
%TO.N,STATUS_G*%
X177594200Y-139598400D03*
%TO.P,R16,2*%
%TO.N,Net-(D1-Pad3)*%
X179174200Y-139598400D03*
%TD*%
%TO.P,R29,1*%
%TO.N,/Sensors/TC+*%
X144122200Y-137947400D03*
%TO.P,R29,2*%
%TO.N,3.3V*%
X142542200Y-137947400D03*
%TD*%
%TO.P,R32,1*%
%TO.N,3.3V*%
X143431200Y-134137400D03*
%TO.P,R32,2*%
%TO.N,SDA*%
X145011200Y-134137400D03*
%TD*%
%TO.P,R17,1*%
%TO.N,STATUS_R*%
X181023200Y-139598400D03*
%TO.P,R17,2*%
%TO.N,Net-(D1-Pad4)*%
X182603200Y-139598400D03*
%TD*%
%TO.P,R4,1*%
%TO.N,Net-(P2A-6)*%
X98656200Y-108305600D03*
%TO.P,R4,2*%
%TO.N,Earth*%
X97076200Y-108305600D03*
%TD*%
%TO.P,R30,1*%
%TO.N,Earth*%
X143431200Y-136042400D03*
%TO.P,R30,2*%
%TO.N,/Sensors/TC+*%
X145011200Y-136042400D03*
%TD*%
D18*
%TO.P,R13,1*%
%TO.N,~{USB_RST}*%
X177114200Y-120322400D03*
%TO.P,R13,2*%
%TO.N,3.3V*%
X177114200Y-118742400D03*
%TD*%
%TO.P,R10,1*%
%TO.N,3.3V*%
X194005200Y-149405400D03*
%TO.P,R10,2*%
%TO.N,SD_DETECT*%
X194005200Y-147825400D03*
%TD*%
D64*
%TO.P,R28,1*%
%TO.N,Net-(D9-Pad1)*%
X131549200Y-127533400D03*
%TO.P,R28,2*%
%TO.N,Earth*%
X129969200Y-127533400D03*
%TD*%
D17*
%TO.P,J2,1,A*%
%TO.N,3.3V*%
X159334200Y-111951400D03*
%TO.P,J2,2,B*%
%TO.N,BOOT*%
X159334200Y-113651400D03*
%TD*%
D64*
%TO.P,R37,1*%
%TO.N,Earth*%
X125473400Y-135305800D03*
%TO.P,R37,2*%
%TO.N,PT*%
X127053400Y-135305800D03*
%TD*%
%TO.P,R20,1*%
%TO.N,5V_USB*%
X90751600Y-106019600D03*
%TO.P,R20,2*%
%TO.N,USB_DETECT*%
X92331600Y-106019600D03*
%TD*%
%TO.P,R36,1*%
%TO.N,Earth*%
X137462200Y-134899400D03*
%TO.P,R36,2*%
%TO.N,LC*%
X139042200Y-134899400D03*
%TD*%
D18*
%TO.P,R11,1*%
%TO.N,3.3V*%
X123063000Y-110543400D03*
%TO.P,R11,2*%
%TO.N,NOZ_CONT*%
X123063000Y-108963400D03*
%TD*%
%TO.P,R12,2*%
%TO.N,SP_CONT*%
X119380000Y-109039600D03*
%TO.P,R12,1*%
%TO.N,3.3V*%
X119380000Y-110619600D03*
%TD*%
D66*
%TO.P,C28,1,1*%
%TO.N,A3.3V*%
X124028200Y-121767600D03*
%TO.P,C28,2,2*%
%TO.N,Earth*%
X124028200Y-124409200D03*
%TD*%
D64*
%TO.P,R21,1*%
%TO.N,Earth*%
X90650000Y-109321600D03*
%TO.P,R21,2*%
%TO.N,USB_DETECT*%
X92230000Y-109321600D03*
%TD*%
%TO.P,R15,1*%
%TO.N,SWDIO*%
X172895200Y-141503400D03*
%TO.P,R15,2*%
%TO.N,3.3V*%
X174475200Y-141503400D03*
%TD*%
%TO.P,R35,1*%
%TO.N,3.3V*%
X181460200Y-130200400D03*
%TO.P,R35,2*%
%TO.N,FLASH_SS*%
X179880200Y-130200400D03*
%TD*%
%TO.P,R31,1*%
%TO.N,3.3V*%
X147114200Y-131851400D03*
%TO.P,R31,2*%
%TO.N,SCL*%
X148694200Y-131851400D03*
%TD*%
D69*
%TO.P,P18,1,+12V*%
%TO.N,3.3V*%
X182905400Y-150266400D03*
D70*
%TO.P,P18,2,GND*%
%TO.N,5V*%
X185445400Y-150266400D03*
%TO.P,P18,3,3*%
%TO.N,VIN*%
X187985400Y-150266400D03*
%TO.P,P18,4,4*%
%TO.N,Earth*%
X190525400Y-150266400D03*
%TD*%
D64*
%TO.P,R38,1*%
%TO.N,/Sensors/TC-*%
X137416600Y-139344400D03*
%TO.P,R38,2*%
%TO.N,Earth*%
X135836600Y-139344400D03*
%TD*%
D18*
%TO.P,R6,1*%
%TO.N,3.3V*%
X116027200Y-108938000D03*
%TO.P,R6,2*%
%TO.N,E_CONT*%
X116027200Y-110518000D03*
%TD*%
D71*
%TO.N,PT_MUX_C*%
X109550200Y-139166600D03*
%TO.N,Earth*%
X123672600Y-135280400D03*
X112730000Y-113126800D03*
X108712000Y-118211600D03*
%TO.N,3.3V*%
X124358400Y-110566200D03*
X117652800Y-108966000D03*
%TO.N,5V*%
X114808000Y-112979200D03*
X118491000Y-118338600D03*
%TO.N,Earth*%
X88950800Y-109321600D03*
%TO.N,USB_DETECT*%
X127457200Y-117119400D03*
%TO.N,Earth*%
X103174800Y-110820200D03*
%TO.N,RS485_TX*%
X118160800Y-124764800D03*
%TO.N,RS485_RX*%
X118668800Y-126390400D03*
%TO.N,SDA*%
X157861000Y-124917200D03*
%TO.N,SCL*%
X159258000Y-125349000D03*
%TO.N,RS485_RX*%
X160731200Y-131241800D03*
%TO.N,RS485_TX*%
X161290000Y-130479800D03*
%TO.N,Earth*%
X92633800Y-133807200D03*
D72*
%TO.N,5V*%
X108813600Y-143637000D03*
D71*
%TO.N,PT_MUX_C*%
X103505000Y-139420600D03*
%TO.N,PT_MUX_A*%
X108026200Y-137414000D03*
X105918000Y-139471400D03*
%TO.N,PT_MUX_B*%
X108737400Y-138328400D03*
%TO.N,Earth*%
X110236000Y-133477000D03*
X104063800Y-133680200D03*
X118922800Y-135026400D03*
%TO.N,PT*%
X130429000Y-135229600D03*
D72*
%TO.N,Earth*%
X121462800Y-148437600D03*
D71*
%TO.N,PT4-*%
X104622600Y-143865600D03*
%TO.N,PT3+*%
X113512600Y-143916400D03*
%TO.N,PT2+*%
X112877600Y-145643600D03*
%TO.N,3.3V*%
X114833400Y-127152400D03*
%TO.N,Earth*%
X114350800Y-124333000D03*
X133121400Y-143586200D03*
X139395200Y-138785600D03*
X180035200Y-136423400D03*
D72*
X130441700Y-124294900D03*
D71*
X181610000Y-124968000D03*
X187909200Y-110642400D03*
D73*
X144856200Y-109372400D03*
D71*
X171692200Y-120128400D03*
D73*
X137337800Y-106603800D03*
D72*
X170256200Y-104546400D03*
X181559200Y-110007400D03*
D71*
X181229000Y-126212600D03*
D72*
X177114200Y-103022400D03*
D71*
X167970200Y-137312400D03*
D72*
X156032200Y-106324400D03*
D71*
X142570200Y-120650000D03*
X157175200Y-129438400D03*
X156794200Y-136804400D03*
X174967000Y-119546000D03*
D72*
X153746200Y-98450400D03*
D71*
X146126200Y-135280400D03*
X149072600Y-123901200D03*
X153492200Y-123850400D03*
D73*
X145858200Y-115228400D03*
X143261200Y-101681400D03*
D71*
X142443200Y-136042400D03*
X180242200Y-118690400D03*
X170408600Y-113995200D03*
X136093200Y-134899400D03*
X156564700Y-115062900D03*
X150381600Y-128993000D03*
D72*
X196285800Y-144912400D03*
D71*
%TO.N,3.3V*%
X156397200Y-124628400D03*
X183083200Y-132613400D03*
X145872200Y-131851400D03*
X149809200Y-140233400D03*
X187782200Y-113817400D03*
X157556200Y-134772400D03*
X187638600Y-137930800D03*
D72*
X141173200Y-112928400D03*
D71*
X169240200Y-134772400D03*
X140411200Y-101752400D03*
X171780200Y-119278400D03*
X155778200Y-118135400D03*
X159334200Y-110515400D03*
%TO.N,SWCLK*%
X166827200Y-121945400D03*
%TO.N,SWDIO*%
X168732200Y-122834400D03*
D74*
%TO.N,5V*%
X150063200Y-110642400D03*
D72*
X140792200Y-110896400D03*
X139776200Y-116357400D03*
D71*
%TO.N,SDA*%
X152222200Y-132486400D03*
%TO.N,SCL*%
X152222200Y-133248400D03*
D72*
%TO.N,A3.3V*%
X130886200Y-121183400D03*
D71*
X156342200Y-129128400D03*
X148539200Y-133121400D03*
X145364200Y-132613400D03*
X132918200Y-124866400D03*
X136728200Y-128803400D03*
%TO.N,/Sensors/TC+*%
X145872680Y-137057920D03*
X147433200Y-139254400D03*
%TO.N,SD_DAT2*%
X189179200Y-132613400D03*
X167970200Y-119786400D03*
%TO.N,SD_DAT3*%
X167144700Y-119849900D03*
X190068200Y-133375400D03*
%TO.N,SD_CMD*%
X165938200Y-120294400D03*
X187782200Y-136931400D03*
X179019200Y-129184400D03*
X176098200Y-128930400D03*
%TO.N,SD_CLK*%
X191719200Y-131978400D03*
X171145200Y-115722400D03*
%TO.N,SD_DAT0*%
X171653200Y-124612400D03*
X173177200Y-134899400D03*
%TO.N,SD_DAT1*%
X173431200Y-135661400D03*
X172415200Y-124358400D03*
%TO.N,PT5+*%
X153492200Y-128422400D03*
%TO.N,PT6+*%
X156413200Y-127914400D03*
%TO.N,PT7+*%
X157556200Y-131724400D03*
%TO.N,PT8+*%
X158775400Y-131089400D03*
%TO.N,SD_DETECT*%
X175043200Y-131128400D03*
X189214600Y-145532000D03*
%TO.N,FLASH_MOSI*%
X183718200Y-136042400D03*
X178511200Y-130835400D03*
%TO.N,FLASH_WP*%
X174320200Y-129184400D03*
X179908200Y-133375400D03*
%TO.N,STATUS_B*%
X170002200Y-137312400D03*
X164922200Y-131978400D03*
%TO.N,STATUS_G*%
X164350700Y-131533900D03*
X171526200Y-136677400D03*
%TO.N,STATUS_R*%
X163652200Y-131470400D03*
X170002200Y-134010400D03*
%TO.N,FLASH_HOLD*%
X181051200Y-132232400D03*
X176352200Y-129565400D03*
%TO.N,USB_DETECT*%
X163652200Y-115849400D03*
D72*
%TO.N,5V_USB*%
X184988200Y-106578400D03*
X145872200Y-103022400D03*
D71*
%TO.N,5V_SRC*%
X144602200Y-102006400D03*
X147777200Y-108229400D03*
%TO.N,NRST*%
X162001200Y-129946400D03*
D74*
%TO.N,VIN*%
X181705250Y-99802950D03*
D71*
%TO.N,FIRE*%
X149999200Y-121628400D03*
X139268200Y-123469400D03*
%TO.N,PT*%
X143475200Y-126628400D03*
X149444200Y-126628400D03*
X143332200Y-128930400D03*
%TO.N,LC*%
X153365200Y-127533400D03*
X141427200Y-133248400D03*
%TO.N,SWO*%
X165430200Y-121564400D03*
%TO.N,TC_ALERT*%
X152476200Y-139090400D03*
X156159200Y-139471400D03*
%TO.N,TC_OC*%
X150459200Y-140218400D03*
X155143200Y-140106400D03*
%TO.N,TC_SC*%
X156174200Y-140853400D03*
X149159200Y-140853400D03*
%TO.N,SP_CONT*%
X124282200Y-113563400D03*
X126695200Y-128930400D03*
X131140200Y-134264400D03*
X155651200Y-138709400D03*
X137998200Y-132486400D03*
X126314200Y-125628400D03*
%TO.N,NOZ_CONT*%
X139141200Y-131851400D03*
X155778200Y-137820400D03*
X130505200Y-133375400D03*
X125298200Y-113766600D03*
X127330200Y-125628400D03*
X127711200Y-128930400D03*
%TO.N,PT_MUX_A*%
X157302200Y-125628400D03*
%TO.N,~{USB_SUSPEND}*%
X179146200Y-121564400D03*
X174574200Y-122326400D03*
%TO.N,E_CONT*%
X140030200Y-131724400D03*
X128727200Y-131089400D03*
X126034800Y-112699800D03*
X128346200Y-125501400D03*
X155270200Y-137185400D03*
X128727200Y-128676400D03*
%TO.N,RX_USB*%
X172328200Y-123128400D03*
X177518600Y-128826800D03*
%TO.N,TX_USB*%
X172844200Y-122628400D03*
X178130200Y-129184400D03*
%TO.N,PT_MUX_B*%
X166065200Y-128930400D03*
X157175200Y-126898400D03*
X159969200Y-128930400D03*
%TO.N,PT_MUX_C*%
X164287200Y-129565400D03*
X157302200Y-128041400D03*
X160477200Y-129565400D03*
%TD*%
D75*
%TO.N,/Sensors/TC+*%
X145872680Y-138734800D02*
X145872680Y-137946920D01*
X143319500Y-141719300D02*
X143319500Y-141287980D01*
X143319500Y-141287980D02*
X145872680Y-138734800D01*
%TO.N,PT_MUX_C*%
X109563251Y-141221950D02*
X109550200Y-139166600D01*
D76*
%TO.N,Earth*%
X123672600Y-135280400D02*
X123672600Y-133629400D01*
%TO.N,PT8+*%
X160136200Y-131383400D02*
X159969200Y-131216400D01*
X158775400Y-131089400D02*
X159842200Y-131089400D01*
X159842200Y-131089400D02*
X159969200Y-131216400D01*
%TO.N,RS485_RX*%
X160731200Y-131241800D02*
X159858900Y-130369500D01*
X159858900Y-130369500D02*
X156396500Y-130369500D01*
X156396500Y-130369500D02*
X156133800Y-130632200D01*
X156133800Y-130632200D02*
X155676600Y-130632200D01*
%TO.N,RS485_TX*%
X159985152Y-130064700D02*
X156006800Y-130064700D01*
X154956200Y-130128400D02*
X155943100Y-130128400D01*
X155943100Y-130128400D02*
X156006800Y-130064700D01*
X161290000Y-130479800D02*
X160400252Y-130479800D01*
X160400252Y-130479800D02*
X159985152Y-130064700D01*
D75*
%TO.N,Earth*%
X112730000Y-111760000D02*
X112730000Y-113126800D01*
D76*
X123672600Y-135305800D02*
X123672600Y-135280400D01*
X125473400Y-135305800D02*
X123672600Y-135305800D01*
%TO.N,5V_USB*%
X90751600Y-106019600D02*
X90751600Y-105158600D01*
X90751600Y-105158600D02*
X91871800Y-104038400D01*
X91871800Y-104038400D02*
X94488000Y-104038400D01*
X94488000Y-104038400D02*
X100101400Y-98425000D01*
X100101400Y-98425000D02*
X125526800Y-98425000D01*
X138684000Y-110286800D02*
X140614400Y-108356400D01*
X125526800Y-98425000D02*
X132562600Y-105460800D01*
X132562600Y-105460800D02*
X132562600Y-108735600D01*
X132562600Y-108735600D02*
X134113800Y-110286800D01*
X134113800Y-110286800D02*
X138684000Y-110286800D01*
X140614400Y-108356400D02*
X140614400Y-106019600D01*
%TO.N,3.3V*%
X124353200Y-110543400D02*
X124330400Y-110543400D01*
X124358400Y-110566200D02*
X124353200Y-110543400D01*
X124307600Y-110543400D02*
X124358400Y-110566200D01*
X123063000Y-110543400D02*
X124307600Y-110543400D01*
X117652800Y-108966000D02*
X117675600Y-108938000D01*
X116027200Y-108938000D02*
X117652800Y-108966000D01*
X117675600Y-108938000D02*
X119126000Y-110388400D01*
%TO.N,SP_CONT*%
X119380000Y-109039600D02*
X120749000Y-109039600D01*
X120749000Y-109039600D02*
X121691400Y-109982000D01*
X121691400Y-109982000D02*
X121691400Y-111455200D01*
X121691400Y-111455200D02*
X122224800Y-111988600D01*
X122224800Y-111988600D02*
X126466600Y-111988600D01*
X126466600Y-111988600D02*
X126771400Y-112293400D01*
X126771400Y-112293400D02*
X126771400Y-112877600D01*
X126771400Y-112877600D02*
X126415800Y-113233200D01*
X126415800Y-113233200D02*
X124612400Y-113233200D01*
X124612400Y-113233200D02*
X124282200Y-113563400D01*
%TO.N,NOZ_CONT*%
X124889200Y-108963400D02*
X126619000Y-110693200D01*
X127482600Y-111556800D02*
X126619000Y-110693200D01*
X126746000Y-113766600D02*
X127482600Y-113030000D01*
X125298200Y-113766600D02*
X126746000Y-113766600D01*
X127482600Y-113030000D02*
X127482600Y-111556800D01*
X123063000Y-108963400D02*
X124889200Y-108963400D01*
X123063000Y-108963400D02*
X123063000Y-105511600D01*
X123063000Y-105511600D02*
X120142000Y-102590600D01*
%TO.N,SP_CONT*%
X110007400Y-102412800D02*
X114350800Y-106756200D01*
X114350800Y-106756200D02*
X118465600Y-106756200D01*
X118465600Y-106756200D02*
X119430800Y-107721400D01*
X119430800Y-107721400D02*
X119430800Y-109016800D01*
%TO.N,E_CONT*%
X115976400Y-111508600D02*
X115976400Y-110642400D01*
D77*
%TO.N,5V*%
X114808000Y-112979200D02*
X113741200Y-111912400D01*
X130810000Y-118313200D02*
X130784600Y-118338600D01*
X133765200Y-118883400D02*
X131380200Y-118883400D01*
X131380200Y-118883400D02*
X130810000Y-118313200D01*
X130784600Y-118338600D02*
X118491000Y-118338600D01*
D76*
%TO.N,Earth*%
X90650000Y-109321600D02*
X88950800Y-109321600D01*
%TO.N,USB_DETECT*%
X92331600Y-106019600D02*
X92331600Y-109217400D01*
X92230000Y-109321600D02*
X94691200Y-109321600D01*
X94691200Y-109321600D02*
X100838000Y-115468400D01*
X100838000Y-115468400D02*
X117754400Y-115468400D01*
X117754400Y-115468400D02*
X119405400Y-117119400D01*
X119405400Y-117119400D02*
X127457200Y-117119400D01*
%TO.N,E_CONT*%
X112115600Y-113741200D02*
X115976400Y-113741200D01*
X115976400Y-111508600D02*
X115976400Y-113741200D01*
X115976400Y-113741200D02*
X120294400Y-113741200D01*
X120294400Y-113741200D02*
X121335800Y-112699800D01*
X121335800Y-112699800D02*
X126034800Y-112699800D01*
X111779999Y-111760000D02*
X111779999Y-113405599D01*
X111779999Y-113405599D02*
X112115600Y-113741200D01*
D75*
%TO.N,VIN*%
X111779999Y-109372400D02*
X111779999Y-106598399D01*
X111779999Y-106598399D02*
X111201200Y-106019600D01*
X105771016Y-100634800D02*
X101701600Y-100634800D01*
X111201200Y-106019600D02*
X111155816Y-106019600D01*
X111155816Y-106019600D02*
X105771016Y-100634800D01*
X101701600Y-100634800D02*
X99720400Y-102616000D01*
%TO.N,Net-(P2A-6)*%
X113680001Y-109372400D02*
X113680001Y-109687599D01*
X113680001Y-109687599D02*
X112801400Y-110566200D01*
X112801400Y-110566200D02*
X111429800Y-110566200D01*
X111429800Y-110566200D02*
X107746800Y-106883200D01*
X107746800Y-106883200D02*
X107746800Y-103149400D01*
X107746800Y-103149400D02*
X107010200Y-102412800D01*
X107010200Y-102412800D02*
X105003600Y-102412800D01*
D76*
%TO.N,FIRE*%
X108661200Y-111584800D02*
X106601200Y-111584800D01*
X103454200Y-114325400D02*
X106400600Y-114325400D01*
X106400600Y-114325400D02*
X128092200Y-114325400D01*
X106375200Y-111695600D02*
X106375200Y-114300000D01*
X106375200Y-114300000D02*
X106400600Y-114325400D01*
%TO.N,Earth*%
X103174800Y-110820200D02*
X105435400Y-110820200D01*
X105435400Y-110820200D02*
X106070400Y-110185200D01*
X106375200Y-109995600D02*
X108420800Y-109995600D01*
X108420800Y-109995600D02*
X108458000Y-110032800D01*
%TO.N,FIRE*%
X102224799Y-112071150D02*
X102224799Y-113095999D01*
X102224799Y-113095999D02*
X103454200Y-114325400D01*
X140919200Y-115849400D02*
X140919200Y-117246400D01*
X140919200Y-117246400D02*
X139268200Y-118897400D01*
X128092200Y-114325400D02*
X128981200Y-115214400D01*
X128981200Y-115214400D02*
X140284200Y-115214400D01*
X140284200Y-115214400D02*
X140919200Y-115849400D01*
X139268200Y-118897400D02*
X139268200Y-123469400D01*
%TO.N,Earth*%
X97076200Y-108305600D02*
X97076200Y-108379200D01*
X97076200Y-108379200D02*
X99517200Y-110820200D01*
X99517200Y-110820200D02*
X103174800Y-110820200D01*
D77*
%TO.N,Net-(P2A-6)*%
X102209600Y-106654600D02*
X102209600Y-108305600D01*
X102209600Y-108305600D02*
X102209600Y-109448600D01*
D76*
X98656200Y-108305600D02*
X102209600Y-108305600D01*
D77*
%TO.N,Earth*%
X103174800Y-112071150D02*
X103174800Y-110820200D01*
%TO.N,Net-(P2A-6)*%
X104927400Y-102412800D02*
X104927400Y-103936800D01*
X104927400Y-103936800D02*
X102209600Y-106654600D01*
D76*
%TO.N,RS485_TX*%
X118160800Y-124764800D02*
X116865400Y-124764800D01*
%TO.N,RS485_RX*%
X116331858Y-125882400D02*
X118160800Y-125882400D01*
X118160800Y-125882400D02*
X118668800Y-126390400D01*
%TO.N,SDA*%
X157861000Y-124917200D02*
X157861000Y-124180600D01*
X157861000Y-124180600D02*
X160096200Y-121945400D01*
X160096200Y-121945400D02*
X160096200Y-118516400D01*
%TO.N,SCL*%
X160636200Y-121913400D02*
X160350200Y-122199400D01*
X159258000Y-125349000D02*
X159258000Y-123291600D01*
X159258000Y-123291600D02*
X160350200Y-122199400D01*
%TO.N,/Sensors/TC-*%
X137416600Y-139344400D02*
X137416600Y-148084600D01*
X138150600Y-148818600D02*
X141884400Y-148818600D01*
X137416600Y-148084600D02*
X138150600Y-148818600D01*
X141884400Y-148818600D02*
X143865600Y-146837400D01*
D77*
%TO.N,Earth*%
X132761200Y-150550400D02*
X132486400Y-150825200D01*
X123520200Y-148742400D02*
X125907800Y-151130000D01*
X125907800Y-151130000D02*
X132181600Y-151130000D01*
X132181600Y-151130000D02*
X132486400Y-150825200D01*
D76*
%TO.N,ValveCtrl_RX*%
X154956200Y-131128400D02*
X153732600Y-131128400D01*
X153732600Y-131128400D02*
X153517600Y-131343400D01*
X153517600Y-131343400D02*
X153517600Y-144301000D01*
X153517600Y-144301000D02*
X152492200Y-145326400D01*
%TO.N,ValveCtrl_TX*%
X154492200Y-145326400D02*
X154492200Y-131562600D01*
D75*
%TO.N,Net-(U8-+RG)*%
X122900400Y-127101600D02*
X122900400Y-127370800D01*
X122900400Y-127370800D02*
X124358400Y-128828800D01*
X124358400Y-128828800D02*
X124358400Y-129717800D01*
%TO.N,Net-(U8--RG)*%
X119481600Y-129743200D02*
X119481600Y-128676400D01*
X119481600Y-128676400D02*
X120624600Y-127533400D01*
D77*
%TO.N,5V*%
X124409200Y-131013200D02*
X122834400Y-131013200D01*
X122834400Y-131013200D02*
X121869200Y-131978400D01*
X121869200Y-131978400D02*
X121869200Y-139065000D01*
X121869200Y-139065000D02*
X119380000Y-141554200D01*
D75*
%TO.N,Earth*%
X107073700Y-118211600D02*
X108712000Y-118211600D01*
D76*
%TO.N,PT1-*%
X100380800Y-151155400D02*
X112801400Y-151155400D01*
D75*
%TO.N,A*%
X88773000Y-127685800D02*
X88773000Y-134086600D01*
%TO.N,Earth*%
X90919300Y-133807200D02*
X92633800Y-133807200D01*
D77*
%TO.N,5V*%
X107890249Y-141374350D02*
X107890249Y-142713649D01*
X107890249Y-142713649D02*
X108813600Y-143637000D01*
X114113249Y-141221950D02*
X118082550Y-141221950D01*
X118082550Y-141221950D02*
X118668800Y-141808200D01*
D76*
%TO.N,PT_MUX_C*%
X103327200Y-140131800D02*
X103327200Y-140995400D01*
X103505000Y-139420600D02*
X103505000Y-139954000D01*
X103505000Y-139954000D02*
X103327200Y-140131800D01*
%TO.N,PT_MUX_A*%
X109346252Y-137414000D02*
X110871000Y-138938748D01*
X108026200Y-137414000D02*
X109346252Y-137414000D01*
X110871000Y-138938748D02*
X110871000Y-140970000D01*
X104640251Y-141374350D02*
X104640251Y-140749149D01*
X104640251Y-140749149D02*
X105918000Y-139471400D01*
%TO.N,PT_MUX_B*%
X105689400Y-138328400D02*
X104013000Y-140004800D01*
X108737400Y-138328400D02*
X105689400Y-138328400D01*
X104013000Y-140004800D02*
X104013000Y-141097000D01*
X109829600Y-138328400D02*
X110210600Y-138709400D01*
X108737400Y-138328400D02*
X109829600Y-138328400D01*
X110210600Y-138709400D02*
X110210600Y-140690600D01*
D75*
%TO.N,Earth*%
X110261400Y-133502400D02*
X110566200Y-133502400D01*
X110236000Y-133477000D02*
X110261400Y-133502400D01*
X110210600Y-133502400D02*
X110236000Y-133477000D01*
X110863251Y-135341850D02*
X110863251Y-133799451D01*
X110863251Y-133799451D02*
X110566200Y-133502400D01*
X109563251Y-133819549D02*
X109880400Y-133502400D01*
X109563251Y-135341850D02*
X109563251Y-133819549D01*
X109880400Y-133502400D02*
X110210600Y-133502400D01*
X104063800Y-133680200D02*
X104394000Y-133680200D01*
X104394000Y-133680200D02*
X104673400Y-133959600D01*
X103340251Y-134073549D02*
X103733600Y-133680200D01*
X103340251Y-135494250D02*
X103340251Y-134073549D01*
X103733600Y-133680200D02*
X104063800Y-133680200D01*
X104673400Y-133959600D02*
X104673400Y-135178800D01*
D78*
X118948200Y-135001000D02*
X118948200Y-133629400D01*
X118922800Y-135026400D02*
X118948200Y-135001000D01*
X118948200Y-135051800D02*
X118922800Y-135026400D01*
X118948200Y-137809600D02*
X118948200Y-135051800D01*
D75*
%TO.N,PT+*%
X119481600Y-132283200D02*
X114122200Y-132283200D01*
X114122200Y-132283200D02*
X112826800Y-133578600D01*
X112826800Y-133578600D02*
X112826800Y-134823200D01*
%TO.N,PT-*%
X108966000Y-131013200D02*
X106553000Y-133426200D01*
X119481600Y-131013200D02*
X108966000Y-131013200D01*
X106553000Y-133426200D02*
X106553000Y-135026400D01*
%TO.N,PT*%
X127053400Y-135305800D02*
X127053400Y-133352600D01*
X127053400Y-133352600D02*
X125984000Y-132283200D01*
X129260600Y-135229600D02*
X127254000Y-135229600D01*
X129260600Y-135229600D02*
X130429000Y-135229600D01*
X124409200Y-132283200D02*
X125984000Y-132283200D01*
%TO.N,5V*%
X116001800Y-147523200D02*
X116001800Y-148793200D01*
X116001800Y-148793200D02*
X116027200Y-148818600D01*
%TO.N,VIN*%
X114731800Y-147523200D02*
X114731800Y-148818600D01*
D77*
%TO.N,Earth*%
X123240800Y-148449400D02*
X121474600Y-148449400D01*
X132761200Y-149420500D02*
X132761200Y-150550400D01*
X132761200Y-149420500D02*
X132761200Y-147096000D01*
X132761200Y-147096000D02*
X133019800Y-146837400D01*
%TO.N,5V*%
X118948200Y-142809600D02*
X118948200Y-146862800D01*
X118948200Y-146862800D02*
X118948200Y-147193000D01*
X123240800Y-146749400D02*
X119061600Y-146749400D01*
X119061600Y-146749400D02*
X118948200Y-146862800D01*
X118948200Y-147193000D02*
X117322600Y-148818600D01*
X117322600Y-148818600D02*
X116052600Y-148818600D01*
D76*
%TO.N,PT4-*%
X105290249Y-141374350D02*
X105290249Y-143197951D01*
X105290249Y-143197951D02*
X104622600Y-143865600D01*
%TO.N,PT3+*%
X113463248Y-141221950D02*
X113463248Y-143206648D01*
X113463248Y-143206648D02*
X113512600Y-143256000D01*
X113512600Y-143916400D02*
X113512600Y-143256000D01*
%TO.N,PT2+*%
X112877600Y-145643600D02*
X112877600Y-141579600D01*
%TO.N,PT1+*%
X113461800Y-147523200D02*
X112163248Y-146224648D01*
X112163248Y-146224648D02*
X112163248Y-141221950D01*
%TO.N,PT1-*%
X105940248Y-141374350D02*
X105940248Y-143970352D01*
X105940248Y-143970352D02*
X105054400Y-144856200D01*
X105054400Y-144856200D02*
X100533200Y-144856200D01*
X99034600Y-146354800D02*
X99034600Y-149809200D01*
X100533200Y-144856200D02*
X99034600Y-146354800D01*
X99034600Y-149809200D02*
X100380800Y-151155400D01*
X112801400Y-151155400D02*
X113461800Y-150495000D01*
X113461800Y-150495000D02*
X113461800Y-148767800D01*
%TO.N,PT3-*%
X110921800Y-148793200D02*
X110921800Y-149733000D01*
X110921800Y-149733000D02*
X110236000Y-150418800D01*
X99644200Y-149529800D02*
X99644200Y-146913600D01*
X110236000Y-150418800D02*
X100532452Y-150418800D01*
X100532452Y-150418800D02*
X99643826Y-149530174D01*
X99643826Y-149530174D02*
X99644200Y-149529800D01*
X99644200Y-146913600D02*
X101092000Y-145465800D01*
X101092000Y-145465800D02*
X105968800Y-145465800D01*
X107213400Y-144221200D02*
X107213400Y-141757400D01*
X105968800Y-145465800D02*
X107213400Y-144221200D01*
%TO.N,PT2-*%
X99479100Y-149796500D02*
X99339400Y-149656800D01*
X112191800Y-148793200D02*
X112191800Y-150393400D01*
X112191800Y-150393400D02*
X111734600Y-150850600D01*
X111734600Y-150850600D02*
X100533200Y-150850600D01*
X100533200Y-150850600D02*
X99479100Y-149796500D01*
X106578400Y-143814800D02*
X106578400Y-141833600D01*
X99339400Y-149656800D02*
X99339400Y-146634200D01*
X99339400Y-146634200D02*
X100812600Y-145161000D01*
X105232200Y-145161000D02*
X106578400Y-143814800D01*
X100812600Y-145161000D02*
X105232200Y-145161000D01*
%TO.N,PT4+*%
X109651800Y-147523200D02*
X109651800Y-145338800D01*
X109651800Y-145338800D02*
X111556800Y-143433800D01*
X111556800Y-143433800D02*
X111556800Y-141554200D01*
D75*
%TO.N,Earth*%
X112738800Y-129159000D02*
X112738800Y-125945000D01*
X112738800Y-125945000D02*
X114350800Y-124333000D01*
%TO.N,3.3V*%
X115798600Y-127939800D02*
X115798600Y-127127000D01*
X114438800Y-129159000D02*
X114579400Y-129159000D01*
X114579400Y-129159000D02*
X115798600Y-127939800D01*
X116331858Y-127152400D02*
X114833400Y-127152400D01*
%TO.N,Earth*%
X116331858Y-123342400D02*
X115341400Y-123342400D01*
X115341400Y-123342400D02*
X114350800Y-124333000D01*
%TO.N,Net-(U7-Z)*%
X116738400Y-120700800D02*
X116738400Y-118618000D01*
X114861400Y-116814600D02*
X114935000Y-116814600D01*
X114935000Y-116814600D02*
X116738400Y-118618000D01*
X112826800Y-124612400D02*
X115824000Y-121615200D01*
X110883558Y-124612400D02*
X112826800Y-124612400D01*
X115824000Y-121615200D02*
X116738400Y-120700800D01*
%TO.N,Net-(U7-Y)*%
X112268000Y-123342400D02*
X114960400Y-120650000D01*
X110883558Y-123342400D02*
X112268000Y-123342400D01*
X114960400Y-120650000D02*
X114960400Y-118999000D01*
%TO.N,Y*%
X111277400Y-119027000D02*
X113129000Y-119027000D01*
X113129000Y-119027000D02*
X113207800Y-118948200D01*
X108978700Y-119161601D02*
X110936999Y-119161601D01*
X110936999Y-119161601D02*
X111099600Y-118999000D01*
%TO.N,Z*%
X111277400Y-117447000D02*
X112499200Y-117447000D01*
X112499200Y-117447000D02*
X113131600Y-116814600D01*
X108978700Y-117261599D02*
X111114799Y-117261599D01*
X111114799Y-117261599D02*
X111175800Y-117322600D01*
%TO.N,Y*%
X103784400Y-118643400D02*
X104876600Y-118643400D01*
X104876600Y-118643400D02*
X105384600Y-119151400D01*
X105384600Y-119151400D02*
X108889800Y-119151400D01*
%TO.N,Z*%
X101244400Y-117373400D02*
X108610400Y-117373400D01*
X108610400Y-117373400D02*
X108661200Y-117322600D01*
%TO.N,Net-(U7-A)*%
X99265800Y-134010400D02*
X100152200Y-134010400D01*
X100152200Y-134010400D02*
X107111800Y-127050800D01*
X107111800Y-127050800D02*
X110947200Y-127050800D01*
%TO.N,Net-(U7-B)*%
X103736200Y-127558800D02*
X104825800Y-127558800D01*
X110883558Y-125882400D02*
X106502200Y-125882400D01*
X106502200Y-125882400D02*
X104825800Y-127558800D01*
X99316600Y-131978400D02*
X103736200Y-127558800D01*
%TO.N,B*%
X95148400Y-133042600D02*
X96548000Y-133042600D01*
X96548000Y-133042600D02*
X97383600Y-132207000D01*
%TO.N,A*%
X95148400Y-134622600D02*
X97025400Y-134622600D01*
X97025400Y-134622600D02*
X97510600Y-134137400D01*
X92824300Y-134757201D02*
X95214399Y-134757201D01*
X95214399Y-134757201D02*
X95275400Y-134696200D01*
%TO.N,B*%
X92824300Y-132857199D02*
X94853801Y-132857199D01*
X94853801Y-132857199D02*
X94945200Y-132765800D01*
%TO.N,A*%
X88773000Y-134188200D02*
X89001600Y-134416800D01*
X92824300Y-134757201D02*
X89342001Y-134757201D01*
X89342001Y-134757201D02*
X89001600Y-134416800D01*
X92684600Y-123774200D02*
X90220800Y-126238000D01*
X102565200Y-124282200D02*
X102057200Y-123774200D01*
X103784400Y-126263400D02*
X102565200Y-125044200D01*
X102565200Y-125044200D02*
X102565200Y-124282200D01*
X102057200Y-123774200D02*
X92684600Y-123774200D01*
X90220800Y-126238000D02*
X88773000Y-127685800D01*
X88773000Y-134086600D02*
X88773000Y-134188200D01*
%TO.N,B*%
X101244400Y-124993400D02*
X92227400Y-124993400D01*
X91465400Y-132791200D02*
X92964000Y-132791200D01*
X92227400Y-124993400D02*
X90805000Y-126415800D01*
X90805000Y-126415800D02*
X90805000Y-132130800D01*
X90805000Y-132130800D02*
X91465400Y-132791200D01*
D77*
%TO.N,5V*%
X129011200Y-149420500D02*
X125679200Y-146088500D01*
X125679200Y-146088500D02*
X125679200Y-140919200D01*
X125679200Y-140919200D02*
X127558800Y-139039600D01*
X127558800Y-139039600D02*
X130124200Y-139039600D01*
X130581400Y-139496800D02*
X130581400Y-140538200D01*
X130124200Y-139039600D02*
X130581400Y-139496800D01*
D75*
%TO.N,Net-(U15-+RG)*%
X127076200Y-142504200D02*
X127320000Y-142504200D01*
X127320000Y-142504200D02*
X128549400Y-141274800D01*
X128549400Y-141274800D02*
X129209800Y-141274800D01*
%TO.N,Net-(U15--RG)*%
X129311400Y-145999200D02*
X128778000Y-145999200D01*
X128778000Y-145999200D02*
X127584200Y-144805400D01*
%TO.N,/Sensors/LC+*%
X131511200Y-149420500D02*
X131511200Y-147888800D01*
X131511200Y-147888800D02*
X131851400Y-147548600D01*
X131851400Y-147548600D02*
X131851400Y-145999200D01*
%TO.N,/Sensors/LC-*%
X130225800Y-147955000D02*
X130225800Y-149453600D01*
X130581400Y-145999200D02*
X130581400Y-147599400D01*
X130581400Y-147599400D02*
X130225800Y-147955000D01*
%TO.N,LC*%
X134442200Y-133248400D02*
X132842000Y-134848600D01*
X131851400Y-141071600D02*
X131851400Y-135839200D01*
X131851400Y-135839200D02*
X132842000Y-134848600D01*
%TO.N,Earth*%
X133121400Y-143586200D02*
X133121400Y-145719800D01*
X133121400Y-141071600D02*
X133121400Y-143586200D01*
X133121400Y-145719800D02*
X133172200Y-145770600D01*
X138610400Y-138000800D02*
X137007600Y-138000800D01*
X137007600Y-138000800D02*
X136296400Y-138000800D01*
X137072000Y-136829800D02*
X137072000Y-137936400D01*
X137072000Y-137936400D02*
X137007600Y-138000800D01*
X135836600Y-139344400D02*
X135836600Y-138460600D01*
X135836600Y-138460600D02*
X136296400Y-138000800D01*
X139395200Y-138785600D02*
X138610400Y-138000800D01*
%TO.N,/Sensors/TC-*%
X139586600Y-140563600D02*
X138633200Y-140563600D01*
X138633200Y-140563600D02*
X137693400Y-139623800D01*
%TO.N,Net-(J1-B)*%
X146032200Y-130123999D02*
X144170601Y-130123999D01*
X144170601Y-130123999D02*
X142189200Y-132105400D01*
X142189200Y-132105400D02*
X142189200Y-134670800D01*
X142189200Y-134670800D02*
X140030200Y-136829800D01*
X140030200Y-136829800D02*
X138772000Y-136829800D01*
D76*
%TO.N,Earth*%
X136093200Y-134899400D02*
X136093200Y-135991600D01*
X136093200Y-135991600D02*
X136144000Y-136042400D01*
D75*
X136931400Y-136829800D02*
X136144000Y-136042400D01*
X137072000Y-136829800D02*
X136931400Y-136829800D01*
%TO.N,/Sensors/TC+*%
X143319500Y-141719300D02*
X142481300Y-141719300D01*
X142481300Y-141719300D02*
X141554200Y-140792200D01*
X143319500Y-143598900D02*
X143319500Y-141719300D01*
X138709400Y-146685000D02*
X140233400Y-146685000D01*
X140233400Y-146685000D02*
X143319500Y-143598900D01*
%TO.N,/Sensors/TC-*%
X147142200Y-137439400D02*
X146634200Y-137439400D01*
X146634200Y-137439400D02*
X146253200Y-137820400D01*
X146253200Y-137820400D02*
X146253200Y-139344400D01*
X146253200Y-139344400D02*
X143789400Y-141808200D01*
X143789400Y-141808200D02*
X143789400Y-146710400D01*
D76*
%TO.N,Earth*%
X157175200Y-128930400D02*
X157175200Y-129438400D01*
D79*
X156794200Y-108278400D02*
X156794200Y-107086400D01*
D75*
X180085200Y-125772800D02*
X178490500Y-125772800D01*
D79*
X198216200Y-129037400D02*
X198491200Y-128762400D01*
D76*
X151109200Y-134354400D02*
X151109200Y-135250400D01*
D79*
X195318200Y-125298400D02*
X195318200Y-128624700D01*
D75*
X168136200Y-134684400D02*
X168224200Y-134772400D01*
D76*
X146350200Y-135504400D02*
X146126200Y-135280400D01*
D75*
X156564700Y-115062900D02*
X155954200Y-114452400D01*
D76*
X129969200Y-127533400D02*
X129969200Y-126037400D01*
D79*
X173304200Y-98196400D02*
X173304200Y-99466400D01*
X198216200Y-144912400D02*
X200426000Y-144912400D01*
D76*
X151109200Y-139254400D02*
X151751200Y-139254400D01*
D77*
X134442200Y-111607600D02*
X134137400Y-111607600D01*
X143261200Y-101681400D02*
X143261200Y-103347400D01*
D75*
X170316200Y-120128400D02*
X171692200Y-120128400D01*
X146126200Y-109841400D02*
X145325200Y-109841400D01*
D76*
X142570200Y-120650000D02*
X143078200Y-120142000D01*
D77*
X180488200Y-118936400D02*
X180242200Y-118690400D01*
D79*
X179306200Y-110007400D02*
X181559200Y-110007400D01*
D77*
X131140200Y-123596400D02*
X133680200Y-123596400D01*
D75*
X186766200Y-128648400D02*
X190675200Y-128648400D01*
D76*
X147359200Y-135504400D02*
X148255200Y-135504400D01*
D75*
X189214600Y-140130800D02*
X190854600Y-140130800D01*
D76*
X152222200Y-140106400D02*
X152222200Y-141249400D01*
D75*
X145325200Y-109841400D02*
X144856200Y-109372400D01*
X174967000Y-119546000D02*
X174967000Y-118706000D01*
X156364200Y-135788400D02*
X156364200Y-136374400D01*
D77*
X143438200Y-115228400D02*
X145858200Y-115228400D01*
D79*
X150444200Y-99726400D02*
X152470200Y-99726400D01*
D77*
X130441700Y-124294900D02*
X131140200Y-123596400D01*
D76*
X152259200Y-136804400D02*
X151333200Y-136804400D01*
X149809200Y-134354400D02*
X149809200Y-135295979D01*
D75*
X178295300Y-136423400D02*
X180035200Y-136423400D01*
X169697400Y-113334800D02*
X170408600Y-113995200D01*
X157136200Y-117948400D02*
X157136200Y-115634400D01*
X187909200Y-108864400D02*
X187909200Y-110642400D01*
D77*
X181813200Y-118936400D02*
X180488200Y-118936400D01*
X134137400Y-111607600D02*
X131394200Y-108864400D01*
D76*
X143078200Y-120142000D02*
X144602200Y-120142000D01*
D75*
X176197200Y-115468400D02*
X171881800Y-115468400D01*
X156636200Y-133308400D02*
X156636200Y-135376400D01*
D76*
X179146200Y-118690400D02*
X180242200Y-118690400D01*
D75*
X157136200Y-115634400D02*
X156564700Y-115062900D01*
X190854600Y-140130800D02*
X191465200Y-140741400D01*
X168224200Y-134772400D02*
X168224200Y-135534400D01*
X138926200Y-106070400D02*
X137871200Y-106070400D01*
D76*
X142062200Y-121158000D02*
X142570200Y-120650000D01*
X130441700Y-125564900D02*
X130441700Y-124294900D01*
X147359200Y-138104400D02*
X148315200Y-138104400D01*
D77*
X130327400Y-124409200D02*
X130441700Y-124294900D01*
D79*
X196285800Y-144912400D02*
X198216200Y-144912400D01*
X172999400Y-97891600D02*
X173304200Y-98196400D01*
X156628200Y-108610400D02*
X156628200Y-108444400D01*
D75*
X150381600Y-129946400D02*
X148666200Y-129946400D01*
X138926200Y-106070400D02*
X138926200Y-104458400D01*
X150432400Y-123901200D02*
X149072600Y-123901200D01*
X174967000Y-120396000D02*
X174967000Y-119546000D01*
D77*
X124028200Y-124409200D02*
X130327400Y-124409200D01*
X143261200Y-103347400D02*
X142570200Y-104038400D01*
D75*
X167970200Y-137312400D02*
X168224200Y-137058400D01*
D77*
X145858200Y-115228400D02*
X147664200Y-115228400D01*
D76*
X152222200Y-139725400D02*
X152222200Y-140106400D01*
D75*
X159982800Y-137425800D02*
X158458800Y-137425800D01*
X153770200Y-124128400D02*
X153492200Y-123850400D01*
D76*
X154956200Y-128628400D02*
X156873200Y-128628400D01*
X147359200Y-136804400D02*
X148158200Y-136804400D01*
D79*
X191570200Y-144912400D02*
X196285800Y-144912400D01*
X152470200Y-99726400D02*
X153746200Y-98450400D01*
D75*
X143431200Y-136042400D02*
X142443200Y-136042400D01*
X180789200Y-125772800D02*
X181229000Y-126212600D01*
X168136200Y-133308400D02*
X168136200Y-134684400D01*
D76*
X129969200Y-126037400D02*
X130441700Y-125564900D01*
D79*
X156794200Y-107086400D02*
X156032200Y-106324400D01*
D76*
X151751200Y-139254400D02*
X152222200Y-139725400D01*
D79*
X198216200Y-144912400D02*
X198216200Y-129037400D01*
D75*
X191465200Y-140741400D02*
X191465200Y-144805400D01*
X154956200Y-124128400D02*
X153770200Y-124128400D01*
D77*
X136079200Y-123483400D02*
X136982200Y-122580400D01*
D75*
X181610000Y-124968000D02*
X182499000Y-124968000D01*
D76*
X137462200Y-134899400D02*
X136093200Y-134899400D01*
D79*
X181598200Y-103022400D02*
X177114200Y-103022400D01*
D75*
X166801800Y-137629000D02*
X167653600Y-137629000D01*
X180085200Y-125772800D02*
X180789200Y-125772800D01*
D77*
X181813200Y-118936400D02*
X183933200Y-118936400D01*
D75*
X190675200Y-128648400D02*
X190703200Y-128676400D01*
D77*
X142570200Y-104038400D02*
X142570200Y-105054400D01*
D75*
X168224200Y-137058400D02*
X168224200Y-136042400D01*
X167653600Y-137629000D02*
X167970200Y-137312400D01*
D76*
X147359200Y-135504400D02*
X146350200Y-135504400D01*
X142062200Y-122340000D02*
X142062200Y-121158000D01*
D75*
X171881800Y-115468400D02*
X170408600Y-113995200D01*
D79*
X191570200Y-128762400D02*
X195455900Y-128762400D01*
D77*
X136982200Y-122580400D02*
X136982200Y-121564400D01*
D76*
X151109200Y-139254400D02*
X151109200Y-138358400D01*
D79*
X195318200Y-128624700D02*
X195455900Y-128762400D01*
D75*
X168719500Y-113334800D02*
X169697400Y-113334800D01*
X150381600Y-128092200D02*
X150381600Y-129501000D01*
D77*
X143261200Y-100152400D02*
X143261200Y-101681400D01*
D75*
X137871200Y-106070400D02*
X137337800Y-106603800D01*
D77*
X183933200Y-118936400D02*
X183972200Y-118897400D01*
D79*
X170256200Y-106490400D02*
X170256200Y-104546400D01*
D77*
X133765200Y-123483400D02*
X136079200Y-123483400D01*
D79*
X195455900Y-128762400D02*
X198491200Y-128762400D01*
D76*
X150459200Y-134354400D02*
X150459200Y-135392400D01*
D75*
X155954200Y-114452400D02*
X155524200Y-114452400D01*
X156794200Y-136804400D02*
X157415600Y-137425800D01*
X157415600Y-137425800D02*
X158458800Y-137425800D01*
D79*
X177114200Y-103022400D02*
X173812200Y-99720400D01*
D76*
X156873200Y-128628400D02*
X157175200Y-128930400D01*
D79*
X170510200Y-97891600D02*
X172999400Y-97891600D01*
D75*
X156522800Y-135554200D02*
X156528400Y-135559800D01*
X156364200Y-136374400D02*
X156794200Y-136804400D01*
D79*
X198491200Y-128762400D02*
X200923800Y-128762400D01*
%TO.N,Net-(U2-SS)*%
X173906200Y-108737400D02*
X172161200Y-108737400D01*
X171780200Y-108356400D02*
X170256200Y-108356400D01*
X172161200Y-108737400D02*
X171780200Y-108356400D01*
%TO.N,Net-(U2-SW)*%
X172622200Y-102006400D02*
X170510200Y-102006400D01*
X179306200Y-106230400D02*
X177876200Y-104800400D01*
X179306200Y-107467400D02*
X179306200Y-106230400D01*
X170510200Y-102006400D02*
X167970200Y-102006400D01*
X177876200Y-104800400D02*
X174320200Y-104800400D01*
X174154200Y-103538400D02*
X172622200Y-102006400D01*
X170510200Y-100533200D02*
X170510200Y-102006400D01*
X174154200Y-104800400D02*
X174154200Y-103538400D01*
D76*
%TO.N,3.3V*%
X170228200Y-140233400D02*
X173304200Y-140233400D01*
D75*
X140411200Y-99946400D02*
X140411200Y-101752400D01*
X157136200Y-134352400D02*
X157556200Y-134772400D01*
D77*
X141173200Y-112928400D02*
X143332200Y-112928400D01*
X136677400Y-114249200D02*
X137236200Y-113690400D01*
D75*
X155778200Y-118135400D02*
X156540200Y-118135400D01*
D77*
X137638200Y-112928400D02*
X141173200Y-112928400D01*
D75*
X168636200Y-134168400D02*
X169240200Y-134772400D01*
D76*
X192862200Y-151663400D02*
X194132200Y-150393400D01*
X149809200Y-139254400D02*
X149809200Y-140233400D01*
X174475200Y-141503400D02*
X175463200Y-142491400D01*
X143459200Y-132867400D02*
X143459200Y-134010400D01*
D75*
X171430200Y-119628400D02*
X171780200Y-119278400D01*
D76*
X181460200Y-130990400D02*
X183083200Y-132613400D01*
X168958200Y-141503400D02*
X170228200Y-140233400D01*
X174232200Y-117500400D02*
X175844200Y-117500400D01*
X175844200Y-117500400D02*
X176860200Y-118516400D01*
D75*
X172288200Y-118770400D02*
X173050200Y-118770400D01*
D76*
X175463200Y-142491400D02*
X175463200Y-144170400D01*
X149809200Y-140233400D02*
X149809200Y-140995400D01*
D75*
X154956200Y-124628400D02*
X152746200Y-124628400D01*
X170316200Y-119628400D02*
X171430200Y-119628400D01*
D76*
X141681200Y-137086400D02*
X141681200Y-135915400D01*
D75*
X168636200Y-133308400D02*
X168636200Y-134168400D01*
X189214600Y-137930800D02*
X187638600Y-137930800D01*
X156636200Y-117948400D02*
X156636200Y-116580400D01*
X169240200Y-134772400D02*
X170002200Y-134772400D01*
D76*
X142542200Y-137947400D02*
X141681200Y-137086400D01*
D75*
X157810200Y-135026400D02*
X157810200Y-135534400D01*
D76*
X173304200Y-140233400D02*
X174193200Y-141122400D01*
X144475200Y-131851400D02*
X143459200Y-132867400D01*
D75*
X156636200Y-116580400D02*
X156286200Y-116230400D01*
D76*
X159334200Y-111951400D02*
X159334200Y-110515400D01*
X150063200Y-141249400D02*
X150698200Y-141249400D01*
D75*
X171780200Y-119278400D02*
X172288200Y-118770400D01*
X156286200Y-116230400D02*
X155524200Y-116230400D01*
X170256200Y-135026400D02*
X170256200Y-135534400D01*
D76*
X194132200Y-150393400D02*
X194132200Y-149631400D01*
D77*
X134442200Y-114249200D02*
X136677400Y-114249200D01*
D76*
X147114200Y-131851400D02*
X145872200Y-131851400D01*
X182944200Y-147890800D02*
X182944200Y-149873400D01*
D75*
X154956200Y-124628400D02*
X156397200Y-124628400D01*
D76*
X173216200Y-118516400D02*
X174232200Y-117500400D01*
X141681200Y-135915400D02*
X143078200Y-134518400D01*
X149809200Y-140995400D02*
X150063200Y-141249400D01*
X182944200Y-142688400D02*
X182944200Y-147890800D01*
D75*
X158064200Y-135788400D02*
X159842200Y-135788400D01*
D76*
X182905400Y-151358600D02*
X183210200Y-151663400D01*
D75*
X185585100Y-132613400D02*
X183083200Y-132613400D01*
X142415200Y-97942400D02*
X140411200Y-99946400D01*
X157556200Y-134772400D02*
X157810200Y-135026400D01*
X170002200Y-134772400D02*
X170256200Y-135026400D01*
X185623200Y-113817400D02*
X187782200Y-113817400D01*
D76*
X183210200Y-151663400D02*
X192862200Y-151663400D01*
D75*
X157136200Y-133308400D02*
X157136200Y-134352400D01*
D76*
X181460200Y-130200400D02*
X181460200Y-130990400D01*
X182905400Y-150266400D02*
X182905400Y-151358600D01*
X145872200Y-131851400D02*
X144475200Y-131851400D01*
D75*
X152746200Y-124628400D02*
X152222200Y-124104400D01*
%TO.N,Net-(D3-Pad1)*%
X179146200Y-115468400D02*
X180797200Y-113817400D01*
X177777200Y-115468400D02*
X179146200Y-115468400D01*
X180797200Y-113817400D02*
X182575200Y-113817400D01*
D76*
%TO.N,SWCLK*%
X168478200Y-120294400D02*
X166827200Y-121945400D01*
X170538200Y-142999400D02*
X170383200Y-143154400D01*
X168636200Y-117948400D02*
X168636200Y-119755400D01*
X168478200Y-119913400D02*
X168478200Y-120294400D01*
X168636200Y-119755400D02*
X168478200Y-119913400D01*
X170383200Y-143154400D02*
X170383200Y-143916400D01*
X170538200Y-141503400D02*
X170538200Y-142999400D01*
%TO.N,SWDIO*%
X171653200Y-142745400D02*
X171653200Y-144043400D01*
X172895200Y-141503400D02*
X171653200Y-142745400D01*
X168732200Y-121437400D02*
X168732200Y-122834400D01*
X169041200Y-121128400D02*
X168732200Y-121437400D01*
X170316200Y-121128400D02*
X169041200Y-121128400D01*
D79*
%TO.N,5V*%
X148082000Y-112623600D02*
X150063200Y-110642400D01*
D77*
X143911200Y-105892400D02*
X143911200Y-107434500D01*
X143438200Y-110628400D02*
X144080200Y-110628400D01*
X146126200Y-112674400D02*
X148158200Y-112674400D01*
X137236200Y-118846600D02*
X137287000Y-118846600D01*
X140792200Y-110896400D02*
X142951200Y-110896400D01*
X144080200Y-110628400D02*
X146126200Y-112674400D01*
D79*
X147904200Y-112623600D02*
X148082000Y-112623600D01*
D77*
X137287000Y-118846600D02*
X139776200Y-116357400D01*
X142951200Y-110896400D02*
X143078200Y-110769400D01*
X134239000Y-118846600D02*
X134188200Y-118897400D01*
X137236200Y-118846600D02*
X134239000Y-118846600D01*
X143911200Y-107434500D02*
X143911200Y-110571400D01*
D75*
%TO.N,CAP1*%
X166954200Y-135120400D02*
X166954200Y-135534400D01*
X167636200Y-133308400D02*
X167636200Y-134438400D01*
X167636200Y-134438400D02*
X166954200Y-135120400D01*
%TO.N,CAP2*%
X170316200Y-120628400D02*
X171352200Y-120628400D01*
X171526200Y-120802400D02*
X172796200Y-120802400D01*
X171352200Y-120628400D02*
X171526200Y-120802400D01*
D76*
%TO.N,SDA*%
X148509200Y-134354400D02*
X148509200Y-133913400D01*
X148509200Y-133913400D02*
X149555200Y-132867400D01*
X149555200Y-132867400D02*
X151841200Y-132867400D01*
X148509200Y-134354400D02*
X145327200Y-134354400D01*
X145327200Y-134354400D02*
X145237200Y-134264400D01*
X151841200Y-132867400D02*
X152222200Y-132486400D01*
%TO.N,SCL*%
X160636200Y-117948400D02*
X160636200Y-121913400D01*
X148793200Y-131724400D02*
X148666200Y-131851400D01*
X149682200Y-133248400D02*
X152222200Y-133248400D01*
X152222200Y-133248400D02*
X152857200Y-132613400D01*
X152857200Y-132613400D02*
X152857200Y-131978400D01*
X149159200Y-133771400D02*
X149682200Y-133248400D01*
X152857200Y-131978400D02*
X152603200Y-131724400D01*
X152603200Y-131724400D02*
X148793200Y-131724400D01*
X149159200Y-134354400D02*
X149159200Y-133771400D01*
D75*
%TO.N,A3.3V*%
X153182200Y-129128400D02*
X151968200Y-127914400D01*
X154956200Y-129128400D02*
X156342200Y-129128400D01*
D77*
X133765200Y-121183400D02*
X130886200Y-121183400D01*
X127508000Y-121767600D02*
X127584200Y-121691400D01*
D75*
X154956200Y-129628400D02*
X152032200Y-129628400D01*
X152081600Y-128092200D02*
X152081600Y-129579000D01*
D77*
X124028200Y-121767600D02*
X127508000Y-121767600D01*
D76*
X136728200Y-125882400D02*
X135712200Y-124866400D01*
X135712200Y-124866400D02*
X132918200Y-124866400D01*
D75*
X154956200Y-129128400D02*
X153182200Y-129128400D01*
X145872200Y-133121400D02*
X145364200Y-132613400D01*
X148539200Y-133121400D02*
X145872200Y-133121400D01*
D76*
X136728200Y-127533400D02*
X136728200Y-128803400D01*
D77*
X130886200Y-121183400D02*
X127711200Y-121183400D01*
D76*
X136728200Y-127533400D02*
X136728200Y-125882400D01*
D75*
%TO.N,/Sensors/TC+*%
X145872680Y-137057920D02*
X145872680Y-136803920D01*
D76*
X148509200Y-139254400D02*
X147433200Y-139254400D01*
D75*
X145872680Y-136803920D02*
X146522200Y-136154400D01*
D76*
X144122200Y-137947400D02*
X145872200Y-137947400D01*
X145011200Y-136042400D02*
X145011200Y-137030400D01*
X145011200Y-137030400D02*
X144475200Y-137566400D01*
X145872200Y-137947400D02*
X145872680Y-137946920D01*
D75*
X145872680Y-137946920D02*
X145872680Y-137057920D01*
X147359200Y-136154400D02*
X146522200Y-136154400D01*
D76*
%TO.N,OSC_IN*%
X155134000Y-125077600D02*
X148521800Y-125077600D01*
X147904200Y-122428000D02*
X146888200Y-122428000D01*
X148158200Y-122682000D02*
X147904200Y-122428000D01*
X146468200Y-120142000D02*
X146468200Y-122008000D01*
X148521800Y-125077600D02*
X148158200Y-124714000D01*
X148158200Y-124714000D02*
X148158200Y-122682000D01*
%TO.N,OSC_OUT*%
X142062200Y-124040000D02*
X144260200Y-124040000D01*
X155134000Y-125577600D02*
X145211800Y-125577600D01*
X144602200Y-124968000D02*
X144602200Y-124206000D01*
X145211800Y-125577600D02*
X144602200Y-124968000D01*
%TO.N,Net-(D1-Pad2)*%
X179047200Y-142420400D02*
X179273200Y-142646400D01*
X179047200Y-141503400D02*
X179047200Y-142420400D01*
X179273200Y-142646400D02*
X181432200Y-142646400D01*
%TO.N,Net-(D1-Pad3)*%
X179174200Y-139626400D02*
X180416200Y-140868400D01*
X180416200Y-141122400D02*
X180670200Y-141376400D01*
X180670200Y-141376400D02*
X181178200Y-141376400D01*
X180416200Y-140868400D02*
X180416200Y-141122400D01*
X179174200Y-139598400D02*
X179174200Y-139626400D01*
%TO.N,Net-(D1-Pad4)*%
X182603200Y-139598400D02*
X182603200Y-141602400D01*
D79*
%TO.N,Net-(D5-Pad2)*%
X188861700Y-104546400D02*
X192354200Y-104546400D01*
D75*
%TO.N,/Page2/D-*%
X181626078Y-124206000D02*
X182499000Y-124206000D01*
D77*
X190608200Y-120528400D02*
X190608200Y-120781199D01*
D75*
X183994685Y-124766800D02*
X189811418Y-124766800D01*
X181059278Y-124772800D02*
X181626078Y-124206000D01*
X183296684Y-124068799D02*
X183994685Y-124766800D01*
X189811418Y-124766800D02*
X191213200Y-123365018D01*
D77*
X190608200Y-120528400D02*
X190608200Y-120781198D01*
D75*
X191213200Y-121693400D02*
X190576200Y-121056400D01*
X191213200Y-123365018D02*
X191213200Y-121693400D01*
X180085200Y-124772800D02*
X181059278Y-124772800D01*
D78*
X190608200Y-120528400D02*
X190608200Y-120553998D01*
D75*
X182562208Y-124068799D02*
X183296684Y-124068799D01*
%TO.N,/Page2/D+*%
X181676878Y-125780800D02*
X182702200Y-125780800D01*
X191717200Y-123573782D02*
X191717200Y-121693400D01*
X180085200Y-125272800D02*
X181168878Y-125272800D01*
D77*
X192608200Y-120528400D02*
X192608200Y-120781198D01*
D75*
X182562208Y-125968801D02*
X183296684Y-125968801D01*
X183994685Y-125270800D02*
X190020182Y-125270800D01*
X181168878Y-125272800D02*
X181676878Y-125780800D01*
X190020182Y-125270800D02*
X191717200Y-123573782D01*
D78*
X192608200Y-120528400D02*
X192608200Y-120553996D01*
D75*
X191717200Y-121693400D02*
X192481200Y-120929400D01*
X183296684Y-125968801D02*
X183994685Y-125270800D01*
D76*
%TO.N,Net-(D9-Pad1)*%
X133680200Y-127533400D02*
X131648200Y-127533400D01*
%TO.N,BOOT*%
X159636200Y-115389400D02*
X159334200Y-115087400D01*
X159636200Y-117948400D02*
X159636200Y-115389400D01*
X159334200Y-115087400D02*
X159334200Y-113817400D01*
D79*
%TO.N,Net-(U2-BOOT)*%
X173906200Y-107467400D02*
X173685200Y-107467400D01*
X173685200Y-107467400D02*
X172542200Y-106324400D01*
X172542200Y-106324400D02*
X172288200Y-106070400D01*
X172288200Y-106070400D02*
X172288200Y-104800400D01*
D76*
%TO.N,SD_DAT2*%
X167636200Y-119452400D02*
X167970200Y-119786400D01*
X167636200Y-117948400D02*
X167636200Y-119452400D01*
X189214600Y-132648800D02*
X189179200Y-132613400D01*
X189214600Y-134630800D02*
X189214600Y-132648800D01*
%TO.N,SD_DAT3*%
X190576200Y-133883400D02*
X190068200Y-133375400D01*
X189433200Y-135661400D02*
X190322200Y-135661400D01*
X190576200Y-135407400D02*
X190576200Y-133883400D01*
X190322200Y-135661400D02*
X190576200Y-135407400D01*
X167136200Y-117948400D02*
X167136200Y-119841400D01*
%TO.N,SD_CMD*%
X177749200Y-129819400D02*
X178384200Y-129819400D01*
X187782200Y-136931400D02*
X188925200Y-136931400D01*
X178384200Y-129819400D02*
X179019200Y-129184400D01*
X176860200Y-128930400D02*
X177749200Y-129819400D01*
X165136200Y-119492400D02*
X165938200Y-120294400D01*
X165136200Y-117948400D02*
X165136200Y-119492400D01*
X176098200Y-128930400D02*
X176860200Y-128930400D01*
%TO.N,SD_CLK*%
X191211200Y-138963400D02*
X189687200Y-138963400D01*
X191719200Y-138455400D02*
X191211200Y-138963400D01*
X191719200Y-131978400D02*
X191719200Y-138455400D01*
X166636200Y-116548400D02*
X167462200Y-115722400D01*
X166636200Y-117948400D02*
X166636200Y-116548400D01*
X167462200Y-115722400D02*
X171145200Y-115722400D01*
%TO.N,SD_DAT0*%
X186366600Y-141230800D02*
X182829200Y-137693400D01*
X176352200Y-137693400D02*
X173558200Y-134899400D01*
X173558200Y-134899400D02*
X173177200Y-134899400D01*
X182829200Y-137693400D02*
X176352200Y-137693400D01*
X189214600Y-141230800D02*
X186366600Y-141230800D01*
X171637200Y-124628400D02*
X171653200Y-124612400D01*
X170316200Y-124628400D02*
X171637200Y-124628400D01*
%TO.N,SD_DAT1*%
X171653200Y-123850400D02*
X171780200Y-123850400D01*
X170316200Y-124128400D02*
X171248200Y-124128400D01*
X186970826Y-142265400D02*
X189052200Y-142265400D01*
X173431200Y-135661400D02*
X175767520Y-137997720D01*
X171907200Y-123850400D02*
X172415200Y-124358400D01*
X175767520Y-137997720D02*
X182703146Y-137997720D01*
X182703146Y-137997720D02*
X186970826Y-142265400D01*
X171780200Y-123850400D02*
X171907200Y-123850400D01*
X171375200Y-124128400D02*
X171653200Y-123850400D01*
X171248200Y-124128400D02*
X171375200Y-124128400D01*
%TO.N,PT5+*%
X154956200Y-127628400D02*
X153998400Y-127628400D01*
X153492200Y-128134600D02*
X153492200Y-128422400D01*
X153998400Y-127628400D02*
X153492200Y-128134600D01*
%TO.N,PT6+*%
X154956200Y-128128400D02*
X156199200Y-128128400D01*
X156413200Y-127914400D02*
X156286200Y-128041400D01*
X156199200Y-128128400D02*
X156413200Y-127914400D01*
%TO.N,PT7+*%
X159636200Y-132153400D02*
X159207200Y-131724400D01*
X159636200Y-133308400D02*
X159636200Y-132153400D01*
X159207200Y-131724400D02*
X157556200Y-131724400D01*
D75*
%TO.N,Net-(U6-ILIM)*%
X140312200Y-104292400D02*
X140312200Y-103502400D01*
X141300200Y-100990400D02*
X142062200Y-100228400D01*
X142062200Y-100228400D02*
X142570200Y-100228400D01*
X140312200Y-103502400D02*
X141300200Y-102514400D01*
X141300200Y-102514400D02*
X141300200Y-100990400D01*
D76*
%TO.N,PT8+*%
X160136200Y-133308400D02*
X160136200Y-131383400D01*
%TO.N,SD_DETECT*%
X193751200Y-146964400D02*
X193878200Y-147091400D01*
X189214600Y-145532000D02*
X189214600Y-145602800D01*
X189214600Y-145602800D02*
X190576200Y-146964400D01*
X193878200Y-147091400D02*
X193878200Y-147599400D01*
X189214600Y-143430800D02*
X189214600Y-145532000D01*
X170316200Y-131128400D02*
X175043200Y-131128400D01*
X190576200Y-146964400D02*
X193751200Y-146964400D01*
%TO.N,FLASH_SS*%
X175559200Y-131628400D02*
X176891200Y-131628400D01*
X176891200Y-131628400D02*
X177749200Y-132486400D01*
X179781200Y-132232400D02*
X179781200Y-130200400D01*
X170316200Y-131628400D02*
X175559200Y-131628400D01*
X178295300Y-132613400D02*
X179400200Y-132613400D01*
X179400200Y-132613400D02*
X179781200Y-132232400D01*
%TO.N,FLASH_MISO*%
X170316200Y-130628400D02*
X169320200Y-130628400D01*
X175717200Y-133883400D02*
X178257200Y-133883400D01*
X168986200Y-130962400D02*
X168986200Y-131724400D01*
X171145200Y-133883400D02*
X175717200Y-133883400D01*
X169320200Y-130628400D02*
X168986200Y-130962400D01*
X168986200Y-131724400D02*
X171145200Y-133883400D01*
%TO.N,FLASH_SCK*%
X166954200Y-132105400D02*
X168859200Y-132105400D01*
X176860200Y-137312400D02*
X181432200Y-137312400D01*
D75*
X186766200Y-135153400D02*
X187147200Y-134772400D01*
D76*
X182067200Y-136677400D02*
X183591200Y-135153400D01*
X166636200Y-133308400D02*
X166636200Y-132423400D01*
X181432200Y-137312400D02*
X182067200Y-136677400D01*
X171018200Y-134264400D02*
X173812200Y-134264400D01*
D75*
X187147200Y-134772400D02*
X187147200Y-130581400D01*
D76*
X183591200Y-135153400D02*
X184988200Y-135153400D01*
X173812200Y-134264400D02*
X176860200Y-137312400D01*
X166636200Y-132423400D02*
X166954200Y-132105400D01*
X168859200Y-132105400D02*
X171018200Y-134264400D01*
D75*
X185585100Y-135153400D02*
X186766200Y-135153400D01*
D76*
%TO.N,FLASH_MOSI*%
X170316200Y-130128400D02*
X177804200Y-130128400D01*
X184734200Y-136042400D02*
X184988200Y-136296400D01*
X183718200Y-136042400D02*
X184734200Y-136042400D01*
X177804200Y-130128400D02*
X178511200Y-130835400D01*
%TO.N,FLASH_WP*%
X179908200Y-134010400D02*
X178892200Y-135026400D01*
X179908200Y-133375400D02*
X179908200Y-134010400D01*
X172764200Y-127628400D02*
X174320200Y-129184400D01*
X170316200Y-127628400D02*
X172764200Y-127628400D01*
%TO.N,STATUS_B*%
X176479200Y-140360400D02*
X176479200Y-140995400D01*
X176479200Y-140995400D02*
X176860200Y-141376400D01*
X170002200Y-137312400D02*
X173431200Y-137312400D01*
X164636200Y-132264400D02*
X164922200Y-131978400D01*
X173431200Y-137312400D02*
X176479200Y-140360400D01*
X176860200Y-141376400D02*
X177368200Y-141376400D01*
X164636200Y-133308400D02*
X164636200Y-132264400D01*
%TO.N,STATUS_G*%
X173304200Y-136677400D02*
X176225200Y-139598400D01*
X164136200Y-133308400D02*
X164136200Y-131748400D01*
X164136200Y-131748400D02*
X164287200Y-131597400D01*
X176225200Y-139598400D02*
X177495200Y-139598400D01*
X164287200Y-131597400D02*
X164350700Y-131533900D01*
X171526200Y-136677400D02*
X173304200Y-136677400D01*
%TO.N,STATUS_R*%
X180924200Y-138709400D02*
X180924200Y-139344400D01*
X163636200Y-133308400D02*
X163636200Y-131486400D01*
X172161200Y-136169400D02*
X173304200Y-136169400D01*
X175463200Y-138328400D02*
X180543200Y-138328400D01*
X180543200Y-138328400D02*
X180924200Y-138709400D01*
X170002200Y-134010400D02*
X172161200Y-136169400D01*
X173304200Y-136169400D02*
X175463200Y-138328400D01*
%TO.N,FLASH_HOLD*%
X182575200Y-133756400D02*
X185115200Y-133756400D01*
X175717200Y-129565400D02*
X176352200Y-129565400D01*
X170316200Y-127128400D02*
X173280200Y-127128400D01*
X181051200Y-132232400D02*
X182575200Y-133756400D01*
X173280200Y-127128400D02*
X175717200Y-129565400D01*
%TO.N,USB_DETECT*%
X165430200Y-115849400D02*
X163652200Y-115849400D01*
X166136200Y-117948400D02*
X166136200Y-116555400D01*
X166136200Y-116555400D02*
X165430200Y-115849400D01*
D79*
%TO.N,5V_BUCK*%
X167716200Y-108356400D02*
X169240200Y-109880400D01*
X158694200Y-107208400D02*
X159842200Y-108356400D01*
X162953700Y-108356400D02*
X167716200Y-108356400D01*
D75*
X146126200Y-108141400D02*
X146126200Y-106070400D01*
D79*
X148152200Y-106826400D02*
X147142200Y-105816400D01*
X152222200Y-108356400D02*
X150698200Y-108356400D01*
X154928200Y-108610400D02*
X152476200Y-108610400D01*
X152482200Y-106826400D02*
X157302200Y-102006400D01*
D75*
X146126200Y-106070400D02*
X145872200Y-105816400D01*
D79*
X169240200Y-109880400D02*
X171018200Y-109880400D01*
X150444200Y-106826400D02*
X148152200Y-106826400D01*
X173101000Y-111404400D02*
X173558200Y-111404400D01*
X145872200Y-105816400D02*
X144856200Y-105816400D01*
X152476200Y-108610400D02*
X152222200Y-108356400D01*
X147142200Y-105816400D02*
X145872200Y-105816400D01*
D75*
X163093400Y-108496100D02*
X162953700Y-108356400D01*
D79*
X150444200Y-106826400D02*
X152482200Y-106826400D01*
X159842200Y-108356400D02*
X162953700Y-108356400D01*
X171018200Y-109880400D02*
X172542200Y-111404400D01*
X172542200Y-111404400D02*
X173101000Y-111404400D01*
D75*
X163093400Y-111417100D02*
X163093400Y-108496100D01*
D79*
X158694200Y-102006400D02*
X158694200Y-107208400D01*
D77*
%TO.N,5V_USB*%
X143205210Y-104927410D02*
X143205210Y-105054400D01*
X145872200Y-103022400D02*
X144856200Y-103022400D01*
X194856100Y-121551700D02*
X194856100Y-117170200D01*
X193351400Y-115665500D02*
X190608200Y-115665500D01*
X193090800Y-123317000D02*
X194856100Y-121551700D01*
X194856100Y-117170200D02*
X193351400Y-115665500D01*
D75*
X141300200Y-106324400D02*
X140792200Y-106324400D01*
X143078200Y-107340400D02*
X142316200Y-107340400D01*
D77*
X187248800Y-122351800D02*
X188544200Y-121056400D01*
X189052200Y-118262400D02*
X190322200Y-118262400D01*
X193090800Y-124587000D02*
X193090800Y-123317000D01*
X191734399Y-125943401D02*
X193090800Y-124587000D01*
D79*
X190608200Y-118028400D02*
X190608200Y-115665500D01*
D77*
X188544200Y-118770400D02*
X189052200Y-118262400D01*
X185312748Y-125943401D02*
X191734399Y-125943401D01*
X143205210Y-104673390D02*
X143205210Y-104927410D01*
X181660800Y-122351800D02*
X181660800Y-120700800D01*
X181660800Y-122351800D02*
X184124600Y-122351800D01*
D75*
X143261200Y-105892400D02*
X143261200Y-107157400D01*
D77*
X188544200Y-121056400D02*
X188544200Y-118770400D01*
X180289200Y-122351800D02*
X181660800Y-122351800D01*
X180289200Y-122351800D02*
X179120800Y-122351800D01*
D79*
X190608200Y-107626400D02*
X189560200Y-106578400D01*
D77*
X184124600Y-120573800D02*
X184099200Y-120548400D01*
X180289200Y-122351800D02*
X180289200Y-122974100D01*
D75*
X143261200Y-107157400D02*
X143078200Y-107340400D01*
D77*
X181660800Y-120700800D02*
X181686200Y-120675400D01*
X180289200Y-122974100D02*
X180289200Y-123596400D01*
D79*
X190608200Y-115665500D02*
X190608200Y-107626400D01*
D77*
X144856200Y-103022400D02*
X143205210Y-104673390D01*
D79*
X189560200Y-106578400D02*
X184988200Y-106578400D01*
D77*
X184124600Y-122351800D02*
X187248800Y-122351800D01*
X184124600Y-122351800D02*
X184124600Y-120573800D01*
D75*
X142316200Y-107340400D02*
X141300200Y-106324400D01*
D79*
%TO.N,V_HEAD*%
X139573000Y-100888800D02*
X135102600Y-105359200D01*
X182448200Y-96672400D02*
X182702200Y-96926400D01*
X183718200Y-97116900D02*
X182892700Y-97116900D01*
X139573000Y-98552000D02*
X139573000Y-100888800D01*
X135102600Y-105359200D02*
X135102600Y-108661200D01*
X141452600Y-96672400D02*
X139573000Y-98552000D01*
X182892700Y-97116900D02*
X182448200Y-96672400D01*
X182448200Y-96672400D02*
X141452600Y-96672400D01*
D75*
%TO.N,5V_SRC*%
X143995200Y-98605400D02*
X143995200Y-97942400D01*
X144561200Y-100152400D02*
X144561200Y-99171400D01*
D76*
X158136200Y-117948400D02*
X158136200Y-113254400D01*
D75*
X144561200Y-99171400D02*
X143995200Y-98605400D01*
D76*
X158136200Y-113254400D02*
X154381200Y-109499400D01*
X149047200Y-109499400D02*
X147777200Y-108229400D01*
X144602200Y-102006400D02*
X144602200Y-100863400D01*
X144602200Y-100863400D02*
X144602200Y-100609400D01*
X154381200Y-109499400D02*
X149047200Y-109499400D01*
D75*
%TO.N,Net-(D6-Pad2)*%
X177904200Y-113182400D02*
X180543200Y-113182400D01*
X180543200Y-113182400D02*
X182575200Y-111150400D01*
X182575200Y-111150400D02*
X182575200Y-109372400D01*
X183083200Y-108864400D02*
X184734200Y-108864400D01*
X182575200Y-109372400D02*
X183083200Y-108864400D01*
%TO.N,Net-(D7-Pad2)*%
X163093400Y-112997100D02*
X165524300Y-112997100D01*
D76*
%TO.N,NRST*%
X148166200Y-126128400D02*
X147150200Y-126128400D01*
X162001200Y-129946400D02*
X158191200Y-126136400D01*
X148166200Y-126128400D02*
X148166200Y-128160400D01*
X154956200Y-126128400D02*
X148166200Y-126128400D01*
X147150200Y-126128400D02*
X146634200Y-126644400D01*
X158191200Y-126136400D02*
X155524200Y-126136400D01*
D79*
%TO.N,VIN*%
X181717950Y-99815650D02*
X182702200Y-100799900D01*
X181705250Y-99802950D02*
X181717950Y-99815650D01*
X183210200Y-106370400D02*
X183210200Y-103022400D01*
X185242200Y-103022400D02*
X185242200Y-104546400D01*
X181622700Y-99720400D02*
X181705250Y-99802950D01*
X183298200Y-103022400D02*
X185242200Y-103022400D01*
D75*
X176324200Y-110162400D02*
X177749200Y-108737400D01*
X177749200Y-108737400D02*
X179146200Y-108737400D01*
D79*
X180843200Y-108737400D02*
X181861600Y-107719000D01*
X185242200Y-101498400D02*
X185242200Y-103022400D01*
X179306200Y-108737400D02*
X180843200Y-108737400D01*
X181861600Y-107719000D02*
X183210200Y-106370400D01*
X184543700Y-100799900D02*
X185242200Y-101498400D01*
D75*
X176324200Y-113182400D02*
X176324200Y-110162400D01*
D79*
X178598200Y-99720400D02*
X181622700Y-99720400D01*
X182702200Y-100799900D02*
X184543700Y-100799900D01*
D76*
%TO.N,FIRE*%
X154956200Y-120628400D02*
X150999200Y-120628400D01*
X150999200Y-120628400D02*
X149999200Y-121628400D01*
D75*
%TO.N,PT*%
X143475200Y-127644400D02*
X143475200Y-126628400D01*
X154956200Y-126628400D02*
X149444200Y-126628400D01*
X143332200Y-127787400D02*
X143475200Y-127644400D01*
X143332200Y-128930400D02*
X143332200Y-127787400D01*
D76*
%TO.N,LC*%
X141427200Y-133883400D02*
X141427200Y-133248400D01*
D75*
X154956200Y-127128400D02*
X153770200Y-127128400D01*
D76*
X139042200Y-134899400D02*
X140411200Y-134899400D01*
X140411200Y-134899400D02*
X141427200Y-133883400D01*
D75*
X153770200Y-127128400D02*
X153365200Y-127533400D01*
X141427200Y-133248400D02*
X134442200Y-133248400D01*
D76*
%TO.N,SWO*%
X164795200Y-121564400D02*
X165430200Y-121564400D01*
X162136200Y-118905400D02*
X164795200Y-121564400D01*
X162136200Y-117948400D02*
X162136200Y-118905400D01*
%TO.N,TC_ALERT*%
X152259200Y-138873400D02*
X152476200Y-139090400D01*
X165075560Y-139953040D02*
X165075560Y-135127040D01*
X156159200Y-139471400D02*
X157302200Y-140614400D01*
X165136200Y-135066400D02*
X165136200Y-133308400D01*
X157302200Y-140614400D02*
X164414200Y-140614400D01*
X164414200Y-140614400D02*
X165075560Y-139953040D01*
X152259200Y-138104400D02*
X152259200Y-138873400D01*
X165075560Y-135127040D02*
X165136200Y-135066400D01*
%TO.N,TC_OC*%
X150459200Y-139254400D02*
X150459200Y-139994400D01*
X165636200Y-135025026D02*
X165636200Y-133308400D01*
X165379880Y-140156720D02*
X165379880Y-135281346D01*
X165379880Y-135281346D02*
X165636200Y-135025026D01*
X150459200Y-139994400D02*
X150459200Y-140218400D01*
X156286200Y-140106400D02*
X157098520Y-140918720D01*
X164617880Y-140918720D02*
X165379880Y-140156720D01*
X157098520Y-140918720D02*
X164617880Y-140918720D01*
X155143200Y-140106400D02*
X156286200Y-140106400D01*
%TO.N,TC_SC*%
X156570200Y-141249400D02*
X164795200Y-141249400D01*
X164795200Y-141249400D02*
X165684200Y-140360400D01*
X166136200Y-134955400D02*
X166136200Y-133308400D01*
X165684200Y-140360400D02*
X165684200Y-135407400D01*
X149159200Y-139254400D02*
X149159200Y-140853400D01*
X156174200Y-140853400D02*
X156570200Y-141249400D01*
X165684200Y-135407400D02*
X166136200Y-134955400D01*
%TO.N,SP_CONT*%
X137998200Y-132486400D02*
X132918200Y-132486400D01*
X163136200Y-133308400D02*
X163136200Y-139606400D01*
D75*
X126314200Y-128549400D02*
X126695200Y-128930400D01*
D76*
X156159200Y-138709400D02*
X155651200Y-138709400D01*
X157556200Y-140106400D02*
X156159200Y-138709400D01*
X163136200Y-139606400D02*
X162636200Y-140106400D01*
X132918200Y-132486400D02*
X131140200Y-134264400D01*
X162636200Y-140106400D02*
X157556200Y-140106400D01*
D75*
X126314200Y-125628400D02*
X126314200Y-128549400D01*
D76*
%TO.N,NOZ_CONT*%
X130505200Y-133375400D02*
X132029200Y-131851400D01*
X162636200Y-133308400D02*
X162636200Y-139344400D01*
X127330200Y-128549400D02*
X127711200Y-128930400D01*
X158064200Y-139725400D02*
X156159200Y-137820400D01*
X156159200Y-137820400D02*
X155778200Y-137820400D01*
X162636200Y-139344400D02*
X162255200Y-139725400D01*
X132029200Y-131851400D02*
X139141200Y-131851400D01*
X162255200Y-139725400D02*
X158064200Y-139725400D01*
X127330200Y-125628400D02*
X127330200Y-128549400D01*
%TO.N,PT_MUX_A*%
X157302200Y-125628400D02*
X158445200Y-125628400D01*
X165684200Y-130200400D02*
X166700200Y-129184400D01*
X158445200Y-125628400D02*
X162255200Y-129438400D01*
X162255200Y-129438400D02*
X163017200Y-130200400D01*
X170316200Y-129128400D02*
X166756200Y-129128400D01*
X163017200Y-130200400D02*
X165684200Y-130200400D01*
X166756200Y-129128400D02*
X166700200Y-129184400D01*
%TO.N,~{USB_RST}*%
X173558200Y-124358400D02*
X173558200Y-122580400D01*
X172788200Y-125128400D02*
X173558200Y-124358400D01*
X177164520Y-121514080D02*
X177164520Y-120598720D01*
X177977680Y-121514080D02*
X177164520Y-121514080D01*
X178518600Y-122682800D02*
X178518600Y-122055000D01*
X174624520Y-121514080D02*
X177164520Y-121514080D01*
X178518600Y-122055000D02*
X177977680Y-121514080D01*
X173558200Y-122580400D02*
X174624520Y-121514080D01*
X170316200Y-125128400D02*
X172788200Y-125128400D01*
%TO.N,~{USB_SUSPEND}*%
X174828200Y-122072400D02*
X175082200Y-121818400D01*
X177368200Y-121818400D02*
X177518600Y-121968800D01*
X177518600Y-121968800D02*
X177518600Y-122682800D01*
X179146200Y-121564400D02*
X179146200Y-120548400D01*
X175082200Y-121818400D02*
X177368200Y-121818400D01*
X174066200Y-122834400D02*
X174574200Y-122326400D01*
X174066200Y-124358400D02*
X174066200Y-122834400D01*
X170316200Y-125628400D02*
X172796200Y-125628400D01*
X172796200Y-125628400D02*
X174066200Y-124358400D01*
X174574200Y-122326400D02*
X174828200Y-122072400D01*
%TO.N,E_CONT*%
X128727200Y-128676400D02*
X128346200Y-128295400D01*
X162136200Y-138955400D02*
X162001200Y-139090400D01*
X140030200Y-131724400D02*
X139395200Y-131089400D01*
X139395200Y-131089400D02*
X128727200Y-131089400D01*
X162001200Y-139090400D02*
X158064200Y-139090400D01*
X156159200Y-137185400D02*
X155270200Y-137185400D01*
X162136200Y-133308400D02*
X162136200Y-138955400D01*
X158064200Y-139090400D02*
X156159200Y-137185400D01*
X128346200Y-128295400D02*
X128346200Y-125501400D01*
%TO.N,RX_USB*%
X170316200Y-123128400D02*
X172328200Y-123128400D01*
X177518600Y-127862800D02*
X177518600Y-128826800D01*
%TO.N,TX_USB*%
X178130200Y-128676400D02*
X178130200Y-129184400D01*
X178018600Y-127862800D02*
X178018600Y-128564800D01*
X178018600Y-128564800D02*
X178130200Y-128676400D01*
X170316200Y-122628400D02*
X172844200Y-122628400D01*
%TO.N,PT_MUX_B*%
X170316200Y-128628400D02*
X166367200Y-128628400D01*
X159207200Y-128930400D02*
X159969200Y-128930400D01*
X166367200Y-128628400D02*
X166065200Y-128930400D01*
X157175200Y-126898400D02*
X159207200Y-128930400D01*
%TO.N,PT_MUX_C*%
X158826200Y-129565400D02*
X160477200Y-129565400D01*
X170316200Y-128128400D02*
X165724200Y-128128400D01*
X165724200Y-128128400D02*
X164287200Y-129565400D01*
X157302200Y-128041400D02*
X158826200Y-129565400D01*
%TD*%
M02*
