%TF.GenerationSoftware,KiCad,Pcbnew,5.1.10*%
%TF.CreationDate,2021-11-13T19:57:08-07:00*%
%TF.ProjectId,Engine-Controller,456e6769-6e65-42d4-936f-6e74726f6c6c,1.0*%
%TF.SameCoordinates,Original*%
%TF.FileFunction,Soldermask,Bot*%
%TF.FilePolarity,Negative*%
%FSLAX46Y46*%
G04 Gerber Fmt 4.6, Leading zero omitted, Abs format (unit mm)*
G04 Created by KiCad (PCBNEW 5.1.10) date 2021-11-13 19:57:08*
%MOMM*%
%LPD*%
G01*
G04 APERTURE LIST*
%ADD10C,1.524000*%
%ADD11C,3.366000*%
%ADD12C,1.478000*%
%ADD13R,1.478000X1.478000*%
%ADD14C,0.950000*%
%ADD15O,2.200000X4.400000*%
%ADD16O,1.900000X3.800000*%
%ADD17O,3.800000X1.900000*%
%ADD18C,4.300000*%
%ADD19C,1.498600*%
%ADD20C,1.650000*%
%ADD21R,1.650000X1.650000*%
G04 APERTURE END LIST*
D10*
%TO.C,P4*%
X187782200Y-150279100D03*
X185242200Y-150279100D03*
X182702200Y-150279100D03*
X180162200Y-150279100D03*
X177622200Y-150279100D03*
X175082200Y-150279100D03*
X172542200Y-150279100D03*
X170002200Y-150279100D03*
X167462200Y-150279100D03*
X164922200Y-150279100D03*
%TD*%
D11*
%TO.C,P2*%
X195318200Y-113258400D03*
X195318200Y-125298400D03*
D12*
X192608200Y-118028400D03*
X192608200Y-120528400D03*
D13*
X190608200Y-118028400D03*
D12*
X190608200Y-120528400D03*
%TD*%
D14*
%TO.C,P6*%
X200990200Y-133912400D03*
X200990200Y-140712400D03*
%TD*%
D10*
%TO.C,P7*%
X145173700Y-150088600D03*
X142633700Y-150088600D03*
X140093700Y-150088600D03*
X137553700Y-150088600D03*
X135013700Y-150088600D03*
X132473700Y-150088600D03*
X129933700Y-150088600D03*
X127393700Y-150088600D03*
X124853700Y-150088600D03*
X122313700Y-150088600D03*
%TD*%
%TO.C,TP7*%
X170395900Y-138176000D03*
%TD*%
%TO.C,TP1*%
X136779000Y-132143500D03*
%TD*%
%TO.C,TP2*%
X181470300Y-115252500D03*
%TD*%
%TO.C,TP3*%
X172542200Y-143090900D03*
%TD*%
%TO.C,TP4*%
X141617700Y-109245400D03*
%TD*%
%TO.C,TP5*%
X169570400Y-143090900D03*
%TD*%
D15*
%TO.C,P1*%
X192443200Y-104546400D03*
D16*
X198398200Y-104546400D03*
D17*
X195148200Y-99856400D03*
%TD*%
D10*
%TO.C,P5*%
X128600200Y-100990400D03*
X131140200Y-100990400D03*
X133680200Y-100990400D03*
X136220200Y-100990400D03*
X138760200Y-100990400D03*
X128600200Y-98450400D03*
X131140200Y-98450400D03*
X133680200Y-98450400D03*
X136220200Y-98450400D03*
X138760200Y-98450400D03*
%TD*%
%TO.C,TP9*%
X179476400Y-134607300D03*
%TD*%
%TO.C,TP10*%
X143332200Y-122897900D03*
%TD*%
%TO.C,TP6*%
X170446700Y-136004300D03*
%TD*%
%TO.C,TP8*%
X172580300Y-138252200D03*
%TD*%
%TO.C,TP11*%
X173164500Y-113779300D03*
%TD*%
D18*
%TO.C,H1*%
X188290200Y-98958400D03*
%TD*%
%TO.C,H2*%
X111290100Y-149110700D03*
%TD*%
%TO.C,H3*%
X199466200Y-148742400D03*
%TD*%
D19*
%TO.C,P3*%
X108026200Y-122072400D03*
X105486200Y-122072400D03*
X108026200Y-124612400D03*
X105486200Y-124612400D03*
X108026200Y-127152400D03*
X105486200Y-127152400D03*
X108026200Y-129692400D03*
X105486200Y-129692400D03*
X108026200Y-132232400D03*
X105486200Y-132232400D03*
X108026200Y-134772400D03*
X105486200Y-134772400D03*
X108026200Y-137312400D03*
X105486200Y-137312400D03*
X108026200Y-139852400D03*
X105486200Y-139852400D03*
X108026200Y-142392400D03*
X105486200Y-142392400D03*
X108026200Y-144932400D03*
X105486200Y-144932400D03*
%TD*%
D20*
%TO.C,P8*%
X123012200Y-100482400D03*
X117932200Y-100482400D03*
X112852200Y-100482400D03*
X107772200Y-100482400D03*
X102692200Y-100482400D03*
D21*
X97612200Y-100482400D03*
%TD*%
D10*
%TO.C,TP12*%
X164109400Y-117144800D03*
%TD*%
%TO.C,TP13*%
X130149600Y-111188500D03*
%TD*%
M02*
