%TF.GenerationSoftware,KiCad,Pcbnew,(6.0.5)*%
%TF.CreationDate,2022-05-28T08:22:02-07:00*%
%TF.ProjectId,Engine-Controller,456e6769-6e65-42d4-936f-6e74726f6c6c,1.0*%
%TF.SameCoordinates,Original*%
%TF.FileFunction,Legend,Bot*%
%TF.FilePolarity,Positive*%
%FSLAX46Y46*%
G04 Gerber Fmt 4.6, Leading zero omitted, Abs format (unit mm)*
G04 Created by KiCad (PCBNEW (6.0.5)) date 2022-05-28 08:22:02*
%MOMM*%
%LPD*%
G01*
G04 APERTURE LIST*
%ADD10C,0.203200*%
%ADD11C,0.150000*%
G04 APERTURE END LIST*
D10*
X87802961Y-111658400D02*
X87754580Y-111513257D01*
X87754580Y-111271352D01*
X87802961Y-111174590D01*
X87851342Y-111126209D01*
X87948104Y-111077828D01*
X88044866Y-111077828D01*
X88141628Y-111126209D01*
X88190009Y-111174590D01*
X88238390Y-111271352D01*
X88286771Y-111464876D01*
X88335152Y-111561638D01*
X88383533Y-111610019D01*
X88480295Y-111658400D01*
X88577057Y-111658400D01*
X88673819Y-111610019D01*
X88722200Y-111561638D01*
X88770580Y-111464876D01*
X88770580Y-111222971D01*
X88722200Y-111077828D01*
X88770580Y-110739161D02*
X87754580Y-110497257D01*
X88480295Y-110303733D01*
X87754580Y-110110209D01*
X88770580Y-109868304D01*
X87754580Y-109481257D02*
X88770580Y-109481257D01*
X88770580Y-109142590D02*
X88770580Y-108562019D01*
X87754580Y-108852304D02*
X88770580Y-108852304D01*
X87851342Y-107642780D02*
X87802961Y-107691161D01*
X87754580Y-107836304D01*
X87754580Y-107933066D01*
X87802961Y-108078209D01*
X87899723Y-108174971D01*
X87996485Y-108223352D01*
X88190009Y-108271733D01*
X88335152Y-108271733D01*
X88528676Y-108223352D01*
X88625438Y-108174971D01*
X88722200Y-108078209D01*
X88770580Y-107933066D01*
X88770580Y-107836304D01*
X88722200Y-107691161D01*
X88673819Y-107642780D01*
X87754580Y-107207352D02*
X88770580Y-107207352D01*
X88286771Y-107207352D02*
X88286771Y-106626780D01*
X87754580Y-106626780D02*
X88770580Y-106626780D01*
X121524485Y-147297019D02*
X122008295Y-147297019D01*
X122008295Y-146281019D01*
X120992295Y-146281019D02*
X120798771Y-146281019D01*
X120702009Y-146329400D01*
X120605247Y-146426161D01*
X120556866Y-146619685D01*
X120556866Y-146958352D01*
X120605247Y-147151876D01*
X120702009Y-147248638D01*
X120798771Y-147297019D01*
X120992295Y-147297019D01*
X121089057Y-147248638D01*
X121185819Y-147151876D01*
X121234200Y-146958352D01*
X121234200Y-146619685D01*
X121185819Y-146426161D01*
X121089057Y-146329400D01*
X120992295Y-146281019D01*
X120169819Y-147006733D02*
X119686009Y-147006733D01*
X120266580Y-147297019D02*
X119927914Y-146281019D01*
X119589247Y-147297019D01*
X119250580Y-147297019D02*
X119250580Y-146281019D01*
X119008676Y-146281019D01*
X118863533Y-146329400D01*
X118766771Y-146426161D01*
X118718390Y-146522923D01*
X118670009Y-146716447D01*
X118670009Y-146861590D01*
X118718390Y-147055114D01*
X118766771Y-147151876D01*
X118863533Y-147248638D01*
X119008676Y-147297019D01*
X119250580Y-147297019D01*
X116879914Y-147200257D02*
X116928295Y-147248638D01*
X117073438Y-147297019D01*
X117170200Y-147297019D01*
X117315342Y-147248638D01*
X117412104Y-147151876D01*
X117460485Y-147055114D01*
X117508866Y-146861590D01*
X117508866Y-146716447D01*
X117460485Y-146522923D01*
X117412104Y-146426161D01*
X117315342Y-146329400D01*
X117170200Y-146281019D01*
X117073438Y-146281019D01*
X116928295Y-146329400D01*
X116879914Y-146377780D01*
X116444485Y-146764828D02*
X116105819Y-146764828D01*
X115960676Y-147297019D02*
X116444485Y-147297019D01*
X116444485Y-146281019D01*
X115960676Y-146281019D01*
X115041438Y-147297019D02*
X115525247Y-147297019D01*
X115525247Y-146281019D01*
X114218961Y-147297019D02*
X114702771Y-147297019D01*
X114702771Y-146281019D01*
X174380676Y-149583019D02*
X174380676Y-148567019D01*
X173993628Y-148567019D01*
X173896866Y-148615400D01*
X173848485Y-148663780D01*
X173800104Y-148760542D01*
X173800104Y-148905685D01*
X173848485Y-149002447D01*
X173896866Y-149050828D01*
X173993628Y-149099209D01*
X174380676Y-149099209D01*
X172784104Y-149583019D02*
X173122771Y-149099209D01*
X173364676Y-149583019D02*
X173364676Y-148567019D01*
X172977628Y-148567019D01*
X172880866Y-148615400D01*
X172832485Y-148663780D01*
X172784104Y-148760542D01*
X172784104Y-148905685D01*
X172832485Y-149002447D01*
X172880866Y-149050828D01*
X172977628Y-149099209D01*
X173364676Y-149099209D01*
X172155152Y-148567019D02*
X171961628Y-148567019D01*
X171864866Y-148615400D01*
X171768104Y-148712161D01*
X171719723Y-148905685D01*
X171719723Y-149244352D01*
X171768104Y-149437876D01*
X171864866Y-149534638D01*
X171961628Y-149583019D01*
X172155152Y-149583019D01*
X172251914Y-149534638D01*
X172348676Y-149437876D01*
X172397057Y-149244352D01*
X172397057Y-148905685D01*
X172348676Y-148712161D01*
X172251914Y-148615400D01*
X172155152Y-148567019D01*
X170752104Y-148615400D02*
X170848866Y-148567019D01*
X170994009Y-148567019D01*
X171139152Y-148615400D01*
X171235914Y-148712161D01*
X171284295Y-148808923D01*
X171332676Y-149002447D01*
X171332676Y-149147590D01*
X171284295Y-149341114D01*
X171235914Y-149437876D01*
X171139152Y-149534638D01*
X170994009Y-149583019D01*
X170897247Y-149583019D01*
X170752104Y-149534638D01*
X170703723Y-149486257D01*
X170703723Y-149147590D01*
X170897247Y-149147590D01*
X169687723Y-149583019D02*
X170026390Y-149099209D01*
X170268295Y-149583019D02*
X170268295Y-148567019D01*
X169881247Y-148567019D01*
X169784485Y-148615400D01*
X169736104Y-148663780D01*
X169687723Y-148760542D01*
X169687723Y-148905685D01*
X169736104Y-149002447D01*
X169784485Y-149050828D01*
X169881247Y-149099209D01*
X170268295Y-149099209D01*
X169300676Y-149292733D02*
X168816866Y-149292733D01*
X169397438Y-149583019D02*
X169058771Y-148567019D01*
X168720104Y-149583019D01*
X168381438Y-149583019D02*
X168381438Y-148567019D01*
X168042771Y-149292733D01*
X167704104Y-148567019D01*
X167704104Y-149583019D01*
X167220295Y-149583019D02*
X167220295Y-148567019D01*
X166881628Y-149292733D01*
X166542961Y-148567019D01*
X166542961Y-149583019D01*
X166059152Y-149050828D02*
X165720485Y-149050828D01*
X165575342Y-149583019D02*
X166059152Y-149583019D01*
X166059152Y-148567019D01*
X165575342Y-148567019D01*
X164559342Y-149583019D02*
X164898009Y-149099209D01*
X165139914Y-149583019D02*
X165139914Y-148567019D01*
X164752866Y-148567019D01*
X164656104Y-148615400D01*
X164607723Y-148663780D01*
X164559342Y-148760542D01*
X164559342Y-148905685D01*
X164607723Y-149002447D01*
X164656104Y-149050828D01*
X164752866Y-149099209D01*
X165139914Y-149099209D01*
D11*
X104914295Y-97997971D02*
X104580961Y-97997971D01*
X104438104Y-98521780D02*
X104914295Y-98521780D01*
X104914295Y-97521780D01*
X104438104Y-97521780D01*
X104009533Y-98140828D02*
X103247628Y-98140828D01*
X102771438Y-98521780D02*
X102771438Y-97521780D01*
X102438104Y-98236066D01*
X102104771Y-97521780D01*
X102104771Y-98521780D01*
X101676200Y-98236066D02*
X101200009Y-98236066D01*
X101771438Y-98521780D02*
X101438104Y-97521780D01*
X101104771Y-98521780D01*
X100914295Y-97521780D02*
X100342866Y-97521780D01*
X100628580Y-98521780D02*
X100628580Y-97521780D01*
X99438104Y-98426542D02*
X99485723Y-98474161D01*
X99628580Y-98521780D01*
X99723819Y-98521780D01*
X99866676Y-98474161D01*
X99961914Y-98378923D01*
X100009533Y-98283685D01*
X100057152Y-98093209D01*
X100057152Y-97950352D01*
X100009533Y-97759876D01*
X99961914Y-97664638D01*
X99866676Y-97569400D01*
X99723819Y-97521780D01*
X99628580Y-97521780D01*
X99485723Y-97569400D01*
X99438104Y-97617019D01*
X99009533Y-98521780D02*
X99009533Y-97521780D01*
X99009533Y-97997971D02*
X98438104Y-97997971D01*
X98438104Y-98521780D02*
X98438104Y-97521780D01*
D10*
X131424438Y-149146139D02*
X131908247Y-149146139D01*
X131908247Y-148130139D01*
X130892247Y-148130139D02*
X130698723Y-148130139D01*
X130601961Y-148178520D01*
X130505200Y-148275281D01*
X130456819Y-148468805D01*
X130456819Y-148807472D01*
X130505200Y-149000996D01*
X130601961Y-149097758D01*
X130698723Y-149146139D01*
X130892247Y-149146139D01*
X130989009Y-149097758D01*
X131085771Y-149000996D01*
X131134152Y-148807472D01*
X131134152Y-148468805D01*
X131085771Y-148275281D01*
X130989009Y-148178520D01*
X130892247Y-148130139D01*
X130118152Y-148130139D02*
X129440819Y-149146139D01*
X129440819Y-148130139D02*
X130118152Y-149146139D01*
X128424819Y-148130139D02*
X127844247Y-148130139D01*
X128134533Y-149146139D02*
X128134533Y-148130139D01*
X127553961Y-148855853D02*
X127070152Y-148855853D01*
X127650723Y-149146139D02*
X127312057Y-148130139D01*
X126973390Y-149146139D01*
X126634723Y-149146139D02*
X126634723Y-148130139D01*
X126054152Y-149146139D01*
X126054152Y-148130139D01*
X125570342Y-149146139D02*
X125570342Y-148130139D01*
X124989771Y-149146139D02*
X125425200Y-148565567D01*
X124989771Y-148130139D02*
X125570342Y-148710710D01*
X129271485Y-149765899D02*
X128690914Y-149765899D01*
X128981200Y-150781899D02*
X128981200Y-149765899D01*
X127771676Y-150685137D02*
X127820057Y-150733518D01*
X127965200Y-150781899D01*
X128061961Y-150781899D01*
X128207104Y-150733518D01*
X128303866Y-150636756D01*
X128352247Y-150539994D01*
X128400628Y-150346470D01*
X128400628Y-150201327D01*
X128352247Y-150007803D01*
X128303866Y-149911041D01*
X128207104Y-149814280D01*
X128061961Y-149765899D01*
X127965200Y-149765899D01*
X127820057Y-149814280D01*
X127771676Y-149862660D01*
D11*
X124869247Y-98521780D02*
X124869247Y-97521780D01*
X124297819Y-98521780D01*
X124297819Y-97521780D01*
X123631152Y-97521780D02*
X123440676Y-97521780D01*
X123345438Y-97569400D01*
X123250200Y-97664638D01*
X123202580Y-97855114D01*
X123202580Y-98188447D01*
X123250200Y-98378923D01*
X123345438Y-98474161D01*
X123440676Y-98521780D01*
X123631152Y-98521780D01*
X123726390Y-98474161D01*
X123821628Y-98378923D01*
X123869247Y-98188447D01*
X123869247Y-97855114D01*
X123821628Y-97664638D01*
X123726390Y-97569400D01*
X123631152Y-97521780D01*
X122869247Y-97521780D02*
X122202580Y-97521780D01*
X122869247Y-98521780D01*
X122202580Y-98521780D01*
X121916866Y-97521780D02*
X121250200Y-97521780D01*
X121916866Y-98521780D01*
X121250200Y-98521780D01*
X120393057Y-98521780D02*
X120869247Y-98521780D01*
X120869247Y-97521780D01*
X120059723Y-97997971D02*
X119726390Y-97997971D01*
X119583533Y-98521780D02*
X120059723Y-98521780D01*
X120059723Y-97521780D01*
X119583533Y-97521780D01*
X116320342Y-98601161D02*
X116177485Y-98648780D01*
X115939390Y-98648780D01*
X115844152Y-98601161D01*
X115796533Y-98553542D01*
X115748914Y-98458304D01*
X115748914Y-98363066D01*
X115796533Y-98267828D01*
X115844152Y-98220209D01*
X115939390Y-98172590D01*
X116129866Y-98124971D01*
X116225104Y-98077352D01*
X116272723Y-98029733D01*
X116320342Y-97934495D01*
X116320342Y-97839257D01*
X116272723Y-97744019D01*
X116225104Y-97696400D01*
X116129866Y-97648780D01*
X115891771Y-97648780D01*
X115748914Y-97696400D01*
X115129866Y-97648780D02*
X114939390Y-97648780D01*
X114844152Y-97696400D01*
X114748914Y-97791638D01*
X114701295Y-97982114D01*
X114701295Y-98315447D01*
X114748914Y-98505923D01*
X114844152Y-98601161D01*
X114939390Y-98648780D01*
X115129866Y-98648780D01*
X115225104Y-98601161D01*
X115320342Y-98505923D01*
X115367961Y-98315447D01*
X115367961Y-97982114D01*
X115320342Y-97791638D01*
X115225104Y-97696400D01*
X115129866Y-97648780D01*
X113796533Y-98648780D02*
X114272723Y-98648780D01*
X114272723Y-97648780D01*
X113463200Y-98648780D02*
X113463200Y-97648780D01*
X112987009Y-98648780D02*
X112987009Y-97648780D01*
X112748914Y-97648780D01*
X112606057Y-97696400D01*
X112510819Y-97791638D01*
X112463200Y-97886876D01*
X112415580Y-98077352D01*
X112415580Y-98220209D01*
X112463200Y-98410685D01*
X112510819Y-98505923D01*
X112606057Y-98601161D01*
X112748914Y-98648780D01*
X112987009Y-98648780D01*
X111225104Y-98648780D02*
X111225104Y-97648780D01*
X110844152Y-97648780D01*
X110748914Y-97696400D01*
X110701295Y-97744019D01*
X110653676Y-97839257D01*
X110653676Y-97982114D01*
X110701295Y-98077352D01*
X110748914Y-98124971D01*
X110844152Y-98172590D01*
X111225104Y-98172590D01*
X109653676Y-98648780D02*
X109987009Y-98172590D01*
X110225104Y-98648780D02*
X110225104Y-97648780D01*
X109844152Y-97648780D01*
X109748914Y-97696400D01*
X109701295Y-97744019D01*
X109653676Y-97839257D01*
X109653676Y-97982114D01*
X109701295Y-98077352D01*
X109748914Y-98124971D01*
X109844152Y-98172590D01*
X110225104Y-98172590D01*
X109034628Y-97648780D02*
X108844152Y-97648780D01*
X108748914Y-97696400D01*
X108653676Y-97791638D01*
X108606057Y-97982114D01*
X108606057Y-98315447D01*
X108653676Y-98505923D01*
X108748914Y-98601161D01*
X108844152Y-98648780D01*
X109034628Y-98648780D01*
X109129866Y-98601161D01*
X109225104Y-98505923D01*
X109272723Y-98315447D01*
X109272723Y-97982114D01*
X109225104Y-97791638D01*
X109129866Y-97696400D01*
X109034628Y-97648780D01*
X108177485Y-98648780D02*
X108177485Y-97648780D01*
X107796533Y-97648780D01*
X107701295Y-97696400D01*
X107653676Y-97744019D01*
X107606057Y-97839257D01*
X107606057Y-97982114D01*
X107653676Y-98077352D01*
X107701295Y-98124971D01*
X107796533Y-98172590D01*
X108177485Y-98172590D01*
D10*
X158433104Y-148440019D02*
X158094438Y-149456019D01*
X157755771Y-148440019D01*
X157465485Y-149165733D02*
X156981676Y-149165733D01*
X157562247Y-149456019D02*
X157223580Y-148440019D01*
X156884914Y-149456019D01*
X156062438Y-149456019D02*
X156546247Y-149456019D01*
X156546247Y-148440019D01*
X155868914Y-148440019D02*
X155530247Y-149456019D01*
X155191580Y-148440019D01*
X154852914Y-148923828D02*
X154514247Y-148923828D01*
X154369104Y-149456019D02*
X154852914Y-149456019D01*
X154852914Y-148440019D01*
X154369104Y-148440019D01*
X152579009Y-149359257D02*
X152627390Y-149407638D01*
X152772533Y-149456019D01*
X152869295Y-149456019D01*
X153014438Y-149407638D01*
X153111200Y-149310876D01*
X153159580Y-149214114D01*
X153207961Y-149020590D01*
X153207961Y-148875447D01*
X153159580Y-148681923D01*
X153111200Y-148585161D01*
X153014438Y-148488400D01*
X152869295Y-148440019D01*
X152772533Y-148440019D01*
X152627390Y-148488400D01*
X152579009Y-148536780D01*
X152143580Y-149456019D02*
X152143580Y-148440019D01*
X151563009Y-149456019D01*
X151563009Y-148440019D01*
X151224342Y-148440019D02*
X150643771Y-148440019D01*
X150934057Y-149456019D02*
X150934057Y-148440019D01*
X149724533Y-149456019D02*
X150063200Y-148972209D01*
X150305104Y-149456019D02*
X150305104Y-148440019D01*
X149918057Y-148440019D01*
X149821295Y-148488400D01*
X149772914Y-148536780D01*
X149724533Y-148633542D01*
X149724533Y-148778685D01*
X149772914Y-148875447D01*
X149821295Y-148923828D01*
X149918057Y-148972209D01*
X150305104Y-148972209D01*
X148805295Y-149456019D02*
X149289104Y-149456019D01*
X149289104Y-148440019D01*
X93723580Y-139380685D02*
X94739580Y-139380685D01*
X94739580Y-138993638D01*
X94691200Y-138896876D01*
X94642819Y-138848495D01*
X94546057Y-138800114D01*
X94400914Y-138800114D01*
X94304152Y-138848495D01*
X94255771Y-138896876D01*
X94207390Y-138993638D01*
X94207390Y-139380685D01*
X93723580Y-137784114D02*
X94207390Y-138122780D01*
X93723580Y-138364685D02*
X94739580Y-138364685D01*
X94739580Y-137977638D01*
X94691200Y-137880876D01*
X94642819Y-137832495D01*
X94546057Y-137784114D01*
X94400914Y-137784114D01*
X94304152Y-137832495D01*
X94255771Y-137880876D01*
X94207390Y-137977638D01*
X94207390Y-138364685D01*
X94255771Y-137348685D02*
X94255771Y-137010019D01*
X93723580Y-136864876D02*
X93723580Y-137348685D01*
X94739580Y-137348685D01*
X94739580Y-136864876D01*
X93771961Y-136477828D02*
X93723580Y-136332685D01*
X93723580Y-136090780D01*
X93771961Y-135994019D01*
X93820342Y-135945638D01*
X93917104Y-135897257D01*
X94013866Y-135897257D01*
X94110628Y-135945638D01*
X94159009Y-135994019D01*
X94207390Y-136090780D01*
X94255771Y-136284304D01*
X94304152Y-136381066D01*
X94352533Y-136429447D01*
X94449295Y-136477828D01*
X94546057Y-136477828D01*
X94642819Y-136429447D01*
X94691200Y-136381066D01*
X94739580Y-136284304D01*
X94739580Y-136042400D01*
X94691200Y-135897257D01*
X93771961Y-135510209D02*
X93723580Y-135365066D01*
X93723580Y-135123161D01*
X93771961Y-135026400D01*
X93820342Y-134978019D01*
X93917104Y-134929638D01*
X94013866Y-134929638D01*
X94110628Y-134978019D01*
X94159009Y-135026400D01*
X94207390Y-135123161D01*
X94255771Y-135316685D01*
X94304152Y-135413447D01*
X94352533Y-135461828D01*
X94449295Y-135510209D01*
X94546057Y-135510209D01*
X94642819Y-135461828D01*
X94691200Y-135413447D01*
X94739580Y-135316685D01*
X94739580Y-135074780D01*
X94691200Y-134929638D01*
X94739580Y-134494209D02*
X93917104Y-134494209D01*
X93820342Y-134445828D01*
X93771961Y-134397447D01*
X93723580Y-134300685D01*
X93723580Y-134107161D01*
X93771961Y-134010400D01*
X93820342Y-133962019D01*
X93917104Y-133913638D01*
X94739580Y-133913638D01*
X93723580Y-132849257D02*
X94207390Y-133187923D01*
X93723580Y-133429828D02*
X94739580Y-133429828D01*
X94739580Y-133042780D01*
X94691200Y-132946019D01*
X94642819Y-132897638D01*
X94546057Y-132849257D01*
X94400914Y-132849257D01*
X94304152Y-132897638D01*
X94255771Y-132946019D01*
X94207390Y-133042780D01*
X94207390Y-133429828D01*
X94255771Y-132413828D02*
X94255771Y-132075161D01*
X93723580Y-131930019D02*
X93723580Y-132413828D01*
X94739580Y-132413828D01*
X94739580Y-131930019D01*
X94739580Y-130865638D02*
X94739580Y-130285066D01*
X93723580Y-130575352D02*
X94739580Y-130575352D01*
X93723580Y-129365828D02*
X94207390Y-129704495D01*
X93723580Y-129946400D02*
X94739580Y-129946400D01*
X94739580Y-129559352D01*
X94691200Y-129462590D01*
X94642819Y-129414209D01*
X94546057Y-129365828D01*
X94400914Y-129365828D01*
X94304152Y-129414209D01*
X94255771Y-129462590D01*
X94207390Y-129559352D01*
X94207390Y-129946400D01*
X94013866Y-128978780D02*
X94013866Y-128494971D01*
X93723580Y-129075542D02*
X94739580Y-128736876D01*
X93723580Y-128398209D01*
X93723580Y-128059542D02*
X94739580Y-128059542D01*
X93723580Y-127478971D01*
X94739580Y-127478971D01*
X93771961Y-127043542D02*
X93723580Y-126898400D01*
X93723580Y-126656495D01*
X93771961Y-126559733D01*
X93820342Y-126511352D01*
X93917104Y-126462971D01*
X94013866Y-126462971D01*
X94110628Y-126511352D01*
X94159009Y-126559733D01*
X94207390Y-126656495D01*
X94255771Y-126850019D01*
X94304152Y-126946780D01*
X94352533Y-126995161D01*
X94449295Y-127043542D01*
X94546057Y-127043542D01*
X94642819Y-126995161D01*
X94691200Y-126946780D01*
X94739580Y-126850019D01*
X94739580Y-126608114D01*
X94691200Y-126462971D01*
X93723580Y-126027542D02*
X94739580Y-126027542D01*
X94739580Y-125785638D01*
X94691200Y-125640495D01*
X94594438Y-125543733D01*
X94497676Y-125495352D01*
X94304152Y-125446971D01*
X94159009Y-125446971D01*
X93965485Y-125495352D01*
X93868723Y-125543733D01*
X93771961Y-125640495D01*
X93723580Y-125785638D01*
X93723580Y-126027542D01*
X94739580Y-125011542D02*
X93917104Y-125011542D01*
X93820342Y-124963161D01*
X93771961Y-124914780D01*
X93723580Y-124818019D01*
X93723580Y-124624495D01*
X93771961Y-124527733D01*
X93820342Y-124479352D01*
X93917104Y-124430971D01*
X94739580Y-124430971D01*
X93820342Y-123366590D02*
X93771961Y-123414971D01*
X93723580Y-123560114D01*
X93723580Y-123656876D01*
X93771961Y-123802019D01*
X93868723Y-123898780D01*
X93965485Y-123947161D01*
X94159009Y-123995542D01*
X94304152Y-123995542D01*
X94497676Y-123947161D01*
X94594438Y-123898780D01*
X94691200Y-123802019D01*
X94739580Y-123656876D01*
X94739580Y-123560114D01*
X94691200Y-123414971D01*
X94642819Y-123366590D01*
X94255771Y-122931161D02*
X94255771Y-122592495D01*
X93723580Y-122447352D02*
X93723580Y-122931161D01*
X94739580Y-122931161D01*
X94739580Y-122447352D01*
X93723580Y-121431352D02*
X94207390Y-121770019D01*
X93723580Y-122011923D02*
X94739580Y-122011923D01*
X94739580Y-121624876D01*
X94691200Y-121528114D01*
X94642819Y-121479733D01*
X94546057Y-121431352D01*
X94400914Y-121431352D01*
X94304152Y-121479733D01*
X94255771Y-121528114D01*
X94207390Y-121624876D01*
X94207390Y-122011923D01*
X93771961Y-121044304D02*
X93723580Y-120899161D01*
X93723580Y-120657257D01*
X93771961Y-120560495D01*
X93820342Y-120512114D01*
X93917104Y-120463733D01*
X94013866Y-120463733D01*
X94110628Y-120512114D01*
X94159009Y-120560495D01*
X94207390Y-120657257D01*
X94255771Y-120850780D01*
X94304152Y-120947542D01*
X94352533Y-120995923D01*
X94449295Y-121044304D01*
X94546057Y-121044304D01*
X94642819Y-120995923D01*
X94691200Y-120947542D01*
X94739580Y-120850780D01*
X94739580Y-120608876D01*
X94691200Y-120463733D01*
D11*
%TO.C,TP1*%
X161866104Y-132395980D02*
X161294676Y-132395980D01*
X161580390Y-133395980D02*
X161580390Y-132395980D01*
X160961342Y-133395980D02*
X160961342Y-132395980D01*
X160580390Y-132395980D01*
X160485152Y-132443600D01*
X160437533Y-132491219D01*
X160389914Y-132586457D01*
X160389914Y-132729314D01*
X160437533Y-132824552D01*
X160485152Y-132872171D01*
X160580390Y-132919790D01*
X160961342Y-132919790D01*
X159437533Y-133395980D02*
X160008961Y-133395980D01*
X159723247Y-133395980D02*
X159723247Y-132395980D01*
X159818485Y-132538838D01*
X159913723Y-132634076D01*
X160008961Y-132681695D01*
%TO.C,TP3*%
X181932104Y-146924780D02*
X181360676Y-146924780D01*
X181646390Y-147924780D02*
X181646390Y-146924780D01*
X181027342Y-147924780D02*
X181027342Y-146924780D01*
X180646390Y-146924780D01*
X180551152Y-146972400D01*
X180503533Y-147020019D01*
X180455914Y-147115257D01*
X180455914Y-147258114D01*
X180503533Y-147353352D01*
X180551152Y-147400971D01*
X180646390Y-147448590D01*
X181027342Y-147448590D01*
X180122580Y-146924780D02*
X179503533Y-146924780D01*
X179836866Y-147305733D01*
X179694009Y-147305733D01*
X179598771Y-147353352D01*
X179551152Y-147400971D01*
X179503533Y-147496209D01*
X179503533Y-147734304D01*
X179551152Y-147829542D01*
X179598771Y-147877161D01*
X179694009Y-147924780D01*
X179979723Y-147924780D01*
X180074961Y-147877161D01*
X180122580Y-147829542D01*
%TO.C,TP4*%
X167797004Y-109739180D02*
X167225576Y-109739180D01*
X167511290Y-110739180D02*
X167511290Y-109739180D01*
X166892242Y-110739180D02*
X166892242Y-109739180D01*
X166511290Y-109739180D01*
X166416052Y-109786800D01*
X166368433Y-109834419D01*
X166320814Y-109929657D01*
X166320814Y-110072514D01*
X166368433Y-110167752D01*
X166416052Y-110215371D01*
X166511290Y-110262990D01*
X166892242Y-110262990D01*
X165463671Y-110072514D02*
X165463671Y-110739180D01*
X165701766Y-109691561D02*
X165939861Y-110405847D01*
X165320814Y-110405847D01*
%TO.C,TP5*%
X181678104Y-144765780D02*
X181106676Y-144765780D01*
X181392390Y-145765780D02*
X181392390Y-144765780D01*
X180773342Y-145765780D02*
X180773342Y-144765780D01*
X180392390Y-144765780D01*
X180297152Y-144813400D01*
X180249533Y-144861019D01*
X180201914Y-144956257D01*
X180201914Y-145099114D01*
X180249533Y-145194352D01*
X180297152Y-145241971D01*
X180392390Y-145289590D01*
X180773342Y-145289590D01*
X179297152Y-144765780D02*
X179773342Y-144765780D01*
X179820961Y-145241971D01*
X179773342Y-145194352D01*
X179678104Y-145146733D01*
X179440009Y-145146733D01*
X179344771Y-145194352D01*
X179297152Y-145241971D01*
X179249533Y-145337209D01*
X179249533Y-145575304D01*
X179297152Y-145670542D01*
X179344771Y-145718161D01*
X179440009Y-145765780D01*
X179678104Y-145765780D01*
X179773342Y-145718161D01*
X179820961Y-145670542D01*
%TO.C,TP10*%
X152182295Y-107173780D02*
X151610866Y-107173780D01*
X151896580Y-108173780D02*
X151896580Y-107173780D01*
X151277533Y-108173780D02*
X151277533Y-107173780D01*
X150896580Y-107173780D01*
X150801342Y-107221400D01*
X150753723Y-107269019D01*
X150706104Y-107364257D01*
X150706104Y-107507114D01*
X150753723Y-107602352D01*
X150801342Y-107649971D01*
X150896580Y-107697590D01*
X151277533Y-107697590D01*
X149753723Y-108173780D02*
X150325152Y-108173780D01*
X150039438Y-108173780D02*
X150039438Y-107173780D01*
X150134676Y-107316638D01*
X150229914Y-107411876D01*
X150325152Y-107459495D01*
X149134676Y-107173780D02*
X149039438Y-107173780D01*
X148944200Y-107221400D01*
X148896580Y-107269019D01*
X148848961Y-107364257D01*
X148801342Y-107554733D01*
X148801342Y-107792828D01*
X148848961Y-107983304D01*
X148896580Y-108078542D01*
X148944200Y-108126161D01*
X149039438Y-108173780D01*
X149134676Y-108173780D01*
X149229914Y-108126161D01*
X149277533Y-108078542D01*
X149325152Y-107983304D01*
X149372771Y-107792828D01*
X149372771Y-107554733D01*
X149325152Y-107364257D01*
X149277533Y-107269019D01*
X149229914Y-107221400D01*
X149134676Y-107173780D01*
%TO.C,TP2*%
X181386004Y-104443280D02*
X180814576Y-104443280D01*
X181100290Y-105443280D02*
X181100290Y-104443280D01*
X180481242Y-105443280D02*
X180481242Y-104443280D01*
X180100290Y-104443280D01*
X180005052Y-104490900D01*
X179957433Y-104538519D01*
X179909814Y-104633757D01*
X179909814Y-104776614D01*
X179957433Y-104871852D01*
X180005052Y-104919471D01*
X180100290Y-104967090D01*
X180481242Y-104967090D01*
X179528861Y-104538519D02*
X179481242Y-104490900D01*
X179386004Y-104443280D01*
X179147909Y-104443280D01*
X179052671Y-104490900D01*
X179005052Y-104538519D01*
X178957433Y-104633757D01*
X178957433Y-104728995D01*
X179005052Y-104871852D01*
X179576480Y-105443280D01*
X178957433Y-105443280D01*
%TO.C,TP11*%
X174902595Y-115212880D02*
X174331166Y-115212880D01*
X174616880Y-116212880D02*
X174616880Y-115212880D01*
X173997833Y-116212880D02*
X173997833Y-115212880D01*
X173616880Y-115212880D01*
X173521642Y-115260500D01*
X173474023Y-115308119D01*
X173426404Y-115403357D01*
X173426404Y-115546214D01*
X173474023Y-115641452D01*
X173521642Y-115689071D01*
X173616880Y-115736690D01*
X173997833Y-115736690D01*
X172474023Y-116212880D02*
X173045452Y-116212880D01*
X172759738Y-116212880D02*
X172759738Y-115212880D01*
X172854976Y-115355738D01*
X172950214Y-115450976D01*
X173045452Y-115498595D01*
X171521642Y-116212880D02*
X172093071Y-116212880D01*
X171807357Y-116212880D02*
X171807357Y-115212880D01*
X171902595Y-115355738D01*
X171997833Y-115450976D01*
X172093071Y-115498595D01*
%TO.C,TP8*%
X122242104Y-113396780D02*
X121670676Y-113396780D01*
X121956390Y-114396780D02*
X121956390Y-113396780D01*
X121337342Y-114396780D02*
X121337342Y-113396780D01*
X120956390Y-113396780D01*
X120861152Y-113444400D01*
X120813533Y-113492019D01*
X120765914Y-113587257D01*
X120765914Y-113730114D01*
X120813533Y-113825352D01*
X120861152Y-113872971D01*
X120956390Y-113920590D01*
X121337342Y-113920590D01*
X120194485Y-113825352D02*
X120289723Y-113777733D01*
X120337342Y-113730114D01*
X120384961Y-113634876D01*
X120384961Y-113587257D01*
X120337342Y-113492019D01*
X120289723Y-113444400D01*
X120194485Y-113396780D01*
X120004009Y-113396780D01*
X119908771Y-113444400D01*
X119861152Y-113492019D01*
X119813533Y-113587257D01*
X119813533Y-113634876D01*
X119861152Y-113730114D01*
X119908771Y-113777733D01*
X120004009Y-113825352D01*
X120194485Y-113825352D01*
X120289723Y-113872971D01*
X120337342Y-113920590D01*
X120384961Y-114015828D01*
X120384961Y-114206304D01*
X120337342Y-114301542D01*
X120289723Y-114349161D01*
X120194485Y-114396780D01*
X120004009Y-114396780D01*
X119908771Y-114349161D01*
X119861152Y-114301542D01*
X119813533Y-114206304D01*
X119813533Y-114015828D01*
X119861152Y-113920590D01*
X119908771Y-113872971D01*
X120004009Y-113825352D01*
%TO.C,TP9*%
X186631104Y-137272780D02*
X186059676Y-137272780D01*
X186345390Y-138272780D02*
X186345390Y-137272780D01*
X185726342Y-138272780D02*
X185726342Y-137272780D01*
X185345390Y-137272780D01*
X185250152Y-137320400D01*
X185202533Y-137368019D01*
X185154914Y-137463257D01*
X185154914Y-137606114D01*
X185202533Y-137701352D01*
X185250152Y-137748971D01*
X185345390Y-137796590D01*
X185726342Y-137796590D01*
X184678723Y-138272780D02*
X184488247Y-138272780D01*
X184393009Y-138225161D01*
X184345390Y-138177542D01*
X184250152Y-138034685D01*
X184202533Y-137844209D01*
X184202533Y-137463257D01*
X184250152Y-137368019D01*
X184297771Y-137320400D01*
X184393009Y-137272780D01*
X184583485Y-137272780D01*
X184678723Y-137320400D01*
X184726342Y-137368019D01*
X184773961Y-137463257D01*
X184773961Y-137701352D01*
X184726342Y-137796590D01*
X184678723Y-137844209D01*
X184583485Y-137891828D01*
X184393009Y-137891828D01*
X184297771Y-137844209D01*
X184250152Y-137796590D01*
X184202533Y-137701352D01*
%TO.C,TP13*%
X178852295Y-121194580D02*
X178280866Y-121194580D01*
X178566580Y-122194580D02*
X178566580Y-121194580D01*
X177947533Y-122194580D02*
X177947533Y-121194580D01*
X177566580Y-121194580D01*
X177471342Y-121242200D01*
X177423723Y-121289819D01*
X177376104Y-121385057D01*
X177376104Y-121527914D01*
X177423723Y-121623152D01*
X177471342Y-121670771D01*
X177566580Y-121718390D01*
X177947533Y-121718390D01*
X176423723Y-122194580D02*
X176995152Y-122194580D01*
X176709438Y-122194580D02*
X176709438Y-121194580D01*
X176804676Y-121337438D01*
X176899914Y-121432676D01*
X176995152Y-121480295D01*
X176090390Y-121194580D02*
X175471342Y-121194580D01*
X175804676Y-121575533D01*
X175661819Y-121575533D01*
X175566580Y-121623152D01*
X175518961Y-121670771D01*
X175471342Y-121766009D01*
X175471342Y-122004104D01*
X175518961Y-122099342D01*
X175566580Y-122146961D01*
X175661819Y-122194580D01*
X175947533Y-122194580D01*
X176042771Y-122146961D01*
X176090390Y-122099342D01*
%TO.C,TP6*%
X177995104Y-129830580D02*
X177423676Y-129830580D01*
X177709390Y-130830580D02*
X177709390Y-129830580D01*
X177090342Y-130830580D02*
X177090342Y-129830580D01*
X176709390Y-129830580D01*
X176614152Y-129878200D01*
X176566533Y-129925819D01*
X176518914Y-130021057D01*
X176518914Y-130163914D01*
X176566533Y-130259152D01*
X176614152Y-130306771D01*
X176709390Y-130354390D01*
X177090342Y-130354390D01*
X175661771Y-129830580D02*
X175852247Y-129830580D01*
X175947485Y-129878200D01*
X175995104Y-129925819D01*
X176090342Y-130068676D01*
X176137961Y-130259152D01*
X176137961Y-130640104D01*
X176090342Y-130735342D01*
X176042723Y-130782961D01*
X175947485Y-130830580D01*
X175757009Y-130830580D01*
X175661771Y-130782961D01*
X175614152Y-130735342D01*
X175566533Y-130640104D01*
X175566533Y-130402009D01*
X175614152Y-130306771D01*
X175661771Y-130259152D01*
X175757009Y-130211533D01*
X175947485Y-130211533D01*
X176042723Y-130259152D01*
X176090342Y-130306771D01*
X176137961Y-130402009D01*
%TO.C,TP7*%
X177233104Y-133970780D02*
X176661676Y-133970780D01*
X176947390Y-134970780D02*
X176947390Y-133970780D01*
X176328342Y-134970780D02*
X176328342Y-133970780D01*
X175947390Y-133970780D01*
X175852152Y-134018400D01*
X175804533Y-134066019D01*
X175756914Y-134161257D01*
X175756914Y-134304114D01*
X175804533Y-134399352D01*
X175852152Y-134446971D01*
X175947390Y-134494590D01*
X176328342Y-134494590D01*
X175423580Y-133970780D02*
X174756914Y-133970780D01*
X175185485Y-134970780D01*
%TO.C,TP12*%
X182408295Y-132624580D02*
X181836866Y-132624580D01*
X182122580Y-133624580D02*
X182122580Y-132624580D01*
X181503533Y-133624580D02*
X181503533Y-132624580D01*
X181122580Y-132624580D01*
X181027342Y-132672200D01*
X180979723Y-132719819D01*
X180932104Y-132815057D01*
X180932104Y-132957914D01*
X180979723Y-133053152D01*
X181027342Y-133100771D01*
X181122580Y-133148390D01*
X181503533Y-133148390D01*
X179979723Y-133624580D02*
X180551152Y-133624580D01*
X180265438Y-133624580D02*
X180265438Y-132624580D01*
X180360676Y-132767438D01*
X180455914Y-132862676D01*
X180551152Y-132910295D01*
X179598771Y-132719819D02*
X179551152Y-132672200D01*
X179455914Y-132624580D01*
X179217819Y-132624580D01*
X179122580Y-132672200D01*
X179074961Y-132719819D01*
X179027342Y-132815057D01*
X179027342Y-132910295D01*
X179074961Y-133053152D01*
X179646390Y-133624580D01*
X179027342Y-133624580D01*
%TD*%
M02*
