M48
; DRILL file {KiCad 5.1.10} date Sat Nov 13 19:57:14 2021
; FORMAT={-:-/ absolute / inch / decimal}
; #@! TF.CreationDate,2021-11-13T19:57:14-07:00
; #@! TF.GenerationSoftware,Kicad,Pcbnew,5.1.10
; #@! TF.FileFunction,Plated,1,4,PTH
FMAT,2
INCH
T1C0.0118
T2C0.0157
T3C0.0200
T4C0.0299
T5C0.0300
T6C0.0382
T7C0.0390
T8C0.0400
T9C0.0402
T10C0.0433
T11C0.0925
%
G90
G05
T1
X4.525Y-4.506
X4.5355Y-4.971
X4.602Y-5.168
X4.618Y-4.677
X4.6835Y-5.2495
X4.7945Y-4.4405
X4.843Y-4.2765
X4.952Y-4.391
X4.9535Y-4.641
X4.9735Y-4.228
X4.9785Y-4.44
X4.9985Y-4.5035
X5.0635Y-4.2265
X5.1135Y-4.2335
X5.1635Y-4.227
X5.1965Y-4.3385
X5.2135Y-4.2305
X5.263Y-4.2265
X5.271Y-4.6115
X5.3092Y-5.1602
X5.314Y-4.2545
X5.3385Y-4.3995
X5.341Y-4.368
X5.3635Y-4.255
X5.4855Y-4.5255
X5.487Y-4.4775
X5.499Y-4.8755
X5.509Y-4.6085
X5.521Y-4.776
X5.523Y-5.169
X5.5245Y-4.573
X5.551Y-4.6415
X5.559Y-5.1575
X5.5825Y-5.0715
X5.602Y-5.1475
X5.6025Y-5.1
X5.6035Y-4.986
X5.6215Y-4.3685
X5.6658Y-4.2297
X5.668Y-5.4345
X5.7145Y-4.805
X5.7215Y-4.4315
X5.7335Y-4.749
X5.736Y-4.941
X5.7415Y-4.46
X5.7635Y-4.986
X5.764Y-4.9195
X5.7675Y-4.891
X5.7695Y-4.9605
X5.7715Y-5.124
X5.779Y-4.4875
X5.8125Y-4.5075
X5.8575Y-5.358
X5.8745Y-4.4655
X5.8758Y-4.6667
X5.8778Y-5.1638
X5.885Y-4.9405
X5.8925Y-4.431
X5.903Y-5.5385
X5.9035Y-4.8905
X5.904Y-4.92
X5.9085Y-5.7675
X5.9125Y-5.0835
X5.9165Y-4.675
X5.9337Y-5.1162
X5.953Y-5.3895
X5.954Y-5.7975
X5.9675Y-5.121
X5.9745Y-5.9445
X5.9755Y-4.646
X5.983Y-5.4095
X5.991Y-5.0875
X6.0025Y-4.105
X6.016Y-5.121
X6.019Y-4.493
X6.0275Y-5.4785
X6.0405Y-5.1655
X6.0765Y-4.792
X6.0965Y-5.557
X6.099Y-5.9735
X6.127Y-4.617
X6.1325Y-4.1405
X6.1435Y-5.0655
X6.1525Y-5.4995
X6.153Y-5.803
X6.1675Y-4.6335
X6.188Y-4.656
X6.199Y-4.794
X6.21Y-4.91
X6.2225Y-5.5745
X6.2255Y-4.8095
X6.229Y-4.938
X6.234Y-5.0385
X6.252Y-5.0915
X6.282Y-5.118
X6.2975Y-5.8645
X6.302Y-5.238
X6.3045Y-5.6665
X6.333Y-5.906
X6.3445Y-5.229
X6.349Y-4.8295
X6.349Y-5.389
X6.3818Y-5.3883
X6.3925Y-5.543
X6.406Y-5.3405
X6.4392Y-4.7237
X6.463Y-4.7475
X6.493Y-4.786
X6.52Y-5.0385
X6.522Y-5.0695
X6.6245Y-5.3205
X6.661Y-5.5705
X6.67Y-4.7365
X6.709Y-4.488
X6.7502Y-5.5068
X6.7755Y-5.164
X6.7825Y-4.9645
X6.786Y-5.3055
X6.794Y-5.3555
X6.815Y-4.425
X6.823Y-5.192
X6.8505Y-5.4965
X6.8625Y-5.635
X6.8715Y-5.023
X6.8915Y-5.092
X6.924Y-4.7525
X6.9245Y-5.5855
X6.962Y-5.577
X7.0175Y-5.5795
X7.0222Y-5.3797
X7.06Y-5.588
X7.074Y-5.4935
X7.0805Y-4.464
X7.135Y-4.969
X7.138Y-5.253
X7.15Y-4.92
X7.211Y-5.3795
X7.225Y-5.5095
X7.305Y-5.6345
X7.53Y-5.4345
T2
X4.7627Y-4.3952
X5.603Y-3.856
X5.6402Y-4.0032
X5.793Y-4.326
X6.9815Y-4.634
X7.1135Y-4.692
X7.323Y-4.81
T3
X3.813Y-4.546
X4.393Y-4.536
X4.5085Y-4.2605
X4.566Y-4.4515
X5.743Y-4.056
X6.053Y-3.876
X6.143Y-4.186
X6.703Y-4.116
X6.973Y-4.056
X7.148Y-4.331
X7.243Y-4.276
X7.7278Y-5.7052
T5
X4.8155Y-5.909
X4.9155Y-5.909
X5.0155Y-5.909
X5.1155Y-5.909
X5.2155Y-5.909
X5.3155Y-5.909
X5.4155Y-5.909
X5.5155Y-5.909
X5.6155Y-5.909
X5.7155Y-5.909
X6.493Y-5.9165
X6.593Y-5.9165
X6.693Y-5.9165
X6.793Y-5.9165
X6.893Y-5.9165
X6.993Y-5.9165
X7.093Y-5.9165
X7.1537Y-3.9293
X7.193Y-5.9165
X7.293Y-5.9165
X7.393Y-5.9165
T6
X7.5043Y-4.6468
X7.5043Y-4.7452
X7.583Y-4.6468
X7.583Y-4.7452
T7
X4.153Y-4.806
X4.153Y-4.906
X4.153Y-5.006
X4.153Y-5.106
X4.153Y-5.206
X4.153Y-5.306
X4.153Y-5.406
X4.153Y-5.506
X4.153Y-5.606
X4.153Y-5.706
X4.253Y-4.806
X4.253Y-4.906
X4.253Y-5.006
X4.253Y-5.106
X4.253Y-5.206
X4.253Y-5.306
X4.253Y-5.406
X4.253Y-5.506
X4.253Y-5.606
X4.253Y-5.706
T8
X4.6275Y-4.255
X5.063Y-3.876
X5.063Y-3.976
X5.163Y-3.876
X5.163Y-3.976
X5.263Y-3.876
X5.263Y-3.976
X5.363Y-3.876
X5.363Y-3.976
X5.463Y-3.876
X5.463Y-3.976
T10
X3.843Y-3.956
X4.043Y-3.956
X4.243Y-3.956
X4.443Y-3.956
X4.643Y-3.956
X4.843Y-3.956
T11
X7.6897Y-4.459
X7.6897Y-4.933
T4
G00X7.6379Y-3.9314
M15
G01X7.7281Y-3.9314
M16
G05
G00X7.811Y-4.1611
M15
G01X7.811Y-4.0709
M16
G05
T9
G00X7.5765Y-4.166
M15
G01X7.5765Y-4.066
M16
G05
T0
M30
