%TF.GenerationSoftware,KiCad,Pcbnew,5.1.10*%
%TF.CreationDate,2021-07-24T17:47:40-07:00*%
%TF.ProjectId,Engine-Controller,456e6769-6e65-42d4-936f-6e74726f6c6c,1.0*%
%TF.SameCoordinates,Original*%
%TF.FileFunction,Soldermask,Top*%
%TF.FilePolarity,Negative*%
%FSLAX46Y46*%
G04 Gerber Fmt 4.6, Leading zero omitted, Abs format (unit mm)*
G04 Created by KiCad (PCBNEW 5.1.10) date 2021-07-24 17:47:40*
%MOMM*%
%LPD*%
G01*
G04 APERTURE LIST*
%ADD10C,0.010000*%
%ADD11R,3.500000X3.500000*%
%ADD12R,3.200000X1.600000*%
%ADD13R,0.965200X1.295400*%
%ADD14R,0.950000X2.150000*%
%ADD15R,3.250000X2.150000*%
%ADD16R,1.193800X0.304800*%
%ADD17R,0.304800X1.193800*%
%ADD18C,1.524000*%
%ADD19R,3.048000X2.413000*%
%ADD20C,1.371600*%
%ADD21R,1.371600X1.371600*%
%ADD22R,1.000000X1.100000*%
%ADD23R,1.100000X1.000000*%
%ADD24R,1.295400X0.965200*%
%ADD25R,1.020000X0.940000*%
%ADD26R,0.920000X1.380000*%
%ADD27R,0.940000X1.020000*%
%ADD28R,1.549400X0.990600*%
%ADD29O,2.200000X4.400000*%
%ADD30O,1.900000X3.800000*%
%ADD31O,3.800000X1.900000*%
%ADD32C,3.366000*%
%ADD33C,1.478000*%
%ADD34R,1.478000X1.478000*%
%ADD35R,2.400000X1.100000*%
%ADD36C,0.950000*%
%ADD37R,1.400000X0.620000*%
%ADD38R,1.970000X0.600000*%
%ADD39R,1.524000X0.558800*%
%ADD40R,0.838200X0.457200*%
%ADD41R,1.041400X0.584200*%
%ADD42R,0.410000X1.570000*%
G04 APERTURE END LIST*
D10*
%TO.C,U2*%
G36*
X179263000Y-140501800D02*
G01*
X177673000Y-140501800D01*
X177670383Y-140501731D01*
X177667774Y-140501526D01*
X177665178Y-140501184D01*
X177662604Y-140500707D01*
X177660059Y-140500096D01*
X177657549Y-140499353D01*
X177655082Y-140498479D01*
X177652663Y-140497477D01*
X177650300Y-140496350D01*
X177648000Y-140495101D01*
X177645768Y-140493734D01*
X177643611Y-140492251D01*
X177641534Y-140490657D01*
X177639543Y-140488957D01*
X177637645Y-140487155D01*
X177635843Y-140485257D01*
X177634143Y-140483266D01*
X177632549Y-140481189D01*
X177631066Y-140479032D01*
X177629699Y-140476800D01*
X177628450Y-140474500D01*
X177627323Y-140472137D01*
X177626321Y-140469718D01*
X177625447Y-140467251D01*
X177624704Y-140464741D01*
X177624093Y-140462196D01*
X177623616Y-140459622D01*
X177623274Y-140457026D01*
X177623069Y-140454417D01*
X177623000Y-140451800D01*
X177623000Y-139811800D01*
X177623069Y-139809183D01*
X177623274Y-139806574D01*
X177623616Y-139803978D01*
X177624093Y-139801404D01*
X177624704Y-139798859D01*
X177625447Y-139796349D01*
X177626321Y-139793882D01*
X177627323Y-139791463D01*
X177628450Y-139789100D01*
X177629699Y-139786800D01*
X177631066Y-139784568D01*
X177632549Y-139782411D01*
X177634143Y-139780334D01*
X177635843Y-139778343D01*
X177637645Y-139776445D01*
X177639543Y-139774643D01*
X177641534Y-139772943D01*
X177643611Y-139771349D01*
X177645768Y-139769866D01*
X177648000Y-139768499D01*
X177650300Y-139767250D01*
X177652663Y-139766123D01*
X177655082Y-139765121D01*
X177657549Y-139764247D01*
X177660059Y-139763504D01*
X177662604Y-139762893D01*
X177665178Y-139762416D01*
X177667774Y-139762074D01*
X177670383Y-139761869D01*
X177673000Y-139761800D01*
X179263000Y-139761800D01*
X179265617Y-139761869D01*
X179268226Y-139762074D01*
X179270822Y-139762416D01*
X179273396Y-139762893D01*
X179275941Y-139763504D01*
X179278451Y-139764247D01*
X179280918Y-139765121D01*
X179283337Y-139766123D01*
X179285700Y-139767250D01*
X179288000Y-139768499D01*
X179290232Y-139769866D01*
X179292389Y-139771349D01*
X179294466Y-139772943D01*
X179296457Y-139774643D01*
X179298355Y-139776445D01*
X179300157Y-139778343D01*
X179301857Y-139780334D01*
X179303451Y-139782411D01*
X179304934Y-139784568D01*
X179306301Y-139786800D01*
X179307550Y-139789100D01*
X179308677Y-139791463D01*
X179309679Y-139793882D01*
X179310553Y-139796349D01*
X179311296Y-139798859D01*
X179311907Y-139801404D01*
X179312384Y-139803978D01*
X179312726Y-139806574D01*
X179312931Y-139809183D01*
X179313000Y-139811800D01*
X179313000Y-140451800D01*
X179312931Y-140454417D01*
X179312726Y-140457026D01*
X179312384Y-140459622D01*
X179311907Y-140462196D01*
X179311296Y-140464741D01*
X179310553Y-140467251D01*
X179309679Y-140469718D01*
X179308677Y-140472137D01*
X179307550Y-140474500D01*
X179306301Y-140476800D01*
X179304934Y-140479032D01*
X179303451Y-140481189D01*
X179301857Y-140483266D01*
X179300157Y-140485257D01*
X179298355Y-140487155D01*
X179296457Y-140488957D01*
X179294466Y-140490657D01*
X179292389Y-140492251D01*
X179290232Y-140493734D01*
X179288000Y-140495101D01*
X179285700Y-140496350D01*
X179283337Y-140497477D01*
X179280918Y-140498479D01*
X179278451Y-140499353D01*
X179275941Y-140500096D01*
X179273396Y-140500707D01*
X179270822Y-140501184D01*
X179268226Y-140501526D01*
X179265617Y-140501731D01*
X179263000Y-140501800D01*
G37*
X179263000Y-140501800D02*
X177673000Y-140501800D01*
X177670383Y-140501731D01*
X177667774Y-140501526D01*
X177665178Y-140501184D01*
X177662604Y-140500707D01*
X177660059Y-140500096D01*
X177657549Y-140499353D01*
X177655082Y-140498479D01*
X177652663Y-140497477D01*
X177650300Y-140496350D01*
X177648000Y-140495101D01*
X177645768Y-140493734D01*
X177643611Y-140492251D01*
X177641534Y-140490657D01*
X177639543Y-140488957D01*
X177637645Y-140487155D01*
X177635843Y-140485257D01*
X177634143Y-140483266D01*
X177632549Y-140481189D01*
X177631066Y-140479032D01*
X177629699Y-140476800D01*
X177628450Y-140474500D01*
X177627323Y-140472137D01*
X177626321Y-140469718D01*
X177625447Y-140467251D01*
X177624704Y-140464741D01*
X177624093Y-140462196D01*
X177623616Y-140459622D01*
X177623274Y-140457026D01*
X177623069Y-140454417D01*
X177623000Y-140451800D01*
X177623000Y-139811800D01*
X177623069Y-139809183D01*
X177623274Y-139806574D01*
X177623616Y-139803978D01*
X177624093Y-139801404D01*
X177624704Y-139798859D01*
X177625447Y-139796349D01*
X177626321Y-139793882D01*
X177627323Y-139791463D01*
X177628450Y-139789100D01*
X177629699Y-139786800D01*
X177631066Y-139784568D01*
X177632549Y-139782411D01*
X177634143Y-139780334D01*
X177635843Y-139778343D01*
X177637645Y-139776445D01*
X177639543Y-139774643D01*
X177641534Y-139772943D01*
X177643611Y-139771349D01*
X177645768Y-139769866D01*
X177648000Y-139768499D01*
X177650300Y-139767250D01*
X177652663Y-139766123D01*
X177655082Y-139765121D01*
X177657549Y-139764247D01*
X177660059Y-139763504D01*
X177662604Y-139762893D01*
X177665178Y-139762416D01*
X177667774Y-139762074D01*
X177670383Y-139761869D01*
X177673000Y-139761800D01*
X179263000Y-139761800D01*
X179265617Y-139761869D01*
X179268226Y-139762074D01*
X179270822Y-139762416D01*
X179273396Y-139762893D01*
X179275941Y-139763504D01*
X179278451Y-139764247D01*
X179280918Y-139765121D01*
X179283337Y-139766123D01*
X179285700Y-139767250D01*
X179288000Y-139768499D01*
X179290232Y-139769866D01*
X179292389Y-139771349D01*
X179294466Y-139772943D01*
X179296457Y-139774643D01*
X179298355Y-139776445D01*
X179300157Y-139778343D01*
X179301857Y-139780334D01*
X179303451Y-139782411D01*
X179304934Y-139784568D01*
X179306301Y-139786800D01*
X179307550Y-139789100D01*
X179308677Y-139791463D01*
X179309679Y-139793882D01*
X179310553Y-139796349D01*
X179311296Y-139798859D01*
X179311907Y-139801404D01*
X179312384Y-139803978D01*
X179312726Y-139806574D01*
X179312931Y-139809183D01*
X179313000Y-139811800D01*
X179313000Y-140451800D01*
X179312931Y-140454417D01*
X179312726Y-140457026D01*
X179312384Y-140459622D01*
X179311907Y-140462196D01*
X179311296Y-140464741D01*
X179310553Y-140467251D01*
X179309679Y-140469718D01*
X179308677Y-140472137D01*
X179307550Y-140474500D01*
X179306301Y-140476800D01*
X179304934Y-140479032D01*
X179303451Y-140481189D01*
X179301857Y-140483266D01*
X179300157Y-140485257D01*
X179298355Y-140487155D01*
X179296457Y-140488957D01*
X179294466Y-140490657D01*
X179292389Y-140492251D01*
X179290232Y-140493734D01*
X179288000Y-140495101D01*
X179285700Y-140496350D01*
X179283337Y-140497477D01*
X179280918Y-140498479D01*
X179278451Y-140499353D01*
X179275941Y-140500096D01*
X179273396Y-140500707D01*
X179270822Y-140501184D01*
X179268226Y-140501526D01*
X179265617Y-140501731D01*
X179263000Y-140501800D01*
G36*
X179263000Y-139231800D02*
G01*
X177673000Y-139231800D01*
X177670383Y-139231731D01*
X177667774Y-139231526D01*
X177665178Y-139231184D01*
X177662604Y-139230707D01*
X177660059Y-139230096D01*
X177657549Y-139229353D01*
X177655082Y-139228479D01*
X177652663Y-139227477D01*
X177650300Y-139226350D01*
X177648000Y-139225101D01*
X177645768Y-139223734D01*
X177643611Y-139222251D01*
X177641534Y-139220657D01*
X177639543Y-139218957D01*
X177637645Y-139217155D01*
X177635843Y-139215257D01*
X177634143Y-139213266D01*
X177632549Y-139211189D01*
X177631066Y-139209032D01*
X177629699Y-139206800D01*
X177628450Y-139204500D01*
X177627323Y-139202137D01*
X177626321Y-139199718D01*
X177625447Y-139197251D01*
X177624704Y-139194741D01*
X177624093Y-139192196D01*
X177623616Y-139189622D01*
X177623274Y-139187026D01*
X177623069Y-139184417D01*
X177623000Y-139181800D01*
X177623000Y-138541800D01*
X177623069Y-138539183D01*
X177623274Y-138536574D01*
X177623616Y-138533978D01*
X177624093Y-138531404D01*
X177624704Y-138528859D01*
X177625447Y-138526349D01*
X177626321Y-138523882D01*
X177627323Y-138521463D01*
X177628450Y-138519100D01*
X177629699Y-138516800D01*
X177631066Y-138514568D01*
X177632549Y-138512411D01*
X177634143Y-138510334D01*
X177635843Y-138508343D01*
X177637645Y-138506445D01*
X177639543Y-138504643D01*
X177641534Y-138502943D01*
X177643611Y-138501349D01*
X177645768Y-138499866D01*
X177648000Y-138498499D01*
X177650300Y-138497250D01*
X177652663Y-138496123D01*
X177655082Y-138495121D01*
X177657549Y-138494247D01*
X177660059Y-138493504D01*
X177662604Y-138492893D01*
X177665178Y-138492416D01*
X177667774Y-138492074D01*
X177670383Y-138491869D01*
X177673000Y-138491800D01*
X179263000Y-138491800D01*
X179265617Y-138491869D01*
X179268226Y-138492074D01*
X179270822Y-138492416D01*
X179273396Y-138492893D01*
X179275941Y-138493504D01*
X179278451Y-138494247D01*
X179280918Y-138495121D01*
X179283337Y-138496123D01*
X179285700Y-138497250D01*
X179288000Y-138498499D01*
X179290232Y-138499866D01*
X179292389Y-138501349D01*
X179294466Y-138502943D01*
X179296457Y-138504643D01*
X179298355Y-138506445D01*
X179300157Y-138508343D01*
X179301857Y-138510334D01*
X179303451Y-138512411D01*
X179304934Y-138514568D01*
X179306301Y-138516800D01*
X179307550Y-138519100D01*
X179308677Y-138521463D01*
X179309679Y-138523882D01*
X179310553Y-138526349D01*
X179311296Y-138528859D01*
X179311907Y-138531404D01*
X179312384Y-138533978D01*
X179312726Y-138536574D01*
X179312931Y-138539183D01*
X179313000Y-138541800D01*
X179313000Y-139181800D01*
X179312931Y-139184417D01*
X179312726Y-139187026D01*
X179312384Y-139189622D01*
X179311907Y-139192196D01*
X179311296Y-139194741D01*
X179310553Y-139197251D01*
X179309679Y-139199718D01*
X179308677Y-139202137D01*
X179307550Y-139204500D01*
X179306301Y-139206800D01*
X179304934Y-139209032D01*
X179303451Y-139211189D01*
X179301857Y-139213266D01*
X179300157Y-139215257D01*
X179298355Y-139217155D01*
X179296457Y-139218957D01*
X179294466Y-139220657D01*
X179292389Y-139222251D01*
X179290232Y-139223734D01*
X179288000Y-139225101D01*
X179285700Y-139226350D01*
X179283337Y-139227477D01*
X179280918Y-139228479D01*
X179278451Y-139229353D01*
X179275941Y-139230096D01*
X179273396Y-139230707D01*
X179270822Y-139231184D01*
X179268226Y-139231526D01*
X179265617Y-139231731D01*
X179263000Y-139231800D01*
G37*
X179263000Y-139231800D02*
X177673000Y-139231800D01*
X177670383Y-139231731D01*
X177667774Y-139231526D01*
X177665178Y-139231184D01*
X177662604Y-139230707D01*
X177660059Y-139230096D01*
X177657549Y-139229353D01*
X177655082Y-139228479D01*
X177652663Y-139227477D01*
X177650300Y-139226350D01*
X177648000Y-139225101D01*
X177645768Y-139223734D01*
X177643611Y-139222251D01*
X177641534Y-139220657D01*
X177639543Y-139218957D01*
X177637645Y-139217155D01*
X177635843Y-139215257D01*
X177634143Y-139213266D01*
X177632549Y-139211189D01*
X177631066Y-139209032D01*
X177629699Y-139206800D01*
X177628450Y-139204500D01*
X177627323Y-139202137D01*
X177626321Y-139199718D01*
X177625447Y-139197251D01*
X177624704Y-139194741D01*
X177624093Y-139192196D01*
X177623616Y-139189622D01*
X177623274Y-139187026D01*
X177623069Y-139184417D01*
X177623000Y-139181800D01*
X177623000Y-138541800D01*
X177623069Y-138539183D01*
X177623274Y-138536574D01*
X177623616Y-138533978D01*
X177624093Y-138531404D01*
X177624704Y-138528859D01*
X177625447Y-138526349D01*
X177626321Y-138523882D01*
X177627323Y-138521463D01*
X177628450Y-138519100D01*
X177629699Y-138516800D01*
X177631066Y-138514568D01*
X177632549Y-138512411D01*
X177634143Y-138510334D01*
X177635843Y-138508343D01*
X177637645Y-138506445D01*
X177639543Y-138504643D01*
X177641534Y-138502943D01*
X177643611Y-138501349D01*
X177645768Y-138499866D01*
X177648000Y-138498499D01*
X177650300Y-138497250D01*
X177652663Y-138496123D01*
X177655082Y-138495121D01*
X177657549Y-138494247D01*
X177660059Y-138493504D01*
X177662604Y-138492893D01*
X177665178Y-138492416D01*
X177667774Y-138492074D01*
X177670383Y-138491869D01*
X177673000Y-138491800D01*
X179263000Y-138491800D01*
X179265617Y-138491869D01*
X179268226Y-138492074D01*
X179270822Y-138492416D01*
X179273396Y-138492893D01*
X179275941Y-138493504D01*
X179278451Y-138494247D01*
X179280918Y-138495121D01*
X179283337Y-138496123D01*
X179285700Y-138497250D01*
X179288000Y-138498499D01*
X179290232Y-138499866D01*
X179292389Y-138501349D01*
X179294466Y-138502943D01*
X179296457Y-138504643D01*
X179298355Y-138506445D01*
X179300157Y-138508343D01*
X179301857Y-138510334D01*
X179303451Y-138512411D01*
X179304934Y-138514568D01*
X179306301Y-138516800D01*
X179307550Y-138519100D01*
X179308677Y-138521463D01*
X179309679Y-138523882D01*
X179310553Y-138526349D01*
X179311296Y-138528859D01*
X179311907Y-138531404D01*
X179312384Y-138533978D01*
X179312726Y-138536574D01*
X179312931Y-138539183D01*
X179313000Y-138541800D01*
X179313000Y-139181800D01*
X179312931Y-139184417D01*
X179312726Y-139187026D01*
X179312384Y-139189622D01*
X179311907Y-139192196D01*
X179311296Y-139194741D01*
X179310553Y-139197251D01*
X179309679Y-139199718D01*
X179308677Y-139202137D01*
X179307550Y-139204500D01*
X179306301Y-139206800D01*
X179304934Y-139209032D01*
X179303451Y-139211189D01*
X179301857Y-139213266D01*
X179300157Y-139215257D01*
X179298355Y-139217155D01*
X179296457Y-139218957D01*
X179294466Y-139220657D01*
X179292389Y-139222251D01*
X179290232Y-139223734D01*
X179288000Y-139225101D01*
X179285700Y-139226350D01*
X179283337Y-139227477D01*
X179280918Y-139228479D01*
X179278451Y-139229353D01*
X179275941Y-139230096D01*
X179273396Y-139230707D01*
X179270822Y-139231184D01*
X179268226Y-139231526D01*
X179265617Y-139231731D01*
X179263000Y-139231800D01*
G36*
X179263000Y-137961800D02*
G01*
X177673000Y-137961800D01*
X177670383Y-137961731D01*
X177667774Y-137961526D01*
X177665178Y-137961184D01*
X177662604Y-137960707D01*
X177660059Y-137960096D01*
X177657549Y-137959353D01*
X177655082Y-137958479D01*
X177652663Y-137957477D01*
X177650300Y-137956350D01*
X177648000Y-137955101D01*
X177645768Y-137953734D01*
X177643611Y-137952251D01*
X177641534Y-137950657D01*
X177639543Y-137948957D01*
X177637645Y-137947155D01*
X177635843Y-137945257D01*
X177634143Y-137943266D01*
X177632549Y-137941189D01*
X177631066Y-137939032D01*
X177629699Y-137936800D01*
X177628450Y-137934500D01*
X177627323Y-137932137D01*
X177626321Y-137929718D01*
X177625447Y-137927251D01*
X177624704Y-137924741D01*
X177624093Y-137922196D01*
X177623616Y-137919622D01*
X177623274Y-137917026D01*
X177623069Y-137914417D01*
X177623000Y-137911800D01*
X177623000Y-137271800D01*
X177623069Y-137269183D01*
X177623274Y-137266574D01*
X177623616Y-137263978D01*
X177624093Y-137261404D01*
X177624704Y-137258859D01*
X177625447Y-137256349D01*
X177626321Y-137253882D01*
X177627323Y-137251463D01*
X177628450Y-137249100D01*
X177629699Y-137246800D01*
X177631066Y-137244568D01*
X177632549Y-137242411D01*
X177634143Y-137240334D01*
X177635843Y-137238343D01*
X177637645Y-137236445D01*
X177639543Y-137234643D01*
X177641534Y-137232943D01*
X177643611Y-137231349D01*
X177645768Y-137229866D01*
X177648000Y-137228499D01*
X177650300Y-137227250D01*
X177652663Y-137226123D01*
X177655082Y-137225121D01*
X177657549Y-137224247D01*
X177660059Y-137223504D01*
X177662604Y-137222893D01*
X177665178Y-137222416D01*
X177667774Y-137222074D01*
X177670383Y-137221869D01*
X177673000Y-137221800D01*
X179263000Y-137221800D01*
X179265617Y-137221869D01*
X179268226Y-137222074D01*
X179270822Y-137222416D01*
X179273396Y-137222893D01*
X179275941Y-137223504D01*
X179278451Y-137224247D01*
X179280918Y-137225121D01*
X179283337Y-137226123D01*
X179285700Y-137227250D01*
X179288000Y-137228499D01*
X179290232Y-137229866D01*
X179292389Y-137231349D01*
X179294466Y-137232943D01*
X179296457Y-137234643D01*
X179298355Y-137236445D01*
X179300157Y-137238343D01*
X179301857Y-137240334D01*
X179303451Y-137242411D01*
X179304934Y-137244568D01*
X179306301Y-137246800D01*
X179307550Y-137249100D01*
X179308677Y-137251463D01*
X179309679Y-137253882D01*
X179310553Y-137256349D01*
X179311296Y-137258859D01*
X179311907Y-137261404D01*
X179312384Y-137263978D01*
X179312726Y-137266574D01*
X179312931Y-137269183D01*
X179313000Y-137271800D01*
X179313000Y-137911800D01*
X179312931Y-137914417D01*
X179312726Y-137917026D01*
X179312384Y-137919622D01*
X179311907Y-137922196D01*
X179311296Y-137924741D01*
X179310553Y-137927251D01*
X179309679Y-137929718D01*
X179308677Y-137932137D01*
X179307550Y-137934500D01*
X179306301Y-137936800D01*
X179304934Y-137939032D01*
X179303451Y-137941189D01*
X179301857Y-137943266D01*
X179300157Y-137945257D01*
X179298355Y-137947155D01*
X179296457Y-137948957D01*
X179294466Y-137950657D01*
X179292389Y-137952251D01*
X179290232Y-137953734D01*
X179288000Y-137955101D01*
X179285700Y-137956350D01*
X179283337Y-137957477D01*
X179280918Y-137958479D01*
X179278451Y-137959353D01*
X179275941Y-137960096D01*
X179273396Y-137960707D01*
X179270822Y-137961184D01*
X179268226Y-137961526D01*
X179265617Y-137961731D01*
X179263000Y-137961800D01*
G37*
X179263000Y-137961800D02*
X177673000Y-137961800D01*
X177670383Y-137961731D01*
X177667774Y-137961526D01*
X177665178Y-137961184D01*
X177662604Y-137960707D01*
X177660059Y-137960096D01*
X177657549Y-137959353D01*
X177655082Y-137958479D01*
X177652663Y-137957477D01*
X177650300Y-137956350D01*
X177648000Y-137955101D01*
X177645768Y-137953734D01*
X177643611Y-137952251D01*
X177641534Y-137950657D01*
X177639543Y-137948957D01*
X177637645Y-137947155D01*
X177635843Y-137945257D01*
X177634143Y-137943266D01*
X177632549Y-137941189D01*
X177631066Y-137939032D01*
X177629699Y-137936800D01*
X177628450Y-137934500D01*
X177627323Y-137932137D01*
X177626321Y-137929718D01*
X177625447Y-137927251D01*
X177624704Y-137924741D01*
X177624093Y-137922196D01*
X177623616Y-137919622D01*
X177623274Y-137917026D01*
X177623069Y-137914417D01*
X177623000Y-137911800D01*
X177623000Y-137271800D01*
X177623069Y-137269183D01*
X177623274Y-137266574D01*
X177623616Y-137263978D01*
X177624093Y-137261404D01*
X177624704Y-137258859D01*
X177625447Y-137256349D01*
X177626321Y-137253882D01*
X177627323Y-137251463D01*
X177628450Y-137249100D01*
X177629699Y-137246800D01*
X177631066Y-137244568D01*
X177632549Y-137242411D01*
X177634143Y-137240334D01*
X177635843Y-137238343D01*
X177637645Y-137236445D01*
X177639543Y-137234643D01*
X177641534Y-137232943D01*
X177643611Y-137231349D01*
X177645768Y-137229866D01*
X177648000Y-137228499D01*
X177650300Y-137227250D01*
X177652663Y-137226123D01*
X177655082Y-137225121D01*
X177657549Y-137224247D01*
X177660059Y-137223504D01*
X177662604Y-137222893D01*
X177665178Y-137222416D01*
X177667774Y-137222074D01*
X177670383Y-137221869D01*
X177673000Y-137221800D01*
X179263000Y-137221800D01*
X179265617Y-137221869D01*
X179268226Y-137222074D01*
X179270822Y-137222416D01*
X179273396Y-137222893D01*
X179275941Y-137223504D01*
X179278451Y-137224247D01*
X179280918Y-137225121D01*
X179283337Y-137226123D01*
X179285700Y-137227250D01*
X179288000Y-137228499D01*
X179290232Y-137229866D01*
X179292389Y-137231349D01*
X179294466Y-137232943D01*
X179296457Y-137234643D01*
X179298355Y-137236445D01*
X179300157Y-137238343D01*
X179301857Y-137240334D01*
X179303451Y-137242411D01*
X179304934Y-137244568D01*
X179306301Y-137246800D01*
X179307550Y-137249100D01*
X179308677Y-137251463D01*
X179309679Y-137253882D01*
X179310553Y-137256349D01*
X179311296Y-137258859D01*
X179311907Y-137261404D01*
X179312384Y-137263978D01*
X179312726Y-137266574D01*
X179312931Y-137269183D01*
X179313000Y-137271800D01*
X179313000Y-137911800D01*
X179312931Y-137914417D01*
X179312726Y-137917026D01*
X179312384Y-137919622D01*
X179311907Y-137922196D01*
X179311296Y-137924741D01*
X179310553Y-137927251D01*
X179309679Y-137929718D01*
X179308677Y-137932137D01*
X179307550Y-137934500D01*
X179306301Y-137936800D01*
X179304934Y-137939032D01*
X179303451Y-137941189D01*
X179301857Y-137943266D01*
X179300157Y-137945257D01*
X179298355Y-137947155D01*
X179296457Y-137948957D01*
X179294466Y-137950657D01*
X179292389Y-137952251D01*
X179290232Y-137953734D01*
X179288000Y-137955101D01*
X179285700Y-137956350D01*
X179283337Y-137957477D01*
X179280918Y-137958479D01*
X179278451Y-137959353D01*
X179275941Y-137960096D01*
X179273396Y-137960707D01*
X179270822Y-137961184D01*
X179268226Y-137961526D01*
X179265617Y-137961731D01*
X179263000Y-137961800D01*
G36*
X179263000Y-136691800D02*
G01*
X177673000Y-136691800D01*
X177670383Y-136691731D01*
X177667774Y-136691526D01*
X177665178Y-136691184D01*
X177662604Y-136690707D01*
X177660059Y-136690096D01*
X177657549Y-136689353D01*
X177655082Y-136688479D01*
X177652663Y-136687477D01*
X177650300Y-136686350D01*
X177648000Y-136685101D01*
X177645768Y-136683734D01*
X177643611Y-136682251D01*
X177641534Y-136680657D01*
X177639543Y-136678957D01*
X177637645Y-136677155D01*
X177635843Y-136675257D01*
X177634143Y-136673266D01*
X177632549Y-136671189D01*
X177631066Y-136669032D01*
X177629699Y-136666800D01*
X177628450Y-136664500D01*
X177627323Y-136662137D01*
X177626321Y-136659718D01*
X177625447Y-136657251D01*
X177624704Y-136654741D01*
X177624093Y-136652196D01*
X177623616Y-136649622D01*
X177623274Y-136647026D01*
X177623069Y-136644417D01*
X177623000Y-136641800D01*
X177623000Y-136001800D01*
X177623069Y-135999183D01*
X177623274Y-135996574D01*
X177623616Y-135993978D01*
X177624093Y-135991404D01*
X177624704Y-135988859D01*
X177625447Y-135986349D01*
X177626321Y-135983882D01*
X177627323Y-135981463D01*
X177628450Y-135979100D01*
X177629699Y-135976800D01*
X177631066Y-135974568D01*
X177632549Y-135972411D01*
X177634143Y-135970334D01*
X177635843Y-135968343D01*
X177637645Y-135966445D01*
X177639543Y-135964643D01*
X177641534Y-135962943D01*
X177643611Y-135961349D01*
X177645768Y-135959866D01*
X177648000Y-135958499D01*
X177650300Y-135957250D01*
X177652663Y-135956123D01*
X177655082Y-135955121D01*
X177657549Y-135954247D01*
X177660059Y-135953504D01*
X177662604Y-135952893D01*
X177665178Y-135952416D01*
X177667774Y-135952074D01*
X177670383Y-135951869D01*
X177673000Y-135951800D01*
X179263000Y-135951800D01*
X179265617Y-135951869D01*
X179268226Y-135952074D01*
X179270822Y-135952416D01*
X179273396Y-135952893D01*
X179275941Y-135953504D01*
X179278451Y-135954247D01*
X179280918Y-135955121D01*
X179283337Y-135956123D01*
X179285700Y-135957250D01*
X179288000Y-135958499D01*
X179290232Y-135959866D01*
X179292389Y-135961349D01*
X179294466Y-135962943D01*
X179296457Y-135964643D01*
X179298355Y-135966445D01*
X179300157Y-135968343D01*
X179301857Y-135970334D01*
X179303451Y-135972411D01*
X179304934Y-135974568D01*
X179306301Y-135976800D01*
X179307550Y-135979100D01*
X179308677Y-135981463D01*
X179309679Y-135983882D01*
X179310553Y-135986349D01*
X179311296Y-135988859D01*
X179311907Y-135991404D01*
X179312384Y-135993978D01*
X179312726Y-135996574D01*
X179312931Y-135999183D01*
X179313000Y-136001800D01*
X179313000Y-136641800D01*
X179312931Y-136644417D01*
X179312726Y-136647026D01*
X179312384Y-136649622D01*
X179311907Y-136652196D01*
X179311296Y-136654741D01*
X179310553Y-136657251D01*
X179309679Y-136659718D01*
X179308677Y-136662137D01*
X179307550Y-136664500D01*
X179306301Y-136666800D01*
X179304934Y-136669032D01*
X179303451Y-136671189D01*
X179301857Y-136673266D01*
X179300157Y-136675257D01*
X179298355Y-136677155D01*
X179296457Y-136678957D01*
X179294466Y-136680657D01*
X179292389Y-136682251D01*
X179290232Y-136683734D01*
X179288000Y-136685101D01*
X179285700Y-136686350D01*
X179283337Y-136687477D01*
X179280918Y-136688479D01*
X179278451Y-136689353D01*
X179275941Y-136690096D01*
X179273396Y-136690707D01*
X179270822Y-136691184D01*
X179268226Y-136691526D01*
X179265617Y-136691731D01*
X179263000Y-136691800D01*
G37*
X179263000Y-136691800D02*
X177673000Y-136691800D01*
X177670383Y-136691731D01*
X177667774Y-136691526D01*
X177665178Y-136691184D01*
X177662604Y-136690707D01*
X177660059Y-136690096D01*
X177657549Y-136689353D01*
X177655082Y-136688479D01*
X177652663Y-136687477D01*
X177650300Y-136686350D01*
X177648000Y-136685101D01*
X177645768Y-136683734D01*
X177643611Y-136682251D01*
X177641534Y-136680657D01*
X177639543Y-136678957D01*
X177637645Y-136677155D01*
X177635843Y-136675257D01*
X177634143Y-136673266D01*
X177632549Y-136671189D01*
X177631066Y-136669032D01*
X177629699Y-136666800D01*
X177628450Y-136664500D01*
X177627323Y-136662137D01*
X177626321Y-136659718D01*
X177625447Y-136657251D01*
X177624704Y-136654741D01*
X177624093Y-136652196D01*
X177623616Y-136649622D01*
X177623274Y-136647026D01*
X177623069Y-136644417D01*
X177623000Y-136641800D01*
X177623000Y-136001800D01*
X177623069Y-135999183D01*
X177623274Y-135996574D01*
X177623616Y-135993978D01*
X177624093Y-135991404D01*
X177624704Y-135988859D01*
X177625447Y-135986349D01*
X177626321Y-135983882D01*
X177627323Y-135981463D01*
X177628450Y-135979100D01*
X177629699Y-135976800D01*
X177631066Y-135974568D01*
X177632549Y-135972411D01*
X177634143Y-135970334D01*
X177635843Y-135968343D01*
X177637645Y-135966445D01*
X177639543Y-135964643D01*
X177641534Y-135962943D01*
X177643611Y-135961349D01*
X177645768Y-135959866D01*
X177648000Y-135958499D01*
X177650300Y-135957250D01*
X177652663Y-135956123D01*
X177655082Y-135955121D01*
X177657549Y-135954247D01*
X177660059Y-135953504D01*
X177662604Y-135952893D01*
X177665178Y-135952416D01*
X177667774Y-135952074D01*
X177670383Y-135951869D01*
X177673000Y-135951800D01*
X179263000Y-135951800D01*
X179265617Y-135951869D01*
X179268226Y-135952074D01*
X179270822Y-135952416D01*
X179273396Y-135952893D01*
X179275941Y-135953504D01*
X179278451Y-135954247D01*
X179280918Y-135955121D01*
X179283337Y-135956123D01*
X179285700Y-135957250D01*
X179288000Y-135958499D01*
X179290232Y-135959866D01*
X179292389Y-135961349D01*
X179294466Y-135962943D01*
X179296457Y-135964643D01*
X179298355Y-135966445D01*
X179300157Y-135968343D01*
X179301857Y-135970334D01*
X179303451Y-135972411D01*
X179304934Y-135974568D01*
X179306301Y-135976800D01*
X179307550Y-135979100D01*
X179308677Y-135981463D01*
X179309679Y-135983882D01*
X179310553Y-135986349D01*
X179311296Y-135988859D01*
X179311907Y-135991404D01*
X179312384Y-135993978D01*
X179312726Y-135996574D01*
X179312931Y-135999183D01*
X179313000Y-136001800D01*
X179313000Y-136641800D01*
X179312931Y-136644417D01*
X179312726Y-136647026D01*
X179312384Y-136649622D01*
X179311907Y-136652196D01*
X179311296Y-136654741D01*
X179310553Y-136657251D01*
X179309679Y-136659718D01*
X179308677Y-136662137D01*
X179307550Y-136664500D01*
X179306301Y-136666800D01*
X179304934Y-136669032D01*
X179303451Y-136671189D01*
X179301857Y-136673266D01*
X179300157Y-136675257D01*
X179298355Y-136677155D01*
X179296457Y-136678957D01*
X179294466Y-136680657D01*
X179292389Y-136682251D01*
X179290232Y-136683734D01*
X179288000Y-136685101D01*
X179285700Y-136686350D01*
X179283337Y-136687477D01*
X179280918Y-136688479D01*
X179278451Y-136689353D01*
X179275941Y-136690096D01*
X179273396Y-136690707D01*
X179270822Y-136691184D01*
X179268226Y-136691526D01*
X179265617Y-136691731D01*
X179263000Y-136691800D01*
G36*
X173863000Y-140501800D02*
G01*
X172273000Y-140501800D01*
X172270383Y-140501731D01*
X172267774Y-140501526D01*
X172265178Y-140501184D01*
X172262604Y-140500707D01*
X172260059Y-140500096D01*
X172257549Y-140499353D01*
X172255082Y-140498479D01*
X172252663Y-140497477D01*
X172250300Y-140496350D01*
X172248000Y-140495101D01*
X172245768Y-140493734D01*
X172243611Y-140492251D01*
X172241534Y-140490657D01*
X172239543Y-140488957D01*
X172237645Y-140487155D01*
X172235843Y-140485257D01*
X172234143Y-140483266D01*
X172232549Y-140481189D01*
X172231066Y-140479032D01*
X172229699Y-140476800D01*
X172228450Y-140474500D01*
X172227323Y-140472137D01*
X172226321Y-140469718D01*
X172225447Y-140467251D01*
X172224704Y-140464741D01*
X172224093Y-140462196D01*
X172223616Y-140459622D01*
X172223274Y-140457026D01*
X172223069Y-140454417D01*
X172223000Y-140451800D01*
X172223000Y-139811800D01*
X172223069Y-139809183D01*
X172223274Y-139806574D01*
X172223616Y-139803978D01*
X172224093Y-139801404D01*
X172224704Y-139798859D01*
X172225447Y-139796349D01*
X172226321Y-139793882D01*
X172227323Y-139791463D01*
X172228450Y-139789100D01*
X172229699Y-139786800D01*
X172231066Y-139784568D01*
X172232549Y-139782411D01*
X172234143Y-139780334D01*
X172235843Y-139778343D01*
X172237645Y-139776445D01*
X172239543Y-139774643D01*
X172241534Y-139772943D01*
X172243611Y-139771349D01*
X172245768Y-139769866D01*
X172248000Y-139768499D01*
X172250300Y-139767250D01*
X172252663Y-139766123D01*
X172255082Y-139765121D01*
X172257549Y-139764247D01*
X172260059Y-139763504D01*
X172262604Y-139762893D01*
X172265178Y-139762416D01*
X172267774Y-139762074D01*
X172270383Y-139761869D01*
X172273000Y-139761800D01*
X173863000Y-139761800D01*
X173865617Y-139761869D01*
X173868226Y-139762074D01*
X173870822Y-139762416D01*
X173873396Y-139762893D01*
X173875941Y-139763504D01*
X173878451Y-139764247D01*
X173880918Y-139765121D01*
X173883337Y-139766123D01*
X173885700Y-139767250D01*
X173888000Y-139768499D01*
X173890232Y-139769866D01*
X173892389Y-139771349D01*
X173894466Y-139772943D01*
X173896457Y-139774643D01*
X173898355Y-139776445D01*
X173900157Y-139778343D01*
X173901857Y-139780334D01*
X173903451Y-139782411D01*
X173904934Y-139784568D01*
X173906301Y-139786800D01*
X173907550Y-139789100D01*
X173908677Y-139791463D01*
X173909679Y-139793882D01*
X173910553Y-139796349D01*
X173911296Y-139798859D01*
X173911907Y-139801404D01*
X173912384Y-139803978D01*
X173912726Y-139806574D01*
X173912931Y-139809183D01*
X173913000Y-139811800D01*
X173913000Y-140451800D01*
X173912931Y-140454417D01*
X173912726Y-140457026D01*
X173912384Y-140459622D01*
X173911907Y-140462196D01*
X173911296Y-140464741D01*
X173910553Y-140467251D01*
X173909679Y-140469718D01*
X173908677Y-140472137D01*
X173907550Y-140474500D01*
X173906301Y-140476800D01*
X173904934Y-140479032D01*
X173903451Y-140481189D01*
X173901857Y-140483266D01*
X173900157Y-140485257D01*
X173898355Y-140487155D01*
X173896457Y-140488957D01*
X173894466Y-140490657D01*
X173892389Y-140492251D01*
X173890232Y-140493734D01*
X173888000Y-140495101D01*
X173885700Y-140496350D01*
X173883337Y-140497477D01*
X173880918Y-140498479D01*
X173878451Y-140499353D01*
X173875941Y-140500096D01*
X173873396Y-140500707D01*
X173870822Y-140501184D01*
X173868226Y-140501526D01*
X173865617Y-140501731D01*
X173863000Y-140501800D01*
G37*
X173863000Y-140501800D02*
X172273000Y-140501800D01*
X172270383Y-140501731D01*
X172267774Y-140501526D01*
X172265178Y-140501184D01*
X172262604Y-140500707D01*
X172260059Y-140500096D01*
X172257549Y-140499353D01*
X172255082Y-140498479D01*
X172252663Y-140497477D01*
X172250300Y-140496350D01*
X172248000Y-140495101D01*
X172245768Y-140493734D01*
X172243611Y-140492251D01*
X172241534Y-140490657D01*
X172239543Y-140488957D01*
X172237645Y-140487155D01*
X172235843Y-140485257D01*
X172234143Y-140483266D01*
X172232549Y-140481189D01*
X172231066Y-140479032D01*
X172229699Y-140476800D01*
X172228450Y-140474500D01*
X172227323Y-140472137D01*
X172226321Y-140469718D01*
X172225447Y-140467251D01*
X172224704Y-140464741D01*
X172224093Y-140462196D01*
X172223616Y-140459622D01*
X172223274Y-140457026D01*
X172223069Y-140454417D01*
X172223000Y-140451800D01*
X172223000Y-139811800D01*
X172223069Y-139809183D01*
X172223274Y-139806574D01*
X172223616Y-139803978D01*
X172224093Y-139801404D01*
X172224704Y-139798859D01*
X172225447Y-139796349D01*
X172226321Y-139793882D01*
X172227323Y-139791463D01*
X172228450Y-139789100D01*
X172229699Y-139786800D01*
X172231066Y-139784568D01*
X172232549Y-139782411D01*
X172234143Y-139780334D01*
X172235843Y-139778343D01*
X172237645Y-139776445D01*
X172239543Y-139774643D01*
X172241534Y-139772943D01*
X172243611Y-139771349D01*
X172245768Y-139769866D01*
X172248000Y-139768499D01*
X172250300Y-139767250D01*
X172252663Y-139766123D01*
X172255082Y-139765121D01*
X172257549Y-139764247D01*
X172260059Y-139763504D01*
X172262604Y-139762893D01*
X172265178Y-139762416D01*
X172267774Y-139762074D01*
X172270383Y-139761869D01*
X172273000Y-139761800D01*
X173863000Y-139761800D01*
X173865617Y-139761869D01*
X173868226Y-139762074D01*
X173870822Y-139762416D01*
X173873396Y-139762893D01*
X173875941Y-139763504D01*
X173878451Y-139764247D01*
X173880918Y-139765121D01*
X173883337Y-139766123D01*
X173885700Y-139767250D01*
X173888000Y-139768499D01*
X173890232Y-139769866D01*
X173892389Y-139771349D01*
X173894466Y-139772943D01*
X173896457Y-139774643D01*
X173898355Y-139776445D01*
X173900157Y-139778343D01*
X173901857Y-139780334D01*
X173903451Y-139782411D01*
X173904934Y-139784568D01*
X173906301Y-139786800D01*
X173907550Y-139789100D01*
X173908677Y-139791463D01*
X173909679Y-139793882D01*
X173910553Y-139796349D01*
X173911296Y-139798859D01*
X173911907Y-139801404D01*
X173912384Y-139803978D01*
X173912726Y-139806574D01*
X173912931Y-139809183D01*
X173913000Y-139811800D01*
X173913000Y-140451800D01*
X173912931Y-140454417D01*
X173912726Y-140457026D01*
X173912384Y-140459622D01*
X173911907Y-140462196D01*
X173911296Y-140464741D01*
X173910553Y-140467251D01*
X173909679Y-140469718D01*
X173908677Y-140472137D01*
X173907550Y-140474500D01*
X173906301Y-140476800D01*
X173904934Y-140479032D01*
X173903451Y-140481189D01*
X173901857Y-140483266D01*
X173900157Y-140485257D01*
X173898355Y-140487155D01*
X173896457Y-140488957D01*
X173894466Y-140490657D01*
X173892389Y-140492251D01*
X173890232Y-140493734D01*
X173888000Y-140495101D01*
X173885700Y-140496350D01*
X173883337Y-140497477D01*
X173880918Y-140498479D01*
X173878451Y-140499353D01*
X173875941Y-140500096D01*
X173873396Y-140500707D01*
X173870822Y-140501184D01*
X173868226Y-140501526D01*
X173865617Y-140501731D01*
X173863000Y-140501800D01*
G36*
X173863000Y-139231800D02*
G01*
X172273000Y-139231800D01*
X172270383Y-139231731D01*
X172267774Y-139231526D01*
X172265178Y-139231184D01*
X172262604Y-139230707D01*
X172260059Y-139230096D01*
X172257549Y-139229353D01*
X172255082Y-139228479D01*
X172252663Y-139227477D01*
X172250300Y-139226350D01*
X172248000Y-139225101D01*
X172245768Y-139223734D01*
X172243611Y-139222251D01*
X172241534Y-139220657D01*
X172239543Y-139218957D01*
X172237645Y-139217155D01*
X172235843Y-139215257D01*
X172234143Y-139213266D01*
X172232549Y-139211189D01*
X172231066Y-139209032D01*
X172229699Y-139206800D01*
X172228450Y-139204500D01*
X172227323Y-139202137D01*
X172226321Y-139199718D01*
X172225447Y-139197251D01*
X172224704Y-139194741D01*
X172224093Y-139192196D01*
X172223616Y-139189622D01*
X172223274Y-139187026D01*
X172223069Y-139184417D01*
X172223000Y-139181800D01*
X172223000Y-138541800D01*
X172223069Y-138539183D01*
X172223274Y-138536574D01*
X172223616Y-138533978D01*
X172224093Y-138531404D01*
X172224704Y-138528859D01*
X172225447Y-138526349D01*
X172226321Y-138523882D01*
X172227323Y-138521463D01*
X172228450Y-138519100D01*
X172229699Y-138516800D01*
X172231066Y-138514568D01*
X172232549Y-138512411D01*
X172234143Y-138510334D01*
X172235843Y-138508343D01*
X172237645Y-138506445D01*
X172239543Y-138504643D01*
X172241534Y-138502943D01*
X172243611Y-138501349D01*
X172245768Y-138499866D01*
X172248000Y-138498499D01*
X172250300Y-138497250D01*
X172252663Y-138496123D01*
X172255082Y-138495121D01*
X172257549Y-138494247D01*
X172260059Y-138493504D01*
X172262604Y-138492893D01*
X172265178Y-138492416D01*
X172267774Y-138492074D01*
X172270383Y-138491869D01*
X172273000Y-138491800D01*
X173863000Y-138491800D01*
X173865617Y-138491869D01*
X173868226Y-138492074D01*
X173870822Y-138492416D01*
X173873396Y-138492893D01*
X173875941Y-138493504D01*
X173878451Y-138494247D01*
X173880918Y-138495121D01*
X173883337Y-138496123D01*
X173885700Y-138497250D01*
X173888000Y-138498499D01*
X173890232Y-138499866D01*
X173892389Y-138501349D01*
X173894466Y-138502943D01*
X173896457Y-138504643D01*
X173898355Y-138506445D01*
X173900157Y-138508343D01*
X173901857Y-138510334D01*
X173903451Y-138512411D01*
X173904934Y-138514568D01*
X173906301Y-138516800D01*
X173907550Y-138519100D01*
X173908677Y-138521463D01*
X173909679Y-138523882D01*
X173910553Y-138526349D01*
X173911296Y-138528859D01*
X173911907Y-138531404D01*
X173912384Y-138533978D01*
X173912726Y-138536574D01*
X173912931Y-138539183D01*
X173913000Y-138541800D01*
X173913000Y-139181800D01*
X173912931Y-139184417D01*
X173912726Y-139187026D01*
X173912384Y-139189622D01*
X173911907Y-139192196D01*
X173911296Y-139194741D01*
X173910553Y-139197251D01*
X173909679Y-139199718D01*
X173908677Y-139202137D01*
X173907550Y-139204500D01*
X173906301Y-139206800D01*
X173904934Y-139209032D01*
X173903451Y-139211189D01*
X173901857Y-139213266D01*
X173900157Y-139215257D01*
X173898355Y-139217155D01*
X173896457Y-139218957D01*
X173894466Y-139220657D01*
X173892389Y-139222251D01*
X173890232Y-139223734D01*
X173888000Y-139225101D01*
X173885700Y-139226350D01*
X173883337Y-139227477D01*
X173880918Y-139228479D01*
X173878451Y-139229353D01*
X173875941Y-139230096D01*
X173873396Y-139230707D01*
X173870822Y-139231184D01*
X173868226Y-139231526D01*
X173865617Y-139231731D01*
X173863000Y-139231800D01*
G37*
X173863000Y-139231800D02*
X172273000Y-139231800D01*
X172270383Y-139231731D01*
X172267774Y-139231526D01*
X172265178Y-139231184D01*
X172262604Y-139230707D01*
X172260059Y-139230096D01*
X172257549Y-139229353D01*
X172255082Y-139228479D01*
X172252663Y-139227477D01*
X172250300Y-139226350D01*
X172248000Y-139225101D01*
X172245768Y-139223734D01*
X172243611Y-139222251D01*
X172241534Y-139220657D01*
X172239543Y-139218957D01*
X172237645Y-139217155D01*
X172235843Y-139215257D01*
X172234143Y-139213266D01*
X172232549Y-139211189D01*
X172231066Y-139209032D01*
X172229699Y-139206800D01*
X172228450Y-139204500D01*
X172227323Y-139202137D01*
X172226321Y-139199718D01*
X172225447Y-139197251D01*
X172224704Y-139194741D01*
X172224093Y-139192196D01*
X172223616Y-139189622D01*
X172223274Y-139187026D01*
X172223069Y-139184417D01*
X172223000Y-139181800D01*
X172223000Y-138541800D01*
X172223069Y-138539183D01*
X172223274Y-138536574D01*
X172223616Y-138533978D01*
X172224093Y-138531404D01*
X172224704Y-138528859D01*
X172225447Y-138526349D01*
X172226321Y-138523882D01*
X172227323Y-138521463D01*
X172228450Y-138519100D01*
X172229699Y-138516800D01*
X172231066Y-138514568D01*
X172232549Y-138512411D01*
X172234143Y-138510334D01*
X172235843Y-138508343D01*
X172237645Y-138506445D01*
X172239543Y-138504643D01*
X172241534Y-138502943D01*
X172243611Y-138501349D01*
X172245768Y-138499866D01*
X172248000Y-138498499D01*
X172250300Y-138497250D01*
X172252663Y-138496123D01*
X172255082Y-138495121D01*
X172257549Y-138494247D01*
X172260059Y-138493504D01*
X172262604Y-138492893D01*
X172265178Y-138492416D01*
X172267774Y-138492074D01*
X172270383Y-138491869D01*
X172273000Y-138491800D01*
X173863000Y-138491800D01*
X173865617Y-138491869D01*
X173868226Y-138492074D01*
X173870822Y-138492416D01*
X173873396Y-138492893D01*
X173875941Y-138493504D01*
X173878451Y-138494247D01*
X173880918Y-138495121D01*
X173883337Y-138496123D01*
X173885700Y-138497250D01*
X173888000Y-138498499D01*
X173890232Y-138499866D01*
X173892389Y-138501349D01*
X173894466Y-138502943D01*
X173896457Y-138504643D01*
X173898355Y-138506445D01*
X173900157Y-138508343D01*
X173901857Y-138510334D01*
X173903451Y-138512411D01*
X173904934Y-138514568D01*
X173906301Y-138516800D01*
X173907550Y-138519100D01*
X173908677Y-138521463D01*
X173909679Y-138523882D01*
X173910553Y-138526349D01*
X173911296Y-138528859D01*
X173911907Y-138531404D01*
X173912384Y-138533978D01*
X173912726Y-138536574D01*
X173912931Y-138539183D01*
X173913000Y-138541800D01*
X173913000Y-139181800D01*
X173912931Y-139184417D01*
X173912726Y-139187026D01*
X173912384Y-139189622D01*
X173911907Y-139192196D01*
X173911296Y-139194741D01*
X173910553Y-139197251D01*
X173909679Y-139199718D01*
X173908677Y-139202137D01*
X173907550Y-139204500D01*
X173906301Y-139206800D01*
X173904934Y-139209032D01*
X173903451Y-139211189D01*
X173901857Y-139213266D01*
X173900157Y-139215257D01*
X173898355Y-139217155D01*
X173896457Y-139218957D01*
X173894466Y-139220657D01*
X173892389Y-139222251D01*
X173890232Y-139223734D01*
X173888000Y-139225101D01*
X173885700Y-139226350D01*
X173883337Y-139227477D01*
X173880918Y-139228479D01*
X173878451Y-139229353D01*
X173875941Y-139230096D01*
X173873396Y-139230707D01*
X173870822Y-139231184D01*
X173868226Y-139231526D01*
X173865617Y-139231731D01*
X173863000Y-139231800D01*
G36*
X173863000Y-137961800D02*
G01*
X172273000Y-137961800D01*
X172270383Y-137961731D01*
X172267774Y-137961526D01*
X172265178Y-137961184D01*
X172262604Y-137960707D01*
X172260059Y-137960096D01*
X172257549Y-137959353D01*
X172255082Y-137958479D01*
X172252663Y-137957477D01*
X172250300Y-137956350D01*
X172248000Y-137955101D01*
X172245768Y-137953734D01*
X172243611Y-137952251D01*
X172241534Y-137950657D01*
X172239543Y-137948957D01*
X172237645Y-137947155D01*
X172235843Y-137945257D01*
X172234143Y-137943266D01*
X172232549Y-137941189D01*
X172231066Y-137939032D01*
X172229699Y-137936800D01*
X172228450Y-137934500D01*
X172227323Y-137932137D01*
X172226321Y-137929718D01*
X172225447Y-137927251D01*
X172224704Y-137924741D01*
X172224093Y-137922196D01*
X172223616Y-137919622D01*
X172223274Y-137917026D01*
X172223069Y-137914417D01*
X172223000Y-137911800D01*
X172223000Y-137271800D01*
X172223069Y-137269183D01*
X172223274Y-137266574D01*
X172223616Y-137263978D01*
X172224093Y-137261404D01*
X172224704Y-137258859D01*
X172225447Y-137256349D01*
X172226321Y-137253882D01*
X172227323Y-137251463D01*
X172228450Y-137249100D01*
X172229699Y-137246800D01*
X172231066Y-137244568D01*
X172232549Y-137242411D01*
X172234143Y-137240334D01*
X172235843Y-137238343D01*
X172237645Y-137236445D01*
X172239543Y-137234643D01*
X172241534Y-137232943D01*
X172243611Y-137231349D01*
X172245768Y-137229866D01*
X172248000Y-137228499D01*
X172250300Y-137227250D01*
X172252663Y-137226123D01*
X172255082Y-137225121D01*
X172257549Y-137224247D01*
X172260059Y-137223504D01*
X172262604Y-137222893D01*
X172265178Y-137222416D01*
X172267774Y-137222074D01*
X172270383Y-137221869D01*
X172273000Y-137221800D01*
X173863000Y-137221800D01*
X173865617Y-137221869D01*
X173868226Y-137222074D01*
X173870822Y-137222416D01*
X173873396Y-137222893D01*
X173875941Y-137223504D01*
X173878451Y-137224247D01*
X173880918Y-137225121D01*
X173883337Y-137226123D01*
X173885700Y-137227250D01*
X173888000Y-137228499D01*
X173890232Y-137229866D01*
X173892389Y-137231349D01*
X173894466Y-137232943D01*
X173896457Y-137234643D01*
X173898355Y-137236445D01*
X173900157Y-137238343D01*
X173901857Y-137240334D01*
X173903451Y-137242411D01*
X173904934Y-137244568D01*
X173906301Y-137246800D01*
X173907550Y-137249100D01*
X173908677Y-137251463D01*
X173909679Y-137253882D01*
X173910553Y-137256349D01*
X173911296Y-137258859D01*
X173911907Y-137261404D01*
X173912384Y-137263978D01*
X173912726Y-137266574D01*
X173912931Y-137269183D01*
X173913000Y-137271800D01*
X173913000Y-137911800D01*
X173912931Y-137914417D01*
X173912726Y-137917026D01*
X173912384Y-137919622D01*
X173911907Y-137922196D01*
X173911296Y-137924741D01*
X173910553Y-137927251D01*
X173909679Y-137929718D01*
X173908677Y-137932137D01*
X173907550Y-137934500D01*
X173906301Y-137936800D01*
X173904934Y-137939032D01*
X173903451Y-137941189D01*
X173901857Y-137943266D01*
X173900157Y-137945257D01*
X173898355Y-137947155D01*
X173896457Y-137948957D01*
X173894466Y-137950657D01*
X173892389Y-137952251D01*
X173890232Y-137953734D01*
X173888000Y-137955101D01*
X173885700Y-137956350D01*
X173883337Y-137957477D01*
X173880918Y-137958479D01*
X173878451Y-137959353D01*
X173875941Y-137960096D01*
X173873396Y-137960707D01*
X173870822Y-137961184D01*
X173868226Y-137961526D01*
X173865617Y-137961731D01*
X173863000Y-137961800D01*
G37*
X173863000Y-137961800D02*
X172273000Y-137961800D01*
X172270383Y-137961731D01*
X172267774Y-137961526D01*
X172265178Y-137961184D01*
X172262604Y-137960707D01*
X172260059Y-137960096D01*
X172257549Y-137959353D01*
X172255082Y-137958479D01*
X172252663Y-137957477D01*
X172250300Y-137956350D01*
X172248000Y-137955101D01*
X172245768Y-137953734D01*
X172243611Y-137952251D01*
X172241534Y-137950657D01*
X172239543Y-137948957D01*
X172237645Y-137947155D01*
X172235843Y-137945257D01*
X172234143Y-137943266D01*
X172232549Y-137941189D01*
X172231066Y-137939032D01*
X172229699Y-137936800D01*
X172228450Y-137934500D01*
X172227323Y-137932137D01*
X172226321Y-137929718D01*
X172225447Y-137927251D01*
X172224704Y-137924741D01*
X172224093Y-137922196D01*
X172223616Y-137919622D01*
X172223274Y-137917026D01*
X172223069Y-137914417D01*
X172223000Y-137911800D01*
X172223000Y-137271800D01*
X172223069Y-137269183D01*
X172223274Y-137266574D01*
X172223616Y-137263978D01*
X172224093Y-137261404D01*
X172224704Y-137258859D01*
X172225447Y-137256349D01*
X172226321Y-137253882D01*
X172227323Y-137251463D01*
X172228450Y-137249100D01*
X172229699Y-137246800D01*
X172231066Y-137244568D01*
X172232549Y-137242411D01*
X172234143Y-137240334D01*
X172235843Y-137238343D01*
X172237645Y-137236445D01*
X172239543Y-137234643D01*
X172241534Y-137232943D01*
X172243611Y-137231349D01*
X172245768Y-137229866D01*
X172248000Y-137228499D01*
X172250300Y-137227250D01*
X172252663Y-137226123D01*
X172255082Y-137225121D01*
X172257549Y-137224247D01*
X172260059Y-137223504D01*
X172262604Y-137222893D01*
X172265178Y-137222416D01*
X172267774Y-137222074D01*
X172270383Y-137221869D01*
X172273000Y-137221800D01*
X173863000Y-137221800D01*
X173865617Y-137221869D01*
X173868226Y-137222074D01*
X173870822Y-137222416D01*
X173873396Y-137222893D01*
X173875941Y-137223504D01*
X173878451Y-137224247D01*
X173880918Y-137225121D01*
X173883337Y-137226123D01*
X173885700Y-137227250D01*
X173888000Y-137228499D01*
X173890232Y-137229866D01*
X173892389Y-137231349D01*
X173894466Y-137232943D01*
X173896457Y-137234643D01*
X173898355Y-137236445D01*
X173900157Y-137238343D01*
X173901857Y-137240334D01*
X173903451Y-137242411D01*
X173904934Y-137244568D01*
X173906301Y-137246800D01*
X173907550Y-137249100D01*
X173908677Y-137251463D01*
X173909679Y-137253882D01*
X173910553Y-137256349D01*
X173911296Y-137258859D01*
X173911907Y-137261404D01*
X173912384Y-137263978D01*
X173912726Y-137266574D01*
X173912931Y-137269183D01*
X173913000Y-137271800D01*
X173913000Y-137911800D01*
X173912931Y-137914417D01*
X173912726Y-137917026D01*
X173912384Y-137919622D01*
X173911907Y-137922196D01*
X173911296Y-137924741D01*
X173910553Y-137927251D01*
X173909679Y-137929718D01*
X173908677Y-137932137D01*
X173907550Y-137934500D01*
X173906301Y-137936800D01*
X173904934Y-137939032D01*
X173903451Y-137941189D01*
X173901857Y-137943266D01*
X173900157Y-137945257D01*
X173898355Y-137947155D01*
X173896457Y-137948957D01*
X173894466Y-137950657D01*
X173892389Y-137952251D01*
X173890232Y-137953734D01*
X173888000Y-137955101D01*
X173885700Y-137956350D01*
X173883337Y-137957477D01*
X173880918Y-137958479D01*
X173878451Y-137959353D01*
X173875941Y-137960096D01*
X173873396Y-137960707D01*
X173870822Y-137961184D01*
X173868226Y-137961526D01*
X173865617Y-137961731D01*
X173863000Y-137961800D01*
G36*
X173863000Y-136691800D02*
G01*
X172273000Y-136691800D01*
X172270383Y-136691731D01*
X172267774Y-136691526D01*
X172265178Y-136691184D01*
X172262604Y-136690707D01*
X172260059Y-136690096D01*
X172257549Y-136689353D01*
X172255082Y-136688479D01*
X172252663Y-136687477D01*
X172250300Y-136686350D01*
X172248000Y-136685101D01*
X172245768Y-136683734D01*
X172243611Y-136682251D01*
X172241534Y-136680657D01*
X172239543Y-136678957D01*
X172237645Y-136677155D01*
X172235843Y-136675257D01*
X172234143Y-136673266D01*
X172232549Y-136671189D01*
X172231066Y-136669032D01*
X172229699Y-136666800D01*
X172228450Y-136664500D01*
X172227323Y-136662137D01*
X172226321Y-136659718D01*
X172225447Y-136657251D01*
X172224704Y-136654741D01*
X172224093Y-136652196D01*
X172223616Y-136649622D01*
X172223274Y-136647026D01*
X172223069Y-136644417D01*
X172223000Y-136641800D01*
X172223000Y-136001800D01*
X172223069Y-135999183D01*
X172223274Y-135996574D01*
X172223616Y-135993978D01*
X172224093Y-135991404D01*
X172224704Y-135988859D01*
X172225447Y-135986349D01*
X172226321Y-135983882D01*
X172227323Y-135981463D01*
X172228450Y-135979100D01*
X172229699Y-135976800D01*
X172231066Y-135974568D01*
X172232549Y-135972411D01*
X172234143Y-135970334D01*
X172235843Y-135968343D01*
X172237645Y-135966445D01*
X172239543Y-135964643D01*
X172241534Y-135962943D01*
X172243611Y-135961349D01*
X172245768Y-135959866D01*
X172248000Y-135958499D01*
X172250300Y-135957250D01*
X172252663Y-135956123D01*
X172255082Y-135955121D01*
X172257549Y-135954247D01*
X172260059Y-135953504D01*
X172262604Y-135952893D01*
X172265178Y-135952416D01*
X172267774Y-135952074D01*
X172270383Y-135951869D01*
X172273000Y-135951800D01*
X173863000Y-135951800D01*
X173865617Y-135951869D01*
X173868226Y-135952074D01*
X173870822Y-135952416D01*
X173873396Y-135952893D01*
X173875941Y-135953504D01*
X173878451Y-135954247D01*
X173880918Y-135955121D01*
X173883337Y-135956123D01*
X173885700Y-135957250D01*
X173888000Y-135958499D01*
X173890232Y-135959866D01*
X173892389Y-135961349D01*
X173894466Y-135962943D01*
X173896457Y-135964643D01*
X173898355Y-135966445D01*
X173900157Y-135968343D01*
X173901857Y-135970334D01*
X173903451Y-135972411D01*
X173904934Y-135974568D01*
X173906301Y-135976800D01*
X173907550Y-135979100D01*
X173908677Y-135981463D01*
X173909679Y-135983882D01*
X173910553Y-135986349D01*
X173911296Y-135988859D01*
X173911907Y-135991404D01*
X173912384Y-135993978D01*
X173912726Y-135996574D01*
X173912931Y-135999183D01*
X173913000Y-136001800D01*
X173913000Y-136641800D01*
X173912931Y-136644417D01*
X173912726Y-136647026D01*
X173912384Y-136649622D01*
X173911907Y-136652196D01*
X173911296Y-136654741D01*
X173910553Y-136657251D01*
X173909679Y-136659718D01*
X173908677Y-136662137D01*
X173907550Y-136664500D01*
X173906301Y-136666800D01*
X173904934Y-136669032D01*
X173903451Y-136671189D01*
X173901857Y-136673266D01*
X173900157Y-136675257D01*
X173898355Y-136677155D01*
X173896457Y-136678957D01*
X173894466Y-136680657D01*
X173892389Y-136682251D01*
X173890232Y-136683734D01*
X173888000Y-136685101D01*
X173885700Y-136686350D01*
X173883337Y-136687477D01*
X173880918Y-136688479D01*
X173878451Y-136689353D01*
X173875941Y-136690096D01*
X173873396Y-136690707D01*
X173870822Y-136691184D01*
X173868226Y-136691526D01*
X173865617Y-136691731D01*
X173863000Y-136691800D01*
G37*
X173863000Y-136691800D02*
X172273000Y-136691800D01*
X172270383Y-136691731D01*
X172267774Y-136691526D01*
X172265178Y-136691184D01*
X172262604Y-136690707D01*
X172260059Y-136690096D01*
X172257549Y-136689353D01*
X172255082Y-136688479D01*
X172252663Y-136687477D01*
X172250300Y-136686350D01*
X172248000Y-136685101D01*
X172245768Y-136683734D01*
X172243611Y-136682251D01*
X172241534Y-136680657D01*
X172239543Y-136678957D01*
X172237645Y-136677155D01*
X172235843Y-136675257D01*
X172234143Y-136673266D01*
X172232549Y-136671189D01*
X172231066Y-136669032D01*
X172229699Y-136666800D01*
X172228450Y-136664500D01*
X172227323Y-136662137D01*
X172226321Y-136659718D01*
X172225447Y-136657251D01*
X172224704Y-136654741D01*
X172224093Y-136652196D01*
X172223616Y-136649622D01*
X172223274Y-136647026D01*
X172223069Y-136644417D01*
X172223000Y-136641800D01*
X172223000Y-136001800D01*
X172223069Y-135999183D01*
X172223274Y-135996574D01*
X172223616Y-135993978D01*
X172224093Y-135991404D01*
X172224704Y-135988859D01*
X172225447Y-135986349D01*
X172226321Y-135983882D01*
X172227323Y-135981463D01*
X172228450Y-135979100D01*
X172229699Y-135976800D01*
X172231066Y-135974568D01*
X172232549Y-135972411D01*
X172234143Y-135970334D01*
X172235843Y-135968343D01*
X172237645Y-135966445D01*
X172239543Y-135964643D01*
X172241534Y-135962943D01*
X172243611Y-135961349D01*
X172245768Y-135959866D01*
X172248000Y-135958499D01*
X172250300Y-135957250D01*
X172252663Y-135956123D01*
X172255082Y-135955121D01*
X172257549Y-135954247D01*
X172260059Y-135953504D01*
X172262604Y-135952893D01*
X172265178Y-135952416D01*
X172267774Y-135952074D01*
X172270383Y-135951869D01*
X172273000Y-135951800D01*
X173863000Y-135951800D01*
X173865617Y-135951869D01*
X173868226Y-135952074D01*
X173870822Y-135952416D01*
X173873396Y-135952893D01*
X173875941Y-135953504D01*
X173878451Y-135954247D01*
X173880918Y-135955121D01*
X173883337Y-135956123D01*
X173885700Y-135957250D01*
X173888000Y-135958499D01*
X173890232Y-135959866D01*
X173892389Y-135961349D01*
X173894466Y-135962943D01*
X173896457Y-135964643D01*
X173898355Y-135966445D01*
X173900157Y-135968343D01*
X173901857Y-135970334D01*
X173903451Y-135972411D01*
X173904934Y-135974568D01*
X173906301Y-135976800D01*
X173907550Y-135979100D01*
X173908677Y-135981463D01*
X173909679Y-135983882D01*
X173910553Y-135986349D01*
X173911296Y-135988859D01*
X173911907Y-135991404D01*
X173912384Y-135993978D01*
X173912726Y-135996574D01*
X173912931Y-135999183D01*
X173913000Y-136001800D01*
X173913000Y-136641800D01*
X173912931Y-136644417D01*
X173912726Y-136647026D01*
X173912384Y-136649622D01*
X173911907Y-136652196D01*
X173911296Y-136654741D01*
X173910553Y-136657251D01*
X173909679Y-136659718D01*
X173908677Y-136662137D01*
X173907550Y-136664500D01*
X173906301Y-136666800D01*
X173904934Y-136669032D01*
X173903451Y-136671189D01*
X173901857Y-136673266D01*
X173900157Y-136675257D01*
X173898355Y-136677155D01*
X173896457Y-136678957D01*
X173894466Y-136680657D01*
X173892389Y-136682251D01*
X173890232Y-136683734D01*
X173888000Y-136685101D01*
X173885700Y-136686350D01*
X173883337Y-136687477D01*
X173880918Y-136688479D01*
X173878451Y-136689353D01*
X173875941Y-136690096D01*
X173873396Y-136690707D01*
X173870822Y-136691184D01*
X173868226Y-136691526D01*
X173865617Y-136691731D01*
X173863000Y-136691800D01*
%TD*%
D11*
%TO.C,L1*%
X145410000Y-146278600D03*
X154310000Y-146278600D03*
%TD*%
D12*
%TO.C,C1*%
X183097800Y-142748000D03*
X188097800Y-142748000D03*
%TD*%
D13*
%TO.C,D3*%
X140563600Y-112318800D03*
X137515600Y-112318800D03*
%TD*%
D14*
%TO.C,U3*%
X120509000Y-144708200D03*
X122809000Y-144708200D03*
X125109000Y-144708200D03*
D15*
X122809000Y-138908200D03*
%TD*%
D16*
%TO.C,U1*%
X145005600Y-120517399D03*
X145005600Y-121017401D03*
X145005600Y-121517400D03*
X145005600Y-122017399D03*
X145005600Y-122517400D03*
X145005600Y-123017399D03*
X145005600Y-123517401D03*
X145005600Y-124017400D03*
X145005600Y-124517399D03*
X145005600Y-125017400D03*
X145005600Y-125517399D03*
X145005600Y-126017398D03*
X145005600Y-126517400D03*
X145005600Y-127017399D03*
X145005600Y-127517401D03*
X145005600Y-128017400D03*
X145005600Y-128517399D03*
X145005600Y-129017400D03*
X145005600Y-129517399D03*
X145005600Y-130017401D03*
X145005600Y-130517400D03*
X145005600Y-131017399D03*
X145005600Y-131517400D03*
X145005600Y-132017399D03*
X145005600Y-132517401D03*
D17*
X146755599Y-134267400D03*
X147255601Y-134267400D03*
X147755600Y-134267400D03*
X148255599Y-134267400D03*
X148755600Y-134267400D03*
X149255599Y-134267400D03*
X149755601Y-134267400D03*
X150255600Y-134267400D03*
X150755599Y-134267400D03*
X151255600Y-134267400D03*
X151755599Y-134267400D03*
X152255601Y-134267400D03*
X152755600Y-134267400D03*
X153255599Y-134267400D03*
X153755601Y-134267400D03*
X154255600Y-134267400D03*
X154755601Y-134267400D03*
X155255600Y-134267400D03*
X155755599Y-134267400D03*
X156255601Y-134267400D03*
X156755600Y-134267400D03*
X157255601Y-134267400D03*
X157755600Y-134267400D03*
X158255599Y-134267400D03*
X158755601Y-134267400D03*
D16*
X160505600Y-132517401D03*
X160505600Y-132017399D03*
X160505600Y-131517400D03*
X160505600Y-131017401D03*
X160505600Y-130517400D03*
X160505600Y-130017401D03*
X160505600Y-129517399D03*
X160505600Y-129017400D03*
X160505600Y-128517401D03*
X160505600Y-128017400D03*
X160505600Y-127517401D03*
X160505600Y-127017399D03*
X160505600Y-126517400D03*
X160505600Y-126017401D03*
X160505600Y-125517399D03*
X160505600Y-125017400D03*
X160505600Y-124517399D03*
X160505600Y-124017400D03*
X160505600Y-123517401D03*
X160505600Y-123017399D03*
X160505600Y-122517400D03*
X160505600Y-122017399D03*
X160505600Y-121517400D03*
X160505600Y-121017401D03*
X160505600Y-120517399D03*
D17*
X158755601Y-118767400D03*
X158255599Y-118767400D03*
X157755600Y-118767400D03*
X157255601Y-118767400D03*
X156755600Y-118767400D03*
X156255601Y-118767400D03*
X155755599Y-118767400D03*
X155255600Y-118767400D03*
X154755601Y-118767400D03*
X154255600Y-118767400D03*
X153755601Y-118767400D03*
X153255599Y-118767400D03*
X152755600Y-118767400D03*
X152255601Y-118767400D03*
X151755599Y-118767400D03*
X151255600Y-118767400D03*
X150755599Y-118767400D03*
X150255600Y-118767400D03*
X149755601Y-118767400D03*
X149255599Y-118767400D03*
X148755600Y-118767400D03*
X148255599Y-118767400D03*
X147755600Y-118767400D03*
X147255601Y-118767400D03*
X146755599Y-118767400D03*
%TD*%
D18*
%TO.C,P7*%
X133604000Y-103860600D03*
X131064000Y-103860600D03*
X128524000Y-103860600D03*
X125984000Y-103860600D03*
X123444000Y-103860600D03*
X120904000Y-103860600D03*
X118364000Y-103860600D03*
X115824000Y-103860600D03*
X113284000Y-103860600D03*
X110744000Y-103860600D03*
%TD*%
%TO.C,P4*%
X183311800Y-103759000D03*
X180771800Y-103759000D03*
X178231800Y-103759000D03*
X175691800Y-103759000D03*
X173151800Y-103759000D03*
X170611800Y-103759000D03*
X168071800Y-103759000D03*
X165531800Y-103759000D03*
X162991800Y-103759000D03*
X160451800Y-103759000D03*
%TD*%
D19*
%TO.C,C6*%
X125082300Y-149047200D03*
X120738900Y-149047200D03*
%TD*%
%TO.C,C7*%
X124828300Y-135204200D03*
X120484900Y-135204200D03*
%TD*%
D20*
%TO.C,C5*%
X137617200Y-143992600D03*
D21*
X137617200Y-148996400D03*
%TD*%
D22*
%TO.C,C2*%
X180898800Y-137605400D03*
X180898800Y-139305400D03*
%TD*%
D23*
%TO.C,C3*%
X169988600Y-137312400D03*
X168288600Y-137312400D03*
%TD*%
%TO.C,C4*%
X176516400Y-134493000D03*
X174816400Y-134493000D03*
%TD*%
D22*
%TO.C,C8*%
X136804400Y-131533000D03*
X136804400Y-129833000D03*
%TD*%
D24*
%TO.C,D1*%
X126720600Y-112674400D03*
X126720600Y-115722400D03*
%TD*%
D25*
%TO.C,R1*%
X122428000Y-115039200D03*
X122428000Y-113459200D03*
%TD*%
D26*
%TO.C,R2*%
X176997400Y-142748000D03*
X178907400Y-142748000D03*
%TD*%
D27*
%TO.C,R3*%
X168297800Y-140462000D03*
X169877800Y-140462000D03*
%TD*%
D26*
%TO.C,R4*%
X169966600Y-142722600D03*
X168056600Y-142722600D03*
%TD*%
D27*
%TO.C,R5*%
X138148000Y-108585000D03*
X139728000Y-108585000D03*
%TD*%
D28*
%TO.C,B1*%
X131715599Y-127279199D03*
X131715599Y-124079201D03*
X136965601Y-124079201D03*
X136965601Y-127279199D03*
%TD*%
D22*
%TO.C,C9*%
X146634200Y-116420000D03*
X146634200Y-114720000D03*
%TD*%
D23*
%TO.C,C10*%
X141059800Y-125247400D03*
X142759800Y-125247400D03*
%TD*%
%TO.C,C11*%
X161151200Y-118694200D03*
X162851200Y-118694200D03*
%TD*%
%TO.C,C12*%
X162902000Y-134442200D03*
X161202000Y-134442200D03*
%TD*%
D22*
%TO.C,C13*%
X147599400Y-136487800D03*
X147599400Y-138187800D03*
%TD*%
D23*
%TO.C,C14*%
X140475600Y-129667000D03*
X142175600Y-129667000D03*
%TD*%
%TO.C,J1*%
X135292200Y-121259600D03*
X133592200Y-121259600D03*
%TD*%
D29*
%TO.C,P1*%
X192849600Y-147142200D03*
D30*
X198804600Y-147142200D03*
D31*
X195554600Y-142452200D03*
%TD*%
D32*
%TO.C,P2*%
X196689800Y-125450400D03*
X196689800Y-137490400D03*
D33*
X193979800Y-130220400D03*
X193979800Y-132720400D03*
D34*
X191979800Y-130220400D03*
D33*
X191979800Y-132720400D03*
%TD*%
D18*
%TO.C,P3*%
X115951000Y-136144000D03*
X115951000Y-138684000D03*
X115951000Y-141224000D03*
X115951000Y-143764000D03*
X115951000Y-146304000D03*
X113411000Y-136144000D03*
X113411000Y-138684000D03*
X113411000Y-141224000D03*
X113411000Y-143764000D03*
X113411000Y-146304000D03*
%TD*%
%TO.C,P5*%
X177723800Y-146989800D03*
X175183800Y-146989800D03*
X172643800Y-146989800D03*
X170103800Y-146989800D03*
X167563800Y-146989800D03*
X177723800Y-149529800D03*
X175183800Y-149529800D03*
X172643800Y-149529800D03*
X170103800Y-149529800D03*
X167563800Y-149529800D03*
%TD*%
D35*
%TO.C,P6*%
X199986000Y-103819600D03*
X190986000Y-103819600D03*
X190986000Y-119969600D03*
X199986000Y-119969600D03*
D36*
X200406000Y-108969600D03*
X200406000Y-115769600D03*
D37*
X188986000Y-118589600D03*
X188986000Y-117489600D03*
X188986000Y-116389600D03*
X188986000Y-115289600D03*
X188986000Y-114189600D03*
X188986000Y-113089600D03*
X188986000Y-111989600D03*
X188986000Y-110889600D03*
X188986000Y-109789600D03*
%TD*%
D27*
%TO.C,R6*%
X131854000Y-130733800D03*
X130274000Y-130733800D03*
%TD*%
D25*
%TO.C,R7*%
X186766200Y-120698200D03*
X186766200Y-122278200D03*
%TD*%
D38*
%TO.C,U4*%
X163841200Y-107543600D03*
X163841200Y-108813600D03*
X163841200Y-110083600D03*
X163841200Y-111353600D03*
X163841200Y-112623600D03*
X163841200Y-113893600D03*
X163841200Y-115163600D03*
X158891200Y-115163600D03*
X158891200Y-113893600D03*
X158891200Y-112623600D03*
X158891200Y-111353600D03*
X158891200Y-110083600D03*
X158891200Y-108813600D03*
X158891200Y-107543600D03*
%TD*%
D39*
%TO.C,U5*%
X177355500Y-125349000D03*
X177355500Y-126619000D03*
X177355500Y-127889000D03*
X177355500Y-129159000D03*
X170065700Y-129159000D03*
X170065700Y-127889000D03*
X170065700Y-126619000D03*
X170065700Y-125349000D03*
%TD*%
D22*
%TO.C,C15*%
X130987800Y-148527400D03*
X130987800Y-150227400D03*
%TD*%
%TO.C,C16*%
X128625600Y-150252800D03*
X128625600Y-148552800D03*
%TD*%
D40*
%TO.C,D2*%
X161442400Y-149326600D03*
X161442400Y-146685000D03*
%TD*%
D41*
%TO.C,D4*%
X182600600Y-150964900D03*
X182600600Y-147281900D03*
%TD*%
%TO.C,D5*%
X188747400Y-147408900D03*
X188747400Y-151091900D03*
%TD*%
D27*
%TO.C,R8*%
X132740400Y-140182600D03*
X134320400Y-140182600D03*
%TD*%
%TO.C,R9*%
X129720400Y-137083800D03*
X128140400Y-137083800D03*
%TD*%
D42*
%TO.C,U6*%
X130794400Y-146075200D03*
X130144400Y-146075200D03*
X129494400Y-146075200D03*
X128844400Y-146075200D03*
X128844400Y-140335200D03*
X129494400Y-140335200D03*
X130144400Y-140335200D03*
X130794400Y-140335200D03*
%TD*%
D23*
%TO.C,C17*%
X138492600Y-139877800D03*
X136792600Y-139877800D03*
%TD*%
M02*
