%TF.GenerationSoftware,KiCad,Pcbnew,5.1.10*%
%TF.CreationDate,2021-11-13T19:57:08-07:00*%
%TF.ProjectId,Engine-Controller,456e6769-6e65-42d4-936f-6e74726f6c6c,1.0*%
%TF.SameCoordinates,Original*%
%TF.FileFunction,Paste,Top*%
%TF.FilePolarity,Positive*%
%FSLAX46Y46*%
G04 Gerber Fmt 4.6, Leading zero omitted, Abs format (unit mm)*
G04 Created by KiCad (PCBNEW 5.1.10) date 2021-11-13 19:57:08*
%MOMM*%
%LPD*%
G01*
G04 APERTURE LIST*
%ADD10C,0.010000*%
%ADD11R,0.406400X0.952500*%
%ADD12R,0.979300X0.558800*%
%ADD13R,0.280000X1.560000*%
%ADD14R,1.560000X0.280000*%
%ADD15R,1.100000X1.000000*%
%ADD16R,1.020000X0.940000*%
%ADD17R,0.940000X1.020000*%
%ADD18R,0.965200X1.295400*%
%ADD19R,0.410000X1.570000*%
%ADD20R,1.524000X0.558800*%
%ADD21R,0.600000X1.970000*%
%ADD22R,2.400000X1.100000*%
%ADD23R,1.400000X0.620000*%
%ADD24R,1.700000X0.990600*%
%ADD25R,1.000000X1.100000*%
%ADD26R,3.200000X1.600000*%
%ADD27R,3.500000X3.500000*%
%ADD28R,1.550000X0.600000*%
%ADD29R,2.413000X3.048000*%
%ADD30R,0.838200X0.457200*%
%ADD31R,1.041400X0.584200*%
%ADD32R,0.584200X1.041400*%
%ADD33R,2.000000X4.000000*%
%ADD34R,0.254000X0.900000*%
%ADD35R,0.900000X0.254000*%
%ADD36R,2.150000X3.250000*%
%ADD37R,2.150000X0.950000*%
G04 APERTURE END LIST*
D10*
%TO.C,U7*%
G36*
X178997680Y-126772800D02*
G01*
X177745200Y-126772800D01*
X177745200Y-125523213D01*
X178997680Y-125523213D01*
X178997680Y-126772800D01*
G37*
X178997680Y-126772800D02*
X177745200Y-126772800D01*
X177745200Y-125523213D01*
X178997680Y-125523213D01*
X178997680Y-126772800D01*
G36*
X177245138Y-126772800D02*
G01*
X175995200Y-126772800D01*
X175995200Y-125522862D01*
X177245138Y-125522862D01*
X177245138Y-126772800D01*
G37*
X177245138Y-126772800D02*
X175995200Y-126772800D01*
X175995200Y-125522862D01*
X177245138Y-125522862D01*
X177245138Y-126772800D01*
G36*
X178997720Y-125022800D02*
G01*
X177745200Y-125022800D01*
X177745200Y-123770280D01*
X178997720Y-123770280D01*
X178997720Y-125022800D01*
G37*
X178997720Y-125022800D02*
X177745200Y-125022800D01*
X177745200Y-123770280D01*
X178997720Y-123770280D01*
X178997720Y-125022800D01*
G36*
X177244744Y-125022800D02*
G01*
X175995200Y-125022800D01*
X175995200Y-123770070D01*
X177244744Y-123770070D01*
X177244744Y-125022800D01*
G37*
X177244744Y-125022800D02*
X175995200Y-125022800D01*
X175995200Y-123770070D01*
X177244744Y-123770070D01*
X177244744Y-125022800D01*
%TD*%
D11*
%TO.C,Q1*%
X120215701Y-111639350D03*
X119265700Y-111639350D03*
X118315699Y-111639350D03*
X118315699Y-114192050D03*
X120215701Y-114192050D03*
%TD*%
D12*
%TO.C,D8*%
X185312748Y-124043399D03*
X185312748Y-125943401D03*
X182580852Y-125943401D03*
X182580852Y-124993400D03*
X182580852Y-124043399D03*
%TD*%
D13*
%TO.C,U1*%
X149778200Y-119980400D03*
X150278200Y-119980400D03*
X150778200Y-119980400D03*
X151278200Y-119980400D03*
X151778200Y-119980400D03*
X152278200Y-119980400D03*
X152778200Y-119980400D03*
X153278200Y-119980400D03*
X153778200Y-119980400D03*
X154278200Y-119980400D03*
X154778200Y-119980400D03*
X155278200Y-119980400D03*
X155778200Y-119980400D03*
X156278200Y-119980400D03*
X156778200Y-119980400D03*
X157278200Y-119980400D03*
X157778200Y-119980400D03*
X158278200Y-119980400D03*
X158778200Y-119980400D03*
X159278200Y-119980400D03*
X159778200Y-119980400D03*
X160278200Y-119980400D03*
X160778200Y-119980400D03*
X161278200Y-119980400D03*
X161778200Y-119980400D03*
D14*
X163458200Y-121660400D03*
X163458200Y-122160400D03*
X163458200Y-122660400D03*
X163458200Y-123160400D03*
X163458200Y-123660400D03*
X163458200Y-124160400D03*
X163458200Y-124660400D03*
X163458200Y-125160400D03*
X163458200Y-125660400D03*
X163458200Y-126160400D03*
X163458200Y-126660400D03*
X163458200Y-127160400D03*
X163458200Y-127660400D03*
X163458200Y-128160400D03*
X163458200Y-128660400D03*
X163458200Y-129160400D03*
X163458200Y-129660400D03*
X163458200Y-130160400D03*
X163458200Y-130660400D03*
X163458200Y-131160400D03*
X163458200Y-131660400D03*
X163458200Y-132160400D03*
X163458200Y-132660400D03*
X163458200Y-133160400D03*
X163458200Y-133660400D03*
D13*
X161778200Y-135340400D03*
X161278200Y-135340400D03*
X160778200Y-135340400D03*
X160278200Y-135340400D03*
X159778200Y-135340400D03*
X159278200Y-135340400D03*
X158778200Y-135340400D03*
X158278200Y-135340400D03*
X157778200Y-135340400D03*
X157278200Y-135340400D03*
X156778200Y-135340400D03*
X156278200Y-135340400D03*
X155778200Y-135340400D03*
X155278200Y-135340400D03*
X154778200Y-135340400D03*
X154278200Y-135340400D03*
X153778200Y-135340400D03*
X153278200Y-135340400D03*
X152778200Y-135340400D03*
X152278200Y-135340400D03*
X151778200Y-135340400D03*
X151278200Y-135340400D03*
X150778200Y-135340400D03*
X150278200Y-135340400D03*
X149778200Y-135340400D03*
D14*
X148098200Y-133660400D03*
X148098200Y-133160400D03*
X148098200Y-132660400D03*
X148098200Y-132160400D03*
X148098200Y-131660400D03*
X148098200Y-131160400D03*
X148098200Y-130660400D03*
X148098200Y-130160400D03*
X148098200Y-129660400D03*
X148098200Y-129160400D03*
X148098200Y-128660400D03*
X148098200Y-128160400D03*
X148098200Y-127660400D03*
X148098200Y-127160400D03*
X148098200Y-126660400D03*
X148098200Y-126160400D03*
X148098200Y-125660400D03*
X148098200Y-125160400D03*
X148098200Y-124660400D03*
X148098200Y-124160400D03*
X148098200Y-123660400D03*
X148098200Y-123160400D03*
X148098200Y-122660400D03*
X148098200Y-122160400D03*
X148098200Y-121660400D03*
%TD*%
D15*
%TO.C,C8*%
X140599900Y-129705100D03*
X138899900Y-129705100D03*
%TD*%
D16*
%TO.C,R6*%
X139674600Y-126647000D03*
X139674600Y-125067000D03*
%TD*%
D17*
%TO.C,R8*%
X143558200Y-97942400D03*
X145138200Y-97942400D03*
%TD*%
D18*
%TO.C,D6*%
X182994300Y-112839500D03*
X186042300Y-112839500D03*
%TD*%
%TO.C,D3*%
X124091700Y-119507000D03*
X121043700Y-119507000D03*
%TD*%
D19*
%TO.C,U6*%
X144561200Y-105892400D03*
X143911200Y-105892400D03*
X143261200Y-105892400D03*
X142611200Y-105892400D03*
X142611200Y-100152400D03*
X143261200Y-100152400D03*
X143911200Y-100152400D03*
X144561200Y-100152400D03*
%TD*%
D20*
%TO.C,U5*%
X181305200Y-134759700D03*
X181305200Y-136029700D03*
X181305200Y-137299700D03*
X181305200Y-138569700D03*
X174015400Y-138569700D03*
X174015400Y-137299700D03*
X174015400Y-136029700D03*
X174015400Y-134759700D03*
%TD*%
D21*
%TO.C,U4*%
X158369000Y-148893300D03*
X157099000Y-148893300D03*
X155829000Y-148893300D03*
X154559000Y-148893300D03*
X153289000Y-148893300D03*
X152019000Y-148893300D03*
X150749000Y-148893300D03*
X150749000Y-143943300D03*
X152019000Y-143943300D03*
X153289000Y-143943300D03*
X154559000Y-143943300D03*
X155829000Y-143943300D03*
X157099000Y-143943300D03*
X158369000Y-143943300D03*
%TD*%
D22*
%TO.C,P6*%
X200570200Y-128762400D03*
X191570200Y-128762400D03*
X191570200Y-144912400D03*
X200570200Y-144912400D03*
D23*
X189570200Y-143532400D03*
X189570200Y-142432400D03*
X189570200Y-141332400D03*
X189570200Y-140232400D03*
X189570200Y-139132400D03*
X189570200Y-138032400D03*
X189570200Y-136932400D03*
X189570200Y-135832400D03*
X189570200Y-134732400D03*
%TD*%
D24*
%TO.C,B1*%
X136202400Y-128155499D03*
X136202400Y-124955501D03*
X130802400Y-124955501D03*
X130802400Y-128155499D03*
%TD*%
D17*
%TO.C,R5*%
X117680800Y-121437400D03*
X116100800Y-121437400D03*
%TD*%
D15*
%TO.C,C4*%
X174154200Y-104800400D03*
X172454200Y-104800400D03*
%TD*%
%TO.C,C2*%
X181598200Y-103022400D03*
X183298200Y-103022400D03*
%TD*%
D25*
%TO.C,C13*%
X162382200Y-139686400D03*
X162382200Y-137986400D03*
%TD*%
D26*
%TO.C,C1*%
X178598200Y-99720400D03*
X173598200Y-99720400D03*
%TD*%
D27*
%TO.C,L1*%
X157424200Y-102006400D03*
X166324200Y-102006400D03*
%TD*%
D28*
%TO.C,U2*%
X173906200Y-107467400D03*
X173906200Y-108737400D03*
X173906200Y-110007400D03*
X173906200Y-111277400D03*
X179306200Y-111277400D03*
X179306200Y-110007400D03*
X179306200Y-108737400D03*
X179306200Y-107467400D03*
%TD*%
D29*
%TO.C,C6*%
X96850200Y-108216700D03*
X96850200Y-112560100D03*
%TD*%
%TO.C,C7*%
X111582200Y-108216700D03*
X111582200Y-112560100D03*
%TD*%
D25*
%TO.C,C3*%
X170256200Y-108190400D03*
X170256200Y-106490400D03*
%TD*%
D18*
%TO.C,D1*%
X124167900Y-123532900D03*
X121119900Y-123532900D03*
%TD*%
D17*
%TO.C,R1*%
X118074500Y-126288800D03*
X116494500Y-126288800D03*
%TD*%
D15*
%TO.C,C9*%
X145198200Y-126644400D03*
X143498200Y-126644400D03*
%TD*%
%TO.C,C10*%
X143498200Y-130708400D03*
X145198200Y-130708400D03*
%TD*%
%TO.C,C11*%
X165850200Y-120294400D03*
X167550200Y-120294400D03*
%TD*%
D25*
%TO.C,C12*%
X149682200Y-115634400D03*
X149682200Y-117334400D03*
%TD*%
%TO.C,C14*%
X149936200Y-139432400D03*
X149936200Y-137732400D03*
%TD*%
D15*
%TO.C,J1*%
X137135500Y-122491500D03*
X138835500Y-122491500D03*
%TD*%
D17*
%TO.C,R7*%
X187149800Y-144399000D03*
X185569800Y-144399000D03*
%TD*%
D25*
%TO.C,C15*%
X146126200Y-108141400D03*
X146126200Y-109841400D03*
%TD*%
D15*
%TO.C,C16*%
X138926200Y-106070400D03*
X140626200Y-106070400D03*
%TD*%
D30*
%TO.C,D2*%
X170510200Y-97891600D03*
X170510200Y-100533200D03*
%TD*%
D31*
%TO.C,D4*%
X183718200Y-97116900D03*
X183718200Y-100799900D03*
%TD*%
D32*
%TO.C,D5*%
X185178700Y-104546400D03*
X188861700Y-104546400D03*
%TD*%
D17*
%TO.C,R9*%
X138732200Y-104292400D03*
X140312200Y-104292400D03*
%TD*%
D15*
%TO.C,C17*%
X154928200Y-108610400D03*
X156628200Y-108610400D03*
%TD*%
D33*
%TO.C,C5*%
X150444200Y-99726400D03*
X150444200Y-106826400D03*
%TD*%
D18*
%TO.C,D7*%
X168719500Y-113334800D03*
X165671500Y-113334800D03*
%TD*%
D17*
%TO.C,R2*%
X178005800Y-113398300D03*
X176425800Y-113398300D03*
%TD*%
D16*
%TO.C,R3*%
X163093400Y-112997100D03*
X163093400Y-111417100D03*
%TD*%
D15*
%TO.C,C18*%
X182766600Y-122174000D03*
X184466600Y-122174000D03*
%TD*%
D25*
%TO.C,C19*%
X179324000Y-119203100D03*
X179324000Y-120903100D03*
%TD*%
D15*
%TO.C,C20*%
X120168300Y-108623100D03*
X121868300Y-108623100D03*
%TD*%
D25*
%TO.C,C21*%
X147650200Y-115634400D03*
X147650200Y-117334400D03*
%TD*%
%TO.C,C23*%
X160350200Y-139940400D03*
X160350200Y-138240400D03*
%TD*%
D15*
%TO.C,C24*%
X145198200Y-132486400D03*
X143498200Y-132486400D03*
%TD*%
D25*
%TO.C,C25*%
X158572200Y-138240400D03*
X158572200Y-139940400D03*
%TD*%
D15*
%TO.C,C26*%
X168312200Y-123850400D03*
X166612200Y-123850400D03*
%TD*%
%TO.C,C27*%
X166612200Y-122072400D03*
X168312200Y-122072400D03*
%TD*%
%TO.C,J2*%
X156399600Y-115062000D03*
X154699600Y-115062000D03*
%TD*%
D16*
%TO.C,R4*%
X177355500Y-120512900D03*
X177355500Y-118932900D03*
%TD*%
%TO.C,R10*%
X174256700Y-118856700D03*
X174256700Y-120436700D03*
%TD*%
%TO.C,R11*%
X114922300Y-115557300D03*
X114922300Y-117137300D03*
%TD*%
%TO.C,R12*%
X117284500Y-117388700D03*
X117284500Y-115808700D03*
%TD*%
D17*
%TO.C,R13*%
X122857200Y-111531400D03*
X124437200Y-111531400D03*
%TD*%
%TO.C,R14*%
X125580200Y-114388900D03*
X124000200Y-114388900D03*
%TD*%
%TO.C,R15*%
X129949000Y-114350800D03*
X128369000Y-114350800D03*
%TD*%
D34*
%TO.C,U7*%
X178995200Y-127862800D03*
X178495200Y-127862800D03*
X177995200Y-127862800D03*
X177495200Y-127862800D03*
X176995200Y-127862800D03*
X176495200Y-127862800D03*
X175995200Y-127862800D03*
D35*
X174905200Y-126772800D03*
X174905200Y-126272800D03*
X174905200Y-125772800D03*
X174905200Y-125272800D03*
X174905200Y-124772800D03*
X174905200Y-124272800D03*
X174905200Y-123772800D03*
D34*
X175995200Y-122682800D03*
X176495200Y-122682800D03*
X176995200Y-122682800D03*
X177495200Y-122682800D03*
X177995200Y-122682800D03*
X178495200Y-122682800D03*
X178995200Y-122682800D03*
D35*
X180085200Y-123772800D03*
X180085200Y-124272800D03*
X180085200Y-124772800D03*
X180085200Y-125272800D03*
X180085200Y-125772800D03*
X180085200Y-126272800D03*
X180085200Y-126772800D03*
%TD*%
D36*
%TO.C,U3*%
X101062200Y-110388400D03*
D37*
X106862200Y-108088400D03*
X106862200Y-110388400D03*
X106862200Y-112688400D03*
%TD*%
M02*
