M48
; DRILL file {KiCad 7.0.1} date Fri Jun  9 14:16:45 2023
; FORMAT={-:-/ absolute / inch / decimal}
; #@! TF.CreationDate,2023-06-09T14:16:45-07:00
; #@! TF.GenerationSoftware,Kicad,Pcbnew,7.0.1
; #@! TF.FileFunction,Plated,1,4,PTH
FMAT,2
INCH
; #@! TA.AperFunction,Plated,PTH,ViaDrill
T1C0.0118
; #@! TA.AperFunction,Plated,PTH,ComponentDrill
T2C0.0118
; #@! TA.AperFunction,Plated,PTH,ViaDrill
T3C0.0157
; #@! TA.AperFunction,Plated,PTH,ComponentDrill
T4C0.0197
; #@! TA.AperFunction,Plated,PTH,ViaDrill
T5C0.0200
; #@! TA.AperFunction,Plated,PTH,ComponentDrill
T6C0.0290
; #@! TA.AperFunction,Plated,PTH,ComponentDrill
T7C0.0295
; #@! TA.AperFunction,Plated,PTH,ComponentDrill
T8C0.0299
; #@! TA.AperFunction,Plated,PTH,ViaDrill
T9C0.0300
; #@! TA.AperFunction,Plated,PTH,ComponentDrill
T10C0.0300
; #@! TA.AperFunction,Plated,PTH,ComponentDrill
T11C0.0382
; #@! TA.AperFunction,Plated,PTH,ComponentDrill
T12C0.0402
; #@! TA.AperFunction,Plated,PTH,ComponentDrill
T13C0.0421
; #@! TA.AperFunction,Plated,PTH,ComponentDrill
T14C0.0433
; #@! TA.AperFunction,Plated,PTH,ComponentDrill
T15C0.0669
; #@! TA.AperFunction,Plated,PTH,ComponentDrill
T16C0.0925
; #@! TA.AperFunction,Plated,PTH,ComponentDrill
T17C0.1300
%
G90
G05
T1
X3.502Y-4.304
X3.647Y-5.268
X4.062Y-4.363
X4.075Y-5.489
X4.097Y-5.263
X4.119Y-5.664
X4.17Y-5.491
X4.253Y-5.41
X4.28Y-4.654
X4.281Y-5.446
X4.313Y-5.479
X4.34Y-5.255
X4.4382Y-4.4538
X4.444Y-5.734
X4.469Y-5.666
X4.502Y-4.895
X4.52Y-4.448
X4.521Y-5.006
X4.632Y-4.29
X4.652Y-4.912
X4.665Y-4.659
X4.672Y-4.976
X4.682Y-5.316
X4.869Y-5.326
X4.893Y-4.471
X4.896Y-4.353
X4.933Y-4.479
X4.962Y-4.437
X4.973Y-4.946
X4.988Y-5.076
X5.013Y-4.946
X5.018Y-4.611
X5.028Y-5.076
X5.053Y-4.941
X5.068Y-5.066
X5.068Y-5.161
X5.135Y-5.324
X5.138Y-5.251
X5.163Y-5.286
X5.233Y-4.916
X5.241Y-5.653
X5.358Y-5.311
X5.383Y-5.071
X5.433Y-5.216
X5.478Y-5.191
X5.483Y-4.861
X5.488Y-5.464
X5.513Y-5.186
X5.528Y-4.006
X5.568Y-5.246
X5.608Y-5.356
X5.613Y-4.75
X5.643Y-5.076
X5.6486Y-4.9854
X5.693Y-4.016
X5.723Y-5.221
X5.743Y-5.191
X5.743Y-5.396
X5.753Y-5.326
X5.8045Y-5.4825
X5.818Y-4.261
X5.848Y-5.241
X5.869Y-4.878
X5.8724Y-5.5454
X5.8836Y-4.9854
X5.898Y-5.521
X5.9055Y-4.7885
X5.9205Y-5.0785
X5.9236Y-5.5204
X5.993Y-5.216
X5.993Y-5.246
X6.003Y-5.476
X6.038Y-5.021
X6.043Y-4.876
X6.043Y-5.056
X6.108Y-5.516
X6.113Y-5.401
X6.128Y-5.461
X6.133Y-4.651
X6.133Y-5.426
X6.148Y-5.491
X6.1486Y-5.5454
X6.1552Y-5.0838
X6.1574Y-4.9066
X6.158Y-5.036
X6.164Y-4.53
X6.173Y-5.386
X6.188Y-4.996
X6.188Y-5.096
X6.193Y-4.946
X6.193Y-5.041
X6.203Y-5.186
X6.203Y-5.306
X6.215Y-4.918
X6.251Y-5.161
X6.27Y-4.935
X6.273Y-4.351
X6.298Y-5.076
X6.318Y-5.101
X6.328Y-5.167
X6.35Y-5.137
X6.378Y-5.116
X6.443Y-4.561
X6.443Y-5.176
X6.468Y-5.101
X6.4705Y-5.1785
X6.493Y-5.196
X6.513Y-4.786
X6.533Y-4.736
X6.538Y-5.076
X6.568Y-4.801
X6.5805Y-4.7185
X6.613Y-4.716
X6.613Y-5.406
X6.643Y-4.836
X6.663Y-5.306
X6.693Y-5.276
X6.693Y-5.406
X6.709Y-4.488
X6.738Y-4.556
X6.753Y-5.381
X6.758Y-4.906
X6.7595Y-4.7295
X6.763Y-4.696
X6.7846Y-4.8476
X6.788Y-4.896
X6.8049Y-4.8279
X6.818Y-5.311
X6.828Y-5.341
X6.863Y-5.086
X6.873Y-4.816
X6.8885Y-4.7065
X6.8915Y-5.1625
X6.933Y-5.076
X6.943Y-5.101
X6.9889Y-5.0719
X7.013Y-5.086
X7.028Y-5.151
X7.048Y-5.086
X7.053Y-4.786
X7.083Y-5.251
X7.088Y-5.371
X7.0961Y-4.6729
X7.128Y-5.206
X7.135Y-4.969
X7.15Y-4.92
X7.208Y-5.221
X7.233Y-5.356
X7.3873Y-5.4303
X7.393Y-4.481
X7.393Y-5.391
X7.398Y-4.356
X7.448Y-5.221
X7.4494Y-5.7296
X7.483Y-5.251
X7.548Y-5.196
T2
X5.8586Y-5.3466
X5.8586Y-5.386
X5.8586Y-5.4254
X5.898Y-5.3466
X5.898Y-5.386
X5.898Y-5.4254
X5.9374Y-5.3466
X5.9374Y-5.386
X5.9374Y-5.4254
T3
X5.407Y-4.197
X5.6402Y-4.0032
X5.703Y-4.306
X5.7424Y-4.5366
T4
X5.0792Y-5.8827
X5.1284Y-5.8827
X5.1776Y-5.8827
X5.2268Y-5.8827
T5
X4.284Y-5.655
X4.782Y-5.844
X5.1355Y-4.8935
X5.153Y-4.771
X5.503Y-4.581
X5.543Y-4.366
X5.558Y-4.446
X5.743Y-4.056
X6.053Y-3.876
X6.143Y-4.186
X6.703Y-4.116
X6.973Y-4.056
X7.148Y-4.331
X7.283Y-4.196
X7.7278Y-5.7052
T6
X3.967Y-5.808
X3.967Y-5.858
X4.017Y-5.808
X4.017Y-5.858
X4.067Y-5.808
X4.067Y-5.858
X4.117Y-5.808
X4.117Y-5.858
X4.167Y-5.808
X4.167Y-5.858
X4.217Y-5.808
X4.217Y-5.858
X4.267Y-5.808
X4.267Y-5.858
X4.317Y-5.808
X4.317Y-5.858
X4.367Y-5.808
X4.367Y-5.858
X4.417Y-5.808
X4.417Y-5.858
X4.467Y-5.808
X4.467Y-5.858
X4.517Y-5.808
X4.517Y-5.858
X4.567Y-5.808
X4.567Y-5.858
X6.458Y-5.6756
X6.458Y-5.7256
X6.508Y-5.6756
X6.508Y-5.7256
X6.558Y-5.6756
X6.558Y-5.7256
X6.608Y-5.6756
X6.608Y-5.7256
X6.658Y-5.6756
X6.658Y-5.7256
X6.708Y-5.6756
X6.708Y-5.7256
X6.758Y-5.6756
X6.758Y-5.7256
X6.808Y-5.6756
X6.808Y-5.7256
X6.858Y-5.6756
X6.858Y-5.7256
X6.908Y-5.6756
X6.908Y-5.7256
T7
X5.9249Y-5.7215
X6.0036Y-5.7215
X6.0824Y-5.7215
X6.1611Y-5.7215
T9
X5.908Y-4.356
X7.1537Y-3.9293
T10
X3.986Y-4.621
X3.986Y-4.721
X3.986Y-4.821
X3.986Y-4.921
X4.086Y-4.671
X4.086Y-4.771
X4.086Y-4.871
X4.086Y-4.971
T11
X7.5029Y-4.6548
X7.5029Y-4.7532
X7.5817Y-4.6548
X7.5817Y-4.7532
T13
X7.201Y-5.916
X7.301Y-5.916
X7.401Y-5.916
X7.501Y-5.916
T14
X3.931Y-4.032
X4.131Y-4.032
X4.331Y-4.032
X4.531Y-4.032
X4.731Y-4.032
X4.931Y-4.032
X5.461Y-5.775
X5.661Y-5.775
T15
X5.1587Y-4.2789
X5.3146Y-4.2789
T16
X7.6884Y-4.467
X7.6884Y-4.941
T17
X3.736Y-4.571
X3.736Y-5.021
T8
G00X7.6379Y-3.9314
M15
G01X7.7281Y-3.9314
M16
G05
G00X7.811Y-4.1611
M15
G01X7.811Y-4.0709
M16
G05
T12
G00X7.5765Y-4.166
M15
G01X7.5765Y-4.066
M16
G05
T0
M30
