%TF.GenerationSoftware,KiCad,Pcbnew,7.0.1*%
%TF.CreationDate,2023-06-09T14:16:41-07:00*%
%TF.ProjectId,Engine-Controller,456e6769-6e65-42d4-936f-6e74726f6c6c,1.0*%
%TF.SameCoordinates,Original*%
%TF.FileFunction,Soldermask,Bot*%
%TF.FilePolarity,Negative*%
%FSLAX46Y46*%
G04 Gerber Fmt 4.6, Leading zero omitted, Abs format (unit mm)*
G04 Created by KiCad (PCBNEW 7.0.1) date 2023-06-09 14:16:41*
%MOMM*%
%LPD*%
G01*
G04 APERTURE LIST*
%ADD10C,0.500000*%
%ADD11C,1.066800*%
%ADD12C,3.810000*%
%ADD13C,1.270000*%
%ADD14R,1.478000X1.478000*%
%ADD15C,1.478000*%
%ADD16C,3.366000*%
%ADD17C,0.950000*%
%ADD18R,1.008000X1.008000*%
%ADD19C,1.008000*%
%ADD20R,2.050000X2.050000*%
%ADD21C,2.050000*%
%ADD22R,1.650000X1.650000*%
%ADD23C,1.650000*%
%ADD24R,1.258000X1.258000*%
%ADD25C,1.258000*%
%ADD26O,2.200000X4.400000*%
%ADD27O,1.900000X3.800000*%
%ADD28O,3.800000X1.900000*%
%ADD29C,4.300000*%
%ADD30R,1.605000X1.605000*%
%ADD31C,1.605000*%
G04 APERTURE END LIST*
D10*
%TO.C,U14*%
X148809200Y-135804400D03*
X148809200Y-136804400D03*
X148809200Y-137804400D03*
X149809200Y-135804400D03*
X149809200Y-136804400D03*
X149809200Y-137804400D03*
X150809200Y-135804400D03*
X150809200Y-136804400D03*
X150809200Y-137804400D03*
%TD*%
D11*
%TO.C,P8*%
X116001800Y-147523200D03*
X116001800Y-148793200D03*
X114731800Y-147523200D03*
X114731800Y-148793200D03*
X113461800Y-147523200D03*
X113461800Y-148793200D03*
X112191800Y-147523200D03*
X112191800Y-148793200D03*
X110921800Y-147523200D03*
X110921800Y-148793200D03*
X109651800Y-147523200D03*
X109651800Y-148793200D03*
X108381800Y-147523200D03*
X108381800Y-148793200D03*
X107111800Y-147523200D03*
X107111800Y-148793200D03*
X105841800Y-147523200D03*
X105841800Y-148793200D03*
X104571800Y-147523200D03*
X104571800Y-148793200D03*
X103301800Y-147523200D03*
X103301800Y-148793200D03*
X102031800Y-147523200D03*
X102031800Y-148793200D03*
X100761800Y-147523200D03*
X100761800Y-148793200D03*
%TD*%
D12*
%TO.C,P9*%
X94894400Y-127533400D03*
X94894400Y-116103400D03*
D13*
X103784400Y-126263400D03*
X101244400Y-124993400D03*
X103784400Y-123723400D03*
X101244400Y-122453400D03*
X103784400Y-121183400D03*
X101244400Y-119913400D03*
X103784400Y-118643400D03*
X101244400Y-117373400D03*
%TD*%
D14*
%TO.C,P5*%
X190574500Y-118231600D03*
D15*
X190574500Y-120731600D03*
X192574500Y-120731600D03*
X192574500Y-118231600D03*
D16*
X195284500Y-125501600D03*
X195284500Y-113461600D03*
%TD*%
D17*
%TO.C,P4*%
X200634600Y-140610800D03*
X200634600Y-133810800D03*
%TD*%
D18*
%TO.C,P17*%
X132761200Y-149420500D03*
D19*
X131511200Y-149420500D03*
X130261200Y-149420500D03*
X129011200Y-149420500D03*
%TD*%
D20*
%TO.C,P7*%
X134991700Y-108682900D03*
D21*
X131031700Y-108682900D03*
%TD*%
D22*
%TO.C,P2*%
X99847400Y-102412800D03*
D23*
X104927400Y-102412800D03*
X110007400Y-102412800D03*
X115087400Y-102412800D03*
X120167400Y-102412800D03*
X125247400Y-102412800D03*
%TD*%
D11*
%TO.C,P3*%
X175463200Y-144159350D03*
X175463200Y-145429350D03*
X174193200Y-144159350D03*
X174193200Y-145429350D03*
X172923200Y-144159350D03*
X172923200Y-145429350D03*
X171653200Y-144159350D03*
X171653200Y-145429350D03*
X170383200Y-144159350D03*
X170383200Y-145429350D03*
X169113200Y-144159350D03*
X169113200Y-145429350D03*
X167843200Y-144159350D03*
X167843200Y-145429350D03*
X166573200Y-144159350D03*
X166573200Y-145429350D03*
X165303200Y-144159350D03*
X165303200Y-145429350D03*
X164033200Y-144159350D03*
X164033200Y-145429350D03*
%TD*%
D24*
%TO.C,P6*%
X150492200Y-145326400D03*
D25*
X152492200Y-145326400D03*
X154492200Y-145326400D03*
X156492200Y-145326400D03*
%TD*%
D26*
%TO.C,P1*%
X192443200Y-104546400D03*
D27*
X198398200Y-104546400D03*
D28*
X195148200Y-99856400D03*
%TD*%
D22*
%TO.C,P11*%
X138709400Y-146685000D03*
D23*
X143789400Y-146685000D03*
%TD*%
D29*
%TO.C,H1*%
X91262200Y-99720400D03*
%TD*%
%TO.C,H6*%
X199263000Y-148971000D03*
%TD*%
%TO.C,H5*%
X90754200Y-148234400D03*
%TD*%
%TO.C,H4*%
X188569600Y-98907600D03*
%TD*%
D30*
%TO.C,P18*%
X182905400Y-150266400D03*
D31*
X185445400Y-150266400D03*
X187985400Y-150266400D03*
X190525400Y-150266400D03*
%TD*%
M02*
