%TF.GenerationSoftware,KiCad,Pcbnew,(6.0.5)*%
%TF.CreationDate,2022-05-28T08:12:23-07:00*%
%TF.ProjectId,Engine-Controller,456e6769-6e65-42d4-936f-6e74726f6c6c,1.0*%
%TF.SameCoordinates,Original*%
%TF.FileFunction,Soldermask,Top*%
%TF.FilePolarity,Negative*%
%FSLAX46Y46*%
G04 Gerber Fmt 4.6, Leading zero omitted, Abs format (unit mm)*
G04 Created by KiCad (PCBNEW (6.0.5)) date 2022-05-28 08:12:23*
%MOMM*%
%LPD*%
G01*
G04 APERTURE LIST*
G04 Aperture macros list*
%AMRoundRect*
0 Rectangle with rounded corners*
0 $1 Rounding radius*
0 $2 $3 $4 $5 $6 $7 $8 $9 X,Y pos of 4 corners*
0 Add a 4 corners polygon primitive as box body*
4,1,4,$2,$3,$4,$5,$6,$7,$8,$9,$2,$3,0*
0 Add four circle primitives for the rounded corners*
1,1,$1+$1,$2,$3*
1,1,$1+$1,$4,$5*
1,1,$1+$1,$6,$7*
1,1,$1+$1,$8,$9*
0 Add four rect primitives between the rounded corners*
20,1,$1+$1,$2,$3,$4,$5,0*
20,1,$1+$1,$4,$5,$6,$7,0*
20,1,$1+$1,$6,$7,$8,$9,0*
20,1,$1+$1,$8,$9,$2,$3,0*%
G04 Aperture macros list end*
%ADD10C,0.010000*%
%ADD11R,1.778000X1.270000*%
%ADD12R,1.000000X1.100000*%
%ADD13R,1.700000X0.990600*%
%ADD14O,2.200000X4.400000*%
%ADD15O,1.900000X3.800000*%
%ADD16O,3.800000X1.900000*%
%ADD17R,1.100000X1.000000*%
%ADD18R,0.838200X0.457200*%
%ADD19R,1.041400X0.584200*%
%ADD20R,0.584200X1.041400*%
%ADD21R,0.940000X1.020000*%
%ADD22R,0.410000X1.570000*%
%ADD23R,3.200000X1.600000*%
%ADD24R,2.000000X4.000000*%
%ADD25R,0.965200X1.295400*%
%ADD26R,1.020000X0.940000*%
%ADD27R,3.500000X3.500000*%
%ADD28R,2.150000X0.950000*%
%ADD29R,2.150000X3.250000*%
%ADD30R,1.560000X0.280000*%
%ADD31R,0.280000X1.560000*%
%ADD32C,4.300000*%
%ADD33RoundRect,0.041300X-0.933700X-0.253700X0.933700X-0.253700X0.933700X0.253700X-0.933700X0.253700X0*%
%ADD34R,1.478000X1.478000*%
%ADD35C,1.478000*%
%ADD36C,3.366000*%
%ADD37C,1.066800*%
%ADD38C,0.950000*%
%ADD39R,1.400000X0.620000*%
%ADD40R,2.400000X1.100000*%
%ADD41R,1.981200X0.558800*%
%ADD42R,0.406400X0.952500*%
%ADD43R,1.384300X0.355600*%
%ADD44R,0.558800X1.981200*%
%ADD45R,1.524000X0.558800*%
%ADD46R,1.380000X0.920000*%
%ADD47R,0.979300X0.558800*%
%ADD48R,2.050000X2.050000*%
%ADD49C,2.050000*%
%ADD50R,1.000000X0.800000*%
%ADD51R,1.700000X1.700000*%
%ADD52C,1.700000*%
%ADD53R,1.008000X1.008000*%
%ADD54C,1.008000*%
%ADD55R,1.650000X1.650000*%
%ADD56C,1.650000*%
%ADD57R,1.300000X1.100000*%
%ADD58RoundRect,0.012800X-0.392200X-0.147200X0.392200X-0.147200X0.392200X0.147200X-0.392200X0.147200X0*%
%ADD59RoundRect,0.012800X0.147200X-0.392200X0.147200X0.392200X-0.147200X0.392200X-0.147200X-0.392200X0*%
%ADD60R,3.250000X3.250000*%
%ADD61C,0.500000*%
%ADD62R,1.258000X1.258000*%
%ADD63C,1.258000*%
%ADD64R,0.900000X0.254000*%
%ADD65R,0.254000X0.900000*%
%ADD66R,3.100000X3.100000*%
%ADD67R,1.605000X1.605000*%
%ADD68C,1.605000*%
%ADD69R,0.558800X1.320800*%
G04 APERTURE END LIST*
%TO.C,U2*%
G36*
X174703817Y-109637469D02*
G01*
X174706426Y-109637674D01*
X174709022Y-109638016D01*
X174711596Y-109638493D01*
X174714141Y-109639104D01*
X174716651Y-109639847D01*
X174719118Y-109640721D01*
X174721537Y-109641723D01*
X174723900Y-109642850D01*
X174726200Y-109644099D01*
X174728432Y-109645466D01*
X174730589Y-109646949D01*
X174732666Y-109648543D01*
X174734657Y-109650243D01*
X174736555Y-109652045D01*
X174738357Y-109653943D01*
X174740057Y-109655934D01*
X174741651Y-109658011D01*
X174743134Y-109660168D01*
X174744501Y-109662400D01*
X174745750Y-109664700D01*
X174746877Y-109667063D01*
X174747879Y-109669482D01*
X174748753Y-109671949D01*
X174749496Y-109674459D01*
X174750107Y-109677004D01*
X174750584Y-109679578D01*
X174750926Y-109682174D01*
X174751131Y-109684783D01*
X174751200Y-109687400D01*
X174751200Y-110327400D01*
X174751131Y-110330017D01*
X174750926Y-110332626D01*
X174750584Y-110335222D01*
X174750107Y-110337796D01*
X174749496Y-110340341D01*
X174748753Y-110342851D01*
X174747879Y-110345318D01*
X174746877Y-110347737D01*
X174745750Y-110350100D01*
X174744501Y-110352400D01*
X174743134Y-110354632D01*
X174741651Y-110356789D01*
X174740057Y-110358866D01*
X174738357Y-110360857D01*
X174736555Y-110362755D01*
X174734657Y-110364557D01*
X174732666Y-110366257D01*
X174730589Y-110367851D01*
X174728432Y-110369334D01*
X174726200Y-110370701D01*
X174723900Y-110371950D01*
X174721537Y-110373077D01*
X174719118Y-110374079D01*
X174716651Y-110374953D01*
X174714141Y-110375696D01*
X174711596Y-110376307D01*
X174709022Y-110376784D01*
X174706426Y-110377126D01*
X174703817Y-110377331D01*
X174701200Y-110377400D01*
X173111200Y-110377400D01*
X173108583Y-110377331D01*
X173105974Y-110377126D01*
X173103378Y-110376784D01*
X173100804Y-110376307D01*
X173098259Y-110375696D01*
X173095749Y-110374953D01*
X173093282Y-110374079D01*
X173090863Y-110373077D01*
X173088500Y-110371950D01*
X173086200Y-110370701D01*
X173083968Y-110369334D01*
X173081811Y-110367851D01*
X173079734Y-110366257D01*
X173077743Y-110364557D01*
X173075845Y-110362755D01*
X173074043Y-110360857D01*
X173072343Y-110358866D01*
X173070749Y-110356789D01*
X173069266Y-110354632D01*
X173067899Y-110352400D01*
X173066650Y-110350100D01*
X173065523Y-110347737D01*
X173064521Y-110345318D01*
X173063647Y-110342851D01*
X173062904Y-110340341D01*
X173062293Y-110337796D01*
X173061816Y-110335222D01*
X173061474Y-110332626D01*
X173061269Y-110330017D01*
X173061200Y-110327400D01*
X173061200Y-109687400D01*
X173061269Y-109684783D01*
X173061474Y-109682174D01*
X173061816Y-109679578D01*
X173062293Y-109677004D01*
X173062904Y-109674459D01*
X173063647Y-109671949D01*
X173064521Y-109669482D01*
X173065523Y-109667063D01*
X173066650Y-109664700D01*
X173067899Y-109662400D01*
X173069266Y-109660168D01*
X173070749Y-109658011D01*
X173072343Y-109655934D01*
X173074043Y-109653943D01*
X173075845Y-109652045D01*
X173077743Y-109650243D01*
X173079734Y-109648543D01*
X173081811Y-109646949D01*
X173083968Y-109645466D01*
X173086200Y-109644099D01*
X173088500Y-109642850D01*
X173090863Y-109641723D01*
X173093282Y-109640721D01*
X173095749Y-109639847D01*
X173098259Y-109639104D01*
X173100804Y-109638493D01*
X173103378Y-109638016D01*
X173105974Y-109637674D01*
X173108583Y-109637469D01*
X173111200Y-109637400D01*
X174701200Y-109637400D01*
X174703817Y-109637469D01*
G37*
D10*
X174703817Y-109637469D02*
X174706426Y-109637674D01*
X174709022Y-109638016D01*
X174711596Y-109638493D01*
X174714141Y-109639104D01*
X174716651Y-109639847D01*
X174719118Y-109640721D01*
X174721537Y-109641723D01*
X174723900Y-109642850D01*
X174726200Y-109644099D01*
X174728432Y-109645466D01*
X174730589Y-109646949D01*
X174732666Y-109648543D01*
X174734657Y-109650243D01*
X174736555Y-109652045D01*
X174738357Y-109653943D01*
X174740057Y-109655934D01*
X174741651Y-109658011D01*
X174743134Y-109660168D01*
X174744501Y-109662400D01*
X174745750Y-109664700D01*
X174746877Y-109667063D01*
X174747879Y-109669482D01*
X174748753Y-109671949D01*
X174749496Y-109674459D01*
X174750107Y-109677004D01*
X174750584Y-109679578D01*
X174750926Y-109682174D01*
X174751131Y-109684783D01*
X174751200Y-109687400D01*
X174751200Y-110327400D01*
X174751131Y-110330017D01*
X174750926Y-110332626D01*
X174750584Y-110335222D01*
X174750107Y-110337796D01*
X174749496Y-110340341D01*
X174748753Y-110342851D01*
X174747879Y-110345318D01*
X174746877Y-110347737D01*
X174745750Y-110350100D01*
X174744501Y-110352400D01*
X174743134Y-110354632D01*
X174741651Y-110356789D01*
X174740057Y-110358866D01*
X174738357Y-110360857D01*
X174736555Y-110362755D01*
X174734657Y-110364557D01*
X174732666Y-110366257D01*
X174730589Y-110367851D01*
X174728432Y-110369334D01*
X174726200Y-110370701D01*
X174723900Y-110371950D01*
X174721537Y-110373077D01*
X174719118Y-110374079D01*
X174716651Y-110374953D01*
X174714141Y-110375696D01*
X174711596Y-110376307D01*
X174709022Y-110376784D01*
X174706426Y-110377126D01*
X174703817Y-110377331D01*
X174701200Y-110377400D01*
X173111200Y-110377400D01*
X173108583Y-110377331D01*
X173105974Y-110377126D01*
X173103378Y-110376784D01*
X173100804Y-110376307D01*
X173098259Y-110375696D01*
X173095749Y-110374953D01*
X173093282Y-110374079D01*
X173090863Y-110373077D01*
X173088500Y-110371950D01*
X173086200Y-110370701D01*
X173083968Y-110369334D01*
X173081811Y-110367851D01*
X173079734Y-110366257D01*
X173077743Y-110364557D01*
X173075845Y-110362755D01*
X173074043Y-110360857D01*
X173072343Y-110358866D01*
X173070749Y-110356789D01*
X173069266Y-110354632D01*
X173067899Y-110352400D01*
X173066650Y-110350100D01*
X173065523Y-110347737D01*
X173064521Y-110345318D01*
X173063647Y-110342851D01*
X173062904Y-110340341D01*
X173062293Y-110337796D01*
X173061816Y-110335222D01*
X173061474Y-110332626D01*
X173061269Y-110330017D01*
X173061200Y-110327400D01*
X173061200Y-109687400D01*
X173061269Y-109684783D01*
X173061474Y-109682174D01*
X173061816Y-109679578D01*
X173062293Y-109677004D01*
X173062904Y-109674459D01*
X173063647Y-109671949D01*
X173064521Y-109669482D01*
X173065523Y-109667063D01*
X173066650Y-109664700D01*
X173067899Y-109662400D01*
X173069266Y-109660168D01*
X173070749Y-109658011D01*
X173072343Y-109655934D01*
X173074043Y-109653943D01*
X173075845Y-109652045D01*
X173077743Y-109650243D01*
X173079734Y-109648543D01*
X173081811Y-109646949D01*
X173083968Y-109645466D01*
X173086200Y-109644099D01*
X173088500Y-109642850D01*
X173090863Y-109641723D01*
X173093282Y-109640721D01*
X173095749Y-109639847D01*
X173098259Y-109639104D01*
X173100804Y-109638493D01*
X173103378Y-109638016D01*
X173105974Y-109637674D01*
X173108583Y-109637469D01*
X173111200Y-109637400D01*
X174701200Y-109637400D01*
X174703817Y-109637469D01*
G36*
X174703817Y-110907469D02*
G01*
X174706426Y-110907674D01*
X174709022Y-110908016D01*
X174711596Y-110908493D01*
X174714141Y-110909104D01*
X174716651Y-110909847D01*
X174719118Y-110910721D01*
X174721537Y-110911723D01*
X174723900Y-110912850D01*
X174726200Y-110914099D01*
X174728432Y-110915466D01*
X174730589Y-110916949D01*
X174732666Y-110918543D01*
X174734657Y-110920243D01*
X174736555Y-110922045D01*
X174738357Y-110923943D01*
X174740057Y-110925934D01*
X174741651Y-110928011D01*
X174743134Y-110930168D01*
X174744501Y-110932400D01*
X174745750Y-110934700D01*
X174746877Y-110937063D01*
X174747879Y-110939482D01*
X174748753Y-110941949D01*
X174749496Y-110944459D01*
X174750107Y-110947004D01*
X174750584Y-110949578D01*
X174750926Y-110952174D01*
X174751131Y-110954783D01*
X174751200Y-110957400D01*
X174751200Y-111597400D01*
X174751131Y-111600017D01*
X174750926Y-111602626D01*
X174750584Y-111605222D01*
X174750107Y-111607796D01*
X174749496Y-111610341D01*
X174748753Y-111612851D01*
X174747879Y-111615318D01*
X174746877Y-111617737D01*
X174745750Y-111620100D01*
X174744501Y-111622400D01*
X174743134Y-111624632D01*
X174741651Y-111626789D01*
X174740057Y-111628866D01*
X174738357Y-111630857D01*
X174736555Y-111632755D01*
X174734657Y-111634557D01*
X174732666Y-111636257D01*
X174730589Y-111637851D01*
X174728432Y-111639334D01*
X174726200Y-111640701D01*
X174723900Y-111641950D01*
X174721537Y-111643077D01*
X174719118Y-111644079D01*
X174716651Y-111644953D01*
X174714141Y-111645696D01*
X174711596Y-111646307D01*
X174709022Y-111646784D01*
X174706426Y-111647126D01*
X174703817Y-111647331D01*
X174701200Y-111647400D01*
X173111200Y-111647400D01*
X173108583Y-111647331D01*
X173105974Y-111647126D01*
X173103378Y-111646784D01*
X173100804Y-111646307D01*
X173098259Y-111645696D01*
X173095749Y-111644953D01*
X173093282Y-111644079D01*
X173090863Y-111643077D01*
X173088500Y-111641950D01*
X173086200Y-111640701D01*
X173083968Y-111639334D01*
X173081811Y-111637851D01*
X173079734Y-111636257D01*
X173077743Y-111634557D01*
X173075845Y-111632755D01*
X173074043Y-111630857D01*
X173072343Y-111628866D01*
X173070749Y-111626789D01*
X173069266Y-111624632D01*
X173067899Y-111622400D01*
X173066650Y-111620100D01*
X173065523Y-111617737D01*
X173064521Y-111615318D01*
X173063647Y-111612851D01*
X173062904Y-111610341D01*
X173062293Y-111607796D01*
X173061816Y-111605222D01*
X173061474Y-111602626D01*
X173061269Y-111600017D01*
X173061200Y-111597400D01*
X173061200Y-110957400D01*
X173061269Y-110954783D01*
X173061474Y-110952174D01*
X173061816Y-110949578D01*
X173062293Y-110947004D01*
X173062904Y-110944459D01*
X173063647Y-110941949D01*
X173064521Y-110939482D01*
X173065523Y-110937063D01*
X173066650Y-110934700D01*
X173067899Y-110932400D01*
X173069266Y-110930168D01*
X173070749Y-110928011D01*
X173072343Y-110925934D01*
X173074043Y-110923943D01*
X173075845Y-110922045D01*
X173077743Y-110920243D01*
X173079734Y-110918543D01*
X173081811Y-110916949D01*
X173083968Y-110915466D01*
X173086200Y-110914099D01*
X173088500Y-110912850D01*
X173090863Y-110911723D01*
X173093282Y-110910721D01*
X173095749Y-110909847D01*
X173098259Y-110909104D01*
X173100804Y-110908493D01*
X173103378Y-110908016D01*
X173105974Y-110907674D01*
X173108583Y-110907469D01*
X173111200Y-110907400D01*
X174701200Y-110907400D01*
X174703817Y-110907469D01*
G37*
X174703817Y-110907469D02*
X174706426Y-110907674D01*
X174709022Y-110908016D01*
X174711596Y-110908493D01*
X174714141Y-110909104D01*
X174716651Y-110909847D01*
X174719118Y-110910721D01*
X174721537Y-110911723D01*
X174723900Y-110912850D01*
X174726200Y-110914099D01*
X174728432Y-110915466D01*
X174730589Y-110916949D01*
X174732666Y-110918543D01*
X174734657Y-110920243D01*
X174736555Y-110922045D01*
X174738357Y-110923943D01*
X174740057Y-110925934D01*
X174741651Y-110928011D01*
X174743134Y-110930168D01*
X174744501Y-110932400D01*
X174745750Y-110934700D01*
X174746877Y-110937063D01*
X174747879Y-110939482D01*
X174748753Y-110941949D01*
X174749496Y-110944459D01*
X174750107Y-110947004D01*
X174750584Y-110949578D01*
X174750926Y-110952174D01*
X174751131Y-110954783D01*
X174751200Y-110957400D01*
X174751200Y-111597400D01*
X174751131Y-111600017D01*
X174750926Y-111602626D01*
X174750584Y-111605222D01*
X174750107Y-111607796D01*
X174749496Y-111610341D01*
X174748753Y-111612851D01*
X174747879Y-111615318D01*
X174746877Y-111617737D01*
X174745750Y-111620100D01*
X174744501Y-111622400D01*
X174743134Y-111624632D01*
X174741651Y-111626789D01*
X174740057Y-111628866D01*
X174738357Y-111630857D01*
X174736555Y-111632755D01*
X174734657Y-111634557D01*
X174732666Y-111636257D01*
X174730589Y-111637851D01*
X174728432Y-111639334D01*
X174726200Y-111640701D01*
X174723900Y-111641950D01*
X174721537Y-111643077D01*
X174719118Y-111644079D01*
X174716651Y-111644953D01*
X174714141Y-111645696D01*
X174711596Y-111646307D01*
X174709022Y-111646784D01*
X174706426Y-111647126D01*
X174703817Y-111647331D01*
X174701200Y-111647400D01*
X173111200Y-111647400D01*
X173108583Y-111647331D01*
X173105974Y-111647126D01*
X173103378Y-111646784D01*
X173100804Y-111646307D01*
X173098259Y-111645696D01*
X173095749Y-111644953D01*
X173093282Y-111644079D01*
X173090863Y-111643077D01*
X173088500Y-111641950D01*
X173086200Y-111640701D01*
X173083968Y-111639334D01*
X173081811Y-111637851D01*
X173079734Y-111636257D01*
X173077743Y-111634557D01*
X173075845Y-111632755D01*
X173074043Y-111630857D01*
X173072343Y-111628866D01*
X173070749Y-111626789D01*
X173069266Y-111624632D01*
X173067899Y-111622400D01*
X173066650Y-111620100D01*
X173065523Y-111617737D01*
X173064521Y-111615318D01*
X173063647Y-111612851D01*
X173062904Y-111610341D01*
X173062293Y-111607796D01*
X173061816Y-111605222D01*
X173061474Y-111602626D01*
X173061269Y-111600017D01*
X173061200Y-111597400D01*
X173061200Y-110957400D01*
X173061269Y-110954783D01*
X173061474Y-110952174D01*
X173061816Y-110949578D01*
X173062293Y-110947004D01*
X173062904Y-110944459D01*
X173063647Y-110941949D01*
X173064521Y-110939482D01*
X173065523Y-110937063D01*
X173066650Y-110934700D01*
X173067899Y-110932400D01*
X173069266Y-110930168D01*
X173070749Y-110928011D01*
X173072343Y-110925934D01*
X173074043Y-110923943D01*
X173075845Y-110922045D01*
X173077743Y-110920243D01*
X173079734Y-110918543D01*
X173081811Y-110916949D01*
X173083968Y-110915466D01*
X173086200Y-110914099D01*
X173088500Y-110912850D01*
X173090863Y-110911723D01*
X173093282Y-110910721D01*
X173095749Y-110909847D01*
X173098259Y-110909104D01*
X173100804Y-110908493D01*
X173103378Y-110908016D01*
X173105974Y-110907674D01*
X173108583Y-110907469D01*
X173111200Y-110907400D01*
X174701200Y-110907400D01*
X174703817Y-110907469D01*
G36*
X180103817Y-110907469D02*
G01*
X180106426Y-110907674D01*
X180109022Y-110908016D01*
X180111596Y-110908493D01*
X180114141Y-110909104D01*
X180116651Y-110909847D01*
X180119118Y-110910721D01*
X180121537Y-110911723D01*
X180123900Y-110912850D01*
X180126200Y-110914099D01*
X180128432Y-110915466D01*
X180130589Y-110916949D01*
X180132666Y-110918543D01*
X180134657Y-110920243D01*
X180136555Y-110922045D01*
X180138357Y-110923943D01*
X180140057Y-110925934D01*
X180141651Y-110928011D01*
X180143134Y-110930168D01*
X180144501Y-110932400D01*
X180145750Y-110934700D01*
X180146877Y-110937063D01*
X180147879Y-110939482D01*
X180148753Y-110941949D01*
X180149496Y-110944459D01*
X180150107Y-110947004D01*
X180150584Y-110949578D01*
X180150926Y-110952174D01*
X180151131Y-110954783D01*
X180151200Y-110957400D01*
X180151200Y-111597400D01*
X180151131Y-111600017D01*
X180150926Y-111602626D01*
X180150584Y-111605222D01*
X180150107Y-111607796D01*
X180149496Y-111610341D01*
X180148753Y-111612851D01*
X180147879Y-111615318D01*
X180146877Y-111617737D01*
X180145750Y-111620100D01*
X180144501Y-111622400D01*
X180143134Y-111624632D01*
X180141651Y-111626789D01*
X180140057Y-111628866D01*
X180138357Y-111630857D01*
X180136555Y-111632755D01*
X180134657Y-111634557D01*
X180132666Y-111636257D01*
X180130589Y-111637851D01*
X180128432Y-111639334D01*
X180126200Y-111640701D01*
X180123900Y-111641950D01*
X180121537Y-111643077D01*
X180119118Y-111644079D01*
X180116651Y-111644953D01*
X180114141Y-111645696D01*
X180111596Y-111646307D01*
X180109022Y-111646784D01*
X180106426Y-111647126D01*
X180103817Y-111647331D01*
X180101200Y-111647400D01*
X178511200Y-111647400D01*
X178508583Y-111647331D01*
X178505974Y-111647126D01*
X178503378Y-111646784D01*
X178500804Y-111646307D01*
X178498259Y-111645696D01*
X178495749Y-111644953D01*
X178493282Y-111644079D01*
X178490863Y-111643077D01*
X178488500Y-111641950D01*
X178486200Y-111640701D01*
X178483968Y-111639334D01*
X178481811Y-111637851D01*
X178479734Y-111636257D01*
X178477743Y-111634557D01*
X178475845Y-111632755D01*
X178474043Y-111630857D01*
X178472343Y-111628866D01*
X178470749Y-111626789D01*
X178469266Y-111624632D01*
X178467899Y-111622400D01*
X178466650Y-111620100D01*
X178465523Y-111617737D01*
X178464521Y-111615318D01*
X178463647Y-111612851D01*
X178462904Y-111610341D01*
X178462293Y-111607796D01*
X178461816Y-111605222D01*
X178461474Y-111602626D01*
X178461269Y-111600017D01*
X178461200Y-111597400D01*
X178461200Y-110957400D01*
X178461269Y-110954783D01*
X178461474Y-110952174D01*
X178461816Y-110949578D01*
X178462293Y-110947004D01*
X178462904Y-110944459D01*
X178463647Y-110941949D01*
X178464521Y-110939482D01*
X178465523Y-110937063D01*
X178466650Y-110934700D01*
X178467899Y-110932400D01*
X178469266Y-110930168D01*
X178470749Y-110928011D01*
X178472343Y-110925934D01*
X178474043Y-110923943D01*
X178475845Y-110922045D01*
X178477743Y-110920243D01*
X178479734Y-110918543D01*
X178481811Y-110916949D01*
X178483968Y-110915466D01*
X178486200Y-110914099D01*
X178488500Y-110912850D01*
X178490863Y-110911723D01*
X178493282Y-110910721D01*
X178495749Y-110909847D01*
X178498259Y-110909104D01*
X178500804Y-110908493D01*
X178503378Y-110908016D01*
X178505974Y-110907674D01*
X178508583Y-110907469D01*
X178511200Y-110907400D01*
X180101200Y-110907400D01*
X180103817Y-110907469D01*
G37*
X180103817Y-110907469D02*
X180106426Y-110907674D01*
X180109022Y-110908016D01*
X180111596Y-110908493D01*
X180114141Y-110909104D01*
X180116651Y-110909847D01*
X180119118Y-110910721D01*
X180121537Y-110911723D01*
X180123900Y-110912850D01*
X180126200Y-110914099D01*
X180128432Y-110915466D01*
X180130589Y-110916949D01*
X180132666Y-110918543D01*
X180134657Y-110920243D01*
X180136555Y-110922045D01*
X180138357Y-110923943D01*
X180140057Y-110925934D01*
X180141651Y-110928011D01*
X180143134Y-110930168D01*
X180144501Y-110932400D01*
X180145750Y-110934700D01*
X180146877Y-110937063D01*
X180147879Y-110939482D01*
X180148753Y-110941949D01*
X180149496Y-110944459D01*
X180150107Y-110947004D01*
X180150584Y-110949578D01*
X180150926Y-110952174D01*
X180151131Y-110954783D01*
X180151200Y-110957400D01*
X180151200Y-111597400D01*
X180151131Y-111600017D01*
X180150926Y-111602626D01*
X180150584Y-111605222D01*
X180150107Y-111607796D01*
X180149496Y-111610341D01*
X180148753Y-111612851D01*
X180147879Y-111615318D01*
X180146877Y-111617737D01*
X180145750Y-111620100D01*
X180144501Y-111622400D01*
X180143134Y-111624632D01*
X180141651Y-111626789D01*
X180140057Y-111628866D01*
X180138357Y-111630857D01*
X180136555Y-111632755D01*
X180134657Y-111634557D01*
X180132666Y-111636257D01*
X180130589Y-111637851D01*
X180128432Y-111639334D01*
X180126200Y-111640701D01*
X180123900Y-111641950D01*
X180121537Y-111643077D01*
X180119118Y-111644079D01*
X180116651Y-111644953D01*
X180114141Y-111645696D01*
X180111596Y-111646307D01*
X180109022Y-111646784D01*
X180106426Y-111647126D01*
X180103817Y-111647331D01*
X180101200Y-111647400D01*
X178511200Y-111647400D01*
X178508583Y-111647331D01*
X178505974Y-111647126D01*
X178503378Y-111646784D01*
X178500804Y-111646307D01*
X178498259Y-111645696D01*
X178495749Y-111644953D01*
X178493282Y-111644079D01*
X178490863Y-111643077D01*
X178488500Y-111641950D01*
X178486200Y-111640701D01*
X178483968Y-111639334D01*
X178481811Y-111637851D01*
X178479734Y-111636257D01*
X178477743Y-111634557D01*
X178475845Y-111632755D01*
X178474043Y-111630857D01*
X178472343Y-111628866D01*
X178470749Y-111626789D01*
X178469266Y-111624632D01*
X178467899Y-111622400D01*
X178466650Y-111620100D01*
X178465523Y-111617737D01*
X178464521Y-111615318D01*
X178463647Y-111612851D01*
X178462904Y-111610341D01*
X178462293Y-111607796D01*
X178461816Y-111605222D01*
X178461474Y-111602626D01*
X178461269Y-111600017D01*
X178461200Y-111597400D01*
X178461200Y-110957400D01*
X178461269Y-110954783D01*
X178461474Y-110952174D01*
X178461816Y-110949578D01*
X178462293Y-110947004D01*
X178462904Y-110944459D01*
X178463647Y-110941949D01*
X178464521Y-110939482D01*
X178465523Y-110937063D01*
X178466650Y-110934700D01*
X178467899Y-110932400D01*
X178469266Y-110930168D01*
X178470749Y-110928011D01*
X178472343Y-110925934D01*
X178474043Y-110923943D01*
X178475845Y-110922045D01*
X178477743Y-110920243D01*
X178479734Y-110918543D01*
X178481811Y-110916949D01*
X178483968Y-110915466D01*
X178486200Y-110914099D01*
X178488500Y-110912850D01*
X178490863Y-110911723D01*
X178493282Y-110910721D01*
X178495749Y-110909847D01*
X178498259Y-110909104D01*
X178500804Y-110908493D01*
X178503378Y-110908016D01*
X178505974Y-110907674D01*
X178508583Y-110907469D01*
X178511200Y-110907400D01*
X180101200Y-110907400D01*
X180103817Y-110907469D01*
G36*
X180103817Y-107097469D02*
G01*
X180106426Y-107097674D01*
X180109022Y-107098016D01*
X180111596Y-107098493D01*
X180114141Y-107099104D01*
X180116651Y-107099847D01*
X180119118Y-107100721D01*
X180121537Y-107101723D01*
X180123900Y-107102850D01*
X180126200Y-107104099D01*
X180128432Y-107105466D01*
X180130589Y-107106949D01*
X180132666Y-107108543D01*
X180134657Y-107110243D01*
X180136555Y-107112045D01*
X180138357Y-107113943D01*
X180140057Y-107115934D01*
X180141651Y-107118011D01*
X180143134Y-107120168D01*
X180144501Y-107122400D01*
X180145750Y-107124700D01*
X180146877Y-107127063D01*
X180147879Y-107129482D01*
X180148753Y-107131949D01*
X180149496Y-107134459D01*
X180150107Y-107137004D01*
X180150584Y-107139578D01*
X180150926Y-107142174D01*
X180151131Y-107144783D01*
X180151200Y-107147400D01*
X180151200Y-107787400D01*
X180151131Y-107790017D01*
X180150926Y-107792626D01*
X180150584Y-107795222D01*
X180150107Y-107797796D01*
X180149496Y-107800341D01*
X180148753Y-107802851D01*
X180147879Y-107805318D01*
X180146877Y-107807737D01*
X180145750Y-107810100D01*
X180144501Y-107812400D01*
X180143134Y-107814632D01*
X180141651Y-107816789D01*
X180140057Y-107818866D01*
X180138357Y-107820857D01*
X180136555Y-107822755D01*
X180134657Y-107824557D01*
X180132666Y-107826257D01*
X180130589Y-107827851D01*
X180128432Y-107829334D01*
X180126200Y-107830701D01*
X180123900Y-107831950D01*
X180121537Y-107833077D01*
X180119118Y-107834079D01*
X180116651Y-107834953D01*
X180114141Y-107835696D01*
X180111596Y-107836307D01*
X180109022Y-107836784D01*
X180106426Y-107837126D01*
X180103817Y-107837331D01*
X180101200Y-107837400D01*
X178511200Y-107837400D01*
X178508583Y-107837331D01*
X178505974Y-107837126D01*
X178503378Y-107836784D01*
X178500804Y-107836307D01*
X178498259Y-107835696D01*
X178495749Y-107834953D01*
X178493282Y-107834079D01*
X178490863Y-107833077D01*
X178488500Y-107831950D01*
X178486200Y-107830701D01*
X178483968Y-107829334D01*
X178481811Y-107827851D01*
X178479734Y-107826257D01*
X178477743Y-107824557D01*
X178475845Y-107822755D01*
X178474043Y-107820857D01*
X178472343Y-107818866D01*
X178470749Y-107816789D01*
X178469266Y-107814632D01*
X178467899Y-107812400D01*
X178466650Y-107810100D01*
X178465523Y-107807737D01*
X178464521Y-107805318D01*
X178463647Y-107802851D01*
X178462904Y-107800341D01*
X178462293Y-107797796D01*
X178461816Y-107795222D01*
X178461474Y-107792626D01*
X178461269Y-107790017D01*
X178461200Y-107787400D01*
X178461200Y-107147400D01*
X178461269Y-107144783D01*
X178461474Y-107142174D01*
X178461816Y-107139578D01*
X178462293Y-107137004D01*
X178462904Y-107134459D01*
X178463647Y-107131949D01*
X178464521Y-107129482D01*
X178465523Y-107127063D01*
X178466650Y-107124700D01*
X178467899Y-107122400D01*
X178469266Y-107120168D01*
X178470749Y-107118011D01*
X178472343Y-107115934D01*
X178474043Y-107113943D01*
X178475845Y-107112045D01*
X178477743Y-107110243D01*
X178479734Y-107108543D01*
X178481811Y-107106949D01*
X178483968Y-107105466D01*
X178486200Y-107104099D01*
X178488500Y-107102850D01*
X178490863Y-107101723D01*
X178493282Y-107100721D01*
X178495749Y-107099847D01*
X178498259Y-107099104D01*
X178500804Y-107098493D01*
X178503378Y-107098016D01*
X178505974Y-107097674D01*
X178508583Y-107097469D01*
X178511200Y-107097400D01*
X180101200Y-107097400D01*
X180103817Y-107097469D01*
G37*
X180103817Y-107097469D02*
X180106426Y-107097674D01*
X180109022Y-107098016D01*
X180111596Y-107098493D01*
X180114141Y-107099104D01*
X180116651Y-107099847D01*
X180119118Y-107100721D01*
X180121537Y-107101723D01*
X180123900Y-107102850D01*
X180126200Y-107104099D01*
X180128432Y-107105466D01*
X180130589Y-107106949D01*
X180132666Y-107108543D01*
X180134657Y-107110243D01*
X180136555Y-107112045D01*
X180138357Y-107113943D01*
X180140057Y-107115934D01*
X180141651Y-107118011D01*
X180143134Y-107120168D01*
X180144501Y-107122400D01*
X180145750Y-107124700D01*
X180146877Y-107127063D01*
X180147879Y-107129482D01*
X180148753Y-107131949D01*
X180149496Y-107134459D01*
X180150107Y-107137004D01*
X180150584Y-107139578D01*
X180150926Y-107142174D01*
X180151131Y-107144783D01*
X180151200Y-107147400D01*
X180151200Y-107787400D01*
X180151131Y-107790017D01*
X180150926Y-107792626D01*
X180150584Y-107795222D01*
X180150107Y-107797796D01*
X180149496Y-107800341D01*
X180148753Y-107802851D01*
X180147879Y-107805318D01*
X180146877Y-107807737D01*
X180145750Y-107810100D01*
X180144501Y-107812400D01*
X180143134Y-107814632D01*
X180141651Y-107816789D01*
X180140057Y-107818866D01*
X180138357Y-107820857D01*
X180136555Y-107822755D01*
X180134657Y-107824557D01*
X180132666Y-107826257D01*
X180130589Y-107827851D01*
X180128432Y-107829334D01*
X180126200Y-107830701D01*
X180123900Y-107831950D01*
X180121537Y-107833077D01*
X180119118Y-107834079D01*
X180116651Y-107834953D01*
X180114141Y-107835696D01*
X180111596Y-107836307D01*
X180109022Y-107836784D01*
X180106426Y-107837126D01*
X180103817Y-107837331D01*
X180101200Y-107837400D01*
X178511200Y-107837400D01*
X178508583Y-107837331D01*
X178505974Y-107837126D01*
X178503378Y-107836784D01*
X178500804Y-107836307D01*
X178498259Y-107835696D01*
X178495749Y-107834953D01*
X178493282Y-107834079D01*
X178490863Y-107833077D01*
X178488500Y-107831950D01*
X178486200Y-107830701D01*
X178483968Y-107829334D01*
X178481811Y-107827851D01*
X178479734Y-107826257D01*
X178477743Y-107824557D01*
X178475845Y-107822755D01*
X178474043Y-107820857D01*
X178472343Y-107818866D01*
X178470749Y-107816789D01*
X178469266Y-107814632D01*
X178467899Y-107812400D01*
X178466650Y-107810100D01*
X178465523Y-107807737D01*
X178464521Y-107805318D01*
X178463647Y-107802851D01*
X178462904Y-107800341D01*
X178462293Y-107797796D01*
X178461816Y-107795222D01*
X178461474Y-107792626D01*
X178461269Y-107790017D01*
X178461200Y-107787400D01*
X178461200Y-107147400D01*
X178461269Y-107144783D01*
X178461474Y-107142174D01*
X178461816Y-107139578D01*
X178462293Y-107137004D01*
X178462904Y-107134459D01*
X178463647Y-107131949D01*
X178464521Y-107129482D01*
X178465523Y-107127063D01*
X178466650Y-107124700D01*
X178467899Y-107122400D01*
X178469266Y-107120168D01*
X178470749Y-107118011D01*
X178472343Y-107115934D01*
X178474043Y-107113943D01*
X178475845Y-107112045D01*
X178477743Y-107110243D01*
X178479734Y-107108543D01*
X178481811Y-107106949D01*
X178483968Y-107105466D01*
X178486200Y-107104099D01*
X178488500Y-107102850D01*
X178490863Y-107101723D01*
X178493282Y-107100721D01*
X178495749Y-107099847D01*
X178498259Y-107099104D01*
X178500804Y-107098493D01*
X178503378Y-107098016D01*
X178505974Y-107097674D01*
X178508583Y-107097469D01*
X178511200Y-107097400D01*
X180101200Y-107097400D01*
X180103817Y-107097469D01*
G36*
X174703817Y-107097469D02*
G01*
X174706426Y-107097674D01*
X174709022Y-107098016D01*
X174711596Y-107098493D01*
X174714141Y-107099104D01*
X174716651Y-107099847D01*
X174719118Y-107100721D01*
X174721537Y-107101723D01*
X174723900Y-107102850D01*
X174726200Y-107104099D01*
X174728432Y-107105466D01*
X174730589Y-107106949D01*
X174732666Y-107108543D01*
X174734657Y-107110243D01*
X174736555Y-107112045D01*
X174738357Y-107113943D01*
X174740057Y-107115934D01*
X174741651Y-107118011D01*
X174743134Y-107120168D01*
X174744501Y-107122400D01*
X174745750Y-107124700D01*
X174746877Y-107127063D01*
X174747879Y-107129482D01*
X174748753Y-107131949D01*
X174749496Y-107134459D01*
X174750107Y-107137004D01*
X174750584Y-107139578D01*
X174750926Y-107142174D01*
X174751131Y-107144783D01*
X174751200Y-107147400D01*
X174751200Y-107787400D01*
X174751131Y-107790017D01*
X174750926Y-107792626D01*
X174750584Y-107795222D01*
X174750107Y-107797796D01*
X174749496Y-107800341D01*
X174748753Y-107802851D01*
X174747879Y-107805318D01*
X174746877Y-107807737D01*
X174745750Y-107810100D01*
X174744501Y-107812400D01*
X174743134Y-107814632D01*
X174741651Y-107816789D01*
X174740057Y-107818866D01*
X174738357Y-107820857D01*
X174736555Y-107822755D01*
X174734657Y-107824557D01*
X174732666Y-107826257D01*
X174730589Y-107827851D01*
X174728432Y-107829334D01*
X174726200Y-107830701D01*
X174723900Y-107831950D01*
X174721537Y-107833077D01*
X174719118Y-107834079D01*
X174716651Y-107834953D01*
X174714141Y-107835696D01*
X174711596Y-107836307D01*
X174709022Y-107836784D01*
X174706426Y-107837126D01*
X174703817Y-107837331D01*
X174701200Y-107837400D01*
X173111200Y-107837400D01*
X173108583Y-107837331D01*
X173105974Y-107837126D01*
X173103378Y-107836784D01*
X173100804Y-107836307D01*
X173098259Y-107835696D01*
X173095749Y-107834953D01*
X173093282Y-107834079D01*
X173090863Y-107833077D01*
X173088500Y-107831950D01*
X173086200Y-107830701D01*
X173083968Y-107829334D01*
X173081811Y-107827851D01*
X173079734Y-107826257D01*
X173077743Y-107824557D01*
X173075845Y-107822755D01*
X173074043Y-107820857D01*
X173072343Y-107818866D01*
X173070749Y-107816789D01*
X173069266Y-107814632D01*
X173067899Y-107812400D01*
X173066650Y-107810100D01*
X173065523Y-107807737D01*
X173064521Y-107805318D01*
X173063647Y-107802851D01*
X173062904Y-107800341D01*
X173062293Y-107797796D01*
X173061816Y-107795222D01*
X173061474Y-107792626D01*
X173061269Y-107790017D01*
X173061200Y-107787400D01*
X173061200Y-107147400D01*
X173061269Y-107144783D01*
X173061474Y-107142174D01*
X173061816Y-107139578D01*
X173062293Y-107137004D01*
X173062904Y-107134459D01*
X173063647Y-107131949D01*
X173064521Y-107129482D01*
X173065523Y-107127063D01*
X173066650Y-107124700D01*
X173067899Y-107122400D01*
X173069266Y-107120168D01*
X173070749Y-107118011D01*
X173072343Y-107115934D01*
X173074043Y-107113943D01*
X173075845Y-107112045D01*
X173077743Y-107110243D01*
X173079734Y-107108543D01*
X173081811Y-107106949D01*
X173083968Y-107105466D01*
X173086200Y-107104099D01*
X173088500Y-107102850D01*
X173090863Y-107101723D01*
X173093282Y-107100721D01*
X173095749Y-107099847D01*
X173098259Y-107099104D01*
X173100804Y-107098493D01*
X173103378Y-107098016D01*
X173105974Y-107097674D01*
X173108583Y-107097469D01*
X173111200Y-107097400D01*
X174701200Y-107097400D01*
X174703817Y-107097469D01*
G37*
X174703817Y-107097469D02*
X174706426Y-107097674D01*
X174709022Y-107098016D01*
X174711596Y-107098493D01*
X174714141Y-107099104D01*
X174716651Y-107099847D01*
X174719118Y-107100721D01*
X174721537Y-107101723D01*
X174723900Y-107102850D01*
X174726200Y-107104099D01*
X174728432Y-107105466D01*
X174730589Y-107106949D01*
X174732666Y-107108543D01*
X174734657Y-107110243D01*
X174736555Y-107112045D01*
X174738357Y-107113943D01*
X174740057Y-107115934D01*
X174741651Y-107118011D01*
X174743134Y-107120168D01*
X174744501Y-107122400D01*
X174745750Y-107124700D01*
X174746877Y-107127063D01*
X174747879Y-107129482D01*
X174748753Y-107131949D01*
X174749496Y-107134459D01*
X174750107Y-107137004D01*
X174750584Y-107139578D01*
X174750926Y-107142174D01*
X174751131Y-107144783D01*
X174751200Y-107147400D01*
X174751200Y-107787400D01*
X174751131Y-107790017D01*
X174750926Y-107792626D01*
X174750584Y-107795222D01*
X174750107Y-107797796D01*
X174749496Y-107800341D01*
X174748753Y-107802851D01*
X174747879Y-107805318D01*
X174746877Y-107807737D01*
X174745750Y-107810100D01*
X174744501Y-107812400D01*
X174743134Y-107814632D01*
X174741651Y-107816789D01*
X174740057Y-107818866D01*
X174738357Y-107820857D01*
X174736555Y-107822755D01*
X174734657Y-107824557D01*
X174732666Y-107826257D01*
X174730589Y-107827851D01*
X174728432Y-107829334D01*
X174726200Y-107830701D01*
X174723900Y-107831950D01*
X174721537Y-107833077D01*
X174719118Y-107834079D01*
X174716651Y-107834953D01*
X174714141Y-107835696D01*
X174711596Y-107836307D01*
X174709022Y-107836784D01*
X174706426Y-107837126D01*
X174703817Y-107837331D01*
X174701200Y-107837400D01*
X173111200Y-107837400D01*
X173108583Y-107837331D01*
X173105974Y-107837126D01*
X173103378Y-107836784D01*
X173100804Y-107836307D01*
X173098259Y-107835696D01*
X173095749Y-107834953D01*
X173093282Y-107834079D01*
X173090863Y-107833077D01*
X173088500Y-107831950D01*
X173086200Y-107830701D01*
X173083968Y-107829334D01*
X173081811Y-107827851D01*
X173079734Y-107826257D01*
X173077743Y-107824557D01*
X173075845Y-107822755D01*
X173074043Y-107820857D01*
X173072343Y-107818866D01*
X173070749Y-107816789D01*
X173069266Y-107814632D01*
X173067899Y-107812400D01*
X173066650Y-107810100D01*
X173065523Y-107807737D01*
X173064521Y-107805318D01*
X173063647Y-107802851D01*
X173062904Y-107800341D01*
X173062293Y-107797796D01*
X173061816Y-107795222D01*
X173061474Y-107792626D01*
X173061269Y-107790017D01*
X173061200Y-107787400D01*
X173061200Y-107147400D01*
X173061269Y-107144783D01*
X173061474Y-107142174D01*
X173061816Y-107139578D01*
X173062293Y-107137004D01*
X173062904Y-107134459D01*
X173063647Y-107131949D01*
X173064521Y-107129482D01*
X173065523Y-107127063D01*
X173066650Y-107124700D01*
X173067899Y-107122400D01*
X173069266Y-107120168D01*
X173070749Y-107118011D01*
X173072343Y-107115934D01*
X173074043Y-107113943D01*
X173075845Y-107112045D01*
X173077743Y-107110243D01*
X173079734Y-107108543D01*
X173081811Y-107106949D01*
X173083968Y-107105466D01*
X173086200Y-107104099D01*
X173088500Y-107102850D01*
X173090863Y-107101723D01*
X173093282Y-107100721D01*
X173095749Y-107099847D01*
X173098259Y-107099104D01*
X173100804Y-107098493D01*
X173103378Y-107098016D01*
X173105974Y-107097674D01*
X173108583Y-107097469D01*
X173111200Y-107097400D01*
X174701200Y-107097400D01*
X174703817Y-107097469D01*
G36*
X180103817Y-109637469D02*
G01*
X180106426Y-109637674D01*
X180109022Y-109638016D01*
X180111596Y-109638493D01*
X180114141Y-109639104D01*
X180116651Y-109639847D01*
X180119118Y-109640721D01*
X180121537Y-109641723D01*
X180123900Y-109642850D01*
X180126200Y-109644099D01*
X180128432Y-109645466D01*
X180130589Y-109646949D01*
X180132666Y-109648543D01*
X180134657Y-109650243D01*
X180136555Y-109652045D01*
X180138357Y-109653943D01*
X180140057Y-109655934D01*
X180141651Y-109658011D01*
X180143134Y-109660168D01*
X180144501Y-109662400D01*
X180145750Y-109664700D01*
X180146877Y-109667063D01*
X180147879Y-109669482D01*
X180148753Y-109671949D01*
X180149496Y-109674459D01*
X180150107Y-109677004D01*
X180150584Y-109679578D01*
X180150926Y-109682174D01*
X180151131Y-109684783D01*
X180151200Y-109687400D01*
X180151200Y-110327400D01*
X180151131Y-110330017D01*
X180150926Y-110332626D01*
X180150584Y-110335222D01*
X180150107Y-110337796D01*
X180149496Y-110340341D01*
X180148753Y-110342851D01*
X180147879Y-110345318D01*
X180146877Y-110347737D01*
X180145750Y-110350100D01*
X180144501Y-110352400D01*
X180143134Y-110354632D01*
X180141651Y-110356789D01*
X180140057Y-110358866D01*
X180138357Y-110360857D01*
X180136555Y-110362755D01*
X180134657Y-110364557D01*
X180132666Y-110366257D01*
X180130589Y-110367851D01*
X180128432Y-110369334D01*
X180126200Y-110370701D01*
X180123900Y-110371950D01*
X180121537Y-110373077D01*
X180119118Y-110374079D01*
X180116651Y-110374953D01*
X180114141Y-110375696D01*
X180111596Y-110376307D01*
X180109022Y-110376784D01*
X180106426Y-110377126D01*
X180103817Y-110377331D01*
X180101200Y-110377400D01*
X178511200Y-110377400D01*
X178508583Y-110377331D01*
X178505974Y-110377126D01*
X178503378Y-110376784D01*
X178500804Y-110376307D01*
X178498259Y-110375696D01*
X178495749Y-110374953D01*
X178493282Y-110374079D01*
X178490863Y-110373077D01*
X178488500Y-110371950D01*
X178486200Y-110370701D01*
X178483968Y-110369334D01*
X178481811Y-110367851D01*
X178479734Y-110366257D01*
X178477743Y-110364557D01*
X178475845Y-110362755D01*
X178474043Y-110360857D01*
X178472343Y-110358866D01*
X178470749Y-110356789D01*
X178469266Y-110354632D01*
X178467899Y-110352400D01*
X178466650Y-110350100D01*
X178465523Y-110347737D01*
X178464521Y-110345318D01*
X178463647Y-110342851D01*
X178462904Y-110340341D01*
X178462293Y-110337796D01*
X178461816Y-110335222D01*
X178461474Y-110332626D01*
X178461269Y-110330017D01*
X178461200Y-110327400D01*
X178461200Y-109687400D01*
X178461269Y-109684783D01*
X178461474Y-109682174D01*
X178461816Y-109679578D01*
X178462293Y-109677004D01*
X178462904Y-109674459D01*
X178463647Y-109671949D01*
X178464521Y-109669482D01*
X178465523Y-109667063D01*
X178466650Y-109664700D01*
X178467899Y-109662400D01*
X178469266Y-109660168D01*
X178470749Y-109658011D01*
X178472343Y-109655934D01*
X178474043Y-109653943D01*
X178475845Y-109652045D01*
X178477743Y-109650243D01*
X178479734Y-109648543D01*
X178481811Y-109646949D01*
X178483968Y-109645466D01*
X178486200Y-109644099D01*
X178488500Y-109642850D01*
X178490863Y-109641723D01*
X178493282Y-109640721D01*
X178495749Y-109639847D01*
X178498259Y-109639104D01*
X178500804Y-109638493D01*
X178503378Y-109638016D01*
X178505974Y-109637674D01*
X178508583Y-109637469D01*
X178511200Y-109637400D01*
X180101200Y-109637400D01*
X180103817Y-109637469D01*
G37*
X180103817Y-109637469D02*
X180106426Y-109637674D01*
X180109022Y-109638016D01*
X180111596Y-109638493D01*
X180114141Y-109639104D01*
X180116651Y-109639847D01*
X180119118Y-109640721D01*
X180121537Y-109641723D01*
X180123900Y-109642850D01*
X180126200Y-109644099D01*
X180128432Y-109645466D01*
X180130589Y-109646949D01*
X180132666Y-109648543D01*
X180134657Y-109650243D01*
X180136555Y-109652045D01*
X180138357Y-109653943D01*
X180140057Y-109655934D01*
X180141651Y-109658011D01*
X180143134Y-109660168D01*
X180144501Y-109662400D01*
X180145750Y-109664700D01*
X180146877Y-109667063D01*
X180147879Y-109669482D01*
X180148753Y-109671949D01*
X180149496Y-109674459D01*
X180150107Y-109677004D01*
X180150584Y-109679578D01*
X180150926Y-109682174D01*
X180151131Y-109684783D01*
X180151200Y-109687400D01*
X180151200Y-110327400D01*
X180151131Y-110330017D01*
X180150926Y-110332626D01*
X180150584Y-110335222D01*
X180150107Y-110337796D01*
X180149496Y-110340341D01*
X180148753Y-110342851D01*
X180147879Y-110345318D01*
X180146877Y-110347737D01*
X180145750Y-110350100D01*
X180144501Y-110352400D01*
X180143134Y-110354632D01*
X180141651Y-110356789D01*
X180140057Y-110358866D01*
X180138357Y-110360857D01*
X180136555Y-110362755D01*
X180134657Y-110364557D01*
X180132666Y-110366257D01*
X180130589Y-110367851D01*
X180128432Y-110369334D01*
X180126200Y-110370701D01*
X180123900Y-110371950D01*
X180121537Y-110373077D01*
X180119118Y-110374079D01*
X180116651Y-110374953D01*
X180114141Y-110375696D01*
X180111596Y-110376307D01*
X180109022Y-110376784D01*
X180106426Y-110377126D01*
X180103817Y-110377331D01*
X180101200Y-110377400D01*
X178511200Y-110377400D01*
X178508583Y-110377331D01*
X178505974Y-110377126D01*
X178503378Y-110376784D01*
X178500804Y-110376307D01*
X178498259Y-110375696D01*
X178495749Y-110374953D01*
X178493282Y-110374079D01*
X178490863Y-110373077D01*
X178488500Y-110371950D01*
X178486200Y-110370701D01*
X178483968Y-110369334D01*
X178481811Y-110367851D01*
X178479734Y-110366257D01*
X178477743Y-110364557D01*
X178475845Y-110362755D01*
X178474043Y-110360857D01*
X178472343Y-110358866D01*
X178470749Y-110356789D01*
X178469266Y-110354632D01*
X178467899Y-110352400D01*
X178466650Y-110350100D01*
X178465523Y-110347737D01*
X178464521Y-110345318D01*
X178463647Y-110342851D01*
X178462904Y-110340341D01*
X178462293Y-110337796D01*
X178461816Y-110335222D01*
X178461474Y-110332626D01*
X178461269Y-110330017D01*
X178461200Y-110327400D01*
X178461200Y-109687400D01*
X178461269Y-109684783D01*
X178461474Y-109682174D01*
X178461816Y-109679578D01*
X178462293Y-109677004D01*
X178462904Y-109674459D01*
X178463647Y-109671949D01*
X178464521Y-109669482D01*
X178465523Y-109667063D01*
X178466650Y-109664700D01*
X178467899Y-109662400D01*
X178469266Y-109660168D01*
X178470749Y-109658011D01*
X178472343Y-109655934D01*
X178474043Y-109653943D01*
X178475845Y-109652045D01*
X178477743Y-109650243D01*
X178479734Y-109648543D01*
X178481811Y-109646949D01*
X178483968Y-109645466D01*
X178486200Y-109644099D01*
X178488500Y-109642850D01*
X178490863Y-109641723D01*
X178493282Y-109640721D01*
X178495749Y-109639847D01*
X178498259Y-109639104D01*
X178500804Y-109638493D01*
X178503378Y-109638016D01*
X178505974Y-109637674D01*
X178508583Y-109637469D01*
X178511200Y-109637400D01*
X180101200Y-109637400D01*
X180103817Y-109637469D01*
G36*
X174703817Y-108367469D02*
G01*
X174706426Y-108367674D01*
X174709022Y-108368016D01*
X174711596Y-108368493D01*
X174714141Y-108369104D01*
X174716651Y-108369847D01*
X174719118Y-108370721D01*
X174721537Y-108371723D01*
X174723900Y-108372850D01*
X174726200Y-108374099D01*
X174728432Y-108375466D01*
X174730589Y-108376949D01*
X174732666Y-108378543D01*
X174734657Y-108380243D01*
X174736555Y-108382045D01*
X174738357Y-108383943D01*
X174740057Y-108385934D01*
X174741651Y-108388011D01*
X174743134Y-108390168D01*
X174744501Y-108392400D01*
X174745750Y-108394700D01*
X174746877Y-108397063D01*
X174747879Y-108399482D01*
X174748753Y-108401949D01*
X174749496Y-108404459D01*
X174750107Y-108407004D01*
X174750584Y-108409578D01*
X174750926Y-108412174D01*
X174751131Y-108414783D01*
X174751200Y-108417400D01*
X174751200Y-109057400D01*
X174751131Y-109060017D01*
X174750926Y-109062626D01*
X174750584Y-109065222D01*
X174750107Y-109067796D01*
X174749496Y-109070341D01*
X174748753Y-109072851D01*
X174747879Y-109075318D01*
X174746877Y-109077737D01*
X174745750Y-109080100D01*
X174744501Y-109082400D01*
X174743134Y-109084632D01*
X174741651Y-109086789D01*
X174740057Y-109088866D01*
X174738357Y-109090857D01*
X174736555Y-109092755D01*
X174734657Y-109094557D01*
X174732666Y-109096257D01*
X174730589Y-109097851D01*
X174728432Y-109099334D01*
X174726200Y-109100701D01*
X174723900Y-109101950D01*
X174721537Y-109103077D01*
X174719118Y-109104079D01*
X174716651Y-109104953D01*
X174714141Y-109105696D01*
X174711596Y-109106307D01*
X174709022Y-109106784D01*
X174706426Y-109107126D01*
X174703817Y-109107331D01*
X174701200Y-109107400D01*
X173111200Y-109107400D01*
X173108583Y-109107331D01*
X173105974Y-109107126D01*
X173103378Y-109106784D01*
X173100804Y-109106307D01*
X173098259Y-109105696D01*
X173095749Y-109104953D01*
X173093282Y-109104079D01*
X173090863Y-109103077D01*
X173088500Y-109101950D01*
X173086200Y-109100701D01*
X173083968Y-109099334D01*
X173081811Y-109097851D01*
X173079734Y-109096257D01*
X173077743Y-109094557D01*
X173075845Y-109092755D01*
X173074043Y-109090857D01*
X173072343Y-109088866D01*
X173070749Y-109086789D01*
X173069266Y-109084632D01*
X173067899Y-109082400D01*
X173066650Y-109080100D01*
X173065523Y-109077737D01*
X173064521Y-109075318D01*
X173063647Y-109072851D01*
X173062904Y-109070341D01*
X173062293Y-109067796D01*
X173061816Y-109065222D01*
X173061474Y-109062626D01*
X173061269Y-109060017D01*
X173061200Y-109057400D01*
X173061200Y-108417400D01*
X173061269Y-108414783D01*
X173061474Y-108412174D01*
X173061816Y-108409578D01*
X173062293Y-108407004D01*
X173062904Y-108404459D01*
X173063647Y-108401949D01*
X173064521Y-108399482D01*
X173065523Y-108397063D01*
X173066650Y-108394700D01*
X173067899Y-108392400D01*
X173069266Y-108390168D01*
X173070749Y-108388011D01*
X173072343Y-108385934D01*
X173074043Y-108383943D01*
X173075845Y-108382045D01*
X173077743Y-108380243D01*
X173079734Y-108378543D01*
X173081811Y-108376949D01*
X173083968Y-108375466D01*
X173086200Y-108374099D01*
X173088500Y-108372850D01*
X173090863Y-108371723D01*
X173093282Y-108370721D01*
X173095749Y-108369847D01*
X173098259Y-108369104D01*
X173100804Y-108368493D01*
X173103378Y-108368016D01*
X173105974Y-108367674D01*
X173108583Y-108367469D01*
X173111200Y-108367400D01*
X174701200Y-108367400D01*
X174703817Y-108367469D01*
G37*
X174703817Y-108367469D02*
X174706426Y-108367674D01*
X174709022Y-108368016D01*
X174711596Y-108368493D01*
X174714141Y-108369104D01*
X174716651Y-108369847D01*
X174719118Y-108370721D01*
X174721537Y-108371723D01*
X174723900Y-108372850D01*
X174726200Y-108374099D01*
X174728432Y-108375466D01*
X174730589Y-108376949D01*
X174732666Y-108378543D01*
X174734657Y-108380243D01*
X174736555Y-108382045D01*
X174738357Y-108383943D01*
X174740057Y-108385934D01*
X174741651Y-108388011D01*
X174743134Y-108390168D01*
X174744501Y-108392400D01*
X174745750Y-108394700D01*
X174746877Y-108397063D01*
X174747879Y-108399482D01*
X174748753Y-108401949D01*
X174749496Y-108404459D01*
X174750107Y-108407004D01*
X174750584Y-108409578D01*
X174750926Y-108412174D01*
X174751131Y-108414783D01*
X174751200Y-108417400D01*
X174751200Y-109057400D01*
X174751131Y-109060017D01*
X174750926Y-109062626D01*
X174750584Y-109065222D01*
X174750107Y-109067796D01*
X174749496Y-109070341D01*
X174748753Y-109072851D01*
X174747879Y-109075318D01*
X174746877Y-109077737D01*
X174745750Y-109080100D01*
X174744501Y-109082400D01*
X174743134Y-109084632D01*
X174741651Y-109086789D01*
X174740057Y-109088866D01*
X174738357Y-109090857D01*
X174736555Y-109092755D01*
X174734657Y-109094557D01*
X174732666Y-109096257D01*
X174730589Y-109097851D01*
X174728432Y-109099334D01*
X174726200Y-109100701D01*
X174723900Y-109101950D01*
X174721537Y-109103077D01*
X174719118Y-109104079D01*
X174716651Y-109104953D01*
X174714141Y-109105696D01*
X174711596Y-109106307D01*
X174709022Y-109106784D01*
X174706426Y-109107126D01*
X174703817Y-109107331D01*
X174701200Y-109107400D01*
X173111200Y-109107400D01*
X173108583Y-109107331D01*
X173105974Y-109107126D01*
X173103378Y-109106784D01*
X173100804Y-109106307D01*
X173098259Y-109105696D01*
X173095749Y-109104953D01*
X173093282Y-109104079D01*
X173090863Y-109103077D01*
X173088500Y-109101950D01*
X173086200Y-109100701D01*
X173083968Y-109099334D01*
X173081811Y-109097851D01*
X173079734Y-109096257D01*
X173077743Y-109094557D01*
X173075845Y-109092755D01*
X173074043Y-109090857D01*
X173072343Y-109088866D01*
X173070749Y-109086789D01*
X173069266Y-109084632D01*
X173067899Y-109082400D01*
X173066650Y-109080100D01*
X173065523Y-109077737D01*
X173064521Y-109075318D01*
X173063647Y-109072851D01*
X173062904Y-109070341D01*
X173062293Y-109067796D01*
X173061816Y-109065222D01*
X173061474Y-109062626D01*
X173061269Y-109060017D01*
X173061200Y-109057400D01*
X173061200Y-108417400D01*
X173061269Y-108414783D01*
X173061474Y-108412174D01*
X173061816Y-108409578D01*
X173062293Y-108407004D01*
X173062904Y-108404459D01*
X173063647Y-108401949D01*
X173064521Y-108399482D01*
X173065523Y-108397063D01*
X173066650Y-108394700D01*
X173067899Y-108392400D01*
X173069266Y-108390168D01*
X173070749Y-108388011D01*
X173072343Y-108385934D01*
X173074043Y-108383943D01*
X173075845Y-108382045D01*
X173077743Y-108380243D01*
X173079734Y-108378543D01*
X173081811Y-108376949D01*
X173083968Y-108375466D01*
X173086200Y-108374099D01*
X173088500Y-108372850D01*
X173090863Y-108371723D01*
X173093282Y-108370721D01*
X173095749Y-108369847D01*
X173098259Y-108369104D01*
X173100804Y-108368493D01*
X173103378Y-108368016D01*
X173105974Y-108367674D01*
X173108583Y-108367469D01*
X173111200Y-108367400D01*
X174701200Y-108367400D01*
X174703817Y-108367469D01*
G36*
X180103817Y-108367469D02*
G01*
X180106426Y-108367674D01*
X180109022Y-108368016D01*
X180111596Y-108368493D01*
X180114141Y-108369104D01*
X180116651Y-108369847D01*
X180119118Y-108370721D01*
X180121537Y-108371723D01*
X180123900Y-108372850D01*
X180126200Y-108374099D01*
X180128432Y-108375466D01*
X180130589Y-108376949D01*
X180132666Y-108378543D01*
X180134657Y-108380243D01*
X180136555Y-108382045D01*
X180138357Y-108383943D01*
X180140057Y-108385934D01*
X180141651Y-108388011D01*
X180143134Y-108390168D01*
X180144501Y-108392400D01*
X180145750Y-108394700D01*
X180146877Y-108397063D01*
X180147879Y-108399482D01*
X180148753Y-108401949D01*
X180149496Y-108404459D01*
X180150107Y-108407004D01*
X180150584Y-108409578D01*
X180150926Y-108412174D01*
X180151131Y-108414783D01*
X180151200Y-108417400D01*
X180151200Y-109057400D01*
X180151131Y-109060017D01*
X180150926Y-109062626D01*
X180150584Y-109065222D01*
X180150107Y-109067796D01*
X180149496Y-109070341D01*
X180148753Y-109072851D01*
X180147879Y-109075318D01*
X180146877Y-109077737D01*
X180145750Y-109080100D01*
X180144501Y-109082400D01*
X180143134Y-109084632D01*
X180141651Y-109086789D01*
X180140057Y-109088866D01*
X180138357Y-109090857D01*
X180136555Y-109092755D01*
X180134657Y-109094557D01*
X180132666Y-109096257D01*
X180130589Y-109097851D01*
X180128432Y-109099334D01*
X180126200Y-109100701D01*
X180123900Y-109101950D01*
X180121537Y-109103077D01*
X180119118Y-109104079D01*
X180116651Y-109104953D01*
X180114141Y-109105696D01*
X180111596Y-109106307D01*
X180109022Y-109106784D01*
X180106426Y-109107126D01*
X180103817Y-109107331D01*
X180101200Y-109107400D01*
X178511200Y-109107400D01*
X178508583Y-109107331D01*
X178505974Y-109107126D01*
X178503378Y-109106784D01*
X178500804Y-109106307D01*
X178498259Y-109105696D01*
X178495749Y-109104953D01*
X178493282Y-109104079D01*
X178490863Y-109103077D01*
X178488500Y-109101950D01*
X178486200Y-109100701D01*
X178483968Y-109099334D01*
X178481811Y-109097851D01*
X178479734Y-109096257D01*
X178477743Y-109094557D01*
X178475845Y-109092755D01*
X178474043Y-109090857D01*
X178472343Y-109088866D01*
X178470749Y-109086789D01*
X178469266Y-109084632D01*
X178467899Y-109082400D01*
X178466650Y-109080100D01*
X178465523Y-109077737D01*
X178464521Y-109075318D01*
X178463647Y-109072851D01*
X178462904Y-109070341D01*
X178462293Y-109067796D01*
X178461816Y-109065222D01*
X178461474Y-109062626D01*
X178461269Y-109060017D01*
X178461200Y-109057400D01*
X178461200Y-108417400D01*
X178461269Y-108414783D01*
X178461474Y-108412174D01*
X178461816Y-108409578D01*
X178462293Y-108407004D01*
X178462904Y-108404459D01*
X178463647Y-108401949D01*
X178464521Y-108399482D01*
X178465523Y-108397063D01*
X178466650Y-108394700D01*
X178467899Y-108392400D01*
X178469266Y-108390168D01*
X178470749Y-108388011D01*
X178472343Y-108385934D01*
X178474043Y-108383943D01*
X178475845Y-108382045D01*
X178477743Y-108380243D01*
X178479734Y-108378543D01*
X178481811Y-108376949D01*
X178483968Y-108375466D01*
X178486200Y-108374099D01*
X178488500Y-108372850D01*
X178490863Y-108371723D01*
X178493282Y-108370721D01*
X178495749Y-108369847D01*
X178498259Y-108369104D01*
X178500804Y-108368493D01*
X178503378Y-108368016D01*
X178505974Y-108367674D01*
X178508583Y-108367469D01*
X178511200Y-108367400D01*
X180101200Y-108367400D01*
X180103817Y-108367469D01*
G37*
X180103817Y-108367469D02*
X180106426Y-108367674D01*
X180109022Y-108368016D01*
X180111596Y-108368493D01*
X180114141Y-108369104D01*
X180116651Y-108369847D01*
X180119118Y-108370721D01*
X180121537Y-108371723D01*
X180123900Y-108372850D01*
X180126200Y-108374099D01*
X180128432Y-108375466D01*
X180130589Y-108376949D01*
X180132666Y-108378543D01*
X180134657Y-108380243D01*
X180136555Y-108382045D01*
X180138357Y-108383943D01*
X180140057Y-108385934D01*
X180141651Y-108388011D01*
X180143134Y-108390168D01*
X180144501Y-108392400D01*
X180145750Y-108394700D01*
X180146877Y-108397063D01*
X180147879Y-108399482D01*
X180148753Y-108401949D01*
X180149496Y-108404459D01*
X180150107Y-108407004D01*
X180150584Y-108409578D01*
X180150926Y-108412174D01*
X180151131Y-108414783D01*
X180151200Y-108417400D01*
X180151200Y-109057400D01*
X180151131Y-109060017D01*
X180150926Y-109062626D01*
X180150584Y-109065222D01*
X180150107Y-109067796D01*
X180149496Y-109070341D01*
X180148753Y-109072851D01*
X180147879Y-109075318D01*
X180146877Y-109077737D01*
X180145750Y-109080100D01*
X180144501Y-109082400D01*
X180143134Y-109084632D01*
X180141651Y-109086789D01*
X180140057Y-109088866D01*
X180138357Y-109090857D01*
X180136555Y-109092755D01*
X180134657Y-109094557D01*
X180132666Y-109096257D01*
X180130589Y-109097851D01*
X180128432Y-109099334D01*
X180126200Y-109100701D01*
X180123900Y-109101950D01*
X180121537Y-109103077D01*
X180119118Y-109104079D01*
X180116651Y-109104953D01*
X180114141Y-109105696D01*
X180111596Y-109106307D01*
X180109022Y-109106784D01*
X180106426Y-109107126D01*
X180103817Y-109107331D01*
X180101200Y-109107400D01*
X178511200Y-109107400D01*
X178508583Y-109107331D01*
X178505974Y-109107126D01*
X178503378Y-109106784D01*
X178500804Y-109106307D01*
X178498259Y-109105696D01*
X178495749Y-109104953D01*
X178493282Y-109104079D01*
X178490863Y-109103077D01*
X178488500Y-109101950D01*
X178486200Y-109100701D01*
X178483968Y-109099334D01*
X178481811Y-109097851D01*
X178479734Y-109096257D01*
X178477743Y-109094557D01*
X178475845Y-109092755D01*
X178474043Y-109090857D01*
X178472343Y-109088866D01*
X178470749Y-109086789D01*
X178469266Y-109084632D01*
X178467899Y-109082400D01*
X178466650Y-109080100D01*
X178465523Y-109077737D01*
X178464521Y-109075318D01*
X178463647Y-109072851D01*
X178462904Y-109070341D01*
X178462293Y-109067796D01*
X178461816Y-109065222D01*
X178461474Y-109062626D01*
X178461269Y-109060017D01*
X178461200Y-109057400D01*
X178461200Y-108417400D01*
X178461269Y-108414783D01*
X178461474Y-108412174D01*
X178461816Y-108409578D01*
X178462293Y-108407004D01*
X178462904Y-108404459D01*
X178463647Y-108401949D01*
X178464521Y-108399482D01*
X178465523Y-108397063D01*
X178466650Y-108394700D01*
X178467899Y-108392400D01*
X178469266Y-108390168D01*
X178470749Y-108388011D01*
X178472343Y-108385934D01*
X178474043Y-108383943D01*
X178475845Y-108382045D01*
X178477743Y-108380243D01*
X178479734Y-108378543D01*
X178481811Y-108376949D01*
X178483968Y-108375466D01*
X178486200Y-108374099D01*
X178488500Y-108372850D01*
X178490863Y-108371723D01*
X178493282Y-108370721D01*
X178495749Y-108369847D01*
X178498259Y-108369104D01*
X178500804Y-108368493D01*
X178503378Y-108368016D01*
X178505974Y-108367674D01*
X178508583Y-108367469D01*
X178511200Y-108367400D01*
X180101200Y-108367400D01*
X180103817Y-108367469D01*
%TO.C,P9*%
G36*
X140541400Y-146002600D02*
G01*
X139789000Y-146002600D01*
X139789000Y-144350200D01*
X140541400Y-144350200D01*
X140541400Y-146002600D01*
G37*
X140541400Y-146002600D02*
X139789000Y-146002600D01*
X139789000Y-144350200D01*
X140541400Y-144350200D01*
X140541400Y-146002600D01*
G36*
X138541400Y-146002600D02*
G01*
X137789000Y-146002600D01*
X137789000Y-144350200D01*
X138541400Y-144350200D01*
X138541400Y-146002600D01*
G37*
X138541400Y-146002600D02*
X137789000Y-146002600D01*
X137789000Y-144350200D01*
X138541400Y-144350200D01*
X138541400Y-146002600D01*
G36*
X141541400Y-146002600D02*
G01*
X140789000Y-146002600D01*
X140789000Y-144350200D01*
X141541400Y-144350200D01*
X141541400Y-146002600D01*
G37*
X141541400Y-146002600D02*
X140789000Y-146002600D01*
X140789000Y-144350200D01*
X141541400Y-144350200D01*
X141541400Y-146002600D01*
G36*
X146141400Y-150052600D02*
G01*
X144789000Y-150052600D01*
X144789000Y-148100200D01*
X146141400Y-148100200D01*
X146141400Y-150052600D01*
G37*
X146141400Y-150052600D02*
X144789000Y-150052600D01*
X144789000Y-148100200D01*
X146141400Y-148100200D01*
X146141400Y-150052600D01*
G36*
X143541400Y-146002600D02*
G01*
X142789000Y-146002600D01*
X142789000Y-144350200D01*
X143541400Y-144350200D01*
X143541400Y-146002600D01*
G37*
X143541400Y-146002600D02*
X142789000Y-146002600D01*
X142789000Y-144350200D01*
X143541400Y-144350200D01*
X143541400Y-146002600D01*
G36*
X136541400Y-150052600D02*
G01*
X135189000Y-150052600D01*
X135189000Y-148100200D01*
X136541400Y-148100200D01*
X136541400Y-150052600D01*
G37*
X136541400Y-150052600D02*
X135189000Y-150052600D01*
X135189000Y-148100200D01*
X136541400Y-148100200D01*
X136541400Y-150052600D01*
G36*
X137541400Y-146002600D02*
G01*
X136789000Y-146002600D01*
X136789000Y-144350200D01*
X137541400Y-144350200D01*
X137541400Y-146002600D01*
G37*
X137541400Y-146002600D02*
X136789000Y-146002600D01*
X136789000Y-144350200D01*
X137541400Y-144350200D01*
X137541400Y-146002600D01*
G36*
X144541400Y-146002600D02*
G01*
X143789000Y-146002600D01*
X143789000Y-144350200D01*
X144541400Y-144350200D01*
X144541400Y-146002600D01*
G37*
X144541400Y-146002600D02*
X143789000Y-146002600D01*
X143789000Y-144350200D01*
X144541400Y-144350200D01*
X144541400Y-146002600D01*
G36*
X139541400Y-146002600D02*
G01*
X138789000Y-146002600D01*
X138789000Y-144350200D01*
X139541400Y-144350200D01*
X139541400Y-146002600D01*
G37*
X139541400Y-146002600D02*
X138789000Y-146002600D01*
X138789000Y-144350200D01*
X139541400Y-144350200D01*
X139541400Y-146002600D01*
G36*
X142541400Y-146002600D02*
G01*
X141789000Y-146002600D01*
X141789000Y-144350200D01*
X142541400Y-144350200D01*
X142541400Y-146002600D01*
G37*
X142541400Y-146002600D02*
X141789000Y-146002600D01*
X141789000Y-144350200D01*
X142541400Y-144350200D01*
X142541400Y-146002600D01*
%TD*%
D11*
%TO.C,C6*%
X147904200Y-112623600D03*
X147904200Y-115265200D03*
%TD*%
%TO.C,C7*%
X134442200Y-114249200D03*
X134442200Y-111607600D03*
%TD*%
D12*
%TO.C,C8*%
X148259800Y-129882000D03*
X148259800Y-128182000D03*
%TD*%
D13*
%TO.C,B1*%
X146032200Y-130123999D03*
X140632200Y-130123999D03*
X146032200Y-126924001D03*
X140632200Y-126924001D03*
%TD*%
D14*
%TO.C,P1*%
X192443200Y-104546400D03*
D15*
X198398200Y-104546400D03*
D16*
X195148200Y-99856400D03*
%TD*%
D12*
%TO.C,C15*%
X146126200Y-109841400D03*
X146126200Y-108141400D03*
%TD*%
D17*
%TO.C,C16*%
X138926200Y-106070400D03*
X140626200Y-106070400D03*
%TD*%
D18*
%TO.C,D2*%
X170510200Y-100533200D03*
X170510200Y-97891600D03*
%TD*%
D19*
%TO.C,D4*%
X183718200Y-100799900D03*
X183718200Y-97116900D03*
%TD*%
D20*
%TO.C,D5*%
X185178700Y-104546400D03*
X188861700Y-104546400D03*
%TD*%
D21*
%TO.C,R8*%
X143995200Y-97942400D03*
X142415200Y-97942400D03*
%TD*%
%TO.C,R9*%
X140312200Y-104292400D03*
X138732200Y-104292400D03*
%TD*%
D22*
%TO.C,U6*%
X144561200Y-100152400D03*
X143911200Y-100152400D03*
X143261200Y-100152400D03*
X142611200Y-100152400D03*
X142611200Y-105892400D03*
X143261200Y-105892400D03*
X143911200Y-105892400D03*
X144561200Y-105892400D03*
%TD*%
D23*
%TO.C,C1*%
X178598200Y-99720400D03*
X173598200Y-99720400D03*
%TD*%
D17*
%TO.C,C17*%
X156628200Y-108610400D03*
X154928200Y-108610400D03*
%TD*%
%TO.C,C2*%
X181598200Y-103022400D03*
X183298200Y-103022400D03*
%TD*%
D12*
%TO.C,C3*%
X170256200Y-106490400D03*
X170256200Y-108190400D03*
%TD*%
D21*
%TO.C,R5*%
X177777200Y-115468400D03*
X176197200Y-115468400D03*
%TD*%
D24*
%TO.C,C5*%
X150444200Y-106826400D03*
X150444200Y-99726400D03*
%TD*%
D25*
%TO.C,D3*%
X182575200Y-113817400D03*
X185623200Y-113817400D03*
%TD*%
D21*
%TO.C,R2*%
X176324200Y-113182400D03*
X177904200Y-113182400D03*
%TD*%
D26*
%TO.C,R3*%
X163093400Y-111417100D03*
X163093400Y-112997100D03*
%TD*%
D27*
%TO.C,L1*%
X166324200Y-102006400D03*
X157424200Y-102006400D03*
%TD*%
D28*
%TO.C,U3*%
X143438200Y-115228400D03*
X143438200Y-112928400D03*
D29*
X137638200Y-112928400D03*
D28*
X143438200Y-110628400D03*
%TD*%
D17*
%TO.C,C4*%
X174154200Y-104800400D03*
X172454200Y-104800400D03*
%TD*%
D30*
%TO.C,U1*%
X154956200Y-119628400D03*
X154956200Y-120128400D03*
X154956200Y-120628400D03*
X154956200Y-121128400D03*
X154956200Y-121628400D03*
X154956200Y-122128400D03*
X154956200Y-122628400D03*
X154956200Y-123128400D03*
X154956200Y-123628400D03*
X154956200Y-124128400D03*
X154956200Y-124628400D03*
X154956200Y-125128400D03*
X154956200Y-125628400D03*
X154956200Y-126128400D03*
X154956200Y-126628400D03*
X154956200Y-127128400D03*
X154956200Y-127628400D03*
X154956200Y-128128400D03*
X154956200Y-128628400D03*
X154956200Y-129128400D03*
X154956200Y-129628400D03*
X154956200Y-130128400D03*
X154956200Y-130628400D03*
X154956200Y-131128400D03*
X154956200Y-131628400D03*
D31*
X156636200Y-133308400D03*
X157136200Y-133308400D03*
X157636200Y-133308400D03*
X158136200Y-133308400D03*
X158636200Y-133308400D03*
X159136200Y-133308400D03*
X159636200Y-133308400D03*
X160136200Y-133308400D03*
X160636200Y-133308400D03*
X161136200Y-133308400D03*
X161636200Y-133308400D03*
X162136200Y-133308400D03*
X162636200Y-133308400D03*
X163136200Y-133308400D03*
X163636200Y-133308400D03*
X164136200Y-133308400D03*
X164636200Y-133308400D03*
X165136200Y-133308400D03*
X165636200Y-133308400D03*
X166136200Y-133308400D03*
X166636200Y-133308400D03*
X167136200Y-133308400D03*
X167636200Y-133308400D03*
X168136200Y-133308400D03*
X168636200Y-133308400D03*
D30*
X170316200Y-131628400D03*
X170316200Y-131128400D03*
X170316200Y-130628400D03*
X170316200Y-130128400D03*
X170316200Y-129628400D03*
X170316200Y-129128400D03*
X170316200Y-128628400D03*
X170316200Y-128128400D03*
X170316200Y-127628400D03*
X170316200Y-127128400D03*
X170316200Y-126628400D03*
X170316200Y-126128400D03*
X170316200Y-125628400D03*
X170316200Y-125128400D03*
X170316200Y-124628400D03*
X170316200Y-124128400D03*
X170316200Y-123628400D03*
X170316200Y-123128400D03*
X170316200Y-122628400D03*
X170316200Y-122128400D03*
X170316200Y-121628400D03*
X170316200Y-121128400D03*
X170316200Y-120628400D03*
X170316200Y-120128400D03*
X170316200Y-119628400D03*
D31*
X168636200Y-117948400D03*
X168136200Y-117948400D03*
X167636200Y-117948400D03*
X167136200Y-117948400D03*
X166636200Y-117948400D03*
X166136200Y-117948400D03*
X165636200Y-117948400D03*
X165136200Y-117948400D03*
X164636200Y-117948400D03*
X164136200Y-117948400D03*
X163636200Y-117948400D03*
X163136200Y-117948400D03*
X162636200Y-117948400D03*
X162136200Y-117948400D03*
X161636200Y-117948400D03*
X161136200Y-117948400D03*
X160636200Y-117948400D03*
X160136200Y-117948400D03*
X159636200Y-117948400D03*
X159136200Y-117948400D03*
X158636200Y-117948400D03*
X158136200Y-117948400D03*
X157636200Y-117948400D03*
X157136200Y-117948400D03*
X156636200Y-117948400D03*
%TD*%
D25*
%TO.C,D7*%
X168719500Y-113334800D03*
X165671500Y-113334800D03*
%TD*%
%TO.C,D6*%
X187909200Y-108864400D03*
X184861200Y-108864400D03*
%TD*%
D12*
%TO.C,C30*%
X94564200Y-140194400D03*
X94564200Y-138494400D03*
%TD*%
D11*
%TO.C,C27*%
X137236200Y-118846600D03*
X137236200Y-121488200D03*
%TD*%
D32*
%TO.C,H1*%
X91262200Y-99720400D03*
%TD*%
D17*
%TO.C,C9*%
X150432400Y-123901200D03*
X152132400Y-123901200D03*
%TD*%
D25*
%TO.C,D9*%
X133680200Y-127533400D03*
X136728200Y-127533400D03*
%TD*%
D21*
%TO.C,R27*%
X104442200Y-129692400D03*
X106022200Y-129692400D03*
%TD*%
%TO.C,R1*%
X177467200Y-141503400D03*
X179047200Y-141503400D03*
%TD*%
%TO.C,R18*%
X170538200Y-141503400D03*
X168958200Y-141503400D03*
%TD*%
D26*
%TO.C,R14*%
X179146200Y-120270400D03*
X179146200Y-118690400D03*
%TD*%
D17*
%TO.C,C21*%
X156364200Y-135788400D03*
X158064200Y-135788400D03*
%TD*%
D26*
%TO.C,R34*%
X186766200Y-130228400D03*
X186766200Y-128648400D03*
%TD*%
D21*
%TO.C,R7*%
X112880200Y-112801400D03*
X111300200Y-112801400D03*
%TD*%
D33*
%TO.C,U7*%
X115648200Y-127914400D03*
X115648200Y-129184400D03*
X115648200Y-130454400D03*
X115648200Y-131724400D03*
X115648200Y-132994400D03*
X115648200Y-134264400D03*
X115648200Y-135534400D03*
X120608200Y-135534400D03*
X120608200Y-134264400D03*
X120608200Y-132994400D03*
X120608200Y-131724400D03*
X120608200Y-130454400D03*
X120608200Y-129184400D03*
X120608200Y-127914400D03*
%TD*%
D21*
%TO.C,R16*%
X177594200Y-139598400D03*
X179174200Y-139598400D03*
%TD*%
%TO.C,R29*%
X144122200Y-137947400D03*
X142542200Y-137947400D03*
%TD*%
%TO.C,R32*%
X143431200Y-134137400D03*
X145011200Y-134137400D03*
%TD*%
%TO.C,R17*%
X181023200Y-139598400D03*
X182603200Y-139598400D03*
%TD*%
D34*
%TO.C,P5*%
X190574500Y-118231600D03*
D35*
X190574500Y-120731600D03*
X192574500Y-120731600D03*
X192574500Y-118231600D03*
D36*
X195284500Y-125501600D03*
X195284500Y-113461600D03*
%TD*%
D37*
%TO.C,P3*%
X175463200Y-144159350D03*
X175463200Y-145429350D03*
X174193200Y-144159350D03*
X174193200Y-145429350D03*
X172923200Y-144159350D03*
X172923200Y-145429350D03*
X171653200Y-144159350D03*
X171653200Y-145429350D03*
X170383200Y-144159350D03*
X170383200Y-145429350D03*
X169113200Y-144159350D03*
X169113200Y-145429350D03*
X167843200Y-144159350D03*
X167843200Y-145429350D03*
X166573200Y-144159350D03*
X166573200Y-145429350D03*
X165303200Y-144159350D03*
X165303200Y-145429350D03*
X164033200Y-144159350D03*
X164033200Y-145429350D03*
%TD*%
D12*
%TO.C,C10*%
X159982800Y-137425800D03*
X159982800Y-135725800D03*
%TD*%
D21*
%TO.C,R4*%
X110919200Y-107086400D03*
X112499200Y-107086400D03*
%TD*%
D17*
%TO.C,C14*%
X168644200Y-135788400D03*
X170344200Y-135788400D03*
%TD*%
D12*
%TO.C,C20*%
X181813200Y-118936400D03*
X181813200Y-120636400D03*
%TD*%
D38*
%TO.C,P4*%
X200634600Y-133810800D03*
X200634600Y-140610800D03*
D39*
X189214600Y-134630800D03*
X189214600Y-135730800D03*
X189214600Y-136830800D03*
X189214600Y-137930800D03*
X189214600Y-139030800D03*
X189214600Y-140130800D03*
X189214600Y-141230800D03*
X189214600Y-142330800D03*
X189214600Y-143430800D03*
D40*
X200214600Y-144810800D03*
X191214600Y-144810800D03*
X191214600Y-128660800D03*
X200214600Y-128660800D03*
%TD*%
D41*
%TO.C,U8*%
X105562400Y-131597400D03*
X105562400Y-132867400D03*
X105562400Y-134137400D03*
X105562400Y-135407400D03*
X110490000Y-135407400D03*
X110490000Y-134137400D03*
X110490000Y-132867400D03*
X110490000Y-131597400D03*
%TD*%
D37*
%TO.C,P8*%
X90627200Y-137439400D03*
X89357200Y-137439400D03*
X90627200Y-136169400D03*
X89357200Y-136169400D03*
X90627200Y-134899400D03*
X89357200Y-134899400D03*
X90627200Y-133629400D03*
X89357200Y-133629400D03*
X90627200Y-132359400D03*
X89357200Y-132359400D03*
X90627200Y-131089400D03*
X89357200Y-131089400D03*
X90627200Y-129819400D03*
X89357200Y-129819400D03*
X90627200Y-128549400D03*
X89357200Y-128549400D03*
X90627200Y-127279400D03*
X89357200Y-127279400D03*
X90627200Y-126009400D03*
X89357200Y-126009400D03*
X90627200Y-124739400D03*
X89357200Y-124739400D03*
X90627200Y-123469400D03*
X89357200Y-123469400D03*
X90627200Y-122199400D03*
X89357200Y-122199400D03*
%TD*%
D33*
%TO.C,U9*%
X111261200Y-116865400D03*
X111261200Y-118135400D03*
X111261200Y-119405400D03*
X111261200Y-120675400D03*
X111261200Y-121945400D03*
X111261200Y-123215400D03*
X111261200Y-124485400D03*
X116221200Y-124485400D03*
X116221200Y-123215400D03*
X116221200Y-121945400D03*
X116221200Y-120675400D03*
X116221200Y-119405400D03*
X116221200Y-118135400D03*
X116221200Y-116865400D03*
%TD*%
D32*
%TO.C,H6*%
X199263000Y-148971000D03*
%TD*%
D42*
%TO.C,Q1*%
X99329199Y-109378750D03*
X100279200Y-109378750D03*
X101229201Y-109378750D03*
X101229201Y-106826050D03*
X99329199Y-106826050D03*
%TD*%
D21*
%TO.C,R22*%
X123238200Y-132486400D03*
X124818200Y-132486400D03*
%TD*%
%TO.C,R20*%
X111864200Y-128422400D03*
X110284200Y-128422400D03*
%TD*%
%TO.C,R21*%
X123111200Y-134391400D03*
X124691200Y-134391400D03*
%TD*%
%TO.C,R30*%
X143431200Y-136042400D03*
X145011200Y-136042400D03*
%TD*%
D12*
%TO.C,C22*%
X155270200Y-114110400D03*
X155270200Y-115810400D03*
%TD*%
D43*
%TO.C,U12*%
X94744057Y-123076058D03*
X94744057Y-123726056D03*
X94744057Y-124376058D03*
X94744057Y-125026056D03*
X94744057Y-125676055D03*
X94744057Y-126326056D03*
X94744057Y-126976055D03*
X94744057Y-127626056D03*
X100624157Y-127626056D03*
X100624157Y-126976058D03*
X100624157Y-126326056D03*
X100624157Y-125676058D03*
X100624157Y-125026059D03*
X100624157Y-124376058D03*
X100624157Y-123726059D03*
X100624157Y-123076058D03*
%TD*%
D44*
%TO.C,U15*%
X118440200Y-145110200D03*
X119710200Y-145110200D03*
X120980200Y-145110200D03*
X122250200Y-145110200D03*
X122250200Y-140182600D03*
X120980200Y-140182600D03*
X119710200Y-140182600D03*
X118440200Y-140182600D03*
%TD*%
D45*
%TO.C,U4*%
X178295300Y-132613400D03*
X178295300Y-133883400D03*
X178295300Y-135153400D03*
X178295300Y-136423400D03*
X185585100Y-136423400D03*
X185585100Y-135153400D03*
X185585100Y-133883400D03*
X185585100Y-132613400D03*
%TD*%
D32*
%TO.C,H5*%
X90754200Y-148234400D03*
%TD*%
D21*
%TO.C,R19*%
X108562200Y-125882400D03*
X106982200Y-125882400D03*
%TD*%
D17*
%TO.C,C18*%
X111240200Y-111023400D03*
X112940200Y-111023400D03*
%TD*%
D26*
%TO.C,R13*%
X177114200Y-120322400D03*
X177114200Y-118742400D03*
%TD*%
%TO.C,R10*%
X194005200Y-149405400D03*
X194005200Y-147825400D03*
%TD*%
D17*
%TO.C,C13*%
X150381600Y-129946400D03*
X152081600Y-129946400D03*
%TD*%
D12*
%TO.C,C23*%
X166801800Y-137629000D03*
X166801800Y-135929000D03*
%TD*%
D46*
%TO.C,R33*%
X115900200Y-144363400D03*
X115900200Y-142453400D03*
%TD*%
D47*
%TO.C,D8*%
X182562208Y-124068799D03*
X182562208Y-125018800D03*
X182562208Y-125968801D03*
X185294104Y-125968801D03*
X185294104Y-124068799D03*
%TD*%
D21*
%TO.C,R28*%
X131549200Y-127533400D03*
X129969200Y-127533400D03*
%TD*%
D12*
%TO.C,J2*%
X159334200Y-111951400D03*
X159334200Y-113651400D03*
%TD*%
D26*
%TO.C,R37*%
X112979200Y-138864400D03*
X112979200Y-137284400D03*
%TD*%
D21*
%TO.C,R25*%
X118920200Y-123469400D03*
X120500200Y-123469400D03*
%TD*%
D17*
%TO.C,C26*%
X174967000Y-120396000D03*
X173267000Y-120396000D03*
%TD*%
D48*
%TO.C,P7*%
X134991700Y-108682900D03*
D49*
X131031700Y-108682900D03*
%TD*%
D50*
%TO.C,D1*%
X182944200Y-142688400D03*
X181444200Y-142688400D03*
X181444200Y-141588400D03*
X182944200Y-141588400D03*
%TD*%
D17*
%TO.C,C11*%
X174916200Y-118516400D03*
X173216200Y-118516400D03*
%TD*%
D51*
%TO.C,P11*%
X130251200Y-146011900D03*
D52*
X126751199Y-146011900D03*
%TD*%
D17*
%TO.C,C12*%
X150381600Y-128092200D03*
X152081600Y-128092200D03*
%TD*%
D12*
%TO.C,C19*%
X183972200Y-118936400D03*
X183972200Y-120636400D03*
%TD*%
D17*
%TO.C,C32*%
X136552200Y-137566400D03*
X138252200Y-137566400D03*
%TD*%
D53*
%TO.C,P17*%
X120061200Y-149250400D03*
D54*
X118811200Y-149250400D03*
X117561200Y-149250400D03*
X116311200Y-149250400D03*
%TD*%
D21*
%TO.C,R23*%
X107038200Y-117754400D03*
X105458200Y-117754400D03*
%TD*%
D28*
%TO.C,U10*%
X133765200Y-123483400D03*
X133765200Y-121183400D03*
D29*
X127965200Y-121183400D03*
D28*
X133765200Y-118883400D03*
%TD*%
D21*
%TO.C,R36*%
X137462200Y-134899400D03*
X139042200Y-134899400D03*
%TD*%
D55*
%TO.C,P2*%
X99517200Y-100990400D03*
D56*
X104597200Y-100990400D03*
X109677200Y-100990400D03*
X114757200Y-100990400D03*
X119837200Y-100990400D03*
X124917200Y-100990400D03*
%TD*%
D57*
%TO.C,Y1*%
X146768200Y-122290000D03*
X144468200Y-122290000D03*
X144468200Y-124090000D03*
X146768200Y-124090000D03*
%TD*%
D17*
%TO.C,C31*%
X152437200Y-141249400D03*
X150737200Y-141249400D03*
%TD*%
D21*
%TO.C,R11*%
X116380200Y-107975400D03*
X117960200Y-107975400D03*
%TD*%
D17*
%TO.C,C33*%
X146468200Y-120142000D03*
X144768200Y-120142000D03*
%TD*%
D21*
%TO.C,R12*%
X118087200Y-111023400D03*
X116507200Y-111023400D03*
%TD*%
D58*
%TO.C,U14*%
X147359200Y-135504400D03*
X147359200Y-136154400D03*
X147359200Y-136804400D03*
X147359200Y-137454400D03*
X147359200Y-138104400D03*
D59*
X148509200Y-139254400D03*
X149159200Y-139254400D03*
X149809200Y-139254400D03*
X150459200Y-139254400D03*
X151109200Y-139254400D03*
D58*
X152259200Y-138104400D03*
X152259200Y-137454400D03*
X152259200Y-136804400D03*
X152259200Y-136154400D03*
X152259200Y-135504400D03*
D59*
X151109200Y-134354400D03*
X150459200Y-134354400D03*
X149809200Y-134354400D03*
X149159200Y-134354400D03*
X148509200Y-134354400D03*
D60*
X149809200Y-136804400D03*
D61*
X148809200Y-135804400D03*
X149809200Y-135804400D03*
X150809200Y-135804400D03*
X148809200Y-136804400D03*
X149809200Y-136804400D03*
X150809200Y-136804400D03*
X148809200Y-137804400D03*
X149809200Y-137804400D03*
X150809200Y-137804400D03*
%TD*%
D11*
%TO.C,C28*%
X124028200Y-121767600D03*
X124028200Y-124409200D03*
%TD*%
D21*
%TO.C,R15*%
X172895200Y-141503400D03*
X174475200Y-141503400D03*
%TD*%
%TO.C,R35*%
X181460200Y-130200400D03*
X179880200Y-130200400D03*
%TD*%
D32*
%TO.C,H4*%
X188569600Y-98907600D03*
%TD*%
D21*
%TO.C,R26*%
X118920200Y-121437400D03*
X120500200Y-121437400D03*
%TD*%
D62*
%TO.C,P6*%
X150492200Y-145326400D03*
D63*
X152492200Y-145326400D03*
X154492200Y-145326400D03*
X156492200Y-145326400D03*
%TD*%
D23*
%TO.C,C29*%
X96001200Y-132867400D03*
X101001200Y-132867400D03*
%TD*%
D64*
%TO.C,U5*%
X180108600Y-126772800D03*
X180108600Y-126272800D03*
X180108600Y-125772800D03*
X180108600Y-125272800D03*
X180108600Y-124772800D03*
X180108600Y-124272800D03*
X180108600Y-123772800D03*
D65*
X179018600Y-122682800D03*
X178518600Y-122682800D03*
X178018600Y-122682800D03*
X177518600Y-122682800D03*
X177018600Y-122682800D03*
X176518600Y-122682800D03*
X176018600Y-122682800D03*
D64*
X174928600Y-123772800D03*
X174928600Y-124272800D03*
X174928600Y-124772800D03*
X174928600Y-125272800D03*
X174928600Y-125772800D03*
X174928600Y-126272800D03*
X174928600Y-126772800D03*
D65*
X176018600Y-127862800D03*
X176518600Y-127862800D03*
X177018600Y-127862800D03*
X177518600Y-127862800D03*
X178018600Y-127862800D03*
X178518600Y-127862800D03*
X179018600Y-127862800D03*
D66*
X177518600Y-125272800D03*
%TD*%
D43*
%TO.C,U13*%
X94617057Y-115710058D03*
X94617057Y-116360056D03*
X94617057Y-117010058D03*
X94617057Y-117660056D03*
X94617057Y-118310055D03*
X94617057Y-118960056D03*
X94617057Y-119610055D03*
X94617057Y-120260056D03*
X100497157Y-120260056D03*
X100497157Y-119610058D03*
X100497157Y-118960056D03*
X100497157Y-118310058D03*
X100497157Y-117660059D03*
X100497157Y-117010058D03*
X100497157Y-116360059D03*
X100497157Y-115710058D03*
%TD*%
D21*
%TO.C,R24*%
X107038200Y-119659400D03*
X105458200Y-119659400D03*
%TD*%
%TO.C,R31*%
X147114200Y-131851400D03*
X148694200Y-131851400D03*
%TD*%
D67*
%TO.C,P18*%
X182905400Y-150266400D03*
D68*
X185445400Y-150266400D03*
X187985400Y-150266400D03*
X190525400Y-150266400D03*
%TD*%
D69*
%TO.C,U11*%
X106187199Y-109296200D03*
X107137200Y-109296200D03*
X108087201Y-109296200D03*
X108087201Y-106908600D03*
X106187199Y-106908600D03*
%TD*%
D12*
%TO.C,C34*%
X142062200Y-124040000D03*
X142062200Y-122340000D03*
%TD*%
D55*
%TO.C,P10*%
X91262200Y-106705400D03*
D56*
X91262200Y-111785400D03*
%TD*%
D21*
%TO.C,R6*%
X103172200Y-112547400D03*
X104752200Y-112547400D03*
%TD*%
M02*
